<svg width="15" height="15" viewBox="0 0 15 15" fill="none" xmlns="http://www.w3.org/2000/svg">
<rect width="1.5" height="6.75" transform="matrix(4.37114e-08 1 1 -4.37114e-08 5.24976 4.5)" fill="#3362AB"/>
<rect width="1.5" height="1.5" transform="matrix(4.37114e-08 1 1 -4.37114e-08 3.00024 4.5)" fill="#3362AB"/>
<rect width="1.5" height="6.75" transform="matrix(4.37114e-08 1 1 -4.37114e-08 5.24976 6.75)" fill="#3362AB"/>
<rect width="1.5" height="1.5" transform="matrix(4.37114e-08 1 1 -4.37114e-08 3.00024 6.75)" fill="#3362AB"/>
<rect width="1.5" height="6.75" transform="matrix(4.37114e-08 1 1 -4.37114e-08 5.24976 9)" fill="#3362AB"/>
<rect width="1.5" height="1.5" transform="matrix(4.37114e-08 1 1 -4.37114e-08 3.00024 9)" fill="#3362AB"/>
<rect x="0.375" y="0.375" width="14.25" height="14.25" rx="0.375" stroke="#3362AB" stroke-width="0.75"/>
</svg>
