<svg width="21" height="21" viewBox="0 0 21 21" fill="none" xmlns="http://www.w3.org/2000/svg">
<path d="M18.814 3.49909H16.4806V5.24909C16.4806 5.41762 16.4474 5.5845 16.3829 5.7402C16.3184 5.8959 16.2239 6.03738 16.1047 6.15654C15.9856 6.27571 15.8441 6.37024 15.6884 6.43474C15.5327 6.49923 15.3658 6.53242 15.1973 6.53242C15.0288 6.53242 14.8619 6.49923 14.7062 6.43474C14.5505 6.37024 14.409 6.27571 14.2898 6.15654C14.1707 6.03738 14.0761 5.8959 14.0116 5.7402C13.9471 5.5845 13.914 5.41762 13.914 5.24909V3.49909H7.11812V5.24909C7.11812 5.58945 6.98291 5.91587 6.74224 6.15654C6.50157 6.39722 6.17515 6.53242 5.83479 6.53242C5.49442 6.53242 5.168 6.39722 4.92733 6.15654C4.68666 5.91587 4.55145 5.58945 4.55145 5.24909V3.49909H2.21812C2.0793 3.49751 1.94157 3.52379 1.81308 3.57636C1.68459 3.62894 1.56795 3.70674 1.47006 3.80518C1.37217 3.90362 1.29501 4.02069 1.24314 4.14947C1.19128 4.27824 1.16577 4.41612 1.16812 4.55492V17.6099C1.1658 17.7463 1.19037 17.8818 1.24042 18.0086C1.29047 18.1355 1.36502 18.2513 1.45982 18.3493C1.55462 18.4474 1.6678 18.5258 1.79291 18.5801C1.91801 18.6344 2.05259 18.6635 2.18895 18.6658H18.814C18.9503 18.6635 19.0849 18.6344 19.21 18.5801C19.3351 18.5258 19.4483 18.4474 19.5431 18.3493C19.6379 18.2513 19.7124 18.1355 19.7625 18.0086C19.8125 17.8818 19.8371 17.7463 19.8348 17.6099V4.55492C19.8371 4.41856 19.8125 4.28308 19.7625 4.15622C19.7124 4.02935 19.6379 3.91359 19.5431 3.81554C19.4483 3.7175 19.3351 3.63908 19.21 3.58479C19.0849 3.53049 18.9503 3.50137 18.814 3.49909ZM5.83479 15.1658H4.66812V13.9991H5.83479V15.1658ZM5.83479 12.2491H4.66812V11.0824H5.83479V12.2491ZM5.83479 9.33242H4.66812V8.16576H5.83479V9.33242ZM9.33479 15.1658H8.16812V13.9991H9.33479V15.1658ZM9.33479 12.2491H8.16812V11.0824H9.33479V12.2491ZM9.33479 9.33242H8.16812V8.16576H9.33479V9.33242ZM12.8348 15.1658H11.6681V13.9991H12.8348V15.1658ZM12.8348 12.2491H11.6681V11.0824H12.8348V12.2491ZM12.8348 9.33242H11.6681V8.16576H12.8348V9.33242ZM16.3348 15.1658H15.1681V13.9991H16.3348V15.1658ZM16.3348 12.2491H15.1681V11.0824H16.3348V12.2491ZM16.3348 9.33242H15.1681V8.16576H16.3348V9.33242Z" fill="#051138"/>
<path d="M5.83333 5.83268C5.98804 5.83268 6.13642 5.77122 6.24581 5.66183C6.35521 5.55243 6.41667 5.40406 6.41667 5.24935V1.74935C6.41667 1.59464 6.35521 1.44627 6.24581 1.33687C6.13642 1.22747 5.98804 1.16602 5.83333 1.16602C5.67862 1.16602 5.53025 1.22747 5.42085 1.33687C5.31146 1.44627 5.25 1.59464 5.25 1.74935V5.24935C5.25 5.40406 5.31146 5.55243 5.42085 5.66183C5.53025 5.77122 5.67862 5.83268 5.83333 5.83268Z" fill="#051138"/>
<path d="M15.1654 5.83268C15.3201 5.83268 15.4684 5.77122 15.5778 5.66183C15.6872 5.55243 15.7487 5.40406 15.7487 5.24935V1.74935C15.7487 1.59464 15.6872 1.44627 15.5778 1.33687C15.4684 1.22747 15.3201 1.16602 15.1654 1.16602C15.0107 1.16602 14.8623 1.22747 14.7529 1.33687C14.6435 1.44627 14.582 1.59464 14.582 1.74935V5.24935C14.582 5.40406 14.6435 5.55243 14.7529 5.66183C14.8623 5.77122 15.0107 5.83268 15.1654 5.83268Z" fill="#051138"/>
</svg>
