<svg width="1440" height="701" viewBox="0 0 1440 701" fill="none" xmlns="http://www.w3.org/2000/svg">
<path opacity="0.5" d="M1715.97 140.876L1717 141.443C1676.47 191.23 1631.14 234.097 1582.3 268.871C1511.09 319.574 1434.31 351.424 1354.12 363.533C1223 383.324 1083.2 350.24 938.617 265.215C747.753 152.976 573.604 118.449 421.024 162.593C353.321 182.179 289.431 217.519 231.128 267.615C183.406 308.618 139.012 359.816 99.175 419.787C52.6821 489.787 13.8141 568.983 -16.3616 655.181C-17.5537 658.59 -18.3486 660.845 -18.7957 661.988L-19.9752 661.658C-19.5282 660.546 -18.746 658.291 -17.5538 654.893C12.6466 568.623 51.5521 489.355 98.0947 419.282C137.981 359.229 182.438 307.959 230.234 266.894C288.686 216.674 352.738 181.262 420.614 161.615C463.63 149.166 508.372 142.956 554.691 142.956C673.096 142.956 801.895 183.538 939.337 264.371C1083.65 349.23 1223.14 382.254 1353.91 362.514C1433.88 350.445 1510.45 318.679 1581.51 268.088C1630.25 233.387 1675.5 190.581 1715.97 140.876Z" fill="url(#paint0_linear_3_914)"/>
<path opacity="0.5" d="M546.272 175.393C666.664 175.393 798.294 217.086 939.337 300.103C1083.56 384.993 1222.99 418.037 1353.74 398.328C1433.73 386.27 1510.34 354.492 1581.43 303.871C1630.21 269.139 1675.49 226.313 1715.97 176.587L1717 177.164C1676.44 226.961 1631.1 269.86 1582.24 304.654C1510.97 355.388 1434.17 387.248 1353.96 399.337C1222.86 419.097 1083.13 385.992 938.617 300.937C744.586 186.73 568.425 150.855 415.001 194.278C349.509 212.823 287.705 246.073 231.302 293.131C184.859 331.869 141.595 380.349 102.677 437.21C33.8693 537.773 -2.83838 637.748 -14.8962 670.607C-16.6968 675.508 -18.0006 679.05 -18.8202 681.048L-20 680.708C-19.1804 678.731 -17.8765 675.199 -16.0883 670.308C-4.01807 637.429 32.7144 537.361 101.597 436.705C140.564 379.772 183.903 331.221 230.421 292.411C286.96 245.249 348.925 211.907 414.591 193.31C456.812 181.355 500.735 175.393 546.272 175.393Z" fill="url(#paint1_linear_3_914)"/>
<path opacity="0.5" d="M547.091 204.637C667.819 204.637 799.201 246.031 939.337 328.44C1083.65 413.299 1223.14 446.323 1353.91 426.583C1433.88 414.514 1510.45 382.748 1581.51 332.157C1630.26 297.445 1675.51 254.64 1715.98 204.935L1717 205.522C1676.47 255.309 1631.14 298.177 1582.3 332.95C1511.07 383.664 1434.31 415.503 1354.12 427.613C1223 447.404 1083.2 414.319 938.617 329.295C746.611 216.386 571.132 180.582 417.075 222.883C351.881 240.78 290.089 272.918 233.413 318.4C186.821 355.79 143.222 402.529 103.807 457.341C34.2043 554.134 -2.85095 648.622 -15.033 679.678C-16.8832 684.405 -18.1125 687.525 -18.8203 689.059L-19.9752 688.688C-19.2799 687.175 -18.0504 684.065 -16.2126 679.359C-4.01819 648.282 33.0743 553.702 102.739 456.815C142.203 401.931 185.877 355.11 232.544 317.659C289.356 272.073 351.309 239.853 416.678 221.905C458.601 210.382 502.113 204.637 547.091 204.637Z" fill="url(#paint2_linear_3_914)"/>
<path d="M1485.82 698.532C1485.82 714.545 1308.84 628.285 1298.96 622.014C1213.58 567.717 1133.26 502.463 1059.51 431.557C918.862 296.333 789.616 135.697 591.859 103.425C389.186 70.3506 171.027 228.341 -4.625 311.944C-3.78052 292.42 -4.64978 -6.10352e-05 -4.33936 -6.10352e-05C-4.32703 -6.10352e-05 1485.82 -6.10352e-05 1485.82 -6.10352e-05C1485.82 -6.10352e-05 1485.82 698.512 1485.82 698.532Z" fill="url(#paint3_linear_3_914)"/>
<path d="M-4.3429 611.263C76.9327 325.155 342.553 98.0498 682.867 20.8516H-4.3429V611.263Z" fill="url(#paint4_linear_3_914)"/>
<path d="M1485.82 565.853C1485.82 578.353 1308.84 511.051 1298.96 506.149C1213.58 463.787 1133.26 412.877 1059.51 357.55C918.862 252.045 789.616 126.717 591.86 101.541C413.736 78.8663 226.474 111.169 59.2159 162.377C37.8198 168.926 16.3864 175.681 -4.35168 183.599V20.8516H1485.8C1485.82 20.8619 1485.82 565.832 1485.82 565.853Z" fill="url(#paint5_linear_3_914)"/>
<defs>
<linearGradient id="paint0_linear_3_914" x1="2.92932" y1="694.585" x2="1416.74" y2="-289.794" gradientUnits="userSpaceOnUse">
<stop stop-color="#8E9FC6"/>
<stop offset="1" stop-color="white"/>
</linearGradient>
<linearGradient id="paint1_linear_3_914" x1="9.72293" y1="723.384" x2="1415.72" y2="-255.55" gradientUnits="userSpaceOnUse">
<stop stop-color="#8E9FC6"/>
<stop offset="1" stop-color="white"/>
</linearGradient>
<linearGradient id="paint2_linear_3_914" x1="20.4506" y1="746.747" x2="1416.88" y2="-225.528" gradientUnits="userSpaceOnUse">
<stop stop-color="#8E9FC6"/>
<stop offset="1" stop-color="white"/>
</linearGradient>
<linearGradient id="paint3_linear_3_914" x1="740.596" y1="700.511" x2="740.596" y2="-6.10352e-05" gradientUnits="userSpaceOnUse">
<stop stop-color="#EDF6FF" stop-opacity="0"/>
<stop offset="1" stop-color="#D7ECFE"/>
</linearGradient>
<linearGradient id="paint4_linear_3_914" x1="339.262" y1="611.263" x2="339.262" y2="20.8516" gradientUnits="userSpaceOnUse">
<stop stop-color="#EDF6FF" stop-opacity="0"/>
<stop offset="1" stop-color="#D7ECFE"/>
</linearGradient>
<linearGradient id="paint5_linear_3_914" x1="740.732" y1="567.398" x2="740.732" y2="20.8516" gradientUnits="userSpaceOnUse">
<stop stop-color="#EDF6FF" stop-opacity="0"/>
<stop offset="1" stop-color="#D7ECFE"/>
</linearGradient>
</defs>
</svg>
