<svg width="14" height="13" viewBox="0 0 14 13" fill="none" xmlns="http://www.w3.org/2000/svg">
<path d="M4.43232 0.31665L2.53232 0.949984L0.632324 2.21665V6.33332L4.11566 9.81665L6.96566 12.0333L11.399 8.23332L12.9823 5.69998V2.84998L11.7157 0.949984L9.18233 0.633317L7.28232 2.21665L6.64899 1.58332L4.43232 0.31665Z" fill="#EB5757"/>
<path d="M6.96667 12.6666C6.76831 12.6666 6.57707 12.5932 6.42803 12.4598C5.86516 11.9569 5.32248 11.4843 4.84369 11.0674L4.84125 11.0652C3.43752 9.84286 2.22535 8.78727 1.38194 7.74743C0.439137 6.58495 0 5.48276 0 4.27868C0 3.10882 0.392577 2.02955 1.10534 1.23954C1.8266 0.440185 2.81628 -6.10352e-05 3.89239 -6.10352e-05C4.69668 -6.10352e-05 5.43325 0.259764 6.08159 0.772135C6.40879 1.03076 6.70537 1.34729 6.96667 1.7165C7.22807 1.34729 7.52455 1.03076 7.85185 0.772135C8.50019 0.259764 9.23677 -6.10352e-05 10.0411 -6.10352e-05C11.1171 -6.10352e-05 12.1068 0.440185 12.8281 1.23954C13.5409 2.02955 13.9333 3.10882 13.9333 4.27868C13.9333 5.48276 13.4943 6.58495 12.5515 7.74732C11.7081 8.78727 10.496 9.84275 9.09251 11.065C8.61287 11.4825 8.06935 11.9559 7.5052 12.46C7.35627 12.5932 7.16492 12.6666 6.96667 12.6666ZM3.89239 0.833941C3.04696 0.833941 2.27031 1.17871 1.70531 1.80481C1.13191 2.44036 0.816087 3.31889 0.816087 4.27868C0.816087 5.29137 1.18443 6.19706 2.01029 7.21529C2.80852 8.19951 3.99582 9.23338 5.37053 10.4305L5.37308 10.4327C5.85368 10.8512 6.39848 11.3257 6.9655 11.8323C7.53592 11.3247 8.08157 10.8495 8.56312 10.4303C9.93773 9.23316 11.1249 8.19951 11.9231 7.21529C12.7489 6.19706 13.1172 5.29137 13.1172 4.27868C13.1172 3.31889 12.8014 2.44036 12.228 1.80481C11.6631 1.17871 10.8864 0.833941 10.0411 0.833941C9.42173 0.833941 8.85312 1.03511 8.35105 1.4318C7.90362 1.78547 7.59194 2.23256 7.40921 2.54539C7.31523 2.70626 7.14983 2.80229 6.96667 2.80229C6.78351 2.80229 6.6181 2.70626 6.52413 2.54539C6.3415 2.23256 6.02982 1.78547 5.58228 1.4318C5.08022 1.03511 4.5116 0.833941 3.89239 0.833941Z" fill="#EB5757"/>
</svg>
