<svg width="15" height="15" viewBox="0 0 15 15" fill="none" xmlns="http://www.w3.org/2000/svg">
<path d="M12.2662 0.600098H2.53695C1.43848 0.600098 0.601562 1.43702 0.601562 2.53548V12.2647C0.601562 13.3632 1.43848 14.2001 2.53695 14.2001H12.2662C13.3646 14.2001 14.2016 13.3632 14.2016 12.2647V2.53548C14.2016 1.43702 13.3646 0.600098 12.2662 0.600098ZM7.40156 11.4801C9.65079 11.4801 11.4816 9.70164 11.4816 7.55702C11.4816 7.19087 11.4293 6.77241 11.3246 6.45856H12.4754V12.0032C12.4754 12.2647 12.2662 12.5263 11.9523 12.5263H2.8508C2.58926 12.5263 2.32772 12.317 2.32772 12.0032V6.40625H3.5308C3.42618 6.7724 3.37387 7.13856 3.37387 7.50471C3.32156 9.70164 5.15233 11.4801 7.40156 11.4801ZM7.40156 9.91087C5.93695 9.91087 4.78618 8.7601 4.78618 7.34779C4.78618 5.93548 5.93695 4.78471 7.40156 4.78471C8.86618 4.78471 10.0169 5.93548 10.0169 7.34779C10.0169 8.81241 8.86618 9.91087 7.40156 9.91087ZM12.4231 4.31394C12.4231 4.62779 12.1616 4.88933 11.8477 4.88933H10.3831C10.0693 4.88933 9.80772 4.62779 9.80772 4.31394V2.90164C9.80772 2.58779 10.0693 2.32625 10.3831 2.32625H11.8477C12.1616 2.32625 12.4231 2.58779 12.4231 2.90164V4.31394Z" fill="white"/>
</svg>
