<svg width="41" height="50" viewBox="0 0 41 50" fill="none" xmlns="http://www.w3.org/2000/svg">
<path d="M34.6786 39L33.2037 33.9473H25.5532L24.062 39H18L25.8612 16H33.1388L41 39H34.6786ZM29.3136 20.8773L26.704 29.7394H32.0366L29.4433 20.8773H29.3136Z" fill="#F1F1F1"/>
<path d="M26.1305 11.5322L4.63867 18.4655V40.9634L6.24819 19.3853L26.1305 11.5322Z" fill="url(#paint0_linear_1962_16321)"/>
<path d="M12.1184 49.948L27.7402 44.5711V34.8079L26.1307 43.6514L12.1184 49.948Z" fill="url(#paint1_linear_1962_16321)"/>
<path d="M24.3321 8.70215L0 15.5647V31.483L1.60952 16.4844L24.3321 8.70215Z" fill="url(#paint2_linear_1962_16321)"/>
<path d="M32.0015 0L4.73438 7.42854V14.2911L6.34389 8.34827L32.0015 0Z" fill="url(#paint3_linear_1962_16321)"/>
<defs>
<linearGradient id="paint0_linear_1962_16321" x1="5.5018" y1="40.9634" x2="33.4788" y2="20.1219" gradientUnits="userSpaceOnUse">
<stop stop-color="#00C2FF"/>
<stop offset="1" stop-color="#FFC24B"/>
</linearGradient>
<linearGradient id="paint1_linear_1962_16321" x1="12.0208" y1="49.112" x2="26.9574" y2="35.2757" gradientUnits="userSpaceOnUse">
<stop stop-color="white"/>
<stop offset="1" stop-color="white" stop-opacity="0"/>
</linearGradient>
<linearGradient id="paint2_linear_1962_16321" x1="24.4298" y1="9.33495" x2="2.34171" y2="33.114" gradientUnits="userSpaceOnUse">
<stop stop-color="#E4FF00"/>
<stop offset="1" stop-color="#FF0000"/>
</linearGradient>
<linearGradient id="paint3_linear_1962_16321" x1="5.85648" y1="14.0489" x2="32.7614" y2="11.6417" gradientUnits="userSpaceOnUse">
<stop stop-color="white"/>
<stop offset="1" stop-color="white" stop-opacity="0"/>
</linearGradient>
</defs>
</svg>
