<svg width="24" height="13" viewBox="0 0 24 13" fill="none" xmlns="http://www.w3.org/2000/svg">
<g clip-path="url(#clip0_1831_43062)">
<path d="M7.74742 5.08911C7.80822 5.08551 7.86822 5.07991 7.92982 5.07991C7.99822 5.07991 8.06502 5.08591 8.13222 5.09031C8.12702 5.00711 8.11942 4.92471 8.11942 4.84031C8.11942 4.65391 8.13702 4.47151 8.16262 4.29191C8.08502 4.28711 8.00822 4.27991 7.92942 4.27991C7.85742 4.27991 7.78702 4.28671 7.71582 4.29071C7.74142 4.47071 7.75942 4.65311 7.75942 4.83991C7.75982 4.92391 7.75262 5.00631 7.74742 5.08911Z" fill="#F3D55B"/>
<path d="M6.9297 5.25002C6.9477 5.11562 6.9601 4.97922 6.9601 4.84002C6.9601 4.69562 6.9465 4.55482 6.9273 4.41602C5.3505 4.83882 4.1701 6.22922 4.0625 7.91082C4.3473 7.89402 4.6213 7.83922 4.8805 7.75002C5.0369 6.58362 5.8465 5.62362 6.9297 5.25002Z" fill="#F3D55B"/>
<path d="M7.93015 11.2399C6.37575 11.2399 5.09055 10.0819 4.88295 8.5839C4.62895 8.6519 4.36535 8.6943 4.09375 8.7091C4.36215 10.5887 5.97775 12.0399 7.93015 12.0399C9.88295 12.0399 11.4989 10.5883 11.7669 8.7083C11.4957 8.6919 11.2321 8.6487 10.9785 8.5791C10.7729 10.0795 9.48615 11.2399 7.93015 11.2399Z" fill="#F3D55B"/>
<path d="M8.95192 4.42078C8.93312 4.55838 8.91992 4.69758 8.91992 4.83998C8.91992 4.98198 8.93312 5.12078 8.95152 5.25758C10.0215 5.63558 10.8207 6.58678 10.9783 7.74238C11.2375 7.83398 11.5119 7.89118 11.7975 7.90998C11.6899 6.23558 10.5187 4.84958 8.95192 4.42078Z" fill="#F3D55B"/>
<path d="M15.0521 5.23239C15.0685 5.10359 15.0801 4.97319 15.0801 4.83999C15.0801 4.69199 15.0661 4.54719 15.0457 4.40479C13.4469 4.81359 12.2453 6.21519 12.1377 7.91319C12.4209 7.90079 12.6945 7.85199 12.9529 7.76759C13.1057 6.57599 13.9397 5.59559 15.0521 5.23239Z" fill="#24AE5F"/>
<path d="M17.0748 5.27521C18.1156 5.66241 18.8904 6.59481 19.0512 7.72481C19.3108 7.82121 19.586 7.88441 19.8728 7.90761C19.7652 6.24961 18.6152 4.87401 17.0704 4.43201C17.0524 4.56601 17.04 4.70121 17.04 4.84001C17.0404 4.98801 17.0544 5.13241 17.0748 5.27521Z" fill="#24AE5F"/>
<path d="M16.0049 11.24C14.4545 11.24 13.1717 10.0876 12.9593 8.59519C12.7045 8.66039 12.4405 8.69999 12.1689 8.71159C12.4381 10.59 14.0533 12.04 16.0053 12.04C17.9589 12.04 19.5757 10.5872 19.8425 8.70599C19.5713 8.68679 19.3081 8.64039 19.0553 8.56799C18.8541 10.0736 17.5645 11.24 16.0049 11.24Z" fill="#24AE5F"/>
<path d="M15.8677 5.08671C15.9137 5.08471 15.9589 5.07991 16.0053 5.07991C16.0889 5.07991 16.1709 5.08591 16.2529 5.09231C16.2473 5.00831 16.2401 4.92511 16.2401 4.83991C16.2401 4.65391 16.2577 4.47271 16.2833 4.29391C16.1913 4.28751 16.0993 4.27991 16.0057 4.27991C15.9485 4.27991 15.8933 4.28591 15.8369 4.28831C15.8629 4.46911 15.8809 4.65231 15.8809 4.83991C15.8801 4.92311 15.8729 5.00471 15.8677 5.08671Z" fill="#24AE5F"/>
<path d="M7.74721 5.08911C7.46241 5.10591 7.18841 5.16071 6.92921 5.24991C6.77321 6.41631 5.96321 7.37631 4.88001 7.74991C4.86201 7.88431 4.84961 8.02071 4.84961 8.15991C4.84961 8.30431 4.86321 8.44511 4.88241 8.58391C6.45881 8.16111 7.63961 6.77071 7.74721 5.08911Z" fill="#0096E6"/>
<path d="M4.0628 7.91076C4.002 7.91436 3.9416 7.91996 3.88 7.91996C2.1816 7.91996 0.8 6.53836 0.8 4.83996C0.8 3.14156 2.1816 1.75996 3.88 1.75996C5.4344 1.75996 6.7196 2.91796 6.9272 4.41596C7.1812 4.34796 7.4448 4.30556 7.7164 4.29076C7.448 2.41116 5.8324 0.959961 3.88 0.959961C1.7404 0.959961 0 2.70076 0 4.83996C0 6.97916 1.7408 8.71996 3.88 8.71996C3.952 8.71996 4.0224 8.71316 4.0936 8.70916C4.068 8.52916 4.05 8.34677 4.05 8.15997C4.05 8.07596 4.0572 7.99356 4.0628 7.91076Z" fill="#0096E6"/>
<path d="M4.8502 8.16C4.8502 8.0208 4.8626 7.8844 4.8806 7.75C4.6218 7.8392 4.3474 7.894 4.0626 7.9108C4.0574 7.9936 4.0498 8.076 4.0498 8.16C4.0498 8.3468 4.0678 8.5292 4.0934 8.7092C4.365 8.6944 4.6286 8.652 4.8826 8.584C4.8638 8.4448 4.8502 8.304 4.8502 8.16Z" fill="#F3D55B"/>
<path d="M6.96013 4.83997C6.96013 4.97917 6.94773 5.11557 6.92973 5.24997C7.18853 5.16077 7.46293 5.10597 7.74773 5.08917C7.75293 5.00637 7.76053 4.92397 7.76053 4.83997C7.76053 4.65317 7.74253 4.47077 7.71693 4.29077C7.44533 4.30557 7.18173 4.34797 6.92773 4.41597C6.94693 4.55517 6.96013 4.69597 6.96013 4.83997Z" fill="#0096E6"/>
<path d="M11.9999 1.75996C13.5503 1.75996 14.8331 2.91236 15.0455 4.40476C15.3003 4.33956 15.5643 4.29996 15.8359 4.28836C15.5667 2.40996 13.9515 0.959961 11.9999 0.959961C10.0471 0.959961 8.43109 2.41156 8.16309 4.29156C8.43429 4.30796 8.69789 4.35116 8.95149 4.42076C9.15749 2.92036 10.4439 1.75996 11.9999 1.75996Z" fill="#38454F"/>
<path d="M15.8672 5.08679C15.584 5.09919 15.3104 5.14799 15.052 5.23239C14.8996 6.42399 14.0656 7.40439 12.9528 7.76759C12.9364 7.89639 12.9248 8.02679 12.9248 8.15999C12.9248 8.30799 12.9388 8.45279 12.9592 8.59519C14.558 8.18599 15.7596 6.78479 15.8672 5.08679Z" fill="#38454F"/>
<path d="M12.138 7.91315C12.092 7.91515 12.0468 7.91995 12.0004 7.91995C11.932 7.91995 11.8652 7.91395 11.798 7.90955C11.8032 7.99275 11.8108 8.07515 11.8108 8.15955C11.8108 8.34595 11.7932 8.52835 11.7676 8.70795C11.8452 8.71275 11.922 8.71995 12.0008 8.71995C12.058 8.71995 12.1132 8.71395 12.1696 8.71155C12.1436 8.53075 12.1256 8.34755 12.1256 8.15995C12.1252 8.07675 12.1328 7.99515 12.138 7.91315Z" fill="#38454F"/>
<path d="M8.95201 5.25757C8.69281 5.16597 8.41841 5.10877 8.13281 5.08997C8.24041 6.76437 9.41161 8.14997 10.9784 8.57877C10.9972 8.44117 11.0104 8.30197 11.0104 8.15957C11.0104 8.01757 10.9972 7.87877 10.9788 7.74197C9.90881 7.36437 9.10961 6.41317 8.95201 5.25757Z" fill="#38454F"/>
<path d="M11.7971 7.90991C11.5115 7.89111 11.2371 7.83391 10.9779 7.74231C10.9967 7.87911 11.0095 8.01791 11.0095 8.15991C11.0095 8.30231 10.9963 8.44151 10.9775 8.57912C11.2311 8.64872 11.4947 8.69191 11.7659 8.70831C11.7915 8.52871 11.8091 8.34671 11.8091 8.15991C11.8095 8.07551 11.8023 7.99271 11.7971 7.90991Z" fill="#38454F"/>
<path d="M8.13213 5.0899C8.41773 5.1087 8.69213 5.1659 8.95133 5.2575C8.93253 5.1207 8.91973 4.9819 8.91973 4.8399C8.91973 4.6975 8.93293 4.5583 8.95173 4.4207C8.69813 4.3511 8.43453 4.3079 8.16333 4.2915C8.13773 4.4711 8.12013 4.6531 8.12013 4.8399C8.11973 4.9243 8.12693 5.0071 8.13213 5.0899Z" fill="#F3D55B"/>
<path d="M12.9246 8.15998C12.9246 8.02678 12.9358 7.89638 12.9526 7.76758C12.6942 7.85198 12.4206 7.90078 12.1374 7.91318C12.1322 7.99518 12.125 8.07678 12.125 8.15998C12.125 8.34758 12.143 8.53078 12.169 8.71158C12.441 8.69998 12.705 8.66038 12.9594 8.59518C12.939 8.45238 12.9246 8.30798 12.9246 8.15998Z" fill="#24AE5F"/>
<path d="M15.0797 4.83993C15.0797 4.97313 15.0685 5.10353 15.0517 5.23233C15.3101 5.14793 15.5837 5.09913 15.8669 5.08673C15.8721 5.00473 15.8793 4.92313 15.8793 4.83993C15.8793 4.65233 15.8613 4.46913 15.8353 4.28833C15.5633 4.29993 15.2993 4.33953 15.0449 4.40473C15.0657 4.54753 15.0797 4.69193 15.0797 4.83993Z" fill="#38454F"/>
<path d="M20.1204 0.959961C18.1668 0.959961 16.55 2.41276 16.2832 4.29396C16.5544 4.31316 16.8176 4.35956 17.0704 4.43196C17.2712 2.92636 18.5604 1.75996 20.1204 1.75996C21.8188 1.75996 23.2004 3.14156 23.2004 4.83996C23.2004 6.53836 21.8188 7.91996 20.1204 7.91996C20.0368 7.91996 19.9548 7.91396 19.8728 7.90756C19.8784 7.99156 19.8856 8.07477 19.8856 8.15997C19.8856 8.34596 19.868 8.52716 19.8424 8.70596C19.9344 8.71236 20.0264 8.71996 20.12 8.71996C22.2596 8.71996 24 6.97916 24 4.83996C24 2.70076 22.2596 0.959961 20.1204 0.959961Z" fill="#E64C3C"/>
<path d="M17.0745 5.27521C16.8149 5.17881 16.5397 5.11561 16.2529 5.09241C16.3605 6.75041 17.5105 8.12601 19.0553 8.56801C19.0733 8.43401 19.0857 8.29881 19.0857 8.16001C19.0857 8.01201 19.0717 7.86761 19.0513 7.72481C18.0101 7.33761 17.2353 6.40521 17.0745 5.27521Z" fill="#E64C3C"/>
<path d="M19.8724 7.90753C19.5856 7.88473 19.3104 7.82153 19.0508 7.72473C19.0712 7.86713 19.0852 8.01193 19.0852 8.15993C19.0852 8.29874 19.0728 8.43393 19.0548 8.56794C19.3076 8.64034 19.5708 8.68674 19.842 8.70594C19.8672 8.52714 19.8852 8.34554 19.8852 8.15993C19.8852 8.07473 19.878 7.99153 19.8724 7.90753Z" fill="#E64C3C"/>
<path d="M16.253 5.09234C16.5398 5.11514 16.815 5.17834 17.0746 5.27514C17.0542 5.13234 17.0402 4.98794 17.0402 4.83994C17.0402 4.70114 17.0526 4.56594 17.0706 4.43194C16.8178 4.35954 16.5546 4.31315 16.2834 4.29395C16.2582 4.47274 16.2402 4.65434 16.2402 4.83994C16.2402 4.92514 16.2474 5.00834 16.253 5.09234Z" fill="#24AE5F"/>
</g>
<defs>
<clipPath id="clip0_1831_43062">
<rect width="24" height="12" fill="white" transform="translate(0 0.5)"/>
</clipPath>
</defs>
</svg>
