<svg width="1440" height="708" viewBox="0 0 1440 708" fill="none" xmlns="http://www.w3.org/2000/svg">
<path opacity="0.5" d="M-239.985 565.054L-241 564.482C-201.074 514.213 -156.427 470.931 -108.319 435.82C-38.1675 384.626 37.4635 352.468 116.446 340.241C245.605 320.258 383.314 353.664 525.732 439.511C713.739 552.838 885.282 587.699 1035.58 543.127C1102.27 523.352 1165.2 487.67 1222.63 437.089C1269.64 395.688 1313.37 343.995 1352.61 283.443C1398.41 212.764 1436.69 132.802 1466.42 45.7688C1467.59 42.3275 1468.37 40.0505 1468.81 38.8965L1469.98 39.2291C1469.54 40.352 1468.76 42.6289 1467.59 46.0599C1437.84 133.165 1399.52 213.201 1353.67 283.952C1314.38 344.587 1270.59 396.354 1223.51 437.817C1165.93 488.522 1102.84 524.278 1035.98 544.115C993.609 556.685 949.537 562.954 903.911 562.954C787.278 562.954 660.407 521.98 525.022 440.364C382.873 354.683 245.47 321.34 116.654 341.271C37.8794 353.456 -37.5437 385.53 -107.536 436.611C-155.547 471.648 -200.12 514.868 -239.985 565.054Z" fill="url(#paint0_linear_1831_57656)"/>
<path opacity="0.5" d="M912.205 530.203C793.615 530.203 663.954 488.106 525.022 404.286C382.959 318.574 245.617 285.21 116.825 305.11C38.0262 317.284 -37.4336 349.369 -107.462 400.481C-155.51 435.55 -200.108 478.79 -239.985 528.997L-241 528.415C-201.05 478.136 -156.391 434.822 -108.257 399.691C-38.0574 348.465 37.5981 316.297 116.605 304.091C245.739 284.139 383.387 317.565 525.732 403.444C716.858 518.756 890.382 554.979 1041.51 511.135C1106.02 492.411 1166.9 458.839 1222.46 411.325C1268.21 372.212 1310.82 323.263 1349.16 265.851C1416.94 164.314 1453.1 63.3705 1464.97 30.1939C1466.75 25.2449 1468.03 21.6684 1468.84 19.6514L1470 19.9944C1469.19 21.9906 1467.91 25.5568 1466.15 30.4953C1454.26 63.6927 1418.07 164.73 1350.22 266.36C1311.84 323.845 1269.15 372.867 1223.33 412.053C1167.64 459.671 1106.6 493.336 1041.91 512.113C1000.32 524.184 957.06 530.203 912.205 530.203Z" fill="url(#paint1_linear_1831_57656)"/>
<path opacity="0.5" d="M911.397 500.676C792.477 500.676 663.061 458.88 525.022 375.674C382.873 289.992 245.47 256.65 116.654 276.581C37.8794 288.766 -37.5437 320.84 -107.536 371.92C-155.559 406.968 -200.133 450.189 -239.997 500.375L-241 499.782C-201.074 449.513 -156.427 406.23 -108.319 371.12C-38.1553 319.915 37.4635 287.768 116.446 275.541C245.605 255.558 383.314 288.963 525.732 374.811C714.864 488.813 887.716 524.963 1039.47 482.253C1103.69 464.183 1164.55 431.734 1220.38 385.811C1266.27 348.059 1309.22 300.868 1348.05 245.525C1416.61 147.794 1453.11 52.3913 1465.11 21.0341C1466.93 16.2619 1468.14 13.1116 1468.84 11.5625L1469.98 11.9368C1469.29 13.4651 1468.08 16.6051 1466.27 21.3565C1454.26 52.7344 1417.72 148.23 1349.1 246.055C1310.22 301.471 1267.2 348.746 1221.24 386.559C1165.27 432.586 1104.25 465.119 1039.86 483.241C998.563 494.875 955.702 500.676 911.397 500.676Z" fill="url(#paint2_linear_1831_57656)"/>
<path d="M-13.2754 1.99748C-13.2754 -14.1698 161.056 72.9253 170.781 79.2571C254.889 134.08 334.006 199.965 406.652 271.559C545.193 408.091 672.504 570.284 867.3 602.868C1066.94 636.263 1281.83 476.742 1454.86 392.33C1454.02 412.042 1454.88 707.295 1454.58 707.295C1454.56 707.295 -13.2754 707.295 -13.2754 707.295C-13.2754 707.295 -13.2754 2.01827 -13.2754 1.99748Z" fill="url(#paint3_linear_1831_57656)"/>
<path d="M1454.58 90.1113C1374.52 378.99 1112.87 608.295 777.652 686.241H1454.58V90.1113Z" fill="url(#paint4_linear_1831_57656)"/>
<path d="M-13.2754 135.963C-13.2754 123.341 161.056 191.295 170.781 196.244C254.889 239.017 334.006 290.419 406.652 346.282C545.193 452.809 672.504 579.35 867.3 604.771C1042.76 627.665 1227.22 595.05 1391.97 543.346C1413.05 536.733 1434.16 529.913 1454.59 521.918V686.242H-13.2632C-13.2754 686.231 -13.2754 135.983 -13.2754 135.963Z" fill="url(#paint5_linear_1831_57656)"/>
<defs>
<linearGradient id="paint0_linear_1831_57656" x1="1447.41" y1="5.98354" x2="32.4776" y2="967.09" gradientUnits="userSpaceOnUse">
<stop stop-color="#8E9FC6"/>
<stop offset="1" stop-color="white"/>
</linearGradient>
<linearGradient id="paint1_linear_1831_57656" x1="1440.72" y1="-23.0947" x2="33.6125" y2="932.695" gradientUnits="userSpaceOnUse">
<stop stop-color="#8E9FC6"/>
<stop offset="1" stop-color="white"/>
</linearGradient>
<linearGradient id="paint2_linear_1831_57656" x1="1430.15" y1="-46.6841" x2="32.6168" y2="902.604" gradientUnits="userSpaceOnUse">
<stop stop-color="#8E9FC6"/>
<stop offset="1" stop-color="white"/>
</linearGradient>
<linearGradient id="paint3_linear_1831_57656" x1="720.791" y1="0" x2="720.791" y2="707.295" gradientUnits="userSpaceOnUse">
<stop stop-color="#EDF6FF" stop-opacity="0"/>
<stop offset="1" stop-color="#D7ECFE"/>
</linearGradient>
<linearGradient id="paint4_linear_1831_57656" x1="1116.11" y1="90.1113" x2="1116.11" y2="686.241" gradientUnits="userSpaceOnUse">
<stop stop-color="#EDF6FF" stop-opacity="0"/>
<stop offset="1" stop-color="#D7ECFE"/>
</linearGradient>
<linearGradient id="paint5_linear_1831_57656" x1="720.656" y1="134.402" x2="720.656" y2="686.242" gradientUnits="userSpaceOnUse">
<stop stop-color="#EDF6FF" stop-opacity="0"/>
<stop offset="1" stop-color="#D7ECFE"/>
</linearGradient>
</defs>
</svg>
