<svg width="1440" height="701" viewBox="0 0 1440 701" fill="none" xmlns="http://www.w3.org/2000/svg">
<path opacity="0.5" d="M1706.97 140.876L1708 141.443C1667.47 191.23 1622.14 234.097 1573.3 268.871C1502.09 319.574 1425.31 351.424 1345.12 363.533C1214 383.324 1074.2 350.24 929.617 265.215C738.753 152.976 564.604 118.449 412.024 162.593C344.321 182.179 280.431 217.519 222.128 267.615C174.406 308.618 130.012 359.816 90.175 419.787C43.6821 489.787 4.81409 568.983 -25.3616 655.181C-26.5537 658.59 -27.3486 660.845 -27.7957 661.988L-28.9752 661.658C-28.5282 660.546 -27.746 658.291 -26.5538 654.893C3.64661 568.623 42.5521 489.355 89.0947 419.282C128.981 359.229 173.438 307.959 221.234 266.894C279.686 216.674 343.738 181.262 411.614 161.615C454.63 149.166 499.372 142.956 545.691 142.956C664.096 142.956 792.895 183.538 930.337 264.371C1074.65 349.23 1214.14 382.254 1344.91 362.514C1424.88 350.445 1501.45 318.679 1572.51 268.088C1621.25 233.387 1666.5 190.581 1706.97 140.876Z" fill="url(#paint0_linear_1140_30336)"/>
<path opacity="0.5" d="M537.272 175.393C657.664 175.393 789.294 217.086 930.337 300.103C1074.56 384.993 1213.99 418.037 1344.74 398.328C1424.73 386.27 1501.34 354.492 1572.43 303.871C1621.21 269.139 1666.49 226.313 1706.97 176.587L1708 177.164C1667.44 226.961 1622.1 269.86 1573.24 304.654C1501.97 355.388 1425.17 387.248 1344.96 399.337C1213.86 419.097 1074.13 385.992 929.617 300.937C735.586 186.73 559.425 150.855 406.001 194.278C340.509 212.823 278.705 246.073 222.302 293.131C175.859 331.869 132.595 380.349 93.6771 437.21C24.8693 537.773 -11.8384 637.748 -23.8962 670.607C-25.6968 675.508 -27.0006 679.05 -27.8202 681.048L-29 680.708C-28.1804 678.731 -26.8765 675.199 -25.0883 670.308C-13.0181 637.429 23.7144 537.361 92.5968 436.705C131.564 379.772 174.903 331.221 221.421 292.411C277.96 245.249 339.925 211.907 405.591 193.31C447.812 181.355 491.735 175.393 537.272 175.393Z" fill="url(#paint1_linear_1140_30336)"/>
<path opacity="0.5" d="M538.091 204.637C658.819 204.637 790.201 246.031 930.337 328.44C1074.65 413.299 1214.14 446.323 1344.91 426.583C1424.88 414.514 1501.45 382.748 1572.51 332.157C1621.26 297.445 1666.51 254.64 1706.98 204.935L1708 205.522C1667.47 255.309 1622.14 298.177 1573.3 332.95C1502.07 383.664 1425.31 415.503 1345.12 427.613C1214 447.404 1074.2 414.319 929.617 329.295C737.611 216.386 562.132 180.582 408.075 222.883C342.881 240.78 281.089 272.918 224.413 318.4C177.821 355.79 134.222 402.529 94.807 457.341C25.2043 554.134 -11.851 648.622 -24.033 679.678C-25.8832 684.405 -27.1125 687.525 -27.8203 689.059L-28.9752 688.688C-28.2799 687.175 -27.0504 684.065 -25.2126 679.359C-13.0182 648.282 24.0743 553.702 93.7391 456.815C133.203 401.931 176.877 355.11 223.544 317.659C280.356 272.073 342.309 239.853 407.678 221.905C449.601 210.382 493.113 204.637 538.091 204.637Z" fill="url(#paint2_linear_1140_30336)"/>
<path d="M1476.82 698.532C1476.82 714.545 1299.84 628.285 1289.96 622.014C1204.58 567.717 1124.26 502.463 1050.51 431.557C909.862 296.333 780.616 135.697 582.859 103.425C380.186 70.3506 162.027 228.341 -13.625 311.944C-12.7805 292.42 -13.6498 -6.10352e-05 -13.3394 -6.10352e-05C-13.327 -6.10352e-05 1476.82 -6.10352e-05 1476.82 -6.10352e-05C1476.82 -6.10352e-05 1476.82 698.512 1476.82 698.532Z" fill="url(#paint3_linear_1140_30336)"/>
<path d="M-13.3429 611.263C67.9327 325.155 333.553 98.0498 673.867 20.8516H-13.3429V611.263Z" fill="url(#paint4_linear_1140_30336)"/>
<path d="M1476.82 565.853C1476.82 578.353 1299.84 511.051 1289.96 506.149C1204.58 463.787 1124.26 412.877 1050.51 357.55C909.862 252.045 780.616 126.717 582.86 101.541C404.736 78.8663 217.474 111.169 50.2159 162.377C28.8198 168.926 7.38635 175.681 -13.3517 183.599V20.8516H1476.8C1476.82 20.8619 1476.82 565.832 1476.82 565.853Z" fill="url(#paint5_linear_1140_30336)"/>
<defs>
<linearGradient id="paint0_linear_1140_30336" x1="-6.07068" y1="694.585" x2="1407.74" y2="-289.794" gradientUnits="userSpaceOnUse">
<stop stop-color="#8E9FC6"/>
<stop offset="1" stop-color="white"/>
</linearGradient>
<linearGradient id="paint1_linear_1140_30336" x1="0.722929" y1="723.384" x2="1406.72" y2="-255.55" gradientUnits="userSpaceOnUse">
<stop stop-color="#8E9FC6"/>
<stop offset="1" stop-color="white"/>
</linearGradient>
<linearGradient id="paint2_linear_1140_30336" x1="11.4506" y1="746.747" x2="1407.88" y2="-225.528" gradientUnits="userSpaceOnUse">
<stop stop-color="#8E9FC6"/>
<stop offset="1" stop-color="white"/>
</linearGradient>
<linearGradient id="paint3_linear_1140_30336" x1="731.596" y1="700.511" x2="731.596" y2="-6.10352e-05" gradientUnits="userSpaceOnUse">
<stop stop-color="#EDF6FF" stop-opacity="0"/>
<stop offset="1" stop-color="#D7ECFE"/>
</linearGradient>
<linearGradient id="paint4_linear_1140_30336" x1="330.262" y1="611.263" x2="330.262" y2="20.8516" gradientUnits="userSpaceOnUse">
<stop stop-color="#EDF6FF" stop-opacity="0"/>
<stop offset="1" stop-color="#D7ECFE"/>
</linearGradient>
<linearGradient id="paint5_linear_1140_30336" x1="731.732" y1="567.398" x2="731.732" y2="20.8516" gradientUnits="userSpaceOnUse">
<stop stop-color="#EDF6FF" stop-opacity="0"/>
<stop offset="1" stop-color="#D7ECFE"/>
</linearGradient>
</defs>
</svg>
