<svg width="502" height="172" viewBox="0 0 502 172" fill="none" xmlns="http://www.w3.org/2000/svg">
<path d="M475.359 171.085H135.292C131.433 171.085 127.61 170.341 124.033 168.893L111.506 163.821L98.9561 168.897C95.3819 170.342 91.5626 171.085 87.7071 171.085H26.641C12.4799 171.085 1 159.606 1 145.444V26.641C1 12.4799 12.4799 1 26.641 1H88.4573C91.9198 1 95.3561 1.5994 98.6141 2.77166L111.506 7.41026L124.398 2.77166C127.656 1.59941 131.092 1 134.555 1H475.359C489.52 1 501 12.4799 501 26.641V145.444C501 159.606 489.52 171.085 475.359 171.085Z" fill="white" stroke="#BDBDBD"/>
<path d="M90.7428 148.008L24.0762 148.008L24.0762 143.681L90.7428 143.681L90.7428 148.008ZM90.6954 141.552L24.0762 141.552L24.0762 139.354L90.6954 139.354L90.6954 141.552ZM90.6954 135.027L24.0762 135.027L24.0762 132.898L90.6954 132.898L90.6954 135.027ZM90.6954 124.244L24.0762 124.244L24.0762 122.115L90.6954 122.115L90.6954 124.244ZM90.6954 115.59L24.0762 115.59L24.0762 111.332L90.6954 111.332L90.6954 115.59ZM90.6954 104.807L24.0762 104.807L24.0762 102.678L90.6954 102.678L90.6954 104.807ZM90.6954 100.48L24.0762 100.48L24.0762 98.3513L90.6954 98.3513L90.6954 100.48ZM90.6954 96.1535L24.0762 96.1535L24.0762 94.0244L90.6954 94.0244L90.6954 96.1535ZM90.6954 87.5681L24.0762 87.5681L24.0762 83.2412L90.6954 83.2412L90.6954 87.5681ZM90.6954 76.7852L24.0762 76.7852L24.0762 72.4583L90.6954 72.4583L90.6954 76.7852ZM90.6954 68.1316L24.0762 68.1316L24.0762 63.8044L90.6954 63.8044L90.6954 68.1316ZM90.6954 59.4775L24.0762 59.4775L24.0762 55.1504L90.6954 55.1504L90.6954 59.4775ZM90.6954 53.0215L24.0762 53.0215L24.0762 48.6946L90.6954 48.6946L90.6954 53.0215ZM90.6954 42.1698L24.0762 42.1698L24.0762 35.7138L90.6954 35.7138L90.6954 42.1698ZM90.6954 33.5847L24.0762 33.5847L24.0762 31.3869L90.6954 31.3869L90.6954 33.5847ZM90.7428 29.2578L24.0762 29.2578L24.0762 24.9309L90.7428 24.9309L90.7428 29.2578Z" fill="black"/>
<path d="M228.704 91.7128L227.35 86.9722H220.329L218.96 91.7128H213.396L220.611 70.1336H227.291L234.506 91.7128H228.704ZM223.78 74.7097L221.385 83.0243H226.279L223.899 74.7097H223.78Z" fill="#051138"/>
<path d="M246.823 91.7128H236.574V70.1336H246.555C248.668 70.1336 250.324 70.6122 251.524 71.5692C252.724 72.5263 253.324 73.8423 253.324 75.5172C253.324 76.7135 252.922 77.7504 252.119 78.6277C251.326 79.505 250.329 80.0284 249.129 80.1979V80.3176C250.597 80.3873 251.827 80.9107 252.818 81.8878C253.82 82.8648 254.321 84.0661 254.321 85.4918C254.321 87.386 253.641 88.8964 252.283 90.0229C250.934 91.1495 249.114 91.7128 246.823 91.7128ZM242.033 74.0218V78.9268H244.845C245.836 78.9268 246.61 78.7075 247.165 78.2688C247.731 77.8202 248.013 77.207 248.013 76.4294C248.013 75.6717 247.755 75.0835 247.24 74.6648C246.734 74.2361 246.025 74.0218 245.112 74.0218H242.033ZM242.033 87.8246H245.276C246.407 87.8246 247.27 87.5854 247.865 87.1068C248.47 86.6183 248.772 85.9205 248.772 85.0132C248.772 84.1359 248.465 83.458 247.85 82.9794C247.235 82.5009 246.367 82.2616 245.246 82.2616H242.033V87.8246Z" fill="#051138"/>
<path d="M258.888 72.7656C260.802 70.7617 263.385 69.7598 266.638 69.7598C269.891 69.7598 272.47 70.7617 274.374 72.7656C276.278 74.7695 277.23 77.4912 277.23 80.9307C277.23 84.3702 276.278 87.0919 274.374 89.0958C272.47 91.0897 269.891 92.0866 266.638 92.0866C263.375 92.0866 260.792 91.0897 258.888 89.0958C256.984 87.0919 256.032 84.3702 256.032 80.9307C256.032 77.4912 256.984 74.7695 258.888 72.7656ZM270.298 76.0406C269.385 74.8243 268.166 74.2162 266.638 74.2162C265.111 74.2162 263.886 74.8243 262.964 76.0406C262.051 77.2469 261.595 78.8769 261.595 80.9307C261.595 82.9744 262.051 84.6045 262.964 85.8208C263.876 87.0271 265.101 87.6302 266.638 87.6302C268.166 87.6302 269.385 87.0271 270.298 85.8208C271.22 84.6045 271.681 82.9744 271.681 80.9307C271.681 78.8769 271.22 77.2469 270.298 76.0406Z" fill="#051138"/>
<path d="M285.07 91.7128H279.893V70.1336H284.252L293.356 82.6803H293.475V70.1336H298.652V91.7128H294.338L285.189 79.0464H285.07V91.7128Z" fill="#051138"/>
<path d="M316.622 87.2863V91.7128H301.91V70.1336H316.622V74.5601H307.369V78.852H316.072V82.8897H307.369V87.2863H316.622Z" fill="#051138"/>
<path d="M343.265 91.7128H338.46V78.2389H338.356L333.045 91.4885H329.921L324.626 78.2389H324.507V91.7128H319.702V70.1336H326.009L331.424 83.9963H331.543L336.958 70.1336H343.265V91.7128Z" fill="#051138"/>
<path d="M361.221 87.2863V91.7128H346.508V70.1336H361.221V74.5601H351.968V78.852H360.671V82.8897H351.968V87.2863H361.221Z" fill="#051138"/>
<path d="M369.477 91.7128H364.3V70.1336H368.659L377.763 82.6803H377.882V70.1336H383.059V91.7128H378.745L369.596 79.0464H369.477V91.7128Z" fill="#051138"/>
<path d="M396.745 91.7128H391.301V74.5601H385.38V70.1336H402.666V74.5601H396.745V91.7128Z" fill="#051138"/>
<path d="M407.516 91.0997C406.98 91.638 406.33 91.9072 405.567 91.9072C404.803 91.9072 404.154 91.638 403.618 91.0997C403.082 90.5513 402.815 89.8933 402.815 89.1257C402.815 88.358 403.082 87.705 403.618 87.1667C404.154 86.6183 404.803 86.3442 405.567 86.3442C406.33 86.3442 406.98 86.6183 407.516 87.1667C408.061 87.705 408.334 88.358 408.334 89.1257C408.334 89.8933 408.061 90.5513 407.516 91.0997Z" fill="#051138"/>
<path d="M421.886 91.7128H411.636V70.1336H421.618C423.731 70.1336 425.387 70.6122 426.587 71.5692C427.787 72.5263 428.387 73.8423 428.387 75.5172C428.387 76.7135 427.985 77.7504 427.182 78.6277C426.388 79.505 425.392 80.0284 424.192 80.1979V80.3176C425.66 80.3873 426.889 80.9107 427.881 81.8878C428.883 82.8648 429.384 84.0661 429.384 85.4918C429.384 87.386 428.704 88.8964 427.345 90.0229C425.997 91.1495 424.177 91.7128 421.886 91.7128ZM417.096 74.0218V78.9268H419.907C420.899 78.9268 421.673 78.7075 422.228 78.2688C422.793 77.8202 423.076 77.207 423.076 76.4294C423.076 75.6717 422.818 75.0835 422.302 74.6648C421.797 74.2361 421.088 74.0218 420.175 74.0218H417.096ZM417.096 87.8246H420.339C421.469 87.8246 422.332 87.5854 422.927 87.1068C423.532 86.6183 423.835 85.9205 423.835 85.0132C423.835 84.1359 423.527 83.458 422.912 82.9794C422.298 82.5009 421.43 82.2616 420.309 82.2616H417.096V87.8246Z" fill="#051138"/>
<path d="M442.668 91.7128H437.208V84.2954L429.815 70.1336H435.676L439.946 79.1062H440.05L444.304 70.1336H450.061L442.668 84.2954V91.7128Z" fill="#051138"/>
<path d="M205.555 63.5977L176.502 72.9704V103.384L178.678 74.2137L205.555 63.5977Z" fill="url(#paint0_linear_1872_36801)"/>
<path d="M186.614 115.529L207.732 108.261V95.0624L205.557 107.017L186.614 115.529Z" fill="url(#paint1_linear_1872_36801)"/>
<path d="M203.124 59.7725L170.23 69.0495V90.5685L172.406 70.2928L203.124 59.7725Z" fill="url(#paint2_linear_1872_36801)"/>
<path d="M213.49 48.0078L176.629 58.05V67.3271L178.805 59.2933L213.49 48.0078Z" fill="url(#paint3_linear_1872_36801)"/>
<line x1="112.256" y1="16.3848" x2="112.256" y2="154.846" stroke="#BDBDBD" stroke-width="2" stroke-dasharray="5 5"/>
<defs>
<linearGradient id="paint0_linear_1872_36801" x1="177.669" y1="103.384" x2="215.489" y2="75.2096" gradientUnits="userSpaceOnUse">
<stop stop-color="#00C2FF"/>
<stop offset="1" stop-color="#FFC24B"/>
</linearGradient>
<linearGradient id="paint1_linear_1872_36801" x1="186.529" y1="114.961" x2="206.413" y2="94.2824" gradientUnits="userSpaceOnUse">
<stop stop-color="#E4FF00"/>
<stop offset="1" stop-color="#FF0000"/>
</linearGradient>
<linearGradient id="paint2_linear_1872_36801" x1="203.256" y1="60.6279" x2="173.396" y2="92.7733" gradientUnits="userSpaceOnUse">
<stop stop-color="#E4FF00"/>
<stop offset="1" stop-color="#FF0000"/>
</linearGradient>
<linearGradient id="paint3_linear_1872_36801" x1="178.146" y1="66.9996" x2="214.517" y2="63.7455" gradientUnits="userSpaceOnUse">
<stop stop-color="white"/>
<stop offset="1" stop-color="white" stop-opacity="0"/>
</linearGradient>
</defs>
</svg>
