<svg width="358" height="499" viewBox="0 0 358 499" fill="none" xmlns="http://www.w3.org/2000/svg">
<g opacity="0.7">
<path d="M130.492 118.95L152.541 119.595L118.659 95.3271L130.492 118.95Z" fill="#005F93"/>
<path d="M152.541 119.596L168.836 121.825V107.777L152.541 119.596Z" fill="#005F93"/>
<path d="M152.541 119.595L118.659 95.3271L168.836 107.776L152.541 119.595Z" fill="#0966A3"/>
<path d="M130.492 118.95L152.541 119.595L132.723 141.62L130.492 118.95Z" fill="#0D68A1"/>
<path d="M130.491 118.95L118.659 95.3271L132.723 141.62L130.491 118.95Z" fill="#157EB7"/>
<path d="M191.193 120.916L168.836 121.825V107.777L191.193 120.916Z" fill="#146EAA"/>
<path d="M191.194 120.915L168.836 121.824L191.811 129.596L191.194 120.915Z" fill="#005F93"/>
<path d="M147.036 91.2217L118.659 95.3275L168.836 107.777L147.036 91.2217Z" fill="#146EAA"/>
<path d="M147.036 91.2217L165.871 92.0722L168.836 107.777L147.036 91.2217Z" fill="#157EB7"/>
<path d="M147.035 91.2222L141.647 81.207L165.869 92.0727L147.035 91.2222Z" fill="#30A8DA"/>
<path d="M184.498 108.877L165.869 92.0723L168.834 107.777L184.498 108.877Z" fill="#238BC8"/>
<path d="M184.499 108.877L191.193 120.916L168.836 107.777L184.499 108.877Z" fill="#157EB7"/>
<path d="M184.5 108.877L192.838 104.39L165.871 92.0723L184.5 108.877Z" fill="#30A8DA"/>
<path d="M184.499 108.877L191.193 120.916L201.836 108.687L184.499 108.877Z" fill="#238BC8"/>
<path d="M147.035 91.2222L118.659 95.328L141.648 81.207L147.035 91.2222Z" fill="#157EB7"/>
<path d="M122.447 85.1075L118.659 95.328L141.648 81.207L122.447 85.1075Z" fill="#238BC8"/>
<path d="M122.447 85.1071L121.581 78.7578L141.648 81.2066L122.447 85.1071Z" fill="#30A8DA"/>
<path d="M122.447 85.1071L118.66 95.3276L121.581 78.7578L122.447 85.1071Z" fill="#157EB7"/>
<path d="M117.059 118.408L118.659 95.3271L132.723 141.62L117.059 118.408Z" fill="#146EAA"/>
<path d="M117.059 118.408L104.405 138.395L132.723 141.621L117.059 118.408Z" fill="#005F93"/>
<path d="M143.116 160.742L152.541 119.596L132.723 141.62L143.116 160.742Z" fill="#157EB7"/>
<path d="M191.193 120.915L201.836 117.132L191.809 129.596L191.193 120.915Z" fill="#146EAA"/>
<path d="M191.193 120.916L201.836 117.133V108.687L191.193 120.916Z" fill="#157EB7"/>
<path d="M215.973 119.874L201.836 117.132L214.314 142.602L215.973 119.874Z" fill="#30A8DA"/>
<path d="M208.72 252.888L209.865 247.374L180.153 268.299L208.72 252.888Z" fill="#30A8DA"/>
<path d="M386.307 226.801L395.834 215.862L354.891 215.627L386.307 226.801Z" fill="#30A8DA"/>
<path d="M173.943 405.652L169.172 396.092L150.176 402.573L173.943 405.652Z" fill="#30A8DA"/>
<path d="M314.873 465.744L300.56 460.611L295.422 476.741L314.873 465.744Z" fill="#30A8DA"/>
<path d="M197.975 158.732L201.836 117.132L205.389 138.878L197.975 158.732Z" fill="#157EB7"/>
<path d="M197.976 158.732L203.114 174.129L214.314 142.603L197.976 158.732Z" fill="#238BC8"/>
<path d="M191.369 147.192L201.836 117.132L191.809 129.596L191.369 147.192Z" fill="#157EB7"/>
<path d="M191.369 147.192L201.836 117.132L197.975 158.732L191.369 147.192Z" fill="#146EAA"/>
<path d="M191.369 147.192L188.477 177.355L197.975 158.733L191.369 147.192Z" fill="#157EB7"/>
<path d="M203.113 174.129L188.477 177.355L197.975 158.732L203.113 174.129Z" fill="#146EAA"/>
<path d="M203.113 174.13L198.049 190.45L194.129 181.887L203.113 174.13Z" fill="#146EAA"/>
<path d="M188.477 177.355L198.049 190.45L194.129 181.887L188.477 177.355Z" fill="#238BC8"/>
<path d="M188.477 177.355L198.049 190.45L174.796 191.916L188.477 177.355Z" fill="#30A8DA"/>
<path d="M197.799 208.046L198.049 190.45L183.604 207.548L197.799 208.046Z" fill="#238BC8"/>
<path d="M174.796 191.917L198.049 190.45L183.604 207.548L174.796 191.917Z" fill="#157EB7"/>
<path d="M174.795 191.916L170.157 214.395L183.604 207.547L174.795 191.916Z" fill="#30A8DA"/>
<path d="M190.209 218.311L170.156 214.396L183.603 207.548L190.209 218.311Z" fill="#005F93"/>
<path d="M174.795 191.916L170.156 214.395L168.688 204.131L174.795 191.916Z" fill="#238BC8"/>
<path d="M85.8639 156.724L104.405 138.395L132.723 141.621L85.8639 156.724Z" fill="#024F85"/>
<path d="M85.8634 156.724L104.404 138.395L70.2878 148.278L85.8634 156.724Z" fill="#005F93"/>
<path d="M70.2878 133.174L104.404 138.394L70.2878 148.277V133.174Z" fill="#0D68A1"/>
<path d="M70.2878 133.174L104.404 138.395L91.0014 106.135L70.2878 133.174Z" fill="#157EB7"/>
<path d="M117.058 118.408L104.404 138.394L118.658 95.3271L117.058 118.408Z" fill="#0966A3"/>
<path d="M129.081 192.415L143.115 160.741L132.722 141.62L129.081 192.415Z" fill="#024F85"/>
<path d="M129.081 192.414L143.115 160.741L139.754 181.827L129.081 192.414Z" fill="#0D68A1"/>
<path d="M118.658 95.3271L104.404 138.394L91.001 106.134L118.658 95.3271Z" fill="#238BC8"/>
<path d="M118.659 95.3276L121.58 78.7578L91.0015 106.135L118.659 95.3276Z" fill="#30A8DA"/>
<path d="M94.466 81.4852L121.58 78.7578L91.0015 106.135L94.466 81.4852Z" fill="#238BC8"/>
<path d="M94.4663 81.4848L121.58 78.7574L124.164 60.1494L94.4663 81.4848Z" fill="#157EB7"/>
<path d="M94.4663 81.4848L91.7064 75.5608L124.164 60.1494L94.4663 81.4848Z" fill="#146EAA"/>
<path d="M76.0583 76.4409L91.7072 75.5611L101.602 63.6543L76.0583 76.4409Z" fill="#024F85"/>
<path d="M76.0573 76.4405L103.406 50.7207L101.601 63.6539L76.0573 76.4405Z" fill="#005F93"/>
<path d="M124.164 60.1494L91.7064 75.5608L101.601 63.654L124.164 60.1494Z" fill="#005F93"/>
<path d="M124.164 60.1494L103.406 50.7207L101.601 63.6539L124.164 60.1494Z" fill="#146EAA"/>
<path d="M124.163 60.1498L103.406 50.7211L132.311 35.1191L124.163 60.1498Z" fill="#005F93"/>
<path d="M99.4872 36.8197L103.407 50.7208L106.783 32.626L99.4872 36.8197Z" fill="#30A8DA"/>
<path d="M113.096 37.6702L103.407 50.7208L106.783 32.626L113.096 37.6702Z" fill="#157EB7"/>
<path d="M113.094 37.6706L103.406 50.7211L132.311 35.1191L113.094 37.6706Z" fill="#146EAA"/>
<path d="M76.0573 76.4405L103.406 50.7207L71.8295 64.2698L76.0573 76.4405Z" fill="#157EB7"/>
<path d="M99.4867 36.8203L103.406 50.7213L71.8295 64.2704L99.4867 36.8203Z" fill="#238BC8"/>
<path d="M99.4863 36.8203L69.6418 55.4723L71.8291 64.2704L99.4863 36.8203Z" fill="#157EB7"/>
<path d="M70.6543 40.7793L69.6414 55.4722L66.72 55.3842L70.6543 40.7793Z" fill="#30A8DA"/>
<path d="M70.6552 40.7793L69.6423 55.4722L80.1973 40.7646L70.6552 40.7793Z" fill="#238BC8"/>
<path d="M99.4863 36.8203L69.6418 55.4723L80.1967 40.7648L99.4863 36.8203Z" fill="#30A8DA"/>
<path d="M99.4863 36.8198L90.5902 27.875L80.1967 40.7642L99.4863 36.8198Z" fill="#238BC8"/>
<path d="M79.4036 32.67L90.5898 27.875L80.1963 40.7642L79.4036 32.67Z" fill="#157EB7"/>
<path d="M79.4046 32.6699L70.6552 40.7789L80.1973 40.7642L79.4046 32.6699Z" fill="#146EAA"/>
<path d="M79.4043 32.6699L70.655 40.7789L70.9339 33.2418L79.4043 32.6699Z" fill="#024F85"/>
<path d="M79.4037 32.67L90.5898 27.875L70.9333 33.2418L79.4037 32.67Z" fill="#238BC8"/>
<path d="M78.0384 23.9746L90.5898 27.8751L70.9333 33.242L78.0384 23.9746Z" fill="#146EAA"/>
<path d="M78.0391 23.9751L73.2387 17.8457L70.9339 33.2424L78.0391 23.9751Z" fill="#238BC8"/>
<path d="M78.0382 23.9746L73.2379 17.8453L87.0371 8.76855L78.0382 23.9746Z" fill="#157EB7"/>
<path d="M78.0384 23.9746L90.5898 27.8751L87.0373 8.76855L78.0384 23.9746Z" fill="#005F93"/>
<path d="M99.4872 36.8198L90.5911 27.875L106.783 32.626L99.4872 36.8198Z" fill="#005F93"/>
<path d="M113.094 37.6702L132.311 35.1188L106.782 32.626L113.094 37.6702Z" fill="#005F93"/>
<path d="M126.35 18.4609L132.311 35.1187L106.782 32.6259L126.35 18.4609Z" fill="#146EAA"/>
<path d="M106.782 32.626L108.896 7.88867L113.623 17.2733L106.782 32.626Z" fill="#005F93"/>
<path d="M90.5905 27.8751L108.896 7.88867L106.783 32.626L90.5905 27.8751Z" fill="#146EAA"/>
<path d="M90.5905 27.8751L108.896 7.88867L93.9962 16.0563L90.5905 27.8751Z" fill="#005F93"/>
<path d="M90.5903 27.8751L87.0377 8.76855L93.9961 16.0563L90.5903 27.8751Z" fill="#146EAA"/>
<path d="M108.896 7.88867L87.0379 8.76848L93.9962 16.0563L108.896 7.88867Z" fill="#30A8DA"/>
<path d="M156.725 28.0957L132.312 35.1195L154.772 39.7972L156.725 28.0957Z" fill="#0D68A1"/>
<path d="M156.725 28.0957L132.312 35.1195L130.477 30.0166L156.725 28.0957Z" fill="#024F85"/>
<path d="M156.725 28.0952L147.461 21.9219L130.477 30.0161L156.725 28.0952Z" fill="#005F93"/>
<path d="M232.723 25.8368L223.548 12.6396L219.878 15.9389L232.723 25.8368Z" fill="#005F93"/>
<path d="M238.493 119.038L238.596 116.076L230.111 116.575L238.493 119.038Z" fill="#005F93"/>
<path d="M197.301 278.372L197.286 267.697L174.635 278.46L197.301 278.372Z" fill="#005F93"/>
<path d="M275.236 395.725L270.832 371.163L264.549 395.768L275.236 395.725Z" fill="#005F93"/>
<path d="M146.785 440.815L131.371 441.197L128.802 456.212L146.785 440.815Z" fill="#005F93"/>
<path d="M156.724 28.0957L181.02 32.1428L154.772 39.7972L156.724 28.0957Z" fill="#024F85"/>
<path d="M184.279 51.7332L175.398 39.5625L154.772 39.7971L184.279 51.7332Z" fill="#238BC8"/>
<path d="M214.857 6.96484L201.469 7.88865L189.725 21.0858L214.857 6.96484Z" fill="#238BC8"/>
<path d="M146.596 15.5731L143.851 6.23242L135.967 20.1628L146.596 15.5731Z" fill="#238BC8"/>
<path d="M184.279 51.733L155.213 55.2669L154.772 39.7969L184.279 51.733Z" fill="#146EAA"/>
<path d="M132.312 35.1191L155.213 55.2668L154.772 39.7968L132.312 35.1191Z" fill="#005F93"/>
<path d="M184.279 51.7332L175.398 39.5625L190.107 27.2451L184.279 51.7332Z" fill="#157EB7"/>
<path d="M196.33 30.8521L199.751 19.8545L216.633 24.9867L196.33 30.8521Z" fill="#157EB7"/>
<path d="M201.513 100.812L213.345 92.6885L222.506 97.8207L201.513 100.812Z" fill="#157EB7"/>
<path d="M300.06 247.007L313.346 244.676L316.561 258.694L300.06 247.007Z" fill="#157EB7"/>
<path d="M71.462 307.816L94.3041 309.312L100.91 315.09L71.462 307.816Z" fill="#157EB7"/>
<path d="M217.779 176.857L232.048 178.997L238.771 173.851L217.779 176.857Z" fill="#157EB7"/>
<path d="M142.999 188.485L152.775 175.537L155.477 191.183L142.999 188.485Z" fill="#157EB7"/>
<path d="M208.765 216.903L230.932 219.968L216.897 228.092L208.765 216.903Z" fill="#157EB7"/>
<path d="M290.768 186.784L339.711 171.138L326.925 181.593L290.768 186.784Z" fill="#157EB7"/>
<path d="M31.2243 108.51L43.1738 95.4893L39.9883 108.686L31.2243 108.51Z" fill="#157EB7"/>
<path d="M263.374 45.0319L289.52 37.7734L285.879 46.0143L263.374 45.0319Z" fill="#157EB7"/>
<path d="M104.581 359.813L120.348 341.821L117.059 359.813H104.581Z" fill="#157EB7"/>
<path d="M170.861 6.26085L177.144 0.46875L179.771 4.99978L170.861 6.26085Z" fill="#157EB7"/>
<path d="M167.954 22.0099L147.461 21.9219L181.02 32.1424L167.954 22.0099Z" fill="#005F93"/>
<path d="M167.954 22.0099L186.744 16.1885L181.019 32.1424L167.954 22.0099Z" fill="#146EAA"/>
<path d="M167.954 22.0099L186.744 16.1885L147.46 21.9219L167.954 22.0099Z" fill="#30A8DA"/>
<path d="M132.312 35.1191L155.213 55.2668L141.707 51.9675L132.312 35.1191Z" fill="#024F85"/>
<path d="M168.027 64.0652L155.212 55.2671L141.706 51.9678L168.027 64.0652Z" fill="#004772"/>
<path d="M168.028 64.0654L155.213 55.2673L184.279 51.7334L168.028 64.0654Z" fill="#024F85"/>
<path d="M168.029 64.0651L203.188 59.9446L183.399 57.7891L168.029 64.0651Z" fill="#004772"/>
<path d="M168.028 64.0654L184.279 51.7334L183.399 57.7894L168.028 64.0654Z" fill="#005F93"/>
<path d="M203.188 59.945L184.28 51.7334L183.399 57.7894L203.188 59.945Z" fill="#146EAA"/>
<path d="M203.187 59.9442L184.279 51.7326L209.221 49.6504L203.187 59.9442Z" fill="#157EB7"/>
<path d="M209.836 35.5586L196.301 45.955L209.219 49.6502L209.836 35.5586Z" fill="#3EBDE5"/>
<path d="M247.947 91.8818L234.427 102.278L249.914 97.7912L247.947 91.8818Z" fill="#3EBDE5"/>
<path d="M115.958 0L117.763 7.46374L130.682 11.1589L115.958 0Z" fill="#3EBDE5"/>
<path d="M42.3089 83.6699L41.1051 89.0221L49.8984 84.9896L42.3089 83.6699Z" fill="#3EBDE5"/>
<path d="M249.957 30.6611L233.28 31.101L239.931 36.7465L249.957 30.6611Z" fill="#3EBDE5"/>
<path d="M70.2887 133.174L94.4668 81.4854L91.0023 106.135L70.2887 133.174Z" fill="#30A8DA"/>
<path d="M85.8633 156.724L83.6613 170.273L70.2877 148.277L85.8633 156.724Z" fill="#024F85"/>
<path d="M85.8639 156.724L83.6619 170.273L132.723 141.62L85.8639 156.724Z" fill="#0966A3"/>
<path d="M129.082 192.415L111.921 169.921L132.723 141.62L129.082 192.415Z" fill="#0966A3"/>
<path d="M83.6619 170.273L111.921 169.921L132.723 141.62L83.6619 170.273Z" fill="#157EB7"/>
<path d="M83.6619 170.273L111.921 169.921L129.082 192.415L83.6619 170.273Z" fill="#005F93"/>
<path d="M129.081 192.415L155.227 228.927L140.781 198.838L129.081 192.415Z" fill="#238BC8"/>
<path d="M129.081 192.415L155.227 228.927L130.27 230.775L129.081 192.415Z" fill="#157EB7"/>
<path d="M164.035 238.458L155.227 228.927L130.271 230.774L164.035 238.458Z" fill="#30A8DA"/>
<path d="M164.035 238.458L168.439 253.855L130.271 230.774L164.035 238.458Z" fill="#238BC8"/>
<path d="M163.301 270.719L168.439 253.855L149.722 273.299L163.301 270.719Z" fill="#0D68A1"/>
<path d="M99.5459 286.189L168.439 253.855L149.722 273.299L99.5459 286.189Z" fill="#005F93"/>
<path d="M118.527 266.7L168.439 253.855L130.271 230.774L118.527 266.7Z" fill="#157EB7"/>
<path d="M118.527 266.701L168.439 253.855L99.5459 286.189L118.527 266.701Z" fill="#0D68A1"/>
<path d="M163.301 270.718L115.561 287.361L149.722 273.299L163.301 270.718Z" fill="#004772"/>
<path d="M163.301 270.718L149.913 285.557L115.561 287.361L163.301 270.718Z" fill="#024F85"/>
<path d="M151.85 333.933L149.912 285.558L115.56 287.361L151.85 333.933Z" fill="#004772"/>
<path d="M179.816 300.779L149.913 285.558L166.34 282.391L179.816 300.779Z" fill="#005F93"/>
<path d="M179.816 300.778L149.913 285.558L151.851 333.933L179.816 300.778Z" fill="#0966A3"/>
<path d="M179.817 300.778L193.602 334.636L176.514 322.04L179.817 300.778Z" fill="#238BC8"/>
<path d="M179.816 300.778L151.851 333.933L176.513 322.04L179.816 300.778Z" fill="#157EB7"/>
<path d="M169.658 358.582L151.851 333.932L176.514 322.04L169.658 358.582Z" fill="#0966A3"/>
<path d="M169.658 358.582L198.783 347.349L176.514 322.04L169.658 358.582Z" fill="#005F93"/>
<path d="M169.658 358.582L194.863 374.477L174.796 366.163L169.658 358.582Z" fill="#004772"/>
<path d="M169.658 358.582L194.864 374.477L198.783 347.35L169.658 358.582Z" fill="#024F85"/>
<path d="M220.068 355.898L223.488 377.41L198.782 347.35L220.068 355.898Z" fill="#238BC8"/>
<path d="M220.069 355.898L223.489 377.41L245.26 388.407L220.069 355.898Z" fill="#30A8DA"/>
<path d="M194.862 374.477L223.488 377.41L198.782 347.35L194.862 374.477Z" fill="#0966A3"/>
<path d="M194.862 374.478L223.488 377.41L214.196 394.273L194.862 374.478Z" fill="#005F93"/>
<path d="M250.398 409.421L223.49 377.41L214.197 394.273L250.398 409.421Z" fill="#024F85"/>
<path d="M250.398 409.421L223.49 377.41L245.26 388.408L250.398 409.421Z" fill="#0966A3"/>
<path d="M250.398 409.421L272.184 432.633L258.839 410.711L250.398 409.421Z" fill="#238BC8"/>
<path d="M250.397 409.421L251.131 427.266L214.196 394.273L250.397 409.421Z" fill="#005F93"/>
<path d="M250.398 409.421L251.132 427.266L272.184 432.633L250.398 409.421Z" fill="#024F85"/>
<path d="M255.889 443.615L251.132 427.266L272.184 432.632L255.889 443.615Z" fill="#004772"/>
<path d="M271.684 420.418L258.839 410.711L272.184 432.633L271.684 420.418Z" fill="#30A8DA"/>
<path d="M271.683 420.418L289.49 425.198L272.182 432.633L271.683 420.418Z" fill="#3EBDE5"/>
<path d="M283.442 448.088L289.49 425.198L272.182 432.633L283.442 448.088Z" fill="#005F93"/>
<path d="M283.443 448.088L255.889 443.616L272.184 432.633L283.443 448.088Z" fill="#024F85"/>
<path d="M273.166 467.019L258.824 443.616L267.279 482.445L273.166 467.019Z" fill="#238BC8"/>
<path d="M273.167 467.019L255.889 443.616L283.443 448.089L273.167 467.019Z" fill="#005F93"/>
<path d="M273.167 467.019L274.415 483.5L283.443 448.088L273.167 467.019Z" fill="#024F85"/>
<path d="M273.166 467.019L274.414 483.5L264.344 482.445L273.166 467.019Z" fill="#005F93"/>
<path d="M260.615 495.921L274.414 483.501L264.344 482.445L260.615 495.921Z" fill="#024F85"/>
<path d="M260.615 495.921L274.414 483.501L264.432 499L260.615 495.921Z" fill="#005F93"/>
<path d="M274.664 492.842L274.415 483.501L264.432 499L274.664 492.842Z" fill="#004772"/>
<path d="M274.663 492.841L274.413 483.5L286.48 470.699L274.663 492.841Z" fill="#024F85"/>
<path d="M283.442 448.088L274.413 483.5L286.48 470.699L283.442 448.088Z" fill="#005F93"/>
<path d="M296.655 448.088L308.634 444.232L314.961 434.671L296.655 448.088Z" fill="#024F85"/>
<path d="M83.6619 170.273L92.3672 206.17L129.082 192.415L83.6619 170.273Z" fill="#157EB7"/>
<path d="M130.271 230.775L109.807 217.49L129.082 192.415L130.271 230.775Z" fill="#0966A3"/>
<path d="M92.3672 206.169L109.807 217.49L129.082 192.415L92.3672 206.169Z" fill="#005F93"/>
<path d="M92.3667 206.169L109.807 217.489L97.5635 230.98L92.3667 206.169Z" fill="#0966A3"/>
<path d="M130.271 230.774L109.807 217.489L97.5643 230.98L130.271 230.774Z" fill="#157EB7"/>
<path d="M118.527 266.7L97.5643 230.98L130.271 230.774L118.527 266.7Z" fill="#238BC8"/>
<path d="M118.527 266.7L97.5642 230.979L84.3228 236.009L118.527 266.7Z" fill="#30A8DA"/>
<path d="M118.527 266.701L52.5992 270.132L84.3228 236.01L118.527 266.701Z" fill="#238BC8"/>
<path d="M118.527 266.7L52.5992 270.131L99.546 286.188L118.527 266.7Z" fill="#005F93"/>
<path d="M41.0161 258.812L52.5987 270.132L84.3223 236.01L41.0161 258.812Z" fill="#30A8DA"/>
<path d="M55.6956 290.895L52.5981 270.132L99.5449 286.188L55.6956 290.895Z" fill="#0D68A1"/>
<path d="M55.6956 290.895L40.487 302.641L99.5449 286.188L55.6956 290.895Z" fill="#024F85"/>
<path d="M55.6953 290.895L52.5978 270.132L17.6152 307.846L55.6953 290.895Z" fill="#005F93"/>
<path d="M55.6953 290.896L40.4868 302.641L17.6152 307.847L55.6953 290.896Z" fill="#004772"/>
<path d="M12.5798 287.933L52.5977 270.132L17.6151 307.846L12.5798 287.933Z" fill="#238BC8"/>
<path d="M12.5798 287.933L52.5977 270.131L28.2288 266.729L12.5798 287.933Z" fill="#30A8DA"/>
<path d="M41.0151 258.812L52.5977 270.132L28.2288 266.73L41.0151 258.812Z" fill="#238BC8"/>
<path d="M12.5799 287.934L-0.000823975 293.579L17.6152 307.847L12.5799 287.934Z" fill="#157EB7"/>
<path d="M12.5815 287.933L0.000732422 293.578L28.2305 266.729L12.5815 287.933Z" fill="#3EBDE5"/>
<path d="M2.72964 305.69L-0.000823975 293.578L17.6152 307.846L2.72964 305.69Z" fill="#0D68A1"/>
<path d="M2.72973 305.69L31.1797 335.619L17.6153 307.846L2.72973 305.69Z" fill="#005F93"/>
<path d="M40.4883 302.641L31.1811 335.619L17.6168 307.846L40.4883 302.641Z" fill="#024F85"/>
<path d="M40.4868 302.641L72.4453 325.941L42.0723 311.629L40.4868 302.641Z" fill="#004772"/>
<path d="M31.1797 335.619L72.4453 325.941L42.0723 311.63L31.1797 335.619Z" fill="#005F93"/>
<path d="M31.1797 335.619L72.4453 325.941L58.0148 350.048L31.1797 335.619Z" fill="#157EB7"/>
<path d="M85.2168 356.075L72.4451 325.941L71.5203 345.297L85.2168 356.075Z" fill="#004772"/>
<path d="M58.0148 350.048L72.4453 325.941L71.5205 345.297L58.0148 350.048Z" fill="#024F85"/>
<path d="M31.1805 335.619L50.1324 354.726L58.0156 350.048L31.1805 335.619Z" fill="#0D68A1"/>
<path d="M85.2168 356.075L50.1314 354.726L58.0146 350.048L85.2168 356.075Z" fill="#024F85"/>
<path d="M85.2173 356.074L74.633 365.532L101.277 377.982L85.2173 356.074Z" fill="#005F93"/>
<path d="M85.2168 356.075L74.6325 365.533L50.1314 354.726L85.2168 356.075Z" fill="#0D68A1"/>
<path d="M114.254 405.109L74.6324 365.532L101.277 377.982L114.254 405.109Z" fill="#024F85"/>
<path d="M114.255 405.109L116.457 392.102L101.278 377.981L114.255 405.109Z" fill="#004772"/>
<path d="M123.063 405.109L125.265 392.103L137.479 399.478L123.063 405.109Z" fill="#0D68A1"/>
<path d="M114.254 405.109L74.6324 365.533L50.1314 354.726L114.254 405.109Z" fill="#005F93"/>
<path d="M114.254 405.109L83.8221 389.595L50.1314 354.726L114.254 405.109Z" fill="#157EB7"/>
<path d="M114.254 405.11L83.8221 389.596L92.6008 404.684L114.254 405.11Z" fill="#0D68A1"/>
<path d="M114.254 405.11L111.318 428.997L92.6008 404.685L114.254 405.11Z" fill="#005F93"/>
<path d="M140.914 412.134L134.807 407.603L111.319 428.997L140.914 412.134Z" fill="#005F93"/>
<path d="M140.914 412.133L139.813 419.904L111.319 428.996L140.914 412.133Z" fill="#004772"/>
<path d="M85.1438 436.827L111.318 428.997L92.6013 404.685L85.1438 436.827Z" fill="#0D68A1"/>
<path d="M85.1438 436.826L111.318 428.996L72.7539 452.56L85.1438 436.826Z" fill="#238BC8"/>
<path d="M71.462 459.687L111.318 428.996L72.7539 452.56L71.462 459.687Z" fill="#157EB7"/>
<path d="M71.462 459.687L111.318 428.996L88.2266 457.077L71.462 459.687Z" fill="#0D68A1"/>
<path d="M103.773 447.267L111.318 428.996L88.2266 457.077L103.773 447.267Z" fill="#005F93"/>
<path d="M75.5881 176.519L83.6621 170.273L70.2886 148.277L75.5881 176.519Z" fill="#004772"/>
<path d="M75.5879 176.52L62.1997 171.256L56.3423 193.163L75.5879 176.52Z" fill="#024F85"/>
<path d="M75.5879 176.519L62.1997 171.255L70.2884 148.277L75.5879 176.519Z" fill="#005F93"/>
<path d="M51.9977 166.665L62.2004 171.255L70.2891 148.277L51.9977 166.665Z" fill="#157EB7"/>
<path d="M44.1427 192.65L62.1992 171.256L56.3419 193.163L44.1427 192.65Z" fill="#004772"/>
<path d="M44.1427 192.65L62.1992 171.256L51.9966 166.666L44.1427 192.65Z" fill="#024F85"/>
<path d="M44.1426 192.649L28.2881 170.229L37.2136 164.378L44.1426 192.649Z" fill="#004772"/>
<path d="M44.1423 192.649L51.9961 166.665L37.2133 164.378L44.1423 192.649Z" fill="#005F93"/>
<path d="M28.0236 137.881L51.9961 166.665L37.2133 164.378L28.0236 137.881Z" fill="#30A8DA"/>
<path d="M28.0252 137.881L15.7967 141.957L37.2148 164.378L28.0252 137.881Z" fill="#157EB7"/>
<path d="M28.2894 170.229L15.7967 141.958L37.2148 164.379L28.2894 170.229Z" fill="#024F85"/>
<path d="M28.0234 137.882L15.7949 141.958L8.89532 130.491L28.0234 137.882Z" fill="#004772"/>
<path d="M28.0234 137.881L19.6117 111.648L8.89532 130.491L28.0234 137.881Z" fill="#024F85"/>
<path d="M1.7623 121.326L19.6133 111.648L8.89684 130.491L1.7623 121.326Z" fill="#005F93"/>
<path d="M1.76232 121.326L19.6133 111.648L0.74939 110.108L1.76232 121.326Z" fill="#024F85"/>
<path d="M14.7689 96.3545L19.6133 111.649L0.74939 110.109L14.7689 96.3545Z" fill="#157EB7"/>
<path d="M14.7683 96.3545L19.6127 111.649L23.9434 103.745L14.7683 96.3545Z" fill="#30A8DA"/>
<path d="M29.0527 114.698L19.6135 111.648L28.0252 137.881L29.0527 114.698Z" fill="#157EB7"/>
<path d="M197.976 158.732L214.314 142.602L205.389 138.878L197.976 158.732Z" fill="#146EAA"/>
<path d="M106.783 32.6262L126.352 18.4612L113.624 17.2734L106.783 32.6262Z" fill="#024F85"/>
<path d="M270.068 139.509L281.988 139.773L259.88 120.314L270.068 139.509Z" fill="#157EB7"/>
<path d="M245.554 320.515L256.52 320.222L219.907 301.761L245.554 320.515Z" fill="#157EB7"/>
<path d="M327.717 412.954L335.424 415.887L308.633 432.75L327.717 412.954Z" fill="#157EB7"/>
</g>
</svg>
