<?xml version="1.0" encoding="utf-8"?><svg viewBox="0 0 443 535" xmlns="http://www.w3.org/2000/svg" xmlns:xlink="http://www.w3.org/1999/xlink"><style>:root>svg{display:none}:root>svg:target{display:block}</style><svg fill="none" viewBox="0 0 25 8" id="arr-big-r" xmlns="http://www.w3.org/2000/svg"><path d="M24.354 4.274a.5.5 0 000-.707L21.172.385a.5.5 0 10-.707.707l2.828 2.829-2.828 2.828a.5.5 0 10.707.707l3.182-3.182zM0 4.421h24v-1H0v1z" fill="currentColor"/></svg><svg fill="none" viewBox="0 0 16 15" id="arr-btn-r" xmlns="http://www.w3.org/2000/svg"><path d="M1.334 7.561h13.333M8.834 1.728l5.833 5.833-5.833 5.833" stroke="currentColor" stroke-width="2" stroke-linecap="round" stroke-linejoin="round"/></svg><svg fill="none" viewBox="0 0 15 8" id="arr-down" xmlns="http://www.w3.org/2000/svg"><path d="M1 1l6.16 6 6.162-6" stroke="currentColor" stroke-width="2" stroke-linecap="round" stroke-linejoin="round"/></svg><svg fill="none" viewBox="0 0 20 20" id="arr-download" xmlns="http://www.w3.org/2000/svg"><path d="M15.541 7.5h-3.166v-5h-4.75v5H4.458L10 14.167 15.54 7.5zM3.666 15.833h12.667V17.5H3.667v-1.667z" fill="currentColor"/></svg><svg fill="none" viewBox="0 0 8 15" id="arr-left" xmlns="http://www.w3.org/2000/svg"><path d="M7.5 1.334L.833 8.001 7.5 14.667" stroke="#374160" stroke-linecap="round" stroke-linejoin="round"/></svg><svg fill="none" viewBox="0 0 16 10" id="arrow-down-select" xmlns="http://www.w3.org/2000/svg"><path d="M15.055.445H.944c-.423 0-.66.447-.398.752L7.602 9.38c.202.234.59.234.795 0l7.055-8.182c.262-.305.026-.752-.397-.752z" fill="#051138"/></svg><svg fill="none" viewBox="0 0 8 15" id="arrow-right" xmlns="http://www.w3.org/2000/svg"><path d="M1 13.484l6-6.161L1 1.16" stroke="currentColor" stroke-width="2" stroke-linecap="round" stroke-linejoin="round"/></svg><svg fill="none" viewBox="0 0 17 19" id="arrow-up" xmlns="http://www.w3.org/2000/svg"><path d="M8.517 18V1M1.074 8.438L8.517 1l7.443 7.438" stroke="currentColor" stroke-width="2" stroke-linecap="round" stroke-linejoin="round"/></svg><svg fill="none" viewBox="0 0 24 24" id="burger" xmlns="http://www.w3.org/2000/svg"><g clip-path="url(#aiclip0_53_22321)"><path d="M0 20.143h24v-3.429H0v3.429zM0 3v3.429h24V3H0zm0 10.286h24V9.857H0v3.429z" fill="currentColor"/></g><defs><clipPath id="aiclip0_53_22321"><path fill="currentColor" d="M0 0h24v24H0z"/></clipPath></defs></svg><svg fill="none" viewBox="0 0 15 18" id="cart" xmlns="http://www.w3.org/2000/svg"><path d="M0 .6C0 .44.051.288.142.176A.443.443 0 01.485 0h1.454a.43.43 0 01.299.127.627.627 0 01.172.328L2.803 2.4H14.06a.41.41 0 01.206.057.515.515 0 01.167.16.661.661 0 01.096.233c.018.085.02.174.007.26l-1.454 9.6a.641.641 0 01-.167.352.433.433 0 01-.31.138H3.88a.433.433 0 01-.31-.138.641.641 0 01-.166-.351L1.949 3.129 1.561 1.2H.485a.443.443 0 01-.343-.176A.68.68 0 010 .6zm4.849 12.6c-.515 0-1.008.253-1.372.703-.363.45-.568 1.06-.568 1.697s.205 1.248.568 1.698c.364.45.857.703 1.372.703.514 0 1.007-.253 1.371-.703.364-.45.568-1.061.568-1.697 0-.637-.204-1.248-.568-1.698-.364-.45-.857-.703-1.371-.703zm6.788 0c-.515 0-1.008.253-1.372.703-.363.45-.568 1.06-.568 1.697s.205 1.248.568 1.698c.364.45.857.703 1.372.703.514 0 1.007-.253 1.371-.703.364-.45.568-1.061.568-1.697 0-.637-.204-1.248-.568-1.698-.364-.45-.857-.703-1.371-.703zm-6.788 1.2c.257 0 .503.127.685.352.182.225.284.53.284.848 0 .319-.102.624-.284.849a.886.886 0 01-.685.351.886.886 0 01-.686-.351 1.358 1.358 0 01-.284-.849c0-.318.102-.623.284-.848a.887.887 0 01.686-.352zm6.788 0c.257 0 .504.127.685.352.182.225.285.53.285.848 0 .319-.103.624-.285.849a.886.886 0 01-.685.351.886.886 0 01-.686-.351 1.358 1.358 0 01-.284-.849c0-.318.102-.623.284-.848a.887.887 0 01.686-.352z" fill="currentColor"/></svg><svg fill="none" viewBox="0 0 25 25" id="chat-m" xmlns="http://www.w3.org/2000/svg"><path d="M21.268 11.886a8.494 8.494 0 01-.912 3.85 8.609 8.609 0 01-7.694 4.76 8.48 8.48 0 01-3.847-.911l-5.77 1.925 1.923-5.775a8.494 8.494 0 01-.91-3.85 8.616 8.616 0 014.757-7.699 8.479 8.479 0 013.847-.912h.507a8.582 8.582 0 015.597 2.504 8.594 8.594 0 012.502 5.601v.507z" fill="#FFEE4B" stroke="#FFEE4B" stroke-width="1.824" stroke-linecap="round" stroke-linejoin="round"/><ellipse cx="9.105" cy="11.949" rx="1.215" ry="1.216" fill="#051138"/><ellipse cx="12.75" cy="11.949" rx="1.215" ry="1.216" fill="#051138"/><ellipse cx="16.395" cy="11.949" rx="1.215" ry="1.216" fill="#051138"/></svg><svg fill="none" viewBox="0 0 13 11" id="check" xmlns="http://www.w3.org/2000/svg"><path d="M1.5 5.5l3.75 3.75 6.25-7.5" stroke="#051138" stroke-width="2" stroke-linecap="round" stroke-linejoin="round"/></svg><svg fill="none" viewBox="0 0 61 70" id="circle-bg2" xmlns="http://www.w3.org/2000/svg"><path d="M40.62 33.15s-.143-.01-.42-.074a4.046 4.046 0 01-1.133-.47 4.143 4.143 0 01-1.275-1.293c-.356-.568-.618-1.24-.786-1.961a9.808 9.808 0 01-.228-2.312c.005-.766.035-1.522-.01-2.258-.04-.726-.168-1.418-.455-1.961-.272-.543-.751-.953-1.424-1.368-.657-.395-1.488-.845-2.215-1.31l-2.096-1.353c-1.33-.864-2.576-1.541-3.669-1.907-1.093-.37-2.012-.41-2.645-.355-.638.04-.99.173-.994.148-.06.03-.683.123-1.543.509-.86.38-1.948 1.082-2.932 1.966-1.983 1.753-3.664 3.937-3.92 3.75-.223-.15.978-2.614 2.837-4.812.92-1.102 2.077-2.075 3.105-2.658 1.024-.593 1.86-.805 1.939-.835l.35-.069c.228-.05.56-.114.994-.138.856-.08 2.132 0 3.491.46 1.36.454 2.774 1.244 4.144 2.133.677.435 1.374.884 2.081 1.344.698.454 1.39.81 2.206 1.304.786.474 1.69 1.2 2.185 2.188.505.963.648 1.961.702 2.836.05.879.015 1.68.01 2.39-.01.692.055 1.28.173 1.823.247 1.087.742 1.71 1.113 1.922.385.217.667.227.667.227.045.005.524.114 1.558-.084 1.013-.173 2.334-.523 3.634-1.007 2.6-.964 5.137-2.233 5.295-1.952.134.238-2.091 1.952-4.672 3.335-1.29.691-2.69 1.245-3.812 1.55-1.093.361-2.156.327-2.255.292z" fill="#2C4CA3"/><path d="M19.577 47.17s.267-.351.618-1.003a6.626 6.626 0 00.8-2.86c.065-1.25-.276-2.796-.622-4.614-.163-.91-.312-1.902-.272-2.979.03-1.062.306-2.223.81-3.191.495-.968 1.123-1.788 1.712-2.54a54.72 54.72 0 001.646-2.163 42.574 42.574 0 003.446-5.73.072.072 0 00.01-.015c-.024-.015-.05-.025-.069-.034-.109-.065-.208-.1-.287-.134-.158-.07-.252-.094-.252-.094-.06-.015-.658-.281-1.671-.301-1.014-.015-2.349.282-3.565 1.037-1.226.721-2.314 1.749-3.135 2.52-.82.78-1.394 1.294-1.513 1.195-.114-.089.232-.77.875-1.734.648-.953 1.607-2.213 2.913-3.23 1.275-1.048 2.996-1.675 4.336-1.764 1.36-.114 2.344.207 2.433.237 0 0 .138.035.395.148.129.055.287.114.46.213.07.04.237.113.386.222.143.109.301.222.464.346.168.118.332.252.505.4.089.07.178.143.267.217.024.045.138.065.089.124l-.07.168c-.187.44-.395.943-.652 1.437a47.609 47.609 0 01-.935 1.774 45.814 45.814 0 01-2.684 4.243c-1.044 1.521-2.438 2.964-3.185 4.426-.766 1.433-.672 3.097-.34 4.816.316 1.705.73 3.448.657 5.084a8.828 8.828 0 01-1.048 3.764c-.44.825-.757 1.235-.757 1.235-.054.069-.598.825-1.528 1.714-.92.899-2.215 1.912-3.53 2.816-2.606 1.808-5.222 3.522-5.405 3.29-.182-.233 2.102-2.371 4.46-4.48 1.172-1.043 2.29-2.115 3.041-2.99.752-.854 1.147-1.511 1.197-1.57zm9.553 2.188c.227-.533.45-1.067.648-1.6l.291-.806c.05-.138.09-.261.104-.32.005-.02 0-.01 0-.01-.015-.015.05.049-.104-.114a23.498 23.498 0 00-1.785-1.492c-.42-.316-.845-.627-1.285-.919l-.168-.113-.075.34-.103.569a13.17 13.17 0 00-.159 2.297c.01.79.08 1.664-.05 2.647a5.034 5.034 0 01-.43 1.512 4.22 4.22 0 01-.993 1.319c-.045.05-.593.48-1.305.84a122.4 122.4 0 01-2.492 1.274c-1.81.89-3.635 1.704-3.793 1.453-.158-.252 1.385-1.522 2.991-2.742.802-.613 1.622-1.21 2.245-1.66.618-.44.88-.721.91-.75.885-.692.826-2.115.766-3.859-.014-.884.05-1.783.188-2.662l.12-.657.068-.327.134-.543c.212-.8.48-1.526.732-2.302l1.389.825c.232.138.465.277.692.425l.52.336c.474.316.939.647 1.389.993a27.2 27.2 0 011.33 1.077c.227.197.405.35.667.597.238.213.653.741.722 1.275.05.286.025.602-.04.87-.054.227-.113.385-.162.523l-.317.864c-.212.573-.45 1.132-.682 1.69-.035.108-1.029 2-2.013 3.789-1.003 1.788-1.785 3.645-2.066 3.586-.302-.064-.005-2.164.667-4.174.672-2.02 1.424-3.952 1.449-4.05z" fill="#2C4CA3"/><path d="M31.25 35.462s-.094.262-.178.652c-.079.415-.128.81.129 1.349.242.558.875 1.205 1.617 2.02.717.81 1.488 1.675 2.254 2.54.767.879 1.533 1.704 2.255 2.568.366.465.781 1.052.925 1.843.143.825-.134 1.536-.352 1.986-.237.474-.435.78-.608 1.091-.173.302-.326.563-.45.78l-.395.683c-.1.172-4.124 6.184-4.638 5.888-.514-.297 2.68-6.788 2.779-6.96l1.38-2.421c.152-.311.202-.529.167-.687-.024-.187-.192-.503-.49-.874-.657-.776-1.443-1.64-2.185-2.48-.751-.85-1.503-1.694-2.21-2.49-.682-.775-1.518-1.55-1.992-2.573a3.988 3.988 0 01-.391-1.537c-.02-.479.044-.864.104-1.16.128-.588.232-.865.232-.865.03-.104.762-1.986 1.86-3.62 1.067-1.656 2.452-3 2.68-2.817.232.183-.678 1.804-1.336 3.518-.692 1.699-1.132 3.477-1.157 3.566zM44.3 11.118s.1.243.223.672c.109.435.227 1.077.168 1.873a5.175 5.175 0 01-.934 2.509 5.858 5.858 0 01-2.305 1.907c-.934.43-2.012.612-3.006.444-.999-.138-1.84-.592-2.442-1.076a5.567 5.567 0 01-1.261-1.379c-.223-.395-.346-.622-.346-.622.005-.05-.208-.455-.282-1.107-.094-.632-.064-1.536.336-2.297.386-.77 1.043-1.289 1.563-1.511.533-.208.9-.218.959-.09.064.14-.173.41-.46.761-.282.366-.549.86-.628 1.354-.094.494.03 1.003.163 1.359.119.365.302.587.292.617.02-.03.217.642.994 1.23.726.637 2.032.939 3.223.366a3.756 3.756 0 001.45-1.196c.34-.494.514-1.003.548-1.462a3.707 3.707 0 00-.104-1.136c-.079-.272-.138-.42-.138-.42-.02-.02-.074-.306-.262-.672-.183-.366-.495-.81-.915-1.097-.415-.3-.954-.41-1.42-.38-.459.005-.815.094-.904-.05-.07-.103.134-.449.653-.745.5-.316 1.414-.5 2.27-.213.86.262 1.537.87 1.947 1.379.42.518.589.943.618.982z" fill="#2C4CA3"/><path d="M45.738 36.218s-.544.39-1.463.84c-.91.434-2.285.889-3.728.84-1.424-.025-2.819-.494-3.738-1.117a5.946 5.946 0 01-1.044-.855l-.34-.395a3.938 3.938 0 01-.386-.73c-.203-.436-.312-1.004-.376-1.488-.065-.489-.11-.919-.168-1.25-.05-.33-.12-.582-.015-.691.094-.104.4-.035.727.252.33.282.642.76.89 1.195.474.914.974 1.33 1.013 1.383 0 0 .074.09.208.243.148.138.356.345.667.543.594.41 1.593.75 2.621.77 1.018.04 2.027-.29 2.764-.637.727-.355 1.182-.676 1.182-.676.04-.025.875-.445 1.71-.964.841-.504 1.691-1.072 1.914-.874.222.193-.237 1.131-.885 1.99-.643.86-1.503 1.591-1.553 1.621z" fill="#2C4CA3"/></svg><svg fill="none" viewBox="0 0 22 22" id="circle-close" xmlns="http://www.w3.org/2000/svg"><path d="M11 .5C5.15.5.5 5.15.5 11S5.15 21.5 11 21.5 21.5 16.85 21.5 11 16.85.5 11 .5zm4.05 15.75L11 12.2l-4.05 4.05-1.2-1.2L9.8 11 5.75 6.95l1.2-1.2L11 9.8l4.05-4.05 1.2 1.2L12.2 11l4.05 4.05-1.2 1.2z" fill="#E1EBF5"/></svg><svg fill="none" viewBox="0 0 66 71" id="circle-el1" xmlns="http://www.w3.org/2000/svg"><g clip-path="url(#aoclip0_3_2953)" fill="currentColor"><path d="M36.4 26.499c-.01 0 .024-.163-.01-.44a3.335 3.335 0 00-.258-1.098c-.178-.415-.46-.855-.91-1.147a2.893 2.893 0 00-1.656-.48c-1.276-.02-2.437.757-2.863 1.528a3.278 3.278 0 00-.41 1.039 3.52 3.52 0 00-.064.42c-.005.04-.243 1.073.257 1.988.232.46.613.86.954 1.112.336.262.633.4.623.54-.005.123-.356.251-.9.162-.539-.079-1.24-.42-1.77-.989-.544-.553-.875-1.325-.994-1.913-.128-.598-.099-1.019-.099-1.063 0 0 .01-.247.1-.663a5.28 5.28 0 01.647-1.632c.742-1.315 2.556-2.491 4.514-2.462a4.821 4.821 0 012.76.821c.81.534 1.315 1.325 1.596 1.997.287.683.376 1.286.4 1.701.02.208.026.371.016.485 0 .114-.005.173-.005.173.015.064-.163 1.736-1.231 2.907-.515.574-1.148 1.004-1.746 1.133-.623.143-1.014-.173-.94-.287.06-.124.347-.143.648-.41.307-.253.673-.727.915-1.222a4.34 4.34 0 00.406-1.463c.05-.426.02-.712.02-.737z"/><path d="M42.95 28.14s-.885.95-2.215 2.374c-.336.356-.697.747-1.082 1.157-.406.42-.92.934-1.662 1.285-.727.337-1.473.44-2.136.505-.657.06-1.3.118-1.973.158-1.335.08-2.729.074-4.054-.203-1.32-.257-2.552-.86-3.397-1.537-.855-.668-1.429-1.291-1.83-1.706l-.613-.653c-.153-.173-5.444-6.443-5.053-6.808.39-.366 6.31 5.31 6.463 5.473l.608.648c.385.4.92.974 1.607 1.503.677.534 1.538.96 2.61 1.177 1.064.222 2.29.237 3.546.163.623-.035 1.275-.094 1.893-.148.604-.06 1.123-.149 1.504-.332.707-.321 1.473-1.33 2.15-2.012 1.33-1.424 2.215-2.374 2.215-2.374.154-.163 6.25-6.052 6.64-5.686.396.371-5.067 6.848-5.22 7.017zM18.778 52.284c-.094-.46-.183-.924-.252-1.39-.035-.241-.075-.44-.104-.74a3.155 3.155 0 01-.01-.49 2.15 2.15 0 01.143-.668c.163-.42.5-.766.91-.95a2.19 2.19 0 01.643-.177c.173-.025.336-.025.48-.025.558.025.979.07 1.468.129a20.979 20.979 0 014.158.979l-.148-6.008c-.035-1.286-.01-2.408-.465-3.268-.45-.91-1.305-1.919-2.022-2.927-.168-.228-5.884-8.703-5.454-9.02.43-.316 6.848 7.645 7.011 7.873l1.113 1.508c.376.509.776 1.068 1.093 1.73.331.663.509 1.444.573 2.121.07.697.065 1.325.084 1.944l.223 8.954c-.856-.356-1.736-.742-2.591-1.053a18.652 18.652 0 00-3.822-.905 15.6 15.6 0 00-1.256-.114c-.08 0-.153 0-.203.01h-.01v-.005c-.005.045 0 .114.005.198.015.158.06.405.09.613.064.435.148.87.232 1.3.014.134.44 2.73 1.29 5.212.801 2.497 2.027 4.826 1.805 4.974-.218.153-1.894-1.963-3.07-4.455-1.217-2.467-1.894-5.211-1.914-5.35z"/><path d="M28.334 55.133c.01.084-2.126-1.578-3.14-.55-.183.213-.212.258-.138.614.094.346.336.9.48 1.285l.528 1.355c.035.094.965 3.664.465 3.862-.5.193-2.23-3.066-2.27-3.16l-.528-1.355c-.154-.43-.347-.805-.55-1.508-.088-.346-.152-.816-.029-1.3.119-.48.396-.905.722-1.206.663-.604 1.449-.836 2.2-.86.811-.006 1.365.217 1.845.414.464.203.8.401 1.028.525l.351.202c.02.015.218.159.504.371.267.198.619.435.984.618a3.85 3.85 0 001.058.366c.312.06.57.06.633.183.06.109-.098.361-.49.559-.385.193-.983.282-1.542.217a5.7 5.7 0 01-1.478-.37c-.376-.144-.608-.253-.633-.263zm17.024-3.239c.089-.43.173-.866.232-1.3.03-.213.074-.46.09-.614.004-.079.01-.148.004-.198v.005h-.01a2.023 2.023 0 00-.202-.01c-.356.015-.84.06-1.256.114a18.8 18.8 0 00-3.822.905c-.856.312-1.74.697-2.596 1.053l.232-8.954c.02-.618.015-1.246.084-1.944.06-.677.243-1.458.574-2.12.321-.663.722-1.217 1.093-1.731l1.112-1.503c.168-.228 6.581-8.188 7.011-7.872.43.316-5.285 8.791-5.453 9.019-.717 1.008-1.573 2.017-2.023 2.927-.455.86-.43 1.983-.464 3.268l-.149 6.008a20.982 20.982 0 014.158-.979c.495-.06.915-.11 1.469-.129.148 0 .307 0 .48.025.202.025.445.084.642.178.41.188.742.529.91.95.084.212.129.43.144.667.01.183.005.34-.01.49-.03.296-.07.499-.104.74-.07.466-.158.93-.252 1.39-.015.144-.698 2.883-1.919 5.345-1.176 2.487-2.853 4.604-3.07 4.455-.223-.148 1.003-2.477 1.805-4.974.85-2.477 1.275-5.078 1.29-5.211z"/><path d="M36.733 53.451l.35-.202c.233-.129.564-.322 1.029-.525.48-.192 1.033-.42 1.844-.415.752.025 1.533.252 2.2.86.327.302.609.727.723 1.207.123.485.059.954-.03 1.3-.203.703-.396 1.078-.549 1.508-.316.811-.53 1.355-.53 1.355-.034.094-1.77 3.353-2.269 3.16-.499-.193.426-3.768.465-3.862l.53-1.355c.143-.385.385-.94.479-1.285.074-.361.044-.4-.139-.613-1.013-1.029-3.154.628-3.14.548-.02.01-.256.12-.632.263a5.753 5.753 0 01-1.479.37c-.558.065-1.152-.024-1.542-.217-.39-.198-.554-.445-.49-.559.065-.123.322-.123.633-.183.316-.06.692-.178 1.058-.366.366-.183.722-.425.984-.618.287-.212.485-.356.505-.37zM14.116 15.384s-.054 1.493-.208 3.733a154.16 154.16 0 01-.306 3.822l-.218 2.15-.06.56c-.034.365-.123.731-.33 1.018-.203.292-.51.5-.856.598-.173.05-.356.074-.544.084l-.331.015-5.048.218c-.075-.01-.198.04-.233-.025l-.06-.252-.118-.5-.118-.494-.09-.41a20.78 20.78 0 01-.187-1.004c-.114-.653-.183-1.276-.248-1.845a48.623 48.623 0 01-.188-2.749c-.02-.657-.034-1.033-.034-1.033-.02-.282.287-9.642.82-9.657.54-.01 1.098 9.37 1.118 9.608 0 0 .01.366.035 1.008.024.638.069 1.553.178 2.626.06.539.123 1.117.227 1.725.055.302.104.614.173.925l.02.084c1.172-.05 2.423-.109 3.674-.163l.222-.01.06-.534c.074-.722.143-1.434.212-2.121a145.8 145.8 0 00.302-3.773c.148-2.21.203-3.688.203-3.688l.365-4.436c-.014-.044-.054-.074-.094-.099-.059-.024-.04-.03-.232-.079a110.45 110.45 0 01-.875-.222 53.996 53.996 0 01-1.548-.425c-.9-.267-1.493-.5-1.473-.633.025-.134.657-.158 1.597-.124.47.02 1.018.055 1.602.1l.9.073c.104.01.44.035.667.109.243.074.465.208.628.41.154.198.238.435.267.688.015.128.02.262.02.39l.01.238c.015.301.025.593.04.88.014.573.03 1.112.044 1.572.01.935.015 1.577.015 1.642zm40.302-.084s.054 1.478.203 3.688c.074 1.103.173 2.393.301 3.773.07.687.139 1.399.213 2.12l.06.535.222.01c1.25.054 2.502.109 3.674.163l.02-.084c.069-.312.123-.623.172-.925a24.49 24.49 0 00.228-1.725c.109-1.078.153-1.988.178-2.626.02-.643.035-1.009.035-1.009.02-.237.578-9.617 1.117-9.607.53.01.84 9.375.82 9.657 0 0-.01.376-.034 1.033a44.605 44.605 0 01-.188 2.75 26.662 26.662 0 01-.247 1.844c-.054.326-.114.662-.188 1.003l-.089.41-.118.495-.12.5-.059.252c-.034.064-.158.01-.232.025l-5.048-.218-.331-.015a2.49 2.49 0 01-.544-.084 1.532 1.532 0 01-.856-.598c-.207-.287-.296-.653-.331-1.019l-.06-.558c-.074-.732-.148-1.454-.217-2.151a156.716 156.716 0 01-.514-7.555c0-.065.005-.703.015-1.637.014-.465.03-.999.044-1.572.01-.287.025-.584.04-.88l.01-.238c0-.129.005-.262.02-.39.03-.258.113-.495.266-.688a1.25 1.25 0 01.628-.41c.228-.074.564-.1.668-.109l.9-.074c.583-.045 1.132-.08 1.602-.099.94-.04 1.577-.01 1.597.124.02.133-.569.36-1.474.633-.45.133-.979.276-1.547.425-.282.074-.579.148-.875.222-.198.045-.173.05-.233.08-.04.024-.079.054-.094.098l.366 4.43zm-11.892 2.838l-8.91-.159c-4.455-.138-8.905-.271-8.905-.271-.198.004-7.194-.727-7.164-1.271.03-.524 7.04-.658 7.233-.663 0 0 4.44.134 8.88.272 4.44.08 8.88.153 8.88.153.194.015 7.427.485 7.432 1.01.01.543-7.248.944-7.446.929zm22.519-.391s-.188-.025-.38.005c-.193.03-.366.109-.366.109.01-.02-.485-.228-.85-.613a.85.85 0 01-.144-.732c.054-.237.183-.42.193-.42 0 0 .425-.198.875-.262.455-.075.914-.01.914-.01s.193.133.322.346c.133.212.188.5.084.746-.242.475-.663.816-.648.831zm-62.437 0s-.188-.025-.381.005c-.193.03-.366.109-.366.109.01-.02-.484-.228-.85-.613-.168-.203-.203-.49-.144-.727.055-.238.183-.42.193-.42 0 0 .425-.198.875-.262.455-.075.915-.01.915-.01s.193.133.321.346c.134.212.188.5.084.746-.237.47-.657.811-.647.826z"/></g><defs><clipPath id="aoclip0_3_2953"><path fill="#fff" transform="translate(.844 .372)" d="M0 0h64.901v69.994H0z"/></clipPath></defs></svg><svg fill="none" viewBox="0 0 61 60" id="circle-mask" xmlns="http://www.w3.org/2000/svg"><ellipse cx="30.028" cy="30" rx="30.028" ry="30" fill="#fff"/></svg><svg fill="none" viewBox="0 0 31 39" id="circle-svg1" xmlns="http://www.w3.org/2000/svg"><path d="M22.349 7.673c-.007 0 .025-.112.022-.306a2.371 2.371 0 00-.109-.779c-.099-.3-.268-.625-.562-.855a2.008 2.008 0 00-1.124-.434c-.885-.093-1.744.376-2.086.887a2.393 2.393 0 00-.352.696c-.054.182-.07.287-.07.287-.003.029-.236.73.054 1.398.135.335.374.635.595.833.22.204.418.316.399.411-.013.087-.265.157-.636.058-.37-.09-.837-.37-1.169-.795-.345-.418-.527-.976-.572-1.394-.05-.422-.006-.715-.003-.744 0 0 .022-.17.112-.456a3.64 3.64 0 01.552-1.095c.598-.868 1.933-1.574 3.294-1.433a3.37 3.37 0 011.869.74c.53.422.834 1.002.99 1.488.156.491.182.915.172 1.206 0 .147-.006.258-.019.338a2.78 2.78 0 00-.012.118c.006.045-.22 1.197-1.035 1.944-.393.367-.863.629-1.288.68-.444.06-.696-.182-.636-.256.048-.083.25-.08.476-.245.23-.157.515-.463.713-.792.201-.332.32-.705.37-.992.055-.288.052-.489.055-.508zm4.141 8.447s-.62-.602-1.723-1.257c-1.105-.654-2.753-1.254-4.497-1.602a40.794 40.794 0 00-4.875-.68c-.668-.063-1.21-.054-1.722-.153a2.606 2.606 0 01-.594-.188c-.14-.064-.214-.115-.214-.115-.023-.016-.17-.102-.351-.293-.18-.189-.342-.47-.464-.731-.236-.508-.543-1.175-.853-1.839-.597-1.33-1.143-2.668-.98-2.76.163-.09 1.006 1.085 1.817 2.298.4.612.799 1.228 1.106 1.697.29.47.405.447.43.48.007-.004.071.066.365.127.271.06.875.07 1.565.13 1.387.112 3.217.33 5.044.706 1.83.364 3.648 1.012 4.898 1.755 1.252.74 1.948 1.42 1.948 1.42.067.045 1.23 1.204 1.952 2.611.763 1.389 1.022 2.917.843 2.959-.179.05-.754-1.309-1.651-2.448a12.346 12.346 0 00-2.045-2.116zM7.101 27.084l.732-.246.84-.28c.33-.11.665-.218.9-.371.221-.134.403-.38.608-.788l.652-1.347c.444-.945.9-1.96 1.335-2.984a85.84 85.84 0 001.214-3.035l.514-1.414c.182-.482.259-.792.201-.897-.025-.124-.188-.274-.434-.396-.237-.121-.505-.207-.725-.28-.454-.138-.79-.285-.777-.275-.047-.022-.546-.236-1.16-.69a6.774 6.774 0 01-1.791-2 6.058 6.058 0 01-.824-2.452c-.064-.698.041-1.155.124-1.152.102-.003.179.438.39 1.044.21.603.572 1.379 1.102 2.026a6.22 6.22 0 001.7 1.507c.536.32.939.453.977.472.016 0 .192.09.68.24.243.083.547.172.924.363.185.096.392.218.6.406.208.185.415.469.514.804.109.335.083.712.016.993-.07.293-.16.52-.236.743l-.524 1.436a82.65 82.65 0 01-2.59 6.118c-.234.48-.457.945-.671 1.382-.224.45-.57.993-1.074 1.306-.476.3-.894.408-1.21.52-.326.108-.607.2-.84.28l-.732.246C7.35 28.424.313 30.453.195 30.1c-.121-.351 6.721-2.953 6.906-3.016zm12.181 4.264s.06-.259.17-.709c.044-.207.137-.575.124-.638-.013-.023.029.028-.032-.045-.054-.06-.233-.207-.377-.338-.61-.53-1.32-1.146-2.08-1.803-.377-.326-.763-.664-1.16-1.006a.694.694 0 00-.159-.108c-.016-.003.013-.003-.02 0-.057 0-.287.121-.51.252-.882.504-1.67 1.13-2.351 1.819-.352.348-.716.715-1.122 1.037a5.204 5.204 0 01-1.28.747c-.84.335-1.527.456-1.984.565l-.722.16c-.182.041-6.868 1.203-6.948.839-.08-.364 6.472-2.12 6.657-2.158 0 0 .262-.057.722-.16.454-.104 1.102-.226 1.76-.494.665-.246 1.243-.753 1.968-1.494a12.385 12.385 0 012.629-2.03c.246-.127.473-.306.949-.408a1.35 1.35 0 01.766.08c.23.096.384.217.508.316.406.351.802.696 1.189 1.028.76.66 1.47 1.276 2.08 1.803.153.14.28.233.482.437.194.188.392.575.392.88-.003.595-.118.776-.156 1.029a134.9 134.9 0 01-.172.727 38.37 38.37 0 01-1.192 3.51c-.652 1.673-1.457 3.247-1.63 3.176-.172-.07.31-1.752.72-3.466.412-1.72.757-3.46.779-3.549z" fill="currentColor"/><path d="M22.501 17.873s-.252-.054-.7-.118c-.204-.025-.571-.073-.641-.045-.02.007.003-.006-.013.01a.82.82 0 00-.093.294c-.17 1.544-.438 3.877-.626 5.964-.013.502.045.862.265 1.197.22.345.62.747.962 1.136l1.9 2.11c.141.156.307.338.45.58.148.237.24.569.24.84-.006.55-.178.875-.271 1.117-.198.45-.313.706-.313.706a48.033 48.033 0 01-1.767 3.245c-.913 1.539-1.93 2.975-2.089 2.882-.163-.092.556-1.688 1.236-3.316.69-1.621 1.348-3.277 1.387-3.364 0 0 .112-.248.303-.686.09-.2.17-.43.163-.565a.33.33 0 00-.054-.182 2.25 2.25 0 00-.284-.354c-.556-.619-1.205-1.337-1.901-2.11-.339-.392-.719-.743-1.096-1.314a2.984 2.984 0 01-.402-.98c-.074-.345-.083-.677-.074-.986.211-2.324.45-4.392.646-6.15.044-.252.111-.533.303-.82.192-.3.54-.52.853-.578.604-.09.824.016 1.099.029.51.07.802.134.802.134.095.003 2.057.507 3.6 1.672.776.562 1.45 1.235 1.872 1.797.425.561.62.986.55 1.037-.08.06-.413-.249-.93-.673a12.759 12.759 0 00-2.007-1.354c-1.546-.861-3.287-1.148-3.37-1.155zM12.21.732s.137.162.242.46c.11.296.157.701.106 1.132a4.436 4.436 0 01-.4 1.353c-.22.463-.587.99-1.172 1.309-.588.322-1.23.338-1.734.271a4.54 4.54 0 01-1.342-.39 3.37 3.37 0 01-.869-.574c-.192-.178-.287-.303-.287-.303-.016-.025-.18-.227-.31-.606a2.08 2.08 0 01.016-1.357c.16-.46.504-.83.862-.954.096-.041.144-.032.208-.045.144-.041.217.007.278.042.054.035.118.121.09.191-.04.067-.062.03-.08.026-.01-.003-.052-.058-.026-.032.01 0-.01 0-.029.02-.026.031-.029.044-.038.05-.01.01-.02.02-.023.029-.003 0 0 .025-.003-.003l-.006-.029-.013-.016c-.038-.06.051.08.041.067l-.003.003-.003.003c-.032.045-.105.096-.118.138a1.258 1.258 0 00-.205.711c-.006.581.393.881.413.91 0 0 .172.265.68.507.482.237 1.396.431 1.853.15.485-.23.82-1.117.875-1.62.029-.263-.003-.448-.035-.53-.032-.087-.054-.1-.051-.103-.016-.006.003-.05-.096-.13-.058-.042-.217-.103-.387-.17-.16-.06-.332-.127-.504-.194a5.938 5.938 0 00-.93-.269C8.948.722 8.75.71 8.718.617c-.032-.083.128-.246.435-.36.306-.122.744-.167 1.16-.148.207.007.411.026.597.045.182.022.354.032.575.096.456.137.712.466.725.482z" fill="currentColor"/></svg><svg fill="currentColor" viewBox="0 0 16 16" id="close-x" xmlns="http://www.w3.org/2000/svg"><path d="M15 1L1 15M1 1l14 14" stroke="currentColor" stroke-width="1.5" stroke-linecap="round" stroke-linejoin="round"/></svg><svg fill="none" viewBox="0 0 24 24" id="edit-c" xmlns="http://www.w3.org/2000/svg"><path d="M11 6H5.556A1.556 1.556 0 004 7.556v10.888A1.556 1.556 0 005.556 20h10.888A1.556 1.556 0 0018 18.444V13" stroke="currentColor" stroke-width="1.5" stroke-linecap="round" stroke-linejoin="round"/><path d="M17.18 4.484a1.652 1.652 0 012.336 2.337l-7.4 7.4L9 15l.779-3.116 7.4-7.4z" stroke="currentColor" stroke-width="1.5" stroke-linecap="round" stroke-linejoin="round"/></svg><svg fill="none" viewBox="0 0 21 17" id="email" xmlns="http://www.w3.org/2000/svg"><path d="M20.014 4.698v8.828a2.764 2.764 0 01-2.765 2.764H2.765A2.766 2.766 0 010 13.526V4.698l9.69 5.326a.659.659 0 00.634 0l9.69-5.327zM17.249.5a2.766 2.766 0 012.764 2.697l-10.006 5.5L0 3.197l.001-.048A2.762 2.762 0 012.765.5H17.25z" fill="#E1EBF5"/></svg><svg fill="none" viewBox="0 0 15 15" id="fb" xmlns="http://www.w3.org/2000/svg"><path d="M14.2 3.055C14.2 1.857 13.143.8 11.945.8h-9.09C1.657.8.6 1.857.6 3.055v9.09c0 1.198 1.057 2.255 2.255 2.255h4.58V9.256H5.744V7h1.69v-.916c0-1.55 1.128-2.89 2.538-2.89h1.832V5.45H9.972c-.212 0-.423.211-.423.634V7h2.255v2.255H9.549V14.4h2.396c1.198 0 2.255-1.057 2.255-2.255v-9.09z" fill="#fff"/></svg><svg fill="none" viewBox="0 0 22 28" id="file" xmlns="http://www.w3.org/2000/svg"><path fill-rule="evenodd" clip-rule="evenodd" d="M19.412 28H2.588C1.158 28 0 26.91 0 25.565V2.435C0 1.09 1.159 0 2.588 0h12.294a.65.65 0 01.502.24l6.36 5.983a.587.587 0 01.256.473v18.869C22 26.91 20.841 28 19.412 28zM15.529 2.058v4.029h4.283L15.53 2.058zm5.177 5.246h-5.824c-.357 0-.647-.272-.647-.608V1.217H2.588c-.714 0-1.294.546-1.294 1.218v23.13c0 .672.58 1.218 1.294 1.218h16.824c.714 0 1.294-.546 1.294-1.218V7.305z" fill="#CCC"/></svg><svg fill="none" viewBox="0 0 24 24" id="geo" xmlns="http://www.w3.org/2000/svg"><path d="M12 0a9.047 9.047 0 00-9.047 9.047c0 1.67.327 3.397 1.266 4.64L12 24l7.781-10.313c.853-1.13 1.266-3.127 1.266-4.64A9.047 9.047 0 0012 0zm0 5.24a3.808 3.808 0 110 7.615 3.808 3.808 0 010-7.615z" fill="currentColor"/></svg><svg fill="none" viewBox="0 0 24 24" id="geo2" xmlns="http://www.w3.org/2000/svg"><path d="M12 22.5a10.5 10.5 0 110-21 10.5 10.5 0 010 21zm0 1.5a12 12 0 100-24 12 12 0 000 24z" fill="currentColor"/><path d="M10.5 17.25a.75.75 0 01.75-.75h1.5a.75.75 0 110 1.5h-1.5a.75.75 0 01-.75-.75zm-3-4.5a.75.75 0 01.75-.75h7.5a.75.75 0 110 1.5h-7.5a.75.75 0 01-.75-.75zm-3-4.5a.75.75 0 01.75-.75h13.5a.75.75 0 110 1.5H5.25a.75.75 0 01-.75-.75z" fill="currentColor"/></svg><svg fill="none" viewBox="0 0 20 18" id="heart" xmlns="http://www.w3.org/2000/svg"><path d="M6.668 1.083l-2.5.834-2.5 1.666V9l4.583 4.583 3.75 2.917 5.834-5 2.083-3.333v-3.75l-1.667-2.5-3.333-.417-2.5 2.083-.833-.833-2.917-1.667z" fill="currentColor"/><path d="M10 17.333a1.06 1.06 0 01-.708-.272c-.74-.662-1.455-1.283-2.085-1.832l-.003-.003c-1.847-1.608-3.442-2.997-4.552-4.365C1.412 9.33.834 7.88.834 6.297c0-1.54.517-2.96 1.454-4A4.882 4.882 0 015.956.668c1.058 0 2.027.342 2.88 1.016.43.34.82.757 1.165 1.242a5.966 5.966 0 011.164-1.242c.853-.674 1.823-1.016 2.88-1.016 1.417 0 2.719.579 3.668 1.63.938 1.04 1.454 2.46 1.454 4 0 1.584-.577 3.034-1.818 4.564-1.11 1.368-2.704 2.757-4.551 4.365-.631.55-1.347 1.172-2.089 1.835a1.063 1.063 0 01-.708.272zM5.957 1.764a3.83 3.83 0 00-2.878 1.278c-.755.836-1.17 1.992-1.17 3.255 0 1.332.484 2.524 1.571 3.864 1.05 1.295 2.613 2.655 4.421 4.23l.004.003c.632.55 1.349 1.175 2.095 1.842a242.06 242.06 0 012.102-1.845c1.809-1.575 3.371-2.935 4.421-4.23 1.087-1.34 1.572-2.532 1.572-3.864 0-1.263-.416-2.42-1.17-3.255a3.83 3.83 0 00-2.878-1.278c-.815 0-1.563.265-2.224.787-.588.465-.999 1.053-1.24 1.465a.67.67 0 01-1.164 0c-.24-.412-.65-1-1.239-1.465a3.514 3.514 0 00-2.223-.787z" fill="currentColor"/></svg><svg fill="none" viewBox="0 0 14 13" id="heart-svg" xmlns="http://www.w3.org/2000/svg"><path d="M4.432.317l-1.9.633-1.9 1.267v4.116l3.484 3.484 2.85 2.216 4.433-3.8L12.982 5.7V2.85L11.716.95 9.182.633l-1.9 1.584-.633-.634L4.432.317z" fill="currentColor"/><path d="M6.967 12.667a.807.807 0 01-.539-.207c-.563-.503-1.106-.976-1.584-1.393l-.003-.002c-1.403-1.222-2.616-2.278-3.46-3.318C.44 6.585 0 5.483 0 4.28c0-1.17.393-2.25 1.105-3.04A3.71 3.71 0 013.892 0c.805 0 1.541.26 2.19.773.327.259.623.575.885.944.261-.369.558-.685.885-.944A3.457 3.457 0 0110.042 0a3.71 3.71 0 012.786 1.24c.713.79 1.105 1.869 1.105 3.039 0 1.204-.439 2.306-1.381 3.468-.844 1.04-2.056 2.096-3.46 3.318-.48.418-1.023.89-1.587 1.395a.807.807 0 01-.538.207zM3.892.834a2.91 2.91 0 00-2.187.97C1.132 2.44.816 3.32.816 4.28c0 1.012.368 1.918 1.194 2.936.799.985 1.986 2.018 3.36 3.216l.003.002c.48.418 1.025.893 1.592 1.4.57-.508 1.117-.983 1.598-1.403 1.375-1.197 2.562-2.23 3.36-3.215.826-1.018 1.194-1.924 1.194-2.936 0-.96-.316-1.839-.889-2.474a2.91 2.91 0 00-2.187-.971 2.67 2.67 0 00-1.69.598c-.447.353-.76.8-.942 1.113a.51.51 0 01-.885 0 4.021 4.021 0 00-.942-1.113 2.67 2.67 0 00-1.69-.598z" fill="currentColor"/></svg><svg fill="none" viewBox="0 0 20 20" id="help-c" xmlns="http://www.w3.org/2000/svg"><path d="M10 18.334a8.333 8.333 0 100-16.667 8.333 8.333 0 000 16.667z" stroke="currentColor" stroke-width="1.667" stroke-linecap="round" stroke-linejoin="round"/><path d="M7.575 7.5a2.5 2.5 0 014.859.833c0 1.666-2.5 2.5-2.5 2.5M10 14.167h.008" stroke="currentColor" stroke-width="1.5" stroke-linecap="round" stroke-linejoin="round"/></svg><svg fill="none" viewBox="0 0 20 20" id="help-yell" xmlns="http://www.w3.org/2000/svg"><path d="M10 18.333a8.333 8.333 0 100-16.667 8.333 8.333 0 000 16.667z" fill="#FFEE4B" stroke="#FFEE4B" stroke-width="1.667" stroke-linecap="round" stroke-linejoin="round"/><path d="M7.575 7.5a2.5 2.5 0 014.859.834c0 1.667-2.5 2.5-2.5 2.5M10 14.166h.008" stroke="#051138" stroke-width="1.667" stroke-linecap="round" stroke-linejoin="round"/></svg><svg fill="none" viewBox="0 0 23 23" id="icon-cart" xmlns="http://www.w3.org/2000/svg"><path d="M0 .75A.75.75 0 01.75 0H3a.75.75 0 01.728.569L4.335 3H21.75a.75.75 0 01.736.888l-2.25 12a.75.75 0 01-.736.612H6a.75.75 0 01-.737-.612L3.015 3.911l-.6-2.411H.75A.75.75 0 010 .75zM7.5 16.5a3 3 0 100 6 3 3 0 000-6zm10.5 0a3 3 0 100 6 3 3 0 000-6zM7.5 18a1.5 1.5 0 110 3 1.5 1.5 0 010-3zM18 18a1.5 1.5 0 110 3 1.5 1.5 0 010-3z" fill="#C3C3C3" fill-opacity=".5"/></svg><svg fill="none" viewBox="0 0 24 22" id="icon-heart" xmlns="http://www.w3.org/2000/svg"><g clip-path="url(#bdclip0_1022_4641)"><path d="M13.619 20.549a2.394 2.394 0 01-3.227-.012l-.132-.12C3.963 14.719-.152 10.989.004 6.334.076 4.295 1.12 2.34 2.811 1.188 5.978-.97 9.888.037 12 2.508c2.11-2.471 6.021-3.49 9.188-1.32 1.692 1.152 2.735 3.107 2.807 5.146.168 4.655-3.958 8.385-10.256 14.107l-.12.108z" fill="#C3C3C3" fill-opacity=".5"/></g><defs><clipPath id="bdclip0_1022_4641"><path fill="#fff" d="M0 0h24v21.168H0z"/></clipPath></defs></svg><svg fill="none" viewBox="0 0 20 20" id="icon-plus" xmlns="http://www.w3.org/2000/svg"><path fill-rule="evenodd" clip-rule="evenodd" d="M9.999.833a9.167 9.167 0 100 18.334 9.167 9.167 0 000-18.334zm.833 12.5a.834.834 0 01-1.667 0v-2.5h-2.5a.833.833 0 110-1.666h2.5v-2.5a.833.833 0 011.667 0v2.5h2.5a.833.833 0 010 1.666h-2.5v2.5z" fill="currentColor"/></svg><svg fill="none" viewBox="0 0 22 22" id="icon-user" xmlns="http://www.w3.org/2000/svg"><path d="M0 2.6v16.8a2.4 2.4 0 002.4 2.4h16.8c1.32 0 2.4-1.08 2.4-2.4V2.6c0-1.32-1.08-2.4-2.4-2.4H2.4A2.4 2.4 0 000 2.6zm14.4 4.8c0 1.992-1.608 3.6-3.6 3.6a3.595 3.595 0 01-3.6-3.6c0-1.992 1.608-3.6 3.6-3.6s3.6 1.608 3.6 3.6zM3.6 17c0-2.4 4.8-3.72 7.2-3.72 2.4 0 7.2 1.32 7.2 3.72v1.2H3.6V17z" fill="#C3C3C3" fill-opacity=".5"/></svg><svg fill="none" viewBox="0 0 24 25" id="icon1" xmlns="http://www.w3.org/2000/svg"><path d="M12.744 12.5a2.25 2.25 0 012.25 2.25l-.002 1.122c.155 2.756-1.968 4.13-5.902 4.13C5.169 20 3 18.645 3 15.912V14.75a2.25 2.25 0 012.25-2.25h7.494zm6 0a2.25 2.25 0 012.25 2.25v.79c.135 2.471-1.74 3.71-5.166 3.71-.465 0-.903-.023-1.311-.067.435-.402.76-.881.968-1.438l.343.005c2.676 0 3.745-.706 3.666-2.169v-.831a.75.75 0 00-.75-.75h-3.095a3 3 0 00-.922-1.5h4.017zm-6 1.5H5.25a.75.75 0 00-.75.75v1.162c0 1.718 1.392 2.588 4.59 2.588 3.186 0 4.5-.85 4.404-2.588V14.75a.75.75 0 00-.75-.75zM9 3.5A3.75 3.75 0 119 11a3.75 3.75 0 010-7.5zM16.5 5a3 3 0 110 6 3 3 0 010-6zM9 5a2.25 2.25 0 100 4.5A2.25 2.25 0 009 5zm7.5 1.5a1.5 1.5 0 100 3 1.5 1.5 0 000-3z" fill="#1E3577" fill-opacity=".5"/></svg><svg fill="none" viewBox="0 0 24 25" id="icon2" xmlns="http://www.w3.org/2000/svg"><path d="M21.256 11.462c.474.62.474 1.457 0 2.076C19.764 15.487 16.181 19.5 12 19.5s-7.763-4.013-9.256-5.962a1.692 1.692 0 010-2.076C4.236 9.513 7.818 5.5 11.999 5.5c4.182 0 7.764 4.013 9.257 5.962v0z" stroke="#1E3577" stroke-opacity=".5" stroke-width="2" stroke-linecap="round" stroke-linejoin="round"/><path d="M12 15.5a3 3 0 100-6 3 3 0 000 6z" stroke="#1E3577" stroke-opacity=".5" stroke-width="2" stroke-linecap="round" stroke-linejoin="round"/></svg><svg fill="none" viewBox="0 0 24 25" id="icon3" xmlns="http://www.w3.org/2000/svg"><path d="M21.633 7.147a6.093 6.093 0 00-1.334-1.94A6.22 6.22 0 0015.93 3.43 6.26 6.26 0 0012 4.815 6.26 6.26 0 008.07 3.43 6.219 6.219 0 003.7 5.206a6.057 6.057 0 00-1.825 4.329c0 .78.16 1.594.476 2.421.265.692.644 1.409 1.13 2.133.768 1.146 1.825 2.341 3.138 3.553a35.071 35.071 0 004.42 3.452l.556.357a.753.753 0 00.808 0l.556-.357a35.528 35.528 0 004.42-3.452c1.312-1.212 2.37-2.407 3.138-3.553.485-.724.867-1.441 1.13-2.133.316-.827.476-1.64.476-2.42a5.968 5.968 0 00-.49-2.39z" fill="#1E3577" fill-opacity=".5"/></svg><svg fill="none" viewBox="0 0 15 15" id="insta" xmlns="http://www.w3.org/2000/svg"><path d="M12.266.6h-9.73C1.439.6.603 1.437.603 2.535v9.73c0 1.098.836 1.935 1.935 1.935h9.73c1.098 0 1.935-.837 1.935-1.935v-9.73c0-1.098-.837-1.935-1.936-1.935zM7.402 11.48c2.249 0 4.08-1.778 4.08-3.923 0-.366-.053-.785-.157-1.098h1.15v5.544a.524.524 0 01-.523.523H2.851a.524.524 0 01-.523-.523V6.406H3.53a3.982 3.982 0 00-.157 1.099c-.052 2.197 1.778 3.975 4.028 3.975zm0-1.57c-1.465 0-2.616-1.15-2.616-2.562 0-1.413 1.151-2.563 2.616-2.563 1.464 0 2.615 1.15 2.615 2.563 0 1.464-1.15 2.563-2.615 2.563zm5.021-5.596a.58.58 0 01-.575.575h-1.465a.58.58 0 01-.575-.575V2.902a.58.58 0 01.575-.576h1.465a.58.58 0 01.575.576v1.412z" fill="#fff"/></svg><svg fill="none" viewBox="0 0 21 20" id="instagram" xmlns="http://www.w3.org/2000/svg"><g clip-path="url(#bkclip0_508_5989)"><path d="M10.004 6.665A3.343 3.343 0 006.667 10c0 1.836 1.5 3.335 3.337 3.335A3.343 3.343 0 0013.341 10c0-1.836-1.5-3.335-3.337-3.335zM20.013 10c0-1.381.012-2.75-.065-4.128-.078-1.601-.443-3.022-1.615-4.193C17.159.506 15.74.143 14.137.066 12.755-.012 11.387 0 10.007 0c-1.382 0-2.751-.013-4.13.065C4.273.143 2.851.509 1.68 1.679.506 2.853.143 4.271.066 5.872-.012 7.253 0 8.622 0 10c0 1.378-.013 2.75.065 4.127.077 1.602.443 3.022 1.615 4.193 1.174 1.174 2.593 1.536 4.195 1.614 1.382.077 2.751.065 4.13.065 1.383 0 2.752.012 4.131-.065 1.602-.078 3.024-.443 4.196-1.614 1.174-1.173 1.537-2.591 1.615-4.193.08-1.378.065-2.746.065-4.127zm-10.009 5.13A5.125 5.125 0 014.87 10a5.125 5.125 0 015.134-5.131 5.125 5.125 0 015.135 5.13 5.126 5.126 0 01-5.135 5.132zm5.345-9.273a1.197 1.197 0 110-2.396 1.197 1.197 0 110 2.396z" fill="#E1EBF5"/></g><defs><clipPath id="bkclip0_508_5989"><path fill="#fff" d="M0 0h20.014v20H0z"/></clipPath></defs></svg><svg fill="none" viewBox="0 0 14 18" id="location" xmlns="http://www.w3.org/2000/svg"><path d="M7 .25A6.883 6.883 0 00.125 7.125 6.806 6.806 0 001.51 11.25s.188.247.218.283L7 17.75l5.274-6.22c.028-.034.216-.28.216-.28v-.002a6.803 6.803 0 001.385-4.123A6.883 6.883 0 007 .25zm0 9.375a2.5 2.5 0 110-5 2.5 2.5 0 010 5z" fill="#FFEE4B"/></svg><svg fill="none" viewBox="0 0 61 40" id="logo-footer" xmlns="http://www.w3.org/2000/svg"><g clip-path="url(#bmclip0_461_6464)" fill="#767F9C"><path d="M60.957 0H0v2.194h60.957V0zm0 37.75H0V40h60.957v-2.25zm-3.074-24.113c0-1.292-.32-2.308-.952-3.018-.634-.717-1.515-1.08-2.613-1.08-.732 0-1.391.178-1.965.532-.573.354-1.021.864-1.336 1.52-.308.646-.466 1.39-.466 2.21v.205c0 1.228.375 2.225 1.113 2.966.738.742 1.708 1.117 2.88 1.117a4.2 4.2 0 001.823-.393 3.292 3.292 0 001.32-1.105l.068-.099-1.217-1.4-.113.151c-.42.557-.991.828-1.744.828-.48 0-.864-.142-1.175-.43a1.793 1.793 0 01-.527-.982h4.9v-1.022h.004zm-3.572-2.08c.4 0 .693.11.903.338.21.228.324.564.333.991v.016h-2.544c.076-.413.22-.739.424-.97.226-.252.515-.375.884-.375zm-3.958 13.982c-.732 0-1.391.178-1.965.532-.573.354-1.021.864-1.335 1.52-.308.646-.467 1.39-.467 2.21v.205c0 1.228.375 2.225 1.113 2.966.738.742 1.708 1.117 2.88 1.117a4.2 4.2 0 001.823-.393 3.292 3.292 0 001.32-1.105l.068-.099-1.217-1.4-.113.151c-.42.557-.991.828-1.744.828-.48 0-.864-.142-1.175-.43a1.793 1.793 0 01-.527-.982h4.901v-1.022c0-1.292-.32-2.308-.951-3.018-.632-.717-1.513-1.08-2.611-1.08zm-.006 2.018c.4 0 .692.11.902.338.21.228.324.564.333.991v.016h-2.544c.076-.413.22-.739.424-.97.226-.252.515-.375.885-.375zM19.938 16.49l-1.217-1.4-.113.15c-.421.557-.991.828-1.745.828-.479 0-.863-.142-1.174-.431a1.793 1.793 0 01-.528-.982h4.902v-1.021c0-1.292-.32-2.308-.952-3.018-.634-.714-1.516-1.077-2.614-1.077-.732 0-1.39.178-1.964.532-.573.354-1.022.864-1.336 1.52-.308.646-.466 1.39-.466 2.21v.205c0 1.228.375 2.225 1.113 2.966.738.742 1.708 1.117 2.879 1.117.662 0 1.278-.132 1.824-.393a3.292 3.292 0 001.32-1.105l.07-.102zm-2.212-3.588h-2.543c.076-.413.22-.739.424-.97.225-.255.515-.378.884-.378.4 0 .692.11.903.338.21.228.323.564.332.991v.019zm15.653 4.713c.68.333 1.403.502 2.153.502 1.214 0 2.239-.406 3.041-1.21.802-.802 1.211-1.827 1.211-3.043 0-1.206-.403-2.221-1.199-3.015s-1.827-1.194-3.065-1.194c-.799 0-1.537.176-2.187.526a3.684 3.684 0 00-1.528 1.533 4.347 4.347 0 00-.534 2.064c0 .917.18 1.711.537 2.357a3.504 3.504 0 001.571 1.48zm.35-3.729c0-.73.178-1.292.522-1.674a1.643 1.643 0 011.275-.566c.51 0 .924.185 1.269.566.345.382.518.939.518 1.659 0 .741-.173 1.307-.518 1.689a1.63 1.63 0 01-1.269.566c-.51 0-.927-.185-1.275-.566-.347-.382-.521-.945-.521-1.674zm10.555 4.231c.47 0 .942-.114 1.403-.342.341-.169.655-.406.93-.704v.87h2.26V6.865h-2.41v3.658c-.619-.575-1.345-.868-2.153-.868-1.01 0-1.854.363-2.516 1.08-.659.714-.991 1.763-.991 3.12 0 1.326.341 2.379 1.015 3.126.68.754 1.507 1.136 2.462 1.136zm-1.025-4.4c0-.732.158-1.286.466-1.643.312-.357.684-.533 1.141-.533.47 0 .848.176 1.15.536.305.363.458.981.458 1.837 0 .763-.16 1.338-.473 1.71-.311.373-.677.551-1.12.551-.558 0-.982-.24-1.293-.735-.216-.345-.33-.926-.33-1.723zM6.091 30.037l-1.875-6.788H.629v10.877h2.364V26.84l1.903 7.286h2.37l1.909-7.289v7.29h2.364V23.248H7.946L6.09 30.037zm23.144-3.132c-.213-.268-.528-.493-.933-.662a3.42 3.42 0 00-1.333-.252 3.33 3.33 0 00-2.47 1.046v-.874h-2.26v7.963h2.409v-3.621c0-.834.052-1.41.152-1.708.098-.286.272-.51.534-.686.262-.176.564-.262.897-.262.253 0 .47.059.646.176a.96.96 0 01.379.492c.058.154.125.548.125 1.55v4.062h2.41v-4.917c0-.6-.04-1.07-.123-1.4a2.233 2.233 0 00-.433-.907zm8.82 3.045c-.467-.374-1.257-.68-2.41-.931-1.366-.299-1.793-.462-1.91-.545-.13-.095-.145-.185-.145-.243 0-.074.018-.182.167-.28.214-.132.589-.2 1.11-.2.406 0 .72.07.93.212.208.139.345.336.422.6l.036.133 2.288-.407-.05-.166c-.21-.701-.597-1.24-1.155-1.6-.552-.357-1.397-.535-2.51-.535-1.175 0-2.059.24-2.63.714-.579.48-.872 1.083-.872 1.79 0 .788.342 1.41 1.013 1.853.476.31 1.546.64 3.279 1.009.442.098.585.188.628.225.07.07.107.16.107.273a.48.48 0 01-.21.416c-.248.172-.632.261-1.141.261-.458 0-.818-.092-1.062-.277-.247-.184-.405-.449-.488-.809l-.03-.138-2.422.354.046.166c.204.76.64 1.369 1.302 1.812.653.437 1.55.662 2.657.662 1.223 0 2.165-.268 2.8-.791.643-.533.97-1.182.97-1.93-.004-.689-.244-1.236-.72-1.627zm4.929-5.535l-2.315.166v1.407h-1.323v1.375h1.323v4.446c0 .79.302 1.412.9 1.846.595.431 1.4.653 2.394.653a8.16 8.16 0 001.59-.185l.149-.03V32.8l-.241.04c-.348.058-.644.09-.881.09-.565 0-.973-.105-1.217-.309-.25-.206-.376-.569-.376-1.073v-4.185h2.764v-1.375h-2.767v-1.573zm16.186 1.573c-.367 0-.7.089-.989.268-.21.129-.43.347-.67.661v-.757H55.25v7.963h2.41v-2.517c0-1.283.058-2.132.17-2.523.107-.375.25-.63.43-.766.366-.28.922-.295 1.565.105l.159.098.762-2.064-.113-.065a2.928 2.928 0 00-1.464-.403zM5.356 14.582h1.82l2.19 3.31h2.71L9.57 14.095c.54-.246.982-.621 1.312-1.117a3.255 3.255 0 00.546-1.83c0-.419-.092-.84-.269-1.253A3.689 3.689 0 009.293 8.01a3.454 3.454 0 00-1.43-.298H2.965v10.181h2.391v-3.31zm0-4.884h2.37c.158 0 .317.034.476.105.158.07.299.172.42.298a1.492 1.492 0 01.406 1.043c0 .204-.033.397-.097.573a1.532 1.532 0 01-.26.461 1.212 1.212 0 01-.38.302 1.013 1.013 0 01-.47.108H5.358v-2.89h-.003zm25 6.923c.333-.295.592-.643.772-1.03l.061-.133-1.98-1.049-.067.148a2.004 2.004 0 01-.448.64c-.189.178-.4.326-.622.44a3.007 3.007 0 01-.71.252c-.73.154-1.38.083-1.938-.184a3.07 3.07 0 01-.951-.702c-.262-.29-.47-.63-.613-1.015a3.44 3.44 0 01-.028-2.33c.125-.372.311-.713.555-1.006a2.83 2.83 0 01.918-.72c.534-.268 1.245-.357 2.01-.203.238.05.47.126.69.23.216.106.42.247.61.425.186.179.35.4.482.662l.076.15 1.867-1.18-.07-.127c-.367-.661-.928-1.206-1.669-1.618-.741-.41-1.626-.616-2.635-.616-.854 0-1.626.151-2.297.443a5.424 5.424 0 00-1.71 1.16 4.947 4.947 0 00-1.068 1.628 4.906 4.906 0 00-.366 1.846c0 .65.134 1.293.396 1.917a5.495 5.495 0 001.104 1.674c.47.49 1.037.892 1.684 1.194a5.072 5.072 0 002.165.458c.443 0 .9-.052 1.364-.157.46-.104.902-.258 1.311-.455.409-.2.781-.45 1.107-.742zm-13.414 9.084c-.8 0-1.537.175-2.187.526a3.684 3.684 0 00-1.528 1.532 4.346 4.346 0 00-.534 2.065c0 .917.18 1.71.537 2.357.36.649.888 1.15 1.577 1.486.68.332 1.403.501 2.153.501 1.214 0 2.239-.406 3.041-1.209s1.211-1.828 1.211-3.043c0-1.206-.403-2.222-1.199-3.015-.799-.797-1.833-1.2-3.071-1.2zm1.796 4.218c0 .742-.173 1.308-.518 1.69-.345.38-.76.565-1.269.565-.51 0-.927-.184-1.275-.566-.344-.381-.521-.944-.521-1.674 0-.729.177-1.292.521-1.673a1.643 1.643 0 011.275-.567c.51 0 .924.185 1.269.567.342.378.518.935.518 1.658z"/></g><defs><clipPath id="bmclip0_461_6464"><path fill="#fff" d="M0 0h61v40H0z"/></clipPath></defs></svg><svg fill="none" viewBox="0 0 443 535" id="mask" xmlns="http://www.w3.org/2000/svg"><path d="M0 0h443s-131.391 58.492-93.772 267.5c37.62 209.008-93.772 267.5-93.772 267.5H0V0z" fill="#fff"/></svg><svg fill="none" viewBox="0 0 320 321" id="mask2" xmlns="http://www.w3.org/2000/svg"><path d="M-24 321V0s42.42 95.207 194 67.948c151.579-27.26 194 67.947 194 67.947V321H-24z" fill="#fff"/></svg><svg fill="none" viewBox="0 0 20 20" id="message" xmlns="http://www.w3.org/2000/svg"><path d="M17.5 9.583a6.983 6.983 0 01-.75 3.167 7.084 7.084 0 01-6.333 3.917 6.983 6.983 0 01-3.167-.75L2.5 17.5l1.583-4.75a6.983 6.983 0 01-.75-3.167A7.083 7.083 0 017.25 3.25a6.983 6.983 0 013.167-.75h.416A7.066 7.066 0 0117.5 9.167v.416z" stroke="currentColor" stroke-width="1.5" stroke-linecap="round" stroke-linejoin="round"/></svg><svg fill="none" viewBox="0 0 112 109" id="messages" xmlns="http://www.w3.org/2000/svg"><g opacity=".5" fill="#EFF5FB"><path d="M104.511 82.915L98.419 65.21a44.319 44.319 0 004.499-19.368c.018-11.663-4.5-22.69-12.724-31.051C81.969 6.428 71.008 1.72 59.33 1.536c-12.108-.191-23.49 4.408-32.046 12.952-8.25 8.239-12.827 19.1-12.972 30.706-8.13 6.114-12.93 15.646-12.914 25.827a32.336 32.336 0 003.116 13.783L.318 96.998a5.71 5.71 0 001.375 5.94 5.73 5.73 0 005.948 1.373l12.212-4.19a32.465 32.465 0 0013.803 3.112h.05c10.348 0 19.966-4.917 26.066-13.236a44.493 44.493 0 0018.307-4.475l17.73 6.083a6.807 6.807 0 007.068-1.632 6.787 6.787 0 001.634-7.058zM33.706 96.999h-.04a26.14 26.14 0 01-12.128-3.007 3.127 3.127 0 00-2.474-.192L6.542 98.096l4.303-12.503c.28-.815.21-1.71-.193-2.471a25.957 25.957 0 014.242-30.137c1.51 9.188 5.895 17.655 12.693 24.323 6.747 6.618 15.23 10.831 24.38 12.21a25.983 25.983 0 01-18.261 7.48zm64.756-11.434a.567.567 0 01-.625.144l-18.98-6.513a3.126 3.126 0 00-2.474.193 38.177 38.177 0 01-17.71 4.39h-.059c-20.663 0-37.73-16.76-38.058-37.39C20.391 36 24.35 26.236 31.7 18.896S48.83 7.606 59.232 7.769c20.678.328 37.475 17.403 37.443 38.063a38.038 38.038 0 01-4.397 17.684 3.114 3.114 0 00-.193 2.471l6.522 18.953a.565.565 0 01-.145.625z"/><path d="M77.21 29.25H40.017a3.12 3.12 0 00-3.121 3.117 3.12 3.12 0 003.121 3.117h37.195a3.12 3.12 0 003.121-3.117 3.12 3.12 0 00-3.121-3.117zm0 12.82H40.017a3.12 3.12 0 00-3.121 3.117 3.12 3.12 0 003.121 3.118h37.195a3.12 3.12 0 003.121-3.117 3.12 3.12 0 00-3.121-3.118zM62.893 54.89H40.016a3.12 3.12 0 00-3.122 3.118 3.12 3.12 0 003.122 3.117h22.877a3.12 3.12 0 003.122-3.117 3.12 3.12 0 00-3.122-3.117z"/></g></svg><svg fill="none" viewBox="0 0 20 21" id="metro" xmlns="http://www.w3.org/2000/svg"><g clip-path="url(#brclip0_4_72074)"><path d="M14.757 15.582a.962.962 0 01-.595.19.982.982 0 01-.574-.19.63.63 0 01-.272-.55v-6.51h-.02l-2.486 5.047a1.211 1.211 0 01-.32.421c-.122.093-.282.14-.482.14s-.361-.047-.481-.14a1.202 1.202 0 01-.321-.42L6.719 8.522H6.7v6.509a.624.624 0 01-.282.55c-.17.121-.374.188-.584.19a.918.918 0 01-.585-.19c-.16-.126-.241-.31-.241-.55V6.299c0-.253.08-.49.241-.71.16-.22.448-.33.864-.33.308 0 .545.07.713.21.167.14.317.35.452.63l2.73 5.629h.02l2.711-5.629c.133-.28.285-.49.453-.63.166-.14.404-.21.712-.21.415 0 .704.11.864.33.16.22.241.458.241.711v8.732c0 .24-.084.424-.252.55v.002zM9.98 19.046c4.715 0 8.566-3.867 8.566-8.606 0-4.683-3.836-8.486-8.566-8.486-4.728 0-8.525 3.78-8.525 8.486 0 4.658 3.93 8.606 8.525 8.606zm0 1.454C4.58 20.5 0 15.9 0 10.44 0 4.93 4.45.5 9.98.5S20 4.95 20 10.44c0 5.54-4.5 10.06-10.02 10.06z" fill="#1E3577" fill-opacity=".5"/></g><defs><clipPath id="brclip0_4_72074"><path fill="#fff" transform="translate(0 .5)" d="M0 0h20v20H0z"/></clipPath></defs></svg><svg fill="none" viewBox="0 0 20 20" id="notif-c" xmlns="http://www.w3.org/2000/svg"><path d="M10 18.334a8.333 8.333 0 100-16.667 8.333 8.333 0 000 16.667zm0-11.667V10m0 3.333h.008" stroke="currentColor" stroke-width="1.5" stroke-linecap="round" stroke-linejoin="round"/></svg><svg fill="none" viewBox="0 0 20 20" id="notification" xmlns="http://www.w3.org/2000/svg"><path d="M15 6.667a5 5 0 00-10 0c0 5.833-2.5 7.5-2.5 7.5h15S15 12.5 15 6.667z" fill="currentColor" stroke="currentColor" stroke-width=".833" stroke-linecap="round" stroke-linejoin="round"/><path d="M11.441 17.5a1.666 1.666 0 01-2.883 0" stroke="currentColor" stroke-width="1.667" stroke-linecap="round" stroke-linejoin="round"/></svg><svg viewBox="0 0 39 70" fill="none" id="num1" xmlns="http://www.w3.org/2000/svg"><path d="M.08 20.944a162.705 162.705 0 008.64-3.888 132.627 132.627 0 008.928-4.896 136.335 136.335 0 008.208-5.616c2.688-2.016 5.088-4.128 7.2-6.336h14.976V100H26.576V28.144c-2.88 1.92-6.096 3.696-9.648 5.328A143.071 143.071 0 016.56 37.504L.08 20.944z" fill="#2C4CA3"/></svg><svg fill="none" viewBox="0 0 70 103" id="num2" xmlns="http://www.w3.org/2000/svg"><path d="M66.424 29.416c0 3.648-.72 7.152-2.16 10.512-1.44 3.36-3.312 6.624-5.616 9.792a83.457 83.457 0 01-7.776 8.928 331.193 331.193 0 01-8.496 8.208 193.712 193.712 0 00-4.752 4.608 117.886 117.886 0 00-4.752 5.04 145.83 145.83 0 00-4.176 4.896c-1.152 1.44-1.872 2.64-2.16 3.6h42.912v18H2.92c-.192-1.056-.288-2.4-.288-4.032v-3.456c0-4.608.72-8.832 2.16-12.672a47.993 47.993 0 015.904-10.656c2.4-3.36 5.088-6.48 8.064-9.36 3.072-2.88 6.096-5.76 9.072-8.64 2.304-2.208 4.464-4.272 6.48-6.192 2.016-2.016 3.792-3.936 5.328-5.76 1.536-1.92 2.736-3.792 3.6-5.616.864-1.92 1.296-3.84 1.296-5.76 0-4.224-1.2-7.2-3.6-8.928-2.4-1.728-5.376-2.592-8.928-2.592-2.592 0-5.04.432-7.344 1.296a33.184 33.184 0 00-6.192 2.88c-1.824 1.056-3.408 2.16-4.752 3.312-1.344 1.056-2.352 1.92-3.024 2.592L.04 14.44c4.224-3.936 9.12-7.152 14.688-9.648C20.392 2.2 26.44.904 32.872.904c5.856 0 10.896.672 15.12 2.016 4.224 1.344 7.68 3.264 10.368 5.76 2.784 2.4 4.8 5.376 6.048 8.928 1.344 3.456 2.016 7.392 2.016 11.808z" fill="#2C4CA3"/></svg><svg fill="none" viewBox="0 0 70 106" id="num3" xmlns="http://www.w3.org/2000/svg"><path d="M29.832 105.16c-2.592 0-5.328-.192-8.208-.576a75.872 75.872 0 01-8.352-1.296c-2.688-.576-5.136-1.2-7.344-1.872-2.208-.672-3.936-1.296-5.184-1.872L4.92 81.688c2.496 1.056 5.664 2.208 9.504 3.456 3.936 1.152 8.784 1.728 14.544 1.728 6.624 0 11.472-1.248 14.544-3.744 3.072-2.496 4.608-5.856 4.608-10.08 0-2.592-.576-4.752-1.728-6.48-1.056-1.824-2.544-3.264-4.464-4.32-1.92-1.152-4.224-1.92-6.912-2.304-2.592-.48-5.376-.72-8.352-.72h-8.352v-17.28h9.504c2.112 0 4.128-.192 6.048-.576 2.016-.384 3.792-1.008 5.328-1.872 1.536-.96 2.736-2.208 3.6-3.744.96-1.632 1.44-3.648 1.44-6.048 0-1.824-.384-3.408-1.152-4.752a10.014 10.014 0 00-3.024-3.312c-1.152-.864-2.544-1.488-4.176-1.872-1.536-.48-3.12-.72-4.752-.72-4.128 0-7.968.624-11.52 1.872-3.456 1.248-6.624 2.784-9.504 4.608L2.472 9.832c1.536-.96 3.312-1.968 5.328-3.024 2.112-1.056 4.416-2.016 6.912-2.88a63.569 63.569 0 017.92-2.16c2.88-.576 5.904-.864 9.072-.864 5.856 0 10.896.72 15.12 2.16 4.32 1.344 7.872 3.312 10.656 5.904 2.784 2.496 4.848 5.472 6.192 8.928 1.344 3.36 2.016 7.056 2.016 11.088 0 3.936-1.104 7.776-3.312 11.52-2.208 3.648-5.184 6.432-8.928 8.352 5.184 2.112 9.168 5.28 11.952 9.504 2.88 4.128 4.32 9.12 4.32 14.976 0 4.608-.768 8.88-2.304 12.816-1.536 3.84-3.936 7.2-7.2 10.08-3.264 2.784-7.44 4.992-12.528 6.624-4.992 1.536-10.944 2.304-17.856 2.304z" fill="#2C4CA3"/></svg><svg fill="none" viewBox="0 0 17 20" id="play-btn" xmlns="http://www.w3.org/2000/svg"><path d="M16.674 10L.124 19.054V.946L16.675 10z" fill="currentColor"/></svg><svg fill="none" viewBox="0 0 20 20" id="search" xmlns="http://www.w3.org/2000/svg"><g clip-path="url(#byclip0_698_11308)"><path d="M7.98 0a7.985 7.985 0 104.488 14.593l4.935 4.93a1.495 1.495 0 002.484-.46 1.498 1.498 0 00-.368-1.656l-4.93-4.934A7.986 7.986 0 007.98 0zM2.99 7.985a4.99 4.99 0 119.981 0 4.99 4.99 0 01-9.98 0z" fill="currentColor"/></g><defs><clipPath id="byclip0_698_11308"><path fill="currentColor" d="M0 0h20v20H0z"/></clipPath></defs></svg><svg fill="none" viewBox="0 0 61 70" id="sports" xmlns="http://www.w3.org/2000/svg"><path d="M40.62 33.15s-.143-.01-.42-.074a4.046 4.046 0 01-1.133-.47 4.143 4.143 0 01-1.275-1.293c-.356-.568-.618-1.24-.786-1.961a9.808 9.808 0 01-.228-2.312c.005-.766.035-1.522-.01-2.258-.04-.726-.168-1.418-.455-1.961-.272-.543-.751-.953-1.424-1.368-.657-.395-1.488-.845-2.215-1.31l-2.096-1.353c-1.33-.864-2.576-1.541-3.669-1.907-1.093-.37-2.012-.41-2.645-.355-.638.04-.99.173-.994.148-.06.03-.683.123-1.543.509-.86.38-1.948 1.082-2.932 1.966-1.983 1.753-3.664 3.937-3.92 3.75-.223-.15.978-2.614 2.837-4.812.92-1.102 2.077-2.075 3.105-2.658 1.024-.593 1.86-.805 1.939-.835l.35-.069c.228-.05.56-.114.994-.138.856-.08 2.132 0 3.491.46 1.36.454 2.774 1.244 4.144 2.133.677.435 1.374.884 2.081 1.344.698.454 1.39.81 2.206 1.304.786.474 1.69 1.2 2.185 2.188.505.963.648 1.961.702 2.836.05.879.015 1.68.01 2.39-.01.692.055 1.28.173 1.823.247 1.087.742 1.71 1.113 1.922.385.217.667.227.667.227.045.005.524.114 1.558-.084 1.013-.173 2.334-.523 3.634-1.007 2.6-.964 5.137-2.233 5.295-1.952.134.238-2.091 1.952-4.672 3.335-1.29.691-2.69 1.245-3.812 1.55-1.093.361-2.156.327-2.255.292z" fill="#2C4CA3"/><path d="M19.577 47.17s.267-.351.618-1.003a6.626 6.626 0 00.8-2.86c.065-1.25-.276-2.796-.622-4.614-.163-.91-.312-1.902-.272-2.979.03-1.062.306-2.223.81-3.191.495-.968 1.123-1.788 1.712-2.54a54.72 54.72 0 001.646-2.163 42.574 42.574 0 003.446-5.73.072.072 0 00.01-.015c-.024-.015-.05-.025-.069-.034-.109-.065-.208-.1-.287-.134-.158-.07-.252-.094-.252-.094-.06-.015-.658-.281-1.671-.301-1.014-.015-2.349.282-3.565 1.037-1.226.721-2.314 1.749-3.135 2.52-.82.78-1.394 1.294-1.513 1.195-.114-.089.232-.77.875-1.734.648-.953 1.607-2.213 2.913-3.23 1.275-1.048 2.996-1.675 4.336-1.764 1.36-.114 2.344.207 2.433.237 0 0 .138.035.395.148.129.055.287.114.46.213.07.04.237.113.386.222.143.109.301.222.464.346.168.118.332.252.505.4.089.07.178.143.267.217.024.045.138.065.089.124l-.07.168c-.187.44-.395.943-.652 1.437a47.609 47.609 0 01-.935 1.774 45.814 45.814 0 01-2.684 4.243c-1.044 1.521-2.438 2.964-3.185 4.426-.766 1.433-.672 3.097-.34 4.816.316 1.705.73 3.448.657 5.084a8.828 8.828 0 01-1.048 3.764c-.44.825-.757 1.235-.757 1.235-.054.069-.598.825-1.528 1.714-.92.899-2.215 1.912-3.53 2.816-2.606 1.808-5.222 3.522-5.405 3.29-.182-.233 2.102-2.371 4.46-4.48 1.172-1.043 2.29-2.115 3.041-2.99.752-.854 1.147-1.511 1.197-1.57zm9.553 2.188c.227-.533.45-1.067.648-1.6l.291-.806c.05-.138.09-.261.104-.32.005-.02 0-.01 0-.01-.015-.015.05.049-.104-.114a23.498 23.498 0 00-1.785-1.492c-.42-.316-.845-.627-1.285-.919l-.168-.113-.075.34-.103.569a13.17 13.17 0 00-.159 2.297c.01.79.08 1.664-.05 2.647a5.034 5.034 0 01-.43 1.512 4.22 4.22 0 01-.993 1.319c-.045.05-.593.48-1.305.84a122.4 122.4 0 01-2.492 1.274c-1.81.89-3.635 1.704-3.793 1.453-.158-.252 1.385-1.522 2.991-2.742.802-.613 1.622-1.21 2.245-1.66.618-.44.88-.721.91-.75.885-.692.826-2.115.766-3.859-.014-.884.05-1.783.188-2.662l.12-.657.068-.327.134-.543c.212-.8.48-1.526.732-2.302l1.389.825c.232.138.465.277.692.425l.52.336c.474.316.939.647 1.389.993a27.2 27.2 0 011.33 1.077c.227.197.405.35.667.597.238.213.653.741.722 1.275.05.286.025.602-.04.87-.054.227-.113.385-.162.523l-.317.864c-.212.573-.45 1.132-.682 1.69-.035.108-1.029 2-2.013 3.789-1.003 1.788-1.785 3.645-2.066 3.586-.302-.064-.005-2.164.667-4.174.672-2.02 1.424-3.952 1.449-4.05z" fill="#2C4CA3"/><path d="M31.25 35.462s-.094.262-.178.652c-.079.415-.128.81.129 1.349.242.558.875 1.205 1.617 2.02.717.81 1.488 1.675 2.254 2.54.767.879 1.533 1.704 2.255 2.568.366.465.781 1.052.925 1.843.143.825-.134 1.536-.352 1.986-.237.474-.435.78-.608 1.091-.173.302-.326.563-.45.78l-.395.683c-.1.172-4.124 6.184-4.638 5.888-.514-.297 2.68-6.788 2.779-6.96l1.38-2.421c.152-.311.202-.529.167-.687-.024-.187-.192-.503-.49-.874-.657-.776-1.443-1.64-2.185-2.48-.751-.85-1.503-1.694-2.21-2.49-.682-.775-1.518-1.55-1.992-2.573a3.988 3.988 0 01-.391-1.537c-.02-.479.044-.864.104-1.16.128-.588.232-.865.232-.865.03-.104.762-1.986 1.86-3.62 1.067-1.656 2.452-3 2.68-2.817.232.183-.678 1.804-1.336 3.518-.692 1.699-1.132 3.477-1.157 3.566zM44.3 11.118s.1.243.223.672c.109.435.227 1.077.168 1.873a5.175 5.175 0 01-.934 2.509 5.858 5.858 0 01-2.305 1.907c-.934.43-2.012.612-3.006.444-.999-.138-1.84-.592-2.442-1.076a5.567 5.567 0 01-1.261-1.379c-.223-.395-.346-.622-.346-.622.005-.05-.208-.455-.282-1.107-.094-.632-.064-1.536.336-2.297.386-.77 1.043-1.289 1.563-1.511.533-.208.9-.218.959-.09.064.14-.173.41-.46.761-.282.366-.549.86-.628 1.354-.094.494.03 1.003.163 1.359.119.365.302.587.292.617.02-.03.217.642.994 1.23.726.637 2.032.939 3.223.366a3.756 3.756 0 001.45-1.196c.34-.494.514-1.003.548-1.462a3.707 3.707 0 00-.104-1.136c-.079-.272-.138-.42-.138-.42-.02-.02-.074-.306-.262-.672-.183-.366-.495-.81-.915-1.097-.415-.3-.954-.41-1.42-.38-.459.005-.815.094-.904-.05-.07-.103.134-.449.653-.745.5-.316 1.414-.5 2.27-.213.86.262 1.537.87 1.947 1.379.42.518.589.943.618.982z" fill="#2C4CA3"/><path d="M45.738 36.218s-.544.39-1.463.84c-.91.434-2.285.889-3.728.84-1.424-.025-2.819-.494-3.738-1.117a5.946 5.946 0 01-1.044-.855l-.34-.395a3.938 3.938 0 01-.386-.73c-.203-.436-.312-1.004-.376-1.488-.065-.489-.11-.919-.168-1.25-.05-.33-.12-.582-.015-.691.094-.104.4-.035.727.252.33.282.642.76.89 1.195.474.914.974 1.33 1.013 1.383 0 0 .074.09.208.243.148.138.356.345.667.543.594.41 1.593.75 2.621.77 1.018.04 2.027-.29 2.764-.637.727-.355 1.182-.676 1.182-.676.04-.025.875-.445 1.71-.964.841-.504 1.691-1.072 1.914-.874.222.193-.237 1.131-.885 1.99-.643.86-1.503 1.591-1.553 1.621z" fill="#2C4CA3"/></svg><svg fill="currentColor" viewBox="0 0 12 12" id="star" xmlns="http://www.w3.org/2000/svg"><path d="M6.057 1.21a.457.457 0 01.851 0l.952 2.637a.455.455 0 00.426.291h2.339c.432 0 .62.538.28.801L9.242 6.437a.445.445 0 00-.148.502l.608 2.576c.148.414-.33.77-.693.515l-2.26-1.435a.46.46 0 00-.53 0l-2.26 1.435c-.362.254-.842-.102-.694-.515l.608-2.576a.445.445 0 00-.148-.502L2.06 4.939c-.34-.263-.151-.8.28-.8h2.34a.455.455 0 00.425-.292l.952-2.636h0z" stroke="#EB9B24" stroke-width="2" stroke-linecap="round" stroke-linejoin="round"/></svg><svg fill="none" viewBox="0 0 18 18" id="star-m" xmlns="http://www.w3.org/2000/svg"><path d="M8.103.817a1 1 0 011.794 0l1.96 3.972a1 1 0 00.753.547l4.386.641a1 1 0 01.553 1.706l-3.172 3.09a1 1 0 00-.288.885l.748 4.365a1 1 0 01-1.45 1.054l-3.922-2.062a1 1 0 00-.93 0l-3.921 2.062a1 1 0 01-1.451-1.054l.748-4.365a1 1 0 00-.288-.885L.451 7.683a1 1 0 01.553-1.706l4.386-.641a1 1 0 00.752-.547L8.103.817z" fill="#F2C94C"/></svg><svg fill="none" viewBox="0 0 17 15" id="telegram" xmlns="http://www.w3.org/2000/svg"><path d="M.48 7.3l3.678 1.37 1.434 4.614c.063.311.437.374.686.187l2.057-1.684c.188-.187.5-.187.749 0l3.678 2.681c.25.187.624.063.686-.25l2.742-13.09c.063-.312-.25-.623-.56-.499L.48 6.488c-.374.126-.374.687 0 .811zm4.925.685l7.232-4.426c.125-.063.25.124.125.187L6.84 9.294c-.187.188-.374.437-.374.749l-.187 1.496c0 .187-.312.25-.374 0l-.748-2.743c-.187-.312-.063-.686.25-.81z" fill="#fff"/></svg><svg fill="none" viewBox="0 0 24 24" id="trash" xmlns="http://www.w3.org/2000/svg"><path d="M18.4 8v11.2a.8.8 0 01-.8.8H6.4a.8.8 0 01-.8-.8V8H4V6.4h16V8h-1.6zM7.2 8v10.4h9.6V8H7.2zM8 4h8v1.6H8V4zm3.2 6.4h1.6V16h-1.6v-5.6z" fill="currentColor"/></svg><svg fill="none" viewBox="0 0 24 24" id="unlock" xmlns="http://www.w3.org/2000/svg"><path d="M19 11H5a2 2 0 00-2 2v7a2 2 0 002 2h14a2 2 0 002-2v-7a2 2 0 00-2-2z" fill="#051138" stroke="#051138" stroke-width="2" stroke-linecap="round" stroke-linejoin="round"/><path d="M7 11V7a5 5 0 019.9-1" stroke="#051138" stroke-width="2" stroke-linecap="round" stroke-linejoin="round"/></svg><svg fill="none" viewBox="0 0 20 20" id="user" xmlns="http://www.w3.org/2000/svg"><path d="M16.667 17.5v-1.667a3.333 3.333 0 00-3.334-3.333H6.668a3.333 3.333 0 00-3.333 3.333V17.5M10 9.167A3.333 3.333 0 1010 2.5a3.333 3.333 0 000 6.667z" stroke="currentColor" stroke-width="1.5" stroke-linecap="round" stroke-linejoin="round"/></svg><svg fill="none" viewBox="0 0 17 19" id="vbr" xmlns="http://www.w3.org/2000/svg"><path d="M13.003.437a24.787 24.787 0 00-9.265 0C2.39.727.69 2.358.396 3.639a18.295 18.295 0 000 7.57c.352 1.282 2.052 2.912 3.342 3.203.059 0 .117.058.117.117v3.668c0 .175.235.291.352.117l1.76-1.806s1.407-1.455 1.641-1.688c0 0 .059-.059.118-.059 1.759.059 3.577-.116 5.336-.407 1.349-.291 3.049-1.922 3.342-3.203a18.297 18.297 0 000-7.57c-.352-1.223-2.052-2.853-3.4-3.144zm.059 10.947c-.293.582-.645 1.048-1.232 1.34l-.527.174a7.384 7.384 0 01-.587-.175c-1.876-.757-3.635-1.805-5.043-3.319a14.004 14.004 0 01-1.935-2.911c-.234-.524-.469-.99-.645-1.514-.176-.466.117-.932.41-1.281.294-.35.646-.583 1.056-.757.293-.175.587-.059.821.174.47.583.938 1.165 1.29 1.805.235.408.176.874-.234 1.165-.118.058-.176.117-.294.233-.058.058-.176.117-.234.233a.563.563 0 00-.059.524c.47 1.34 1.349 2.388 2.698 2.97a1.4 1.4 0 00.703.175c.41-.059.587-.525.88-.758.293-.232.645-.232.997-.058.293.175.586.408.938.64.293.234.586.408.88.641.175.117.234.408.117.7zm-2.463-4.367c-.117 0-.059 0 0 0-.235 0-.293-.117-.352-.291 0-.117 0-.292-.059-.408a1.106 1.106 0 00-.41-.64l-.352-.175c-.176-.058-.293-.058-.469-.058-.176-.059-.234-.175-.234-.35 0-.116.175-.233.293-.233.938.058 1.642.583 1.759 1.689v.233c0 .116-.059.233-.176.233zm-.586-2.562c-.294-.117-.587-.233-.939-.292-.117 0-.293-.058-.41-.058-.176 0-.293-.116-.235-.29 0-.176.118-.292.294-.234.586.058 1.114.175 1.641.408 1.056.524 1.642 1.397 1.818 2.562v.757c-.058.233-.469.291-.528 0 0-.058-.058-.175-.058-.233 0-.524-.117-1.048-.352-1.514-.352-.524-.762-.873-1.231-1.106zm3.166 3.494c-.176 0-.293-.175-.293-.35 0-.35-.059-.699-.117-1.048-.235-1.863-1.76-3.377-3.577-3.669-.294-.058-.587-.058-.821-.116-.176 0-.41 0-.47-.233-.058-.175.118-.35.294-.35h.117c2.404.059.117 0 0 0 2.463.059 4.515 1.69 4.926 4.135.058.408.117.815.117 1.281.117.175 0 .35-.176.35z" fill="#fff"/></svg><svg fill="none" viewBox="0 0 17 11" id="vk" xmlns="http://www.w3.org/2000/svg"><path d="M16.845 9.092c0-.066-.067-.066-.067-.133-.265-.531-.863-1.195-1.66-1.926-.399-.332-.598-.598-.73-.73-.2-.266-.2-.465-.133-.731.066-.2.332-.531.796-1.13.266-.331.399-.53.598-.73.996-1.328 1.461-2.192 1.329-2.59l-.067-.066c-.066-.067-.133-.133-.266-.133-.132-.067-.331-.067-.53 0h-2.991l-.066.066c-.066.067-.066.067-.066.133-.266.73-.598 1.328-.93 1.992-.2.333-.399.665-.598.93-.2.266-.332.465-.465.598-.133.133-.266.2-.332.332-.066.067-.2.133-.2.067-.066 0-.132 0-.132-.067l-.2-.199c-.066-.066-.066-.2-.132-.332V1.121c0-.066-.067-.2-.067-.266L9.738.657c-.066-.066-.2-.066-.266-.133A5.957 5.957 0 008.277.391c-1.063 0-1.793.067-2.06.2-.132.066-.265.132-.331.265-.133.133-.133.2-.067.2.332.066.598.199.731.398l.066.133c.067.066.067.2.133.398.067.2.067.399.067.665v1.062c0 .332-.067.532-.067.73 0 .2-.066.333-.133.4-.066.132-.066.199-.132.199 0 0 0 .066-.067.066-.066 0-.133.066-.266.066a.504.504 0 01-.265-.132.8.8 0 01-.332-.332c-.133-.133-.266-.333-.399-.598-.133-.266-.332-.532-.465-.93l-.133-.266a9.399 9.399 0 01-.332-.73c-.133-.332-.265-.598-.398-.93a.917.917 0 00-.2-.266h-.066S3.495.923 3.428.923c-.066 0-.133-.067-.199-.067H.838C.572.856.439.923.373.99l-.066.067v.132c0 .067 0 .133.066.266.332.797.73 1.594 1.13 2.391.398.73.796 1.395 1.062 1.86.332.465.598.93.93 1.328.332.399.531.664.597.797l.266.266.2.2c.132.132.332.331.597.53.266.2.598.399.93.598.332.2.73.332 1.13.465.464.133.863.2 1.261.133h.996c.2 0 .332-.066.465-.2l.067-.066c0-.066.066-.066.066-.133v-.265c0-.266 0-.465.067-.664.066-.2.066-.332.132-.465a.917.917 0 01.2-.266l.133-.133h.066c.133-.066.332 0 .465.133.2.133.398.332.531.531.133.2.332.399.598.665.266.265.465.465.598.53l.199.134c.133.066.266.133.465.199.2.066.332.066.465.066l2.258-.066c.2 0 .399-.066.531-.133.133-.066.2-.133.2-.265v-.266c-.133-.133-.133-.2-.133-.266z" fill="#fff"/></svg><svg fill="none" viewBox="0 0 53 53" id="x-circle" xmlns="http://www.w3.org/2000/svg"><path d="M26.5 48.584c12.196 0 22.083-9.887 22.083-22.084 0-12.196-9.887-22.083-22.084-22.083-12.196 0-22.083 9.887-22.083 22.083 0 12.197 9.887 22.084 22.083 22.084z" fill="#fff" stroke="#fff" stroke-width="1.5" stroke-linecap="round" stroke-linejoin="round"/><path d="M33.125 19.875l-13.25 13.25m0-13.25l13.25 13.25" stroke="#000" stroke-width="1.5" stroke-linecap="round" stroke-linejoin="round"/></svg></svg>