<?xml version="1.0" encoding="utf-8"?><svg viewBox="0 0 61 47" xmlns="http://www.w3.org/2000/svg" xmlns:xlink="http://www.w3.org/1999/xlink"><style>:root>svg{display:none}:root>svg:target{display:block}</style><svg fill="none" viewBox="0 0 21 17" id="email" xmlns="http://www.w3.org/2000/svg"><path d="M20.014 4.698v8.828a2.764 2.764 0 01-2.765 2.764H2.765A2.766 2.766 0 010 13.526V4.698l9.69 5.326a.659.659 0 00.634 0l9.69-5.327zM17.249.5a2.766 2.766 0 012.764 2.697l-10.006 5.5L0 3.197l.001-.048A2.762 2.762 0 012.765.5H17.25z" fill="#E1EBF5"/></svg><svg fill="none" viewBox="0 0 15 15" id="fb" xmlns="http://www.w3.org/2000/svg"><path d="M14.2 3.055C14.2 1.857 13.143.8 11.945.8h-9.09C1.657.8.6 1.857.6 3.055v9.09c0 1.198 1.057 2.255 2.255 2.255h4.58V9.256H5.744V7h1.69v-.916c0-1.55 1.128-2.89 2.538-2.89h1.832V5.45H9.972c-.212 0-.423.211-.423.634V7h2.255v2.255H9.549V14.4h2.396c1.198 0 2.255-1.057 2.255-2.255v-9.09z" fill="#fff"/></svg><svg fill="none" viewBox="0 0 15 15" id="insta" xmlns="http://www.w3.org/2000/svg"><path d="M12.266.6h-9.73C1.439.6.603 1.437.603 2.535v9.73c0 1.098.836 1.935 1.935 1.935h9.73c1.098 0 1.935-.837 1.935-1.935v-9.73c0-1.098-.837-1.935-1.936-1.935zM7.402 11.48c2.249 0 4.08-1.778 4.08-3.923 0-.366-.053-.785-.157-1.098h1.15v5.544a.524.524 0 01-.523.523H2.851a.524.524 0 01-.523-.523V6.406H3.53a3.982 3.982 0 00-.157 1.099c-.052 2.197 1.778 3.975 4.028 3.975zm0-1.57c-1.465 0-2.616-1.15-2.616-2.562 0-1.413 1.151-2.563 2.616-2.563 1.464 0 2.615 1.15 2.615 2.563 0 1.464-1.15 2.563-2.615 2.563zm5.021-5.596a.58.58 0 01-.575.575h-1.465a.58.58 0 01-.575-.575V2.902a.58.58 0 01.575-.576h1.465a.58.58 0 01.575.576v1.412z" fill="#fff"/></svg><svg fill="none" viewBox="0 0 21 20" id="instagram" xmlns="http://www.w3.org/2000/svg"><g clip-path="url(#dclip0_508_5989)"><path d="M10.004 6.665A3.343 3.343 0 006.667 10c0 1.836 1.5 3.335 3.337 3.335A3.343 3.343 0 0013.341 10c0-1.836-1.5-3.335-3.337-3.335zM20.013 10c0-1.381.012-2.75-.065-4.128-.078-1.601-.443-3.022-1.615-4.193C17.159.506 15.74.143 14.137.066 12.755-.012 11.387 0 10.007 0c-1.382 0-2.751-.013-4.13.065C4.273.143 2.851.509 1.68 1.679.506 2.853.143 4.271.066 5.872-.012 7.253 0 8.622 0 10c0 1.378-.013 2.75.065 4.127.077 1.602.443 3.022 1.615 4.193 1.174 1.174 2.593 1.536 4.195 1.614 1.382.077 2.751.065 4.13.065 1.383 0 2.752.012 4.131-.065 1.602-.078 3.024-.443 4.196-1.614 1.174-1.173 1.537-2.591 1.615-4.193.08-1.378.065-2.746.065-4.127zm-10.009 5.13A5.125 5.125 0 014.87 10a5.125 5.125 0 015.134-5.131 5.125 5.125 0 015.135 5.13 5.126 5.126 0 01-5.135 5.132zm5.345-9.273a1.197 1.197 0 110-2.396 1.197 1.197 0 110 2.396z" fill="#E1EBF5"/></g><defs><clipPath id="dclip0_508_5989"><path fill="#fff" d="M0 0h20.014v20H0z"/></clipPath></defs></svg><svg fill="none" viewBox="0 0 30 47" id="logo" xmlns="http://www.w3.org/2000/svg"><path d="M23.918 10.85L4.246 17.29v20.895L5.72 18.144l18.2-7.294z" fill="url(#epaint0_linear_508_6065)"/><path d="M11.091 46.53l14.3-4.994v-9.068l-1.474 8.214-12.826 5.848z" fill="url(#epaint1_linear_508_6065)"/><path d="M22.272 8.221L0 14.595V29.38l1.473-13.93 20.799-7.23z" fill="url(#epaint2_linear_508_6065)"/><path d="M29.293.14L4.334 7.038v6.374l1.473-5.52L29.292.139z" fill="url(#epaint3_linear_508_6065)"/><defs><linearGradient id="epaint0_linear_508_6065" x1="5.036" y1="38.185" x2="30.91" y2="19.19" gradientUnits="userSpaceOnUse"><stop stop-color="#00C2FF"/><stop offset="1" stop-color="#FFC24B"/></linearGradient><linearGradient id="epaint1_linear_508_6065" x1="11.002" y1="45.754" x2="24.858" y2="33.104" gradientUnits="userSpaceOnUse"><stop stop-color="#fff"/><stop offset="1" stop-color="#fff" stop-opacity="0"/></linearGradient><linearGradient id="epaint2_linear_508_6065" x1="22.361" y1="8.809" x2="1.826" y2="30.596" gradientUnits="userSpaceOnUse"><stop stop-color="#E4FF00"/><stop offset="1" stop-color="red"/></linearGradient><linearGradient id="epaint3_linear_508_6065" x1="5.361" y1="13.188" x2="29.994" y2="11.016" gradientUnits="userSpaceOnUse"><stop stop-color="#fff"/><stop offset="1" stop-color="#fff" stop-opacity="0"/></linearGradient></defs></svg><svg fill="none" viewBox="0 0 61 40" id="logo-footer" xmlns="http://www.w3.org/2000/svg"><g clip-path="url(#fclip0_461_6464)" fill="#767F9C"><path d="M60.957 0H0v2.194h60.957V0zm0 37.75H0V40h60.957v-2.25zm-3.074-24.113c0-1.292-.32-2.308-.952-3.018-.634-.717-1.515-1.08-2.613-1.08-.732 0-1.391.178-1.965.532-.573.354-1.021.864-1.336 1.52-.308.646-.466 1.39-.466 2.21v.205c0 1.228.375 2.225 1.113 2.966.738.742 1.708 1.117 2.88 1.117a4.2 4.2 0 001.823-.393 3.292 3.292 0 001.32-1.105l.068-.099-1.217-1.4-.113.151c-.42.557-.991.828-1.744.828-.48 0-.864-.142-1.175-.43a1.793 1.793 0 01-.527-.982h4.9v-1.022h.004zm-3.572-2.08c.4 0 .693.11.903.338.21.228.324.564.333.991v.016h-2.544c.076-.413.22-.739.424-.97.226-.252.515-.375.884-.375zm-3.958 13.982c-.732 0-1.391.178-1.965.532-.573.354-1.021.864-1.335 1.52-.308.646-.467 1.39-.467 2.21v.205c0 1.228.375 2.225 1.113 2.966.738.742 1.708 1.117 2.88 1.117a4.2 4.2 0 001.823-.393 3.292 3.292 0 001.32-1.105l.068-.099-1.217-1.4-.113.151c-.42.557-.991.828-1.744.828-.48 0-.864-.142-1.175-.43a1.793 1.793 0 01-.527-.982h4.901v-1.022c0-1.292-.32-2.308-.951-3.018-.632-.717-1.513-1.08-2.611-1.08zm-.006 2.018c.4 0 .692.11.902.338.21.228.324.564.333.991v.016h-2.544c.076-.413.22-.739.424-.97.226-.252.515-.375.885-.375zM19.938 16.49l-1.217-1.4-.113.15c-.421.557-.991.828-1.745.828-.479 0-.863-.142-1.174-.431a1.793 1.793 0 01-.528-.982h4.902v-1.021c0-1.292-.32-2.308-.952-3.018-.634-.714-1.516-1.077-2.614-1.077-.732 0-1.39.178-1.964.532-.573.354-1.022.864-1.336 1.52-.308.646-.466 1.39-.466 2.21v.205c0 1.228.375 2.225 1.113 2.966.738.742 1.708 1.117 2.879 1.117.662 0 1.278-.132 1.824-.393a3.292 3.292 0 001.32-1.105l.07-.102zm-2.212-3.588h-2.543c.076-.413.22-.739.424-.97.225-.255.515-.378.884-.378.4 0 .692.11.903.338.21.228.323.564.332.991v.019zm15.653 4.713c.68.333 1.403.502 2.153.502 1.214 0 2.239-.406 3.041-1.21.802-.802 1.211-1.827 1.211-3.043 0-1.206-.403-2.221-1.199-3.015s-1.827-1.194-3.065-1.194c-.799 0-1.537.176-2.187.526a3.684 3.684 0 00-1.528 1.533 4.347 4.347 0 00-.534 2.064c0 .917.18 1.711.537 2.357a3.504 3.504 0 001.571 1.48zm.35-3.729c0-.73.178-1.292.522-1.674a1.643 1.643 0 011.275-.566c.51 0 .924.185 1.269.566.345.382.518.939.518 1.659 0 .741-.173 1.307-.518 1.689a1.63 1.63 0 01-1.269.566c-.51 0-.927-.185-1.275-.566-.347-.382-.521-.945-.521-1.674zm10.555 4.231c.47 0 .942-.114 1.403-.342.341-.169.655-.406.93-.704v.87h2.26V6.865h-2.41v3.658c-.619-.575-1.345-.868-2.153-.868-1.01 0-1.854.363-2.516 1.08-.659.714-.991 1.763-.991 3.12 0 1.326.341 2.379 1.015 3.126.68.754 1.507 1.136 2.462 1.136zm-1.025-4.4c0-.732.158-1.286.466-1.643.312-.357.684-.533 1.141-.533.47 0 .848.176 1.15.536.305.363.458.981.458 1.837 0 .763-.16 1.338-.473 1.71-.311.373-.677.551-1.12.551-.558 0-.982-.24-1.293-.735-.216-.345-.33-.926-.33-1.723zM6.091 30.037l-1.875-6.788H.629v10.877h2.364V26.84l1.903 7.286h2.37l1.909-7.289v7.29h2.364V23.248H7.946L6.09 30.037zm23.144-3.132c-.213-.268-.528-.493-.933-.662a3.42 3.42 0 00-1.333-.252 3.33 3.33 0 00-2.47 1.046v-.874h-2.26v7.963h2.409v-3.621c0-.834.052-1.41.152-1.708.098-.286.272-.51.534-.686.262-.176.564-.262.897-.262.253 0 .47.059.646.176a.96.96 0 01.379.492c.058.154.125.548.125 1.55v4.062h2.41v-4.917c0-.6-.04-1.07-.123-1.4a2.233 2.233 0 00-.433-.907zm8.82 3.045c-.467-.374-1.257-.68-2.41-.931-1.366-.299-1.793-.462-1.91-.545-.13-.095-.145-.185-.145-.243 0-.074.018-.182.167-.28.214-.132.589-.2 1.11-.2.406 0 .72.07.93.212.208.139.345.336.422.6l.036.133 2.288-.407-.05-.166c-.21-.701-.597-1.24-1.155-1.6-.552-.357-1.397-.535-2.51-.535-1.175 0-2.059.24-2.63.714-.579.48-.872 1.083-.872 1.79 0 .788.342 1.41 1.013 1.853.476.31 1.546.64 3.279 1.009.442.098.585.188.628.225.07.07.107.16.107.273a.48.48 0 01-.21.416c-.248.172-.632.261-1.141.261-.458 0-.818-.092-1.062-.277-.247-.184-.405-.449-.488-.809l-.03-.138-2.422.354.046.166c.204.76.64 1.369 1.302 1.812.653.437 1.55.662 2.657.662 1.223 0 2.165-.268 2.8-.791.643-.533.97-1.182.97-1.93-.004-.689-.244-1.236-.72-1.627zm4.929-5.535l-2.315.166v1.407h-1.323v1.375h1.323v4.446c0 .79.302 1.412.9 1.846.595.431 1.4.653 2.394.653a8.16 8.16 0 001.59-.185l.149-.03V32.8l-.241.04c-.348.058-.644.09-.881.09-.565 0-.973-.105-1.217-.309-.25-.206-.376-.569-.376-1.073v-4.185h2.764v-1.375h-2.767v-1.573zm16.186 1.573c-.367 0-.7.089-.989.268-.21.129-.43.347-.67.661v-.757H55.25v7.963h2.41v-2.517c0-1.283.058-2.132.17-2.523.107-.375.25-.63.43-.766.366-.28.922-.295 1.565.105l.159.098.762-2.064-.113-.065a2.928 2.928 0 00-1.464-.403zM5.356 14.582h1.82l2.19 3.31h2.71L9.57 14.095c.54-.246.982-.621 1.312-1.117a3.255 3.255 0 00.546-1.83c0-.419-.092-.84-.269-1.253A3.689 3.689 0 009.293 8.01a3.454 3.454 0 00-1.43-.298H2.965v10.181h2.391v-3.31zm0-4.884h2.37c.158 0 .317.034.476.105.158.07.299.172.42.298a1.492 1.492 0 01.406 1.043c0 .204-.033.397-.097.573a1.532 1.532 0 01-.26.461 1.212 1.212 0 01-.38.302 1.013 1.013 0 01-.47.108H5.358v-2.89h-.003zm25 6.923c.333-.295.592-.643.772-1.03l.061-.133-1.98-1.049-.067.148a2.004 2.004 0 01-.448.64c-.189.178-.4.326-.622.44a3.007 3.007 0 01-.71.252c-.73.154-1.38.083-1.938-.184a3.07 3.07 0 01-.951-.702c-.262-.29-.47-.63-.613-1.015a3.44 3.44 0 01-.028-2.33c.125-.372.311-.713.555-1.006a2.83 2.83 0 01.918-.72c.534-.268 1.245-.357 2.01-.203.238.05.47.126.69.23.216.106.42.247.61.425.186.179.35.4.482.662l.076.15 1.867-1.18-.07-.127c-.367-.661-.928-1.206-1.669-1.618-.741-.41-1.626-.616-2.635-.616-.854 0-1.626.151-2.297.443a5.424 5.424 0 00-1.71 1.16 4.947 4.947 0 00-1.068 1.628 4.906 4.906 0 00-.366 1.846c0 .65.134 1.293.396 1.917a5.495 5.495 0 001.104 1.674c.47.49 1.037.892 1.684 1.194a5.072 5.072 0 002.165.458c.443 0 .9-.052 1.364-.157.46-.104.902-.258 1.311-.455.409-.2.781-.45 1.107-.742zm-13.414 9.084c-.8 0-1.537.175-2.187.526a3.684 3.684 0 00-1.528 1.532 4.346 4.346 0 00-.534 2.065c0 .917.18 1.71.537 2.357.36.649.888 1.15 1.577 1.486.68.332 1.403.501 2.153.501 1.214 0 2.239-.406 3.041-1.209s1.211-1.828 1.211-3.043c0-1.206-.403-2.222-1.199-3.015-.799-.797-1.833-1.2-3.071-1.2zm1.796 4.218c0 .742-.173 1.308-.518 1.69-.345.38-.76.565-1.269.565-.51 0-.927-.184-1.275-.566-.344-.381-.521-.944-.521-1.674 0-.729.177-1.292.521-1.673a1.643 1.643 0 011.275-.567c.51 0 .924.185 1.269.567.342.378.518.935.518 1.658z"/></g><defs><clipPath id="fclip0_461_6464"><path fill="#fff" d="M0 0h61v40H0z"/></clipPath></defs></svg><svg fill="none" viewBox="0 0 17 15" id="telegram" xmlns="http://www.w3.org/2000/svg"><path d="M.48 7.3l3.678 1.37 1.434 4.614c.063.311.437.374.686.187l2.057-1.684c.188-.187.5-.187.749 0l3.678 2.681c.25.187.624.063.686-.25l2.742-13.09c.063-.312-.25-.623-.56-.499L.48 6.488c-.374.126-.374.687 0 .811zm4.925.685l7.232-4.426c.125-.063.25.124.125.187L6.84 9.294c-.187.188-.374.437-.374.749l-.187 1.496c0 .187-.312.25-.374 0l-.748-2.743c-.187-.312-.063-.686.25-.81z" fill="#fff"/></svg><svg fill="none" viewBox="0 0 17 19" id="vbr" xmlns="http://www.w3.org/2000/svg"><path d="M13.003.437a24.787 24.787 0 00-9.265 0C2.39.727.69 2.358.396 3.639a18.295 18.295 0 000 7.57c.352 1.282 2.052 2.912 3.342 3.203.059 0 .117.058.117.117v3.668c0 .175.235.291.352.117l1.76-1.806s1.407-1.455 1.641-1.688c0 0 .059-.059.118-.059 1.759.059 3.577-.116 5.336-.407 1.349-.291 3.049-1.922 3.342-3.203a18.297 18.297 0 000-7.57c-.352-1.223-2.052-2.853-3.4-3.144zm.059 10.947c-.293.582-.645 1.048-1.232 1.34l-.527.174a7.384 7.384 0 01-.587-.175c-1.876-.757-3.635-1.805-5.043-3.319a14.004 14.004 0 01-1.935-2.911c-.234-.524-.469-.99-.645-1.514-.176-.466.117-.932.41-1.281.294-.35.646-.583 1.056-.757.293-.175.587-.059.821.174.47.583.938 1.165 1.29 1.805.235.408.176.874-.234 1.165-.118.058-.176.117-.294.233-.058.058-.176.117-.234.233a.563.563 0 00-.059.524c.47 1.34 1.349 2.388 2.698 2.97a1.4 1.4 0 00.703.175c.41-.059.587-.525.88-.758.293-.232.645-.232.997-.058.293.175.586.408.938.64.293.234.586.408.88.641.175.117.234.408.117.7zm-2.463-4.367c-.117 0-.059 0 0 0-.235 0-.293-.117-.352-.291 0-.117 0-.292-.059-.408a1.106 1.106 0 00-.41-.64l-.352-.175c-.176-.058-.293-.058-.469-.058-.176-.059-.234-.175-.234-.35 0-.116.175-.233.293-.233.938.058 1.642.583 1.759 1.689v.233c0 .116-.059.233-.176.233zm-.586-2.562c-.294-.117-.587-.233-.939-.292-.117 0-.293-.058-.41-.058-.176 0-.293-.116-.235-.29 0-.176.118-.292.294-.234.586.058 1.114.175 1.641.408 1.056.524 1.642 1.397 1.818 2.562v.757c-.058.233-.469.291-.528 0 0-.058-.058-.175-.058-.233 0-.524-.117-1.048-.352-1.514-.352-.524-.762-.873-1.231-1.106zm3.166 3.494c-.176 0-.293-.175-.293-.35 0-.35-.059-.699-.117-1.048-.235-1.863-1.76-3.377-3.577-3.669-.294-.058-.587-.058-.821-.116-.176 0-.41 0-.47-.233-.058-.175.118-.35.294-.35h.117c2.404.059.117 0 0 0 2.463.059 4.515 1.69 4.926 4.135.058.408.117.815.117 1.281.117.175 0 .35-.176.35z" fill="#fff"/></svg><svg fill="none" viewBox="0 0 17 11" id="vk" xmlns="http://www.w3.org/2000/svg"><path d="M16.845 9.092c0-.066-.067-.066-.067-.133-.265-.531-.863-1.195-1.66-1.926-.399-.332-.598-.598-.73-.73-.2-.266-.2-.465-.133-.731.066-.2.332-.531.796-1.13.266-.331.399-.53.598-.73.996-1.328 1.461-2.192 1.329-2.59l-.067-.066c-.066-.067-.133-.133-.266-.133-.132-.067-.331-.067-.53 0h-2.991l-.066.066c-.066.067-.066.067-.066.133-.266.73-.598 1.328-.93 1.992-.2.333-.399.665-.598.93-.2.266-.332.465-.465.598-.133.133-.266.2-.332.332-.066.067-.2.133-.2.067-.066 0-.132 0-.132-.067l-.2-.199c-.066-.066-.066-.2-.132-.332V1.121c0-.066-.067-.2-.067-.266L9.738.657c-.066-.066-.2-.066-.266-.133A5.957 5.957 0 008.277.391c-1.063 0-1.793.067-2.06.2-.132.066-.265.132-.331.265-.133.133-.133.2-.067.2.332.066.598.199.731.398l.066.133c.067.066.067.2.133.398.067.2.067.399.067.665v1.062c0 .332-.067.532-.067.73 0 .2-.066.333-.133.4-.066.132-.066.199-.132.199 0 0 0 .066-.067.066-.066 0-.133.066-.266.066a.504.504 0 01-.265-.132.8.8 0 01-.332-.332c-.133-.133-.266-.333-.399-.598-.133-.266-.332-.532-.465-.93l-.133-.266a9.399 9.399 0 01-.332-.73c-.133-.332-.265-.598-.398-.93a.917.917 0 00-.2-.266h-.066S3.495.923 3.428.923c-.066 0-.133-.067-.199-.067H.838C.572.856.439.923.373.99l-.066.067v.132c0 .067 0 .133.066.266.332.797.73 1.594 1.13 2.391.398.73.796 1.395 1.062 1.86.332.465.598.93.93 1.328.332.399.531.664.597.797l.266.266.2.2c.132.132.332.331.597.53.266.2.598.399.93.598.332.2.73.332 1.13.465.464.133.863.2 1.261.133h.996c.2 0 .332-.066.465-.2l.067-.066c0-.066.066-.066.066-.133v-.265c0-.266 0-.465.067-.664.066-.2.066-.332.132-.465a.917.917 0 01.2-.266l.133-.133h.066c.133-.066.332 0 .465.133.2.133.398.332.531.531.133.2.332.399.598.665.266.265.465.465.598.53l.199.134c.133.066.266.133.465.199.2.066.332.066.465.066l2.258-.066c.2 0 .399-.066.531-.133.133-.066.2-.133.2-.265v-.266c-.133-.133-.133-.2-.133-.266z" fill="#fff"/></svg></svg>