<svg width="13" height="13" viewBox="0 0 13 13" fill="none" xmlns="http://www.w3.org/2000/svg">
<path d="M6.17221 2.21071C6.31934 1.82267 6.87612 1.82267 7.02371 2.21071L7.97543 4.84703C8.0421 5.02175 8.21175 5.13807 8.40118 5.13807H10.74C11.1722 5.13807 11.3607 5.676 11.0209 5.93945L9.35658 7.43692C9.28203 7.49423 9.22754 7.57369 9.20095 7.66389C9.17435 7.75409 9.177 7.85039 9.20854 7.93899L9.81635 10.5151C9.9644 10.9289 9.48532 11.2843 9.12302 11.0296L6.86233 9.59508C6.78491 9.54067 6.69259 9.51147 6.59796 9.51147C6.50333 9.51147 6.41101 9.54067 6.33359 9.59508L4.0729 11.0296C3.71106 11.2843 3.23152 10.9284 3.37957 10.5151L3.98739 7.93899C4.01892 7.85039 4.02157 7.75409 3.99498 7.66389C3.96838 7.57369 3.91389 7.49423 3.83934 7.43692L2.17497 5.93945C1.83474 5.676 2.02417 5.13807 2.45543 5.13807H4.79428C4.88637 5.13838 4.97638 5.11071 5.05241 5.05875C5.12843 5.00678 5.18688 4.93295 5.22003 4.84703L6.17175 2.21071H6.17221Z" fill="#EB9B24" stroke="#EB9B24" stroke-width="2" stroke-linecap="round" stroke-linejoin="round"/>
</svg>
