<svg width="129" height="132" viewBox="0 0 129 132" fill="none" xmlns="http://www.w3.org/2000/svg">
<path d="M14.8271 131.386C13.1884 131.269 12.5776 131.138 13.3672 130.978C18.8792 129.841 43.5645 129.826 55.5272 129.797C67.5197 129.768 79.5123 129.782 91.4899 129.87C95.9293 129.899 100.384 129.943 104.823 130.001C107.043 130.03 109.263 130.059 111.482 130.088C112.6 130.103 117.605 130.03 118.454 130.744C118.857 131.094 114.819 131.503 114.432 131.532C112.242 131.721 110.037 131.721 107.832 131.765C105.464 131.809 103.11 131.838 100.741 131.882C84.1305 132.1 67.2069 131.955 50.5514 131.911C39.2591 131.896 25.7768 132.144 14.8271 131.386Z" fill="#EEEEEE"/>
<path d="M48.2119 118.352C47.9438 117.711 48.0481 116.734 48.2864 115.99C50.0592 110.261 50.2082 104.138 48.8674 98.4079C47.3628 91.9931 41.4037 85.7678 39.9587 79.3092C39.5564 77.4868 40.7184 76.4808 41.7166 74.8334C42.5508 73.4629 43.9214 72.5007 45.2324 71.553C47.1989 70.168 49.359 68.7247 51.7427 68.7976C53.5155 68.8559 55.1244 69.789 56.3758 70.9845C68.5918 82.6332 60.711 107.797 50.7147 118.104C50.2678 118.571 49.7166 119.052 49.076 118.994C48.644 118.965 48.3758 118.717 48.2119 118.352Z" fill="#A9B7DD"/>
<path d="M50.0295 108.672C50.2828 105.202 50.0444 101.703 49.225 98.3207C48.4355 94.9966 46.6478 91.935 44.9495 88.9754C44.8154 88.7567 44.1301 88.99 44.2344 89.1649C45.888 92.0516 47.631 95.0403 48.4504 98.2769C49.3144 101.688 49.5528 105.26 49.3144 108.774C49.2846 109.036 50.0146 108.891 50.0295 108.672Z" fill="#5D7183"/>
<path d="M62.2305 87.5173C62.2454 95.0111 59.9363 102.461 56.5098 109.109C56.4204 109.284 57.1206 109.226 57.2249 109.007C60.6662 102.33 62.9605 94.8507 62.9456 87.3278C62.9605 87.1383 62.2305 87.2549 62.2305 87.5173Z" fill="#5D7183"/>
<path d="M11.3706 110.611C11.8324 104.968 14.6927 99.6907 19.2663 96.2063C24.2719 92.4011 30.946 91.1327 37.0539 92.8239C40.6443 93.8153 43.877 95.7543 46.4543 98.3932C46.6033 98.5535 47.2886 98.2911 47.1247 98.1307C42.3277 93.2321 35.3109 90.9286 28.4581 92.0075C22.5437 92.9405 17.1657 96.3229 13.9181 101.265C12.041 104.108 10.9386 107.359 10.6555 110.727C10.6406 110.96 11.3557 110.815 11.3706 110.611Z" fill="#5D7183"/>
<path d="M81.5973 87.4738C82.506 87.0802 83.4148 86.7011 84.3385 86.322C84.8003 86.1325 84.3832 85.8409 84.0405 85.9867C83.1169 86.3512 82.2081 86.7302 81.2993 87.1385C80.8375 87.3426 81.2546 87.6196 81.5973 87.4738Z" fill="#5D7183"/>
<path d="M57.2252 109.08C60.8899 103.744 64.942 98.7141 69.9178 94.4862C70.2455 94.2092 69.5304 94.1654 69.3368 94.3404C64.3312 98.5975 60.2493 103.671 56.5548 109.036C56.3462 109.328 57.0762 109.299 57.2252 109.08Z" fill="#5D7183"/>
<path d="M47.318 88.2916C49.9995 94.3857 52.696 100.48 55.3776 106.574C55.7649 107.434 56.1373 108.294 56.5247 109.154C56.629 109.402 57.344 109.184 57.2397 108.965C54.5582 102.871 51.8617 96.7767 49.1802 90.6826C48.7928 89.8225 48.4204 88.9623 48.0331 88.1021C47.9288 87.8543 47.2137 88.0729 47.318 88.2916Z" fill="#5D7183"/>
<path d="M68.9794 112.652C78.782 109.372 78.3499 96.6587 86.1414 91.2353C86.5436 90.9582 85.9477 90.725 85.6646 90.9145C81.687 93.6846 79.8099 98.1312 77.7987 102.315C75.8918 106.296 73.3742 110.655 68.8453 112.171C68.4282 112.317 68.5473 112.798 68.9794 112.652Z" fill="#5D7183"/>
<path d="M101.68 130.425C111.841 130.425 120.078 122.363 120.078 112.419C120.078 102.475 111.841 94.4141 101.68 94.4141C91.5185 94.4141 83.2812 102.475 83.2812 112.419C83.2812 122.363 91.5185 130.425 101.68 130.425Z" fill="white"/>
<path d="M31.7061 130.425C41.8672 130.425 50.1045 122.363 50.1045 112.419C50.1045 102.475 41.8672 94.4141 31.7061 94.4141C21.5449 94.4141 13.3076 102.475 13.3076 112.419C13.3076 122.363 21.5449 130.425 31.7061 130.425Z" fill="white"/>
<path d="M50.0748 108.645C48.6 101.88 43.1922 96.398 36.2946 94.7797C29.7099 93.2343 22.4995 95.3483 17.8961 100.203C13.114 105.248 11.6391 112.712 14.2164 119.127C16.7341 125.367 22.7527 129.799 29.5609 130.47C36.6223 131.17 43.7583 127.889 47.587 121.999C48.0786 121.241 48.5106 120.454 48.883 119.637C48.9277 119.535 48.2573 119.579 48.168 119.769C45.1735 126.285 38.4398 130.586 31.0953 130.266C24.5702 129.974 18.5665 126.125 15.6317 120.425C12.682 114.695 13.114 107.682 16.7639 102.346C20.5926 96.7479 27.4454 93.7155 34.2685 94.7652C41.7471 95.9023 47.7806 101.617 49.3598 108.834C49.3896 108.965 50.1046 108.805 50.0748 108.645Z" fill="#5D7183"/>
<path d="M90.149 98.0735C83.8175 102.958 81.2403 111.413 84.1006 118.849C86.663 125.512 93.1583 130.192 100.413 130.629C107.624 131.066 114.641 127.349 118.141 121.152C121.717 114.825 121.032 106.792 116.458 101.121C111.661 95.1868 103.393 92.7666 96.0484 95.0556C94.9758 95.3909 93.9478 95.8137 92.9646 96.324C92.5326 96.5426 92.9199 96.8634 93.2775 96.6884C100.22 93.1457 108.86 94.4287 114.387 99.8521C119.378 104.736 121.091 112.244 118.588 118.732C116.13 125.133 109.978 129.696 102.991 130.162C95.9888 130.629 89.2253 126.911 85.8734 120.905C82.1937 114.286 83.2663 105.83 88.4953 100.304C89.1508 99.6043 89.8659 98.9628 90.6406 98.3796C90.9981 98.0589 90.4022 97.8694 90.149 98.0735Z" fill="#5D7183"/>
<path d="M81.2699 114.403C80.6293 109.344 81.985 104.183 85.1135 100.086C88.4505 95.6978 93.6051 92.8694 99.1619 92.3592C103.05 92.0093 106.953 92.8548 110.395 94.6481C110.588 94.7501 111.259 94.4586 110.976 94.3128C105.106 91.2511 97.9999 91.1199 92.0111 93.9629C87.1247 96.281 83.3109 100.451 81.5083 105.466C80.4655 108.396 80.1526 111.531 80.54 114.607C80.5847 114.811 81.2997 114.651 81.2699 114.403Z" fill="#5D7183"/>
<path d="M35.3109 116.852C37.3072 119.228 39.3183 121.605 41.3146 123.981C41.3891 124.069 41.7318 123.952 41.6424 123.85C39.6461 121.474 37.6349 119.097 35.6386 116.721C35.5642 116.619 35.2066 116.735 35.3109 116.852Z" fill="#A9B7DD"/>
<path d="M21.755 100.785C24.2727 103.759 26.7755 106.733 29.2931 109.722C29.3676 109.81 29.7103 109.693 29.6209 109.591C27.1032 106.617 24.6004 103.643 22.0827 100.654C22.0083 100.566 21.6656 100.683 21.755 100.785Z" fill="#A9B7DD"/>
<path d="M16.3467 110.991C20.2499 111.355 24.1382 111.72 28.0413 112.084C28.1903 112.099 28.4138 111.895 28.1754 111.866C24.2722 111.501 20.384 111.137 16.4808 110.772C16.3318 110.758 16.1084 110.962 16.3467 110.991Z" fill="#A9B7DD"/>
<path d="M31.1547 116.049C30.7822 119.796 30.4247 123.543 30.0522 127.29C30.0373 127.406 30.3949 127.333 30.4098 127.231C30.7822 123.485 31.1398 119.738 31.5122 115.991C31.5271 115.889 31.1696 115.947 31.1547 116.049Z" fill="#A9B7DD"/>
<path d="M32.9876 97.3734C32.6003 101.353 32.213 105.334 31.8256 109.314C31.8108 109.43 32.1683 109.357 32.1832 109.255C32.5705 105.275 32.9578 101.295 33.3452 97.315C33.3601 97.213 32.9876 97.2713 32.9876 97.3734Z" fill="#A9B7DD"/>
<path d="M28.5927 114.634C25.643 117.025 22.6932 119.402 19.7286 121.793C19.535 121.938 19.8329 122.084 19.967 121.968C22.9167 119.577 25.8664 117.2 28.831 114.809C29.0247 114.649 28.7417 114.518 28.5927 114.634Z" fill="#A9B7DD"/>
<path d="M31.7045 114.241C32.6835 114.241 33.4773 113.465 33.4773 112.506C33.4773 111.548 32.6835 110.771 31.7045 110.771C30.7254 110.771 29.9316 111.548 29.9316 112.506C29.9316 113.465 30.7254 114.241 31.7045 114.241Z" fill="white"/>
<path d="M33.8352 112.42C33.6862 109.839 29.5447 110.058 29.5596 112.58C29.5596 115.205 33.7011 114.971 33.8352 112.493C33.8501 112.143 33.1201 112.26 33.1052 112.551C33.0605 113.324 32.5093 114.111 31.6304 114.009C30.8408 113.922 30.2896 113.207 30.2896 112.449C30.2896 111.618 31.0047 110.845 31.8985 111.05C32.6583 111.224 33.0754 111.881 33.1052 112.609C33.135 112.901 33.865 112.741 33.8352 112.42Z" fill="#5D7183"/>
<path d="M66.7892 110.042C68.2939 108.278 69.7837 106.514 71.2883 104.75C71.4671 104.531 70.7669 104.604 70.6179 104.765C69.1133 106.529 67.6235 108.293 66.1188 110.057C65.9401 110.261 66.6403 110.203 66.7892 110.042Z" fill="#5D7183"/>
<path d="M72.6149 106.122H68.9798C68.4584 106.122 68.0264 105.699 68.0264 105.189C68.0264 104.679 68.4584 104.256 68.9798 104.256H72.6149C73.1363 104.256 73.5683 104.679 73.5683 105.189C73.5683 105.699 73.1363 106.122 72.6149 106.122Z" fill="white"/>
<path d="M72.8527 105.961C72.0334 105.961 71.214 105.961 70.3797 105.961C70.0222 105.961 69.6349 106.005 69.2773 105.961C68.9198 105.918 68.6218 105.801 68.458 105.451C68.3239 105.145 68.3537 104.635 68.6963 104.46C68.9198 104.328 69.322 104.416 69.5902 104.416C70.1265 104.416 70.6777 104.416 71.214 104.416C71.5715 104.416 71.9589 104.372 72.3164 104.416C72.6888 104.46 72.9719 104.576 73.1358 104.926C73.2698 105.232 73.2103 105.932 72.7782 105.976C72.5846 105.99 72.0036 106.326 72.4654 106.282C73.0017 106.224 73.6274 106.049 73.8508 105.509C74.0892 104.955 73.7615 104.357 73.1954 104.183C72.8825 104.08 72.525 104.124 72.1972 104.124C71.5864 104.124 70.9905 104.124 70.3797 104.124C69.5753 104.124 68.5027 103.964 67.9217 104.635C67.5343 105.072 67.6088 105.757 68.1153 106.093C68.4282 106.311 68.8155 106.282 69.188 106.282C70.2606 106.282 71.3183 106.282 72.3909 106.282C72.5399 106.267 73.1954 105.961 72.8527 105.961Z" fill="#5D7183"/>
<path d="M102.364 115.174C103.556 119.037 104.733 122.886 105.924 126.75C105.954 126.823 106.312 126.735 106.282 126.662C105.09 122.799 103.913 118.95 102.722 115.086C102.707 114.999 102.334 115.101 102.364 115.174Z" fill="#A9B7DD"/>
<path d="M97.075 97.9708C98.2966 101.922 99.5033 105.873 100.725 109.824C100.755 109.896 101.112 109.809 101.083 109.736C99.8609 105.785 98.6542 101.834 97.4325 97.8833C97.4028 97.7958 97.0452 97.8979 97.075 97.9708Z" fill="#A9B7DD"/>
<path d="M104.182 113.774C107.802 115.684 111.422 117.579 115.043 119.489C115.147 119.547 115.445 119.402 115.385 119.358C111.765 117.448 108.145 115.553 104.525 113.643C104.421 113.599 104.108 113.745 104.182 113.774Z" fill="#A9B7DD"/>
<path d="M87.9883 105.26C91.6531 107.185 95.3328 109.124 98.9976 111.048C99.1018 111.107 99.3998 110.961 99.3402 110.917C95.6754 108.993 91.9957 107.054 88.3309 105.129C88.2266 105.085 87.9287 105.231 87.9883 105.26Z" fill="#A9B7DD"/>
<path d="M100.129 114.795C98.1628 118.367 96.1963 121.939 94.2447 125.525C94.1553 125.7 94.5129 125.7 94.5874 125.569C96.5538 121.997 98.5203 118.425 100.472 114.838C100.561 114.663 100.204 114.663 100.129 114.795Z" fill="#A9B7DD"/>
<path d="M108.77 99.0506C106.818 102.622 104.852 106.18 102.9 109.752C102.811 109.927 103.168 109.927 103.243 109.795C105.194 106.223 107.161 102.666 109.112 99.0943C109.217 98.9193 108.844 98.9193 108.77 99.0506Z" fill="#A9B7DD"/>
<path d="M98.8336 113.059C94.8708 114.226 90.9081 115.392 86.9602 116.558C86.7516 116.617 86.7814 116.777 87.0049 116.719C90.9677 115.552 94.9304 114.386 98.8783 113.22C99.0869 113.161 99.0422 113.001 98.8336 113.059Z" fill="#A9B7DD"/>
<path d="M116.368 107.899C112.36 109.08 108.338 110.261 104.33 111.442C104.122 111.5 104.152 111.661 104.375 111.602C108.382 110.422 112.405 109.241 116.412 108.06C116.621 108.001 116.576 107.841 116.368 107.899Z" fill="#A9B7DD"/>
<path d="M101.976 114.133C102.941 113.969 103.587 113.071 103.419 112.127C103.251 111.183 102.333 110.55 101.369 110.715C100.404 110.879 99.758 111.777 99.9257 112.721C100.093 113.665 101.011 114.297 101.976 114.133Z" fill="white"/>
<path d="M99.5791 112.099C99.2663 114.067 101.709 115.102 103.14 113.834C104.689 112.478 103.348 110.218 101.412 110.466C101.024 110.51 100.845 111.006 101.337 110.947C102.678 110.787 103.587 112.318 102.782 113.382C101.769 114.723 100.086 113.367 100.294 112.041C100.354 111.691 99.6238 111.793 99.5791 112.099Z" fill="#5D7183"/>
<path d="M51.2666 96.8783C45.3076 100.377 40.2126 105.145 34.9091 109.489C34.5366 109.795 35.1027 110.058 35.3858 109.825C40.6446 105.524 45.68 100.771 51.5795 97.3011C52.0115 97.0532 51.6242 96.6596 51.2666 96.8783Z" fill="#5D7183"/>
<path d="M84.7853 64.9056C82.9677 66.0282 83.2061 68.2297 84.0702 69.8917C84.2192 70.1687 84.9194 69.95 84.7853 69.7022C84.0255 68.2734 83.6084 66.1886 85.2322 65.1826C85.6643 64.9202 85.0535 64.7307 84.7853 64.9056Z" fill="#5D7183"/>
<path d="M88.8083 92.1838C90.7152 96.4847 92.8157 100.713 95.3483 104.693C97.136 107.507 99.162 110.145 101.263 112.726C101.397 112.886 102.037 112.595 101.978 112.536C99.8771 109.956 97.8511 107.302 96.0634 104.503C93.5308 100.523 91.4302 96.2952 89.5234 91.9943C89.4489 91.8194 88.7487 92.0526 88.8083 92.1838Z" fill="#5D7183"/>
<path d="M60.607 121.457L30.7375 114.75C29.6499 114.502 28.92 113.526 29.0093 112.447C29.0987 111.339 30.0373 110.479 31.1695 110.449L61.7988 109.545C65.4934 109.443 68.458 112.476 68.1601 116.048C67.8621 119.722 64.2867 122.288 60.607 121.457Z" fill="white"/>
<path d="M60.8157 121.239C56.3613 120.233 51.9219 119.242 47.4675 118.236C42.1044 117.026 36.7413 115.83 31.3781 114.62C30.2012 114.358 29.1584 113.556 29.3968 112.2C29.6202 110.946 30.6631 110.669 31.7357 110.64C33.9405 110.581 36.1454 110.509 38.3502 110.45C44.8902 110.261 51.4153 110.071 57.9554 109.867C59.46 109.823 61.0689 109.619 62.5885 109.794C65.1062 110.086 67.2067 112.039 67.6984 114.46C68.19 116.88 67.0578 119.431 64.8529 120.656C63.6164 121.356 62.2012 121.531 60.8157 121.239C60.5475 121.181 59.9665 121.574 60.3837 121.662C62.7077 122.143 65.1807 121.472 66.8194 119.752C68.4581 118.032 68.9944 115.48 68.1155 113.279C67.2663 111.165 65.2551 109.663 62.946 109.371C62.2756 109.284 61.5904 109.328 60.92 109.342C54.6332 109.532 48.3315 109.707 42.0448 109.896C39.0951 109.984 36.1454 110.071 33.1956 110.159C32.555 110.173 31.9294 110.173 31.2888 110.217C29.7245 110.304 28.2944 111.587 28.6966 113.22C29.1733 115.145 31.9294 115.261 33.5383 115.626C36.6817 116.34 39.8399 117.04 42.9833 117.755C48.6742 119.038 54.365 120.306 60.041 121.589C60.1453 121.618 60.2645 121.633 60.3688 121.662C60.6518 121.72 61.2328 121.341 60.8157 121.239Z" fill="#5D7183"/>
<path d="M42.8791 83.3632C44.3837 84.1358 46.0672 84.617 47.7804 84.6461C48.6891 84.6753 49.5681 84.5586 50.4768 84.6461C51.4601 84.7482 52.4284 84.9377 53.367 85.2293C53.7841 85.3605 54.2161 85.5063 54.5439 85.7979C55.0653 86.2353 55.259 87.2121 54.5439 87.6203C54.1118 87.8681 53.6053 87.8827 53.0988 87.8973C50.3726 87.9848 47.6314 88.0722 44.9051 88.1451C43.3409 88.1889 41.5979 88.1305 40.0932 87.7223C38.3949 87.2704 37.4564 85.6375 38.2906 83.9901C39.1696 82.2551 41.0467 82.3572 42.5811 83.2028C42.6705 83.2465 42.7748 83.3048 42.8791 83.3632Z" fill="white"/>
<path d="M54.6333 86.7453C54.6333 87.8679 52.9052 87.6638 52.1156 87.6929C51.1919 87.7221 50.2683 87.7513 49.3298 87.7804C47.4378 87.8387 45.5309 87.9699 43.6389 87.9262C42.1492 87.8971 40.0784 87.8971 38.976 86.7599C37.8736 85.6227 38.246 83.5379 39.7655 82.9255C40.2274 82.736 39.8102 82.4444 39.4676 82.5902C37.9629 83.188 37.1138 85.0249 37.9034 86.4829C38.8121 88.1449 41.151 88.2761 42.8493 88.349C45.3074 88.4656 47.7953 88.2615 50.2683 88.1886C51.4452 88.1595 52.7264 88.247 53.8884 88.0283C54.6482 87.8825 55.3483 87.5034 55.3483 86.6724C55.3483 86.3517 54.6333 86.4829 54.6333 86.7453Z" fill="#5D7183"/>
<path d="M94.2162 60.4445C95.0356 60.3133 96.0039 60.1821 96.6743 60.7945C97.2106 61.2901 97.1957 61.9462 96.868 62.5585C96.3763 63.477 95.2888 64.1914 95.2739 65.314C95.259 66.3492 96.2572 66.7136 96.868 67.3551C97.6873 68.2153 97.6426 69.5566 96.8829 70.4459C96.6743 70.6792 97.4043 70.65 97.5533 70.4605C98.2534 69.6587 98.4024 68.4923 97.881 67.5592C97.583 67.0198 97.0765 66.7136 96.6147 66.32C95.84 65.6493 95.8996 64.8183 96.4657 64.0165C97.0914 63.1126 98.3577 62.0191 97.6128 60.8236C96.9276 59.7447 95.4229 59.8468 94.3205 60.0217C93.9629 60.0946 93.7246 60.5174 94.2162 60.4445Z" fill="#A9B7DD"/>
<path d="M93.8287 62.0777C94.1266 62.8942 94.0522 63.7689 93.5009 64.4687C93.0689 65.0227 92.4432 65.4164 92.1452 66.0579C91.6685 67.0638 92.2048 68.2156 93.1881 68.6821C93.4115 68.7842 94.0671 68.478 93.7542 68.3322C93.1583 68.0552 92.756 67.5158 92.6964 66.8597C92.622 66.0579 93.1732 65.533 93.6946 65.0082C94.5587 64.1334 95.0056 63.0837 94.5587 61.8882C94.4544 61.6258 93.7393 61.8299 93.8287 62.0777Z" fill="#A9B7DD"/>
<path d="M86.6332 90.3897C87.0503 91.4103 95.6909 91.2645 96.3315 90.2148C97.9404 87.5905 98.6704 79.1346 98.6704 79.1346C98.6704 79.1346 88.7933 79.2804 83.2813 79.1055C83.2812 79.6157 85.9479 88.6986 86.6332 90.3897Z" fill="#A9B7DD"/>
<path d="M86.2753 90.4782C86.4541 90.8281 86.9606 90.9302 87.3181 91.0177C88.063 91.178 88.8228 91.2364 89.5826 91.2655C91.3256 91.3384 93.1431 91.2947 94.8563 90.9739C95.3777 90.8719 95.9885 90.7698 96.4205 90.4637C96.8675 90.1429 97.0611 89.4577 97.2548 88.962C97.9252 87.0959 98.2529 85.1131 98.536 83.1595C98.7297 81.8036 98.9084 80.4477 99.0276 79.0919C99.0425 78.9752 98.9084 78.9315 98.8042 78.9315C93.6794 79.0044 88.5397 79.0627 83.415 78.9023C83.2362 78.9023 82.9084 78.9898 82.9233 79.2085C82.9531 79.7917 83.1915 80.404 83.3554 80.958C83.6682 82.1098 84.0109 83.2615 84.3386 84.4133C84.9345 86.4252 85.4857 88.5101 86.2753 90.4782C86.3796 90.7261 87.0947 90.522 86.9904 90.2887C86.2008 88.3205 85.6496 86.2357 85.0537 84.2092C84.7259 83.072 84.3982 81.9494 84.0854 80.8122C83.9364 80.2436 83.6682 79.6021 83.6384 79.0044C83.4746 79.1065 83.3107 79.2085 83.1468 79.3106C88.2716 79.4709 93.4112 79.4126 98.536 79.3397C98.4615 79.2814 98.387 79.2377 98.3125 79.1794C98.0891 81.8473 97.7166 84.5445 97.0909 87.1542C96.9122 87.9269 96.6887 88.6996 96.3907 89.4285C96.1822 89.9388 96.063 90.2741 95.5267 90.4491C94.1114 90.8865 92.4578 90.8865 90.9829 90.8865C90.1189 90.8865 89.2399 90.8573 88.3908 90.7407C88.0481 90.6969 87.1692 90.6532 86.9904 90.3033C86.8712 90.0409 86.171 90.2741 86.2753 90.4782Z" fill="#5D7183"/>
<path d="M88.1674 82.1248C87.9439 84.7491 88.6292 87.1547 89.6274 89.5602C89.7167 89.7643 90.4169 89.5457 90.3424 89.3707C89.3592 86.9943 88.659 84.6033 88.8676 82.0082C88.8974 81.7749 88.1823 81.9207 88.1674 82.1248Z" fill="#5D7183"/>
<path d="M93.5604 89.5746C94.4394 87.2419 94.8118 84.8947 94.8267 82.4162C94.8267 82.0809 94.0968 82.2121 94.0968 82.4891C94.0968 84.9676 93.7094 87.3148 92.8305 89.6475C92.7262 89.9245 93.4562 89.837 93.5604 89.5746Z" fill="#5D7183"/>
<path d="M84.5025 81.0602C88.7632 81.381 93.0239 81.4393 97.2996 81.2352C97.5677 81.2206 98.0594 80.8123 97.5826 80.8269C93.3219 81.031 89.0463 80.9727 84.7855 80.6519C84.5025 80.6228 84.0257 81.0165 84.5025 81.0602Z" fill="#5D7183"/>
<path d="M71.5412 103.6C69.5747 102.769 69.8727 98.9781 70.1706 97.3452C70.9751 92.9131 72.6585 90.7845 68.2489 88.3352C58.5655 82.9555 40.7629 88.204 40.4054 80.302C40.3756 79.5585 47.735 71.6857 53.9472 68.42C55.7498 67.4723 67.2805 67.2099 69.1129 69.2801C72.5691 73.1582 77.5747 77.0363 79.5412 81.8474C81.6715 87.096 79.854 91.6301 77.2321 96.3829C76.4425 97.768 73.463 104.416 71.5412 103.6Z" fill="#A9B7DD"/>
<path d="M73.5077 74.3968C76.234 77.2106 79.0645 80.2722 79.8541 84.2086C80.6288 87.9701 79.3327 91.6149 77.6046 94.9389C76.5617 96.9654 75.5487 99.0503 74.3271 100.975C73.8206 101.762 73.18 102.885 72.2861 103.307C71.2433 103.818 70.6027 102.024 70.4537 101.325C69.9174 98.7441 70.8262 96.2219 71.3178 93.7143C71.4966 92.7666 71.6157 91.7607 71.2433 90.8422C70.8113 89.7633 69.8727 88.976 68.9044 88.3637C64.5245 85.5062 58.7145 85.3895 53.6344 85.1271C50.8634 84.9813 48.018 84.923 45.3067 84.3107C43.4296 83.8879 41.4035 83.0714 40.8672 81.0887C40.7927 80.7825 40.0627 80.972 40.1521 81.2782C40.6139 82.9694 42.1037 83.917 43.7275 84.4419C46.0068 85.1854 48.4798 85.3166 50.8486 85.4624C53.7387 85.6374 56.6437 85.7249 59.5189 86.0602C62.2601 86.3809 65.1055 86.9204 67.5338 88.2616C68.7405 88.9177 70.0962 89.8216 70.558 91.1483C70.9305 92.198 70.6772 93.3498 70.4388 94.3995C69.8876 96.8488 69.0236 99.648 69.8876 102.141C70.1707 102.972 70.856 103.949 71.869 103.891C72.7033 103.847 73.3737 103.162 73.8653 102.578C75.3401 100.844 76.2936 98.7295 77.3364 96.7322C79.1837 93.1894 81.0757 89.5884 80.7628 85.4916C80.4053 80.87 77.2619 77.3126 74.1483 74.0906C73.9547 73.8865 73.2694 74.1635 73.5077 74.3968Z" fill="#5D7183"/>
<path d="M69.0829 69.9359C69.5 70.3733 69.9172 70.7962 70.3492 71.2335C70.5578 71.4522 71.2431 71.1752 71.0047 70.9274C70.5727 70.5046 70.1555 70.0672 69.7384 69.6298C69.5298 69.4257 68.8445 69.6881 69.0829 69.9359Z" fill="#5D7183"/>
<path d="M62.9602 42.4392C63.6008 40.4856 64.6287 38.5612 65.3736 36.6659C65.4779 36.3889 65.7758 35.6308 65.8354 35.485C68.4276 28.8806 68.0849 22.3199 63.2581 20.6288C59.1762 19.2 53.7833 23.3551 51.1762 29.974C49.895 33.2543 48.733 36.7971 47.273 40.092C45.8131 43.4015 43.8466 46.4777 42.327 49.758C39.0645 56.7852 37.3513 63.7395 37.9621 71.4519C38.0812 72.8952 39.4518 80.3889 39.9881 80.3014C56.3457 77.371 69.3065 70.3147 69.7386 69.4837C67.5337 63.8998 63.6455 56.5373 62.6622 50.6182C62.2898 48.3584 62.0961 45.8508 62.6473 43.5181C62.7516 43.1536 62.8559 42.7892 62.9602 42.4392Z" fill="white"/>
<path d="M47.4225 40.9667C48.4206 43.6784 50.5212 45.8362 53.3219 46.7838C55.8992 47.6585 58.9681 47.6585 61.307 46.1569C61.6198 45.9528 60.8899 46.0111 60.7409 46.0986C58.4318 47.5857 55.1692 47.192 52.7856 46.0257C50.5659 44.9468 48.9569 43.0224 48.1376 40.7626C48.078 40.5731 47.3629 40.7918 47.4225 40.9667Z" fill="#5D7183"/>
<path d="M63.0946 35.981C63.5713 36.1268 62.9009 37.0744 62.7817 37.264C62.5136 37.6868 62.0518 38.2991 61.4708 38.2845C60.0406 38.27 60.9046 36.1268 61.0089 35.4707C61.0387 35.3103 61.2026 35.2083 61.3665 35.2666C61.9326 35.4853 62.5285 35.806 63.0946 35.981Z" fill="#5D7183"/>
<path d="M59.5487 24.5946C59.2955 24.8424 59.0869 25.134 58.9528 25.4839C58.2973 27.0585 57.7014 28.7934 55.9584 29.5223C54.6623 30.0763 53.0534 29.8431 51.9212 30.6887C51.1316 31.2718 50.7443 32.2778 49.9845 32.9047C48.8821 33.8086 46.3197 33.969 45.0683 33.3275C44.4575 33.0214 43.8616 32.5986 43.1763 32.5986C42.4016 32.5986 41.761 33.1234 41.0758 33.4733C39.1838 34.421 36.6214 33.7795 35.4147 32.0737C34.6698 31.024 34.491 29.639 34.8486 28.4143C35.0274 27.7728 35.3551 27.1168 35.8318 26.6357C36.3383 26.14 37.0236 25.9942 37.6046 25.5568C39.0646 24.4196 38.3197 22.7722 38.3793 21.2559C38.4389 19.4189 39.5413 18.1505 41.4631 18.0631C42.6549 18.0047 43.8169 18.3255 45.0087 18.3255C47.0348 18.3401 47.8392 17.0425 49.1204 15.7741C49.9994 14.8994 51.221 14.6661 52.4426 14.8994C55.1688 15.4096 56.5245 16.8676 59.5636 16.3427C61.0832 16.0803 62.5878 15.6429 64.1372 15.6429C66.2675 15.6283 69.2321 17.0279 70.4835 18.7629C72.5394 21.635 72.5692 27.6999 68.1893 28.5893C67.653 28.6913 67.072 28.6476 66.6102 28.3706C65.9845 28.0061 65.6865 27.2917 65.4631 26.6211C65.0459 25.3527 64.5245 24.3613 63.1688 23.8802C61.9174 23.4428 60.4426 23.7198 59.5487 24.5946Z" fill="#A9B7DD"/>
<path d="M63.303 42.4678C64.2564 39.6102 65.7462 36.9568 66.6847 34.0993C67.519 31.5771 68.0404 28.8654 67.6978 26.2119C67.4296 24.1417 66.5209 22.086 64.6438 20.9489C62.9752 19.9429 61.0386 19.8991 59.236 20.5406C54.0963 22.3922 51.6084 27.7573 49.8803 32.4227C48.7034 35.6155 47.5712 38.8375 46.0516 41.8846C44.5321 44.9171 42.7741 47.8329 41.4185 50.9383C38.8263 56.8429 37.2769 63.1557 37.4855 69.5997C37.5451 71.4512 37.8133 73.2299 38.1559 75.0523C38.4687 76.6706 38.6922 78.4492 39.3328 79.9801C39.5414 80.4903 39.735 80.5632 40.3011 80.4612C41.9846 80.155 43.668 79.7905 45.3365 79.3969C48.4203 78.6533 51.4743 77.764 54.4687 76.7435C58.7592 75.271 63.0199 73.5798 67.0125 71.4658C67.9212 70.9847 68.9045 70.5036 69.709 69.8621C70.1857 69.483 70.0367 69.2935 69.7834 68.6957C69.2471 67.3836 68.681 66.1007 68.1149 64.8031C65.6717 59.2484 62.8561 53.4751 62.6326 47.3226C62.573 45.646 62.7667 44.0132 63.2732 42.3949C63.3775 42.0741 62.6326 42.1616 62.5432 42.4532C60.7704 48.0662 62.8263 54.102 64.9566 59.3359C66.0292 61.9602 67.2062 64.5261 68.3235 67.1212C68.5767 67.7044 68.8151 68.273 69.0535 68.8561C69.0683 68.8999 69.3514 69.483 69.3663 69.3956C69.3663 69.4101 69.2918 69.4685 69.2918 69.4685C69.1875 69.658 68.7108 69.8912 68.5171 70.0079C65.6121 71.8303 62.3496 73.2007 59.1615 74.4691C53.8877 76.5831 48.4054 78.2597 42.8337 79.4552C42.0591 79.6156 41.1652 79.6739 40.4203 79.9363C40.1075 80.053 40.1522 80.0967 40.0032 79.7322C39.7499 79.1199 39.6159 78.4492 39.452 77.8078C39.0497 76.0874 38.7071 74.3379 38.439 72.5884C37.6196 67.3253 38.3794 61.7561 39.9287 56.6825C40.8524 53.6209 42.1038 50.6467 43.5786 47.8037C45.0386 44.99 46.6475 42.2637 47.8989 39.3332C49.1354 36.4174 50.1484 33.4141 51.2956 30.4545C52.2788 27.9177 53.6047 25.5267 55.5414 23.5731C57.0162 22.086 58.9678 20.701 61.1577 20.5698C63.2136 20.4386 65.1056 21.6778 66.059 23.4127C67.2062 25.5121 67.1913 28.0781 66.8486 30.3816C66.4464 33.0059 65.4929 35.5281 64.4203 37.9628C63.7797 39.4207 63.0944 40.864 62.5879 42.3657C62.4985 42.7739 63.2136 42.7593 63.303 42.4678Z" fill="#5D7183"/>
<path d="M84.5918 78.1574C84.0257 75.4894 85.9176 72.7631 84.9791 70.1243C84.5918 69.0163 83.6979 68.1269 82.4912 67.952C81.1206 67.7625 79.765 68.2873 78.4987 68.7101C78.0815 68.8559 78.1858 69.2933 78.6179 69.1475C79.7948 68.7538 81.1802 68.1415 82.4316 68.4623C83.7426 68.7976 84.3981 70.1972 84.4875 71.4073C84.6513 73.7399 83.3851 75.9997 83.8767 78.3324C83.9363 78.6385 84.6662 78.4636 84.5918 78.1574Z" fill="#5D7183"/>
<path d="M78.0963 70.6638L72.3459 73.9588C71.7351 74.3087 70.9455 74.1045 70.588 73.5068C70.2305 72.909 70.439 72.1363 71.0498 71.7864L76.8003 68.4915C77.4111 68.1416 78.2006 68.3457 78.5582 68.9434C78.9157 69.5412 78.7071 70.3139 78.0963 70.6638Z" fill="white"/>
<path d="M77.8136 70.6498C76.9793 71.1309 76.1451 71.5975 75.3108 72.0786C74.6553 72.4576 74.0147 72.8221 73.3592 73.2012C72.9718 73.4199 72.5696 73.7406 72.1525 73.8864C71.1841 74.2509 70.4541 73.0554 70.8713 72.2535C71.0798 71.8745 71.5268 71.6849 71.8843 71.4663C73.0761 70.781 74.2679 70.0958 75.4598 69.4252C75.9216 69.1627 76.4132 68.7837 76.9197 68.5942C78.2456 68.0693 78.8266 69.9646 77.8136 70.6498C77.5156 70.8539 78.2307 70.781 78.3648 70.6936C79.2289 70.1104 79.3779 68.8566 78.3499 68.3317C77.7093 68.011 76.9942 68.2005 76.4132 68.5213C74.9979 69.294 73.6125 70.125 72.227 70.9268C71.2586 71.4808 69.0538 72.4722 70.4094 73.8572C71.497 74.9798 73.1357 73.6823 74.1488 73.1137C75.5491 72.3119 76.9644 71.4954 78.3648 70.6936C78.6777 70.504 77.9626 70.5623 77.8136 70.6498Z" fill="#5D7183"/>
<path d="M91.0423 60.3138L91.7573 59.9055C92.3681 59.5556 93.1577 59.7598 93.5153 60.3575C93.8728 60.9553 93.6642 61.728 93.0534 62.0779L87.3029 65.3727C86.6921 65.7226 85.9026 65.5185 85.545 64.9208C85.1875 64.323 85.3961 63.5504 86.0069 63.2005L86.9752 62.6464L91.0423 60.3138Z" fill="white"/>
<path d="M91.3256 60.3425C91.5193 60.2259 91.7279 60.0655 91.9513 59.978C92.5025 59.7739 93.0388 60.1092 93.2474 60.6195C93.5156 61.2756 93.158 61.8296 92.6068 62.1649C91.6683 62.7481 90.6701 63.2729 89.7167 63.8269C88.8824 64.308 88.0035 64.9787 87.1096 65.3286C86.1562 65.6931 85.5156 64.4976 85.8284 63.754C86.0519 63.2146 86.7819 62.9522 87.2586 62.6752C87.5714 62.5002 86.8415 62.5585 86.7074 62.6314C86.2456 62.8939 85.6795 63.1271 85.3368 63.5354C84.8452 64.1185 84.9495 65.0224 85.5901 65.4598C86.5137 66.0867 87.497 65.4598 88.3163 64.9933C89.523 64.308 90.7297 63.6082 91.9364 62.923C92.6962 62.4856 94.0072 62.0191 94.0668 60.9986C94.1115 60.1967 93.4262 59.599 92.6366 59.5844C91.9364 59.5698 91.3703 59.9634 90.7744 60.2988C90.4616 60.4737 91.1766 60.43 91.3256 60.3425Z" fill="#5D7183"/>
<path d="M62.5294 51.8568C63.1699 55.7057 67.1029 58.1113 70.4399 59.5838C74.507 61.3771 79.1252 62.3976 83.5944 62.4268C84.6224 62.4268 85.6503 62.3684 86.6782 62.1935C87.1549 62.106 87.6466 62.0185 88.0935 61.8144C88.5255 61.5957 88.9277 61.2313 89.4045 61.1146C90.1493 60.9543 90.8048 61.5083 90.5963 62.2372C90.5069 62.558 91.2368 62.4705 91.3262 62.1789C91.7136 60.8376 90.0748 60.3711 89.0618 60.721C88.4212 60.9397 87.9296 61.4062 87.2741 61.5812C86.8719 61.6978 86.4399 61.7561 86.0078 61.7999C83.952 62.0477 81.8365 61.9019 79.7956 61.6103C75.2518 60.9688 70.4101 59.5401 66.7305 56.7409C65.047 55.4579 63.5871 53.7667 63.2444 51.6527C63.1997 51.3465 62.4847 51.5215 62.5294 51.8568Z" fill="#5D7183"/>
<path d="M7.02074 115.276C7.15481 117.754 7.8252 120.131 9.017 122.318C9.13618 122.522 9.82147 122.289 9.73208 122.128C8.54028 119.941 7.86989 117.565 7.73582 115.086C7.72092 114.911 7.00584 115.043 7.02074 115.276Z" fill="#5D7183"/>
<path d="M1.92496 113.469C1.58231 116.341 2.11863 119.199 3.4594 121.765C3.62328 122.071 4.29367 121.794 4.1149 121.444C2.81881 118.966 2.32719 116.181 2.66983 113.411C2.69963 113.046 1.95475 113.119 1.92496 113.469Z" fill="#5D7183"/>
<path d="M120.242 99.0355C122.611 100.96 124.011 103.92 124.175 106.908C124.175 107.025 124.905 106.908 124.89 106.719C124.726 103.715 123.311 100.727 120.927 98.8023C120.764 98.6711 120.138 98.9481 120.242 99.0355Z" fill="#5D7183"/>
<path d="M127.154 102.257C127.973 104.269 128.346 106.398 128.256 108.57C128.242 108.891 128.972 108.76 128.986 108.497C129.076 106.296 128.718 104.124 127.884 102.068C127.75 101.805 127.05 102.01 127.154 102.257Z" fill="#5D7183"/>
<path d="M25.7961 8.67106L0.359375 26.7168L12.023 42.4624L37.4598 24.4167L25.7961 8.67106Z" fill="#A9B7DD"/>
<path d="M0.361328 26.721L25.7915 8.67188L20.3837 27.3916L0.361328 26.721Z" fill="#A9B7DD"/>
<path d="M25.4637 32.6411C21.4711 35.4695 17.4786 38.2979 13.501 41.1262C12.9348 41.5344 12.3687 41.9281 11.8026 42.3363C11.9963 42.3363 12.1751 42.3217 12.3687 42.3217C8.9572 37.7147 5.54567 33.1077 2.13413 28.5152C1.65741 27.8737 1.18069 27.2323 0.703967 26.5762C0.540094 26.3575 -0.160091 26.6053 0.0335775 26.8678C3.44511 31.4748 6.85665 36.0818 10.2682 40.6743C10.7449 41.3158 11.2216 41.9572 11.6984 42.6133C11.8175 42.7737 12.1304 42.6862 12.2645 42.5987C16.257 39.7704 20.2495 36.942 24.2272 34.1136C24.7933 33.7054 25.3594 33.3118 25.9255 32.9036C26.3128 32.6266 25.7169 32.4662 25.4637 32.6411Z" fill="#5D7183"/>
<path d="M25.2991 9.16852C23.7498 14.5045 22.2153 19.8405 20.666 25.1765C20.4425 25.9201 20.2339 26.6782 20.0105 27.4217C20.1744 27.3342 20.3382 27.2468 20.5021 27.1593C14.6623 26.9698 8.80754 26.7657 2.96771 26.5761C2.13344 26.547 1.31408 26.5178 0.479819 26.4886C0.509614 26.6053 0.539408 26.7219 0.584101 26.8531C3.44443 24.8266 6.28986 22.8001 9.15018 20.7736C13.6939 17.5516 18.2377 14.3296 22.7814 11.1076C23.5263 10.5827 24.2712 10.0433 25.031 9.51842C25.2395 9.37263 25.463 9.21226 25.6715 9.06647C25.7609 9.00815 25.9546 8.92068 25.8503 8.94983C25.7311 8.94983 25.6269 8.93525 25.5077 8.93525C25.8652 9.13936 26.1334 9.72253 26.3717 10.0433C26.8931 10.7431 27.4146 11.4429 27.936 12.1427C28.5021 12.9008 29.0682 13.6735 29.6343 14.4316C31.4667 16.9101 33.2991 19.3886 35.1315 21.867C35.8019 22.7709 36.4574 23.6603 37.1277 24.5642C37.1575 24.4767 37.2022 24.3747 37.232 24.2872C34.3717 26.3137 31.5263 28.3402 28.666 30.3667C28.2786 30.6437 28.8745 30.8187 29.1278 30.6292C31.9881 28.6026 34.8335 26.5761 37.6939 24.5496C37.7832 24.4913 37.8726 24.3747 37.7981 24.2726C35.5784 21.2839 33.3736 18.2805 31.1538 15.2918C30.5132 14.417 29.8578 13.5423 29.2172 12.6675C28.517 11.7199 27.8168 10.7868 27.1166 9.83917C26.8485 9.47469 26.4164 8.54162 25.8801 8.51246C25.5822 8.49788 25.3438 8.70199 25.1203 8.86236C24.733 9.13936 24.3457 9.41637 23.9583 9.69337C22.5282 10.6993 21.098 11.7199 19.6827 12.7259C15.72 15.5396 11.7721 18.3389 7.8094 21.1526C5.30662 22.9313 2.71445 24.6225 0.28615 26.4886C0.241458 26.5178 0.196764 26.547 0.166969 26.5761C-0.0266985 26.7073 0.0179936 26.926 0.271252 26.9406C6.11108 27.1301 11.9658 27.3342 17.8056 27.5238C18.6399 27.5529 19.4593 27.5821 20.2935 27.6112C20.4723 27.6112 20.7256 27.5384 20.7852 27.3488C22.3345 22.0128 23.8689 16.6768 25.4183 11.3408C25.6418 10.5973 25.8503 9.83917 26.0738 9.09563C26.1036 8.81862 25.3736 8.9061 25.2991 9.16852Z" fill="#5D7183"/>
<path d="M30.0373 6.50215C30.9312 5.02965 31.9144 3.61547 33.1211 2.37624C33.434 2.05549 32.7487 1.92428 32.5103 2.15755C31.2589 3.44052 30.2608 4.89844 29.3371 6.41467C29.1435 6.75 29.8734 6.77915 30.0373 6.50215Z" fill="#5D7183"/>
<path d="M27.5493 5.3788C27.8323 3.61472 28.1005 1.85063 28.3836 0.0865434C28.4133 -0.0884074 27.6983 0.0282269 27.6685 0.203178C27.3854 1.96726 27.1173 3.73135 26.8342 5.49544C26.8193 5.67039 27.5195 5.55375 27.5493 5.3788Z" fill="#5D7183"/>
<path d="M21.6943 1.69082C22.7968 2.91547 23.7353 4.25675 24.51 5.71467C24.6441 5.9771 25.3442 5.75841 25.2251 5.52514C24.4504 4.03807 23.4969 2.65304 22.3647 1.39923C22.1711 1.2097 21.4858 1.45755 21.6943 1.69082Z" fill="#5D7183"/>
<path d="M49.4342 53.1694C46.8718 53.2277 44.2945 52.907 41.9109 51.9739C39.5571 51.0554 37.397 49.5538 35.4752 47.95C33.6279 46.4192 31.9742 44.6697 30.6037 42.7161C29.1437 40.6167 27.788 38.1237 27.4305 35.5723C27.2368 34.2018 27.4603 32.8606 27.6391 31.5047C27.7582 30.6154 27.4752 29.6094 26.343 29.9301C25.9109 30.0468 26.0152 30.4404 26.4472 30.3092C27.1921 30.0905 26.8793 31.7963 26.8346 32.1024C26.7452 32.7002 26.6707 33.2979 26.6409 33.8957C26.5813 34.9745 26.7005 36.0242 26.9985 37.0594C27.6837 39.4066 28.9202 41.6372 30.3802 43.5909C31.7955 45.5007 33.5087 47.1919 35.3858 48.679C37.2331 50.1369 39.2591 51.4928 41.464 52.353C43.9072 53.3006 46.544 53.6359 49.166 53.5776C49.4491 53.5922 49.9109 53.1548 49.4342 53.1694Z" fill="#5D7183"/>
</svg>
