<svg width="32" height="32" viewBox="0 0 32 32" fill="none" xmlns="http://www.w3.org/2000/svg">
<circle cx="16" cy="16" r="16" fill="#2F89CE"/>
<path d="M7.47978 16.2994L11.1583 17.671L12.5922 22.2847C12.6546 22.5964 13.0287 22.6587 13.278 22.4717L15.3355 20.7883C15.5225 20.6013 15.8343 20.6013 16.0837 20.7883L19.7621 23.4692C20.0115 23.6563 20.3856 23.5316 20.4479 23.2199L23.1912 10.127C23.2535 9.81529 22.9418 9.50356 22.6301 9.62825L7.47978 15.4889C7.1057 15.6135 7.1057 16.1747 7.47978 16.2994ZM12.4052 16.9852L19.6374 12.5586C19.7621 12.4962 19.8868 12.6832 19.7621 12.7456L13.8392 18.2945C13.6521 18.4815 13.4651 18.7309 13.4651 19.0426L13.278 20.5389C13.278 20.726 12.9663 20.7883 12.904 20.5389L12.1558 17.7957C11.9688 17.484 12.0935 17.1099 12.4052 16.9852Z" fill="white"/>
</svg>
