<svg width="17" height="19" viewBox="0 0 17 19" fill="none" xmlns="http://www.w3.org/2000/svg">
<path d="M13.0031 0.436731C9.95393 -0.145577 6.78743 -0.145577 3.73822 0.436731C2.38953 0.727885 0.689005 2.35835 0.395812 3.63942C-0.131937 6.14335 -0.131937 8.7055 0.395812 11.2094C0.747644 12.4905 2.44817 14.121 3.73822 14.4121C3.79686 14.4121 3.85549 14.4704 3.85549 14.5286V18.1971C3.85549 18.3718 4.09005 18.4883 4.20733 18.3136L5.96649 16.5084C5.96649 16.5084 7.37382 15.0527 7.60838 14.8197C7.60838 14.8197 7.66702 14.7615 7.72566 14.7615C9.48482 14.8197 11.3026 14.645 13.0618 14.3539C14.4105 14.0627 16.111 12.4323 16.4042 11.1512C16.9319 8.64727 16.9319 6.08512 16.4042 3.58119C16.0524 2.35835 14.3518 0.727885 13.0031 0.436731ZM13.0618 11.3841C12.7686 11.9664 12.4168 12.4323 11.8304 12.7234C11.6545 12.7817 11.4785 12.8399 11.3026 12.8981C11.0681 12.8399 10.8921 12.7817 10.7162 12.7234C8.83979 11.9664 7.08063 10.9183 5.6733 9.40427C4.911 8.53081 4.26597 7.54089 3.73822 6.49273C3.50366 5.96866 3.26911 5.50281 3.09319 4.97873C2.91728 4.51289 3.21047 4.04704 3.50366 3.69766C3.79686 3.34827 4.14869 3.11535 4.55916 2.94065C4.85236 2.76596 5.14555 2.88242 5.38011 3.11535C5.84922 3.69766 6.31832 4.27996 6.67016 4.9205C6.90471 5.32812 6.84607 5.79396 6.4356 6.08512C6.31832 6.14335 6.25968 6.20158 6.14241 6.31804C6.08377 6.37627 5.96649 6.4345 5.90785 6.55096C5.79057 6.72566 5.79057 6.90035 5.84921 7.07504C6.31832 8.41435 7.1979 9.4625 8.54659 10.0448C8.78115 10.1613 8.95707 10.2195 9.25026 10.2195C9.66073 10.1613 9.83665 9.69543 10.1298 9.4625C10.423 9.22958 10.7749 9.22958 11.1267 9.40427C11.4199 9.57897 11.7131 9.81189 12.0649 10.0448C12.3581 10.2777 12.6513 10.4524 12.9445 10.6854C13.1204 10.8018 13.1791 11.093 13.0618 11.3841ZM10.599 7.01681C10.4817 7.01681 10.5403 7.01681 10.599 7.01681C10.3644 7.01681 10.3058 6.90035 10.2471 6.72566C10.2471 6.6092 10.2471 6.4345 10.1885 6.31804C10.1298 6.08512 10.0126 5.85219 9.77801 5.6775C9.66073 5.61927 9.54345 5.56104 9.42618 5.50281C9.25026 5.44458 9.13299 5.44458 8.95707 5.44458C8.78115 5.38635 8.72251 5.26989 8.72251 5.09519C8.72251 4.97873 8.89843 4.86227 9.01571 4.86227C9.95393 4.9205 10.6576 5.44458 10.7749 6.55096C10.7749 6.60919 10.7749 6.72566 10.7749 6.78389C10.7749 6.90035 10.7162 7.01681 10.599 7.01681ZM10.0126 4.45466C9.71937 4.33819 9.42618 4.22173 9.07434 4.1635C8.95707 4.1635 8.78115 4.10527 8.66387 4.10527C8.48796 4.10527 8.37068 3.98881 8.42932 3.81412C8.42932 3.63942 8.5466 3.52296 8.72251 3.58119C9.3089 3.63942 9.83665 3.75589 10.3644 3.98881C11.4199 4.51289 12.0063 5.38635 12.1822 6.55096C12.1822 6.60919 12.1822 6.66743 12.1822 6.72566C12.1822 6.84212 12.1822 6.95858 12.1822 7.13327C12.1822 7.1915 12.1822 7.24973 12.1822 7.30797C12.1236 7.54089 11.7131 7.59912 11.6544 7.30797C11.6544 7.24973 11.5958 7.13327 11.5958 7.07504C11.5958 6.55096 11.4785 6.02689 11.244 5.56104C10.8921 5.03696 10.4817 4.68758 10.0126 4.45466ZM13.1791 7.9485C13.0031 7.9485 12.8859 7.77381 12.8859 7.59912C12.8859 7.24973 12.8272 6.90035 12.7686 6.55096C12.534 4.68758 11.0094 3.17358 9.19162 2.88242C8.89843 2.82419 8.60524 2.82419 8.37068 2.76596C8.19477 2.76596 7.96021 2.76596 7.90157 2.53304C7.84293 2.35835 8.01885 2.18365 8.19476 2.18365C8.2534 2.18365 8.31204 2.18365 8.31204 2.18365C10.7162 2.24189 8.42932 2.18365 8.31204 2.18365C10.7749 2.24189 12.8272 3.87235 13.2377 6.31804C13.2963 6.72566 13.355 7.13327 13.355 7.59912C13.4723 7.77381 13.355 7.9485 13.1791 7.9485Z" fill="white"/>
</svg>
