<svg width="15" height="18" viewBox="0 0 15 18" fill="none" xmlns="http://www.w3.org/2000/svg">
<path d="M0 0.600019C0 0.440884 0.0510837 0.288267 0.142013 0.175741C0.232943 0.063216 0.35627 0 0.484863 0H1.93945C2.04761 3.69749e-05 2.15265 0.0448222 2.23787 0.127234C2.32309 0.209645 2.3836 0.324951 2.40977 0.454814L2.80251 2.40007H14.061C14.1322 2.40016 14.2025 2.41964 14.267 2.45714C14.3314 2.49464 14.3883 2.54923 14.4338 2.61705C14.4792 2.68486 14.5121 2.76423 14.5299 2.84951C14.5478 2.93479 14.5503 3.0239 14.5372 3.1105L13.0826 12.7108C13.0618 12.8483 13.0028 12.9725 12.9159 13.0619C12.8289 13.1513 12.7195 13.2003 12.6065 13.2004H3.87891C3.76587 13.2003 3.65642 13.1513 3.56948 13.0619C3.48254 12.9725 3.42357 12.8483 3.40277 12.7108L1.94915 3.1285L1.56126 1.20004H0.484863C0.35627 1.20004 0.232943 1.13682 0.142013 1.0243C0.0510837 0.91177 0 0.759153 0 0.600019ZM4.84863 13.2004C4.33426 13.2004 3.84095 13.4533 3.47723 13.9034C3.11352 14.3535 2.90918 14.9639 2.90918 15.6005C2.90918 16.237 3.11352 16.8475 3.47723 17.2976C3.84095 17.7477 4.33426 18.0006 4.84863 18.0006C5.36301 18.0006 5.85632 17.7477 6.22004 17.2976C6.58375 16.8475 6.78809 16.237 6.78809 15.6005C6.78809 14.9639 6.58375 14.3535 6.22004 13.9034C5.85632 13.4533 5.36301 13.2004 4.84863 13.2004ZM11.6367 13.2004C11.1223 13.2004 10.629 13.4533 10.2653 13.9034C9.9016 14.3535 9.69727 14.9639 9.69727 15.6005C9.69727 16.237 9.9016 16.8475 10.2653 17.2976C10.629 17.7477 11.1223 18.0006 11.6367 18.0006C12.1511 18.0006 12.6444 17.7477 13.0081 17.2976C13.3718 16.8475 13.5762 16.237 13.5762 15.6005C13.5762 14.9639 13.3718 14.3535 13.0081 13.9034C12.6444 13.4533 12.1511 13.2004 11.6367 13.2004ZM4.84863 14.4004C5.10582 14.4004 5.35248 14.5269 5.53433 14.7519C5.71619 14.977 5.81836 15.2822 5.81836 15.6005C5.81836 15.9188 5.71619 16.224 5.53433 16.449C5.35248 16.6741 5.10582 16.8005 4.84863 16.8005C4.59145 16.8005 4.34479 16.6741 4.16293 16.449C3.98108 16.224 3.87891 15.9188 3.87891 15.6005C3.87891 15.2822 3.98108 14.977 4.16293 14.7519C4.34479 14.5269 4.59145 14.4004 4.84863 14.4004ZM11.6367 14.4004C11.8939 14.4004 12.1406 14.5269 12.3224 14.7519C12.5043 14.977 12.6065 15.2822 12.6065 15.6005C12.6065 15.9188 12.5043 16.224 12.3224 16.449C12.1406 16.6741 11.8939 16.8005 11.6367 16.8005C11.3795 16.8005 11.1329 16.6741 10.951 16.449C10.7692 16.224 10.667 15.9188 10.667 15.6005C10.667 15.2822 10.7692 14.977 10.951 14.7519C11.1329 14.5269 11.3795 14.4004 11.6367 14.4004Z" fill="currentColor"/>
</svg>
