<svg width="25" height="25" viewBox="0 0 25 25" fill="none" xmlns="http://www.w3.org/2000/svg">
<path d="M21.2676 11.8856C21.271 13.2227 20.9589 14.5417 20.3564 15.7352C19.6421 17.1654 18.544 18.3684 17.1851 19.2093C15.8262 20.0503 14.2602 20.496 12.6624 20.4967C11.3262 20.5001 10.0081 20.1877 8.81542 19.5849L3.04492 21.5097L4.96842 15.7352C4.36599 14.5417 4.05381 13.2227 4.05729 11.8856C4.05791 10.2867 4.50335 8.71955 5.34373 7.3597C6.1841 5.99986 7.38622 4.901 8.81542 4.18621C10.0081 3.58336 11.3262 3.27096 12.6624 3.27444H13.1686C15.2787 3.39094 17.2718 4.28221 18.7661 5.7776C20.2605 7.27299 21.1511 9.26742 21.2676 11.379V11.8856Z" fill="#FFEE4B" stroke="#FFEE4B" stroke-width="1.82353" stroke-linecap="round" stroke-linejoin="round"/>
<ellipse cx="9.10547" cy="11.9486" rx="1.21484" ry="1.21569" fill="#051138"/>
<ellipse cx="12.75" cy="11.9486" rx="1.21484" ry="1.21569" fill="#051138"/>
<ellipse cx="16.3945" cy="11.9486" rx="1.21484" ry="1.21569" fill="#051138"/>
</svg>
