<svg width="31" height="39" viewBox="0 0 31 39" fill="none" xmlns="http://www.w3.org/2000/svg">
<path d="M22.3487 7.67313C22.3423 7.67313 22.3742 7.56143 22.371 7.36675C22.3774 7.17207 22.3583 6.89122 22.2624 6.58803C22.1634 6.28803 21.9941 5.9625 21.7002 5.73271C21.4127 5.49654 21.0102 5.32739 20.5757 5.29867C19.6909 5.20611 18.8316 5.67526 18.4898 6.1859C18.2981 6.44441 18.1959 6.70292 18.1384 6.88165C18.0841 7.06356 18.0681 7.16888 18.0681 7.16888C18.0649 7.1976 17.8317 7.89973 18.1224 8.56675C18.2566 8.90186 18.4961 9.20186 18.7166 9.39973C18.937 9.60399 19.135 9.71569 19.1159 9.81143C19.1031 9.8976 18.8507 9.96782 18.4802 9.86888C18.1096 9.77952 17.6432 9.49867 17.311 9.0742C16.966 8.65611 16.7839 8.0976 16.7392 7.67952C16.6881 7.25824 16.7328 6.96462 16.736 6.9359C16.736 6.9359 16.7584 6.76675 16.8478 6.47952C16.9372 6.19548 17.0938 5.79654 17.4004 5.38484C17.9978 4.51675 19.3331 3.81143 20.6939 3.95186C21.3712 4.00292 22.0452 4.26462 22.5627 4.69228C23.093 5.11356 23.3965 5.69441 23.553 6.17952C23.7095 6.67101 23.7351 7.09548 23.7255 7.3859C23.7255 7.53271 23.7191 7.64441 23.7063 7.7242C23.6967 7.80079 23.6935 7.84228 23.6935 7.84228C23.6999 7.88697 23.4731 9.03909 22.6585 9.7859C22.2656 10.1529 21.796 10.4146 21.3712 10.4657C20.9271 10.5263 20.6748 10.2838 20.7355 10.2104C20.7834 10.1274 20.9846 10.1306 21.2114 9.96462C21.4414 9.80824 21.7257 9.50186 21.9238 9.17314C22.1251 8.84122 22.2433 8.46782 22.2944 8.18058C22.3487 7.89335 22.3455 7.69228 22.3487 7.67313Z" fill="currentColor"/>
<path d="M26.4892 16.1209C26.4892 16.1209 25.8695 15.5177 24.7674 14.8634C23.6621 14.2092 22.0138 13.6092 20.2696 13.2613C18.5286 12.9007 16.7334 12.6868 15.3949 12.5815C14.7272 12.5177 14.1842 12.5273 13.6731 12.4283C13.4303 12.3805 13.2195 12.3071 13.0789 12.24C12.9383 12.1762 12.8649 12.1251 12.8649 12.1251C12.8425 12.1092 12.6956 12.023 12.5135 11.8315C12.3346 11.6432 12.1717 11.3624 12.0503 11.1007C11.8139 10.5932 11.5072 9.92621 11.1974 9.26238C10.6 7.93153 10.0537 6.5943 10.2167 6.50174C10.3796 6.41238 11.2229 7.58685 12.0343 8.79962C12.4336 9.41238 12.8329 10.0283 13.1396 10.4975C13.4303 10.9666 13.5453 10.9443 13.5708 10.9762C13.5772 10.973 13.6411 11.0432 13.935 11.1039C14.2065 11.1645 14.8103 11.1741 15.5003 11.2347C16.8867 11.3464 18.7171 11.5634 20.5444 11.94C22.3748 12.3039 24.1924 12.9517 25.4415 13.6954C26.6937 14.4358 27.3901 15.1156 27.3901 15.1156C27.4572 15.1603 28.6199 16.3188 29.3419 17.7262C30.1054 19.1145 30.3641 20.6432 30.1852 20.6847C30.0063 20.7358 29.4313 19.3762 28.5337 18.2368C27.6744 17.0688 26.5467 16.1624 26.4892 16.1209Z" fill="currentColor"/>
<path d="M7.10138 27.0837C7.10138 27.0837 7.36652 26.9943 7.83291 26.8379C8.06611 26.7614 8.34722 26.6656 8.67306 26.5571C9.00209 26.4486 9.3375 26.3401 9.57389 26.1869C9.79431 26.0528 9.9764 25.8071 10.1808 25.3986C10.3885 24.9709 10.6057 24.5209 10.8325 24.0518C11.2765 23.1071 11.7334 22.0922 12.1678 21.0677C12.6022 20.0433 13.0111 19.0092 13.3817 18.0326C13.5606 17.5411 13.7331 17.0688 13.896 16.6188C14.0781 16.1369 14.1548 15.8273 14.0973 15.722C14.0717 15.5975 13.9088 15.4475 13.6628 15.3262C13.4264 15.205 13.1581 15.1188 12.9377 15.0454C12.484 14.9082 12.1486 14.7614 12.1614 14.7709C12.1135 14.7486 11.6152 14.5348 11.0018 14.0816C10.3885 13.6316 9.6889 12.9167 9.20973 12.0805C8.7082 11.2571 8.45264 10.322 8.38555 9.62944C8.32167 8.9305 8.42708 8.47412 8.51014 8.47731C8.61236 8.47412 8.68903 8.91455 8.89986 9.52093C9.1107 10.1241 9.47167 10.8997 10.002 11.5475C10.5131 12.2114 11.1647 12.738 11.7014 13.0539C12.2381 13.3731 12.6406 13.5071 12.6789 13.5262C12.6949 13.5262 12.8706 13.6156 13.3593 13.7656C13.6021 13.8486 13.9056 13.938 14.2825 14.1294C14.4678 14.2252 14.6754 14.3465 14.8831 14.5348C15.0907 14.7199 15.2984 15.0039 15.3974 15.339C15.506 15.6741 15.4805 16.0507 15.4134 16.3316C15.3431 16.6252 15.2536 16.8518 15.177 17.0752C15.0109 17.5316 14.8352 18.0135 14.6531 18.5114C14.2793 19.5039 13.8609 20.5571 13.42 21.5975C12.9792 22.6411 12.516 23.672 12.0624 24.6294C11.8292 25.1082 11.6056 25.5741 11.3915 26.0114C11.1679 26.4614 10.8229 27.0039 10.3182 27.3167C9.84223 27.6167 9.42376 27.7252 9.1075 27.8369C8.78167 27.9454 8.50056 28.0379 8.26736 28.1177C7.80097 28.2741 7.53583 28.3635 7.53583 28.3635C7.35055 28.4241 0.313151 30.4539 0.194955 30.0996C0.0735659 29.7486 6.9161 27.1475 7.10138 27.0837Z" fill="currentColor"/>
<path d="M19.282 31.3475C19.282 31.3475 19.3427 31.089 19.4513 30.639C19.496 30.4315 19.5887 30.0645 19.5759 30.0007C19.5631 29.9783 19.6047 30.0294 19.544 29.956C19.4897 29.8954 19.3108 29.7486 19.167 29.6177C18.5569 29.0879 17.8477 28.472 17.0874 27.8145C16.7105 27.489 16.3239 27.1507 15.9278 26.8092C15.848 26.7422 15.7873 26.7071 15.7681 26.7007C15.7521 26.6975 15.7809 26.6975 15.7489 26.7007C15.6914 26.7007 15.4614 26.822 15.2378 26.9528C14.3562 27.4571 13.5671 28.0826 12.8867 28.772C12.5353 29.1198 12.1711 29.4869 11.7654 29.8092C11.3597 30.1347 10.8965 30.39 10.4845 30.556C9.64432 30.8911 8.95751 31.0124 8.5007 31.1209C8.0407 31.223 7.77876 31.2805 7.77876 31.2805C7.59667 31.322 0.910664 32.4837 0.830802 32.1198C0.750941 31.756 7.30278 30.0007 7.48806 29.9624C7.48806 29.9624 7.75001 29.9049 8.21001 29.8028C8.66362 29.6975 9.3121 29.5762 9.97016 29.3081C10.6346 29.0624 11.2128 28.5549 11.9379 27.8145C12.6727 27.0709 13.5799 26.3464 14.567 25.7847C14.813 25.6571 15.0398 25.4783 15.5157 25.3762C15.7489 25.3283 16.0524 25.3539 16.2824 25.456C16.5124 25.5517 16.6657 25.673 16.7903 25.772C17.196 26.123 17.5921 26.4677 17.9787 26.7996C18.739 27.4603 19.4481 28.0762 20.0583 28.6028C20.2116 28.7432 20.3394 28.8358 20.5406 29.04C20.7355 29.2283 20.9335 29.6145 20.9335 29.9209C20.9304 30.5145 20.8154 30.6964 20.777 30.9486C20.6684 31.4113 20.6045 31.6762 20.6045 31.6762C20.5854 31.7688 20.0774 33.5209 19.413 35.1869C18.7613 36.8592 17.9563 38.4326 17.7838 38.3624C17.6113 38.2922 18.0937 36.6103 18.5026 34.8964C18.9146 33.1762 19.2597 31.4369 19.282 31.3475Z" fill="currentColor"/>
<path d="M22.5012 17.8731C22.5012 17.8731 22.2489 17.8188 21.8017 17.755C21.5972 17.7295 21.2298 17.6816 21.1596 17.7103C21.1404 17.7167 21.1628 17.7039 21.1468 17.7199C21.1244 17.7486 21.0797 17.8571 21.0542 18.0135C20.8848 19.5582 20.6165 21.8912 20.428 23.9784C20.4153 24.4795 20.4728 24.8401 20.6932 25.1752C20.9136 25.5199 21.3129 25.922 21.6547 26.3114C22.3511 27.0837 22.9996 27.805 23.5554 28.421C23.696 28.5773 23.8621 28.7593 24.0058 29.0018C24.1528 29.238 24.2454 29.5699 24.2454 29.8412C24.239 30.3901 24.0665 30.7156 23.9739 30.9582C23.7758 31.4082 23.6608 31.6635 23.6608 31.6635C23.6225 31.7529 22.8143 33.3773 21.8943 34.9093C20.9807 36.4476 19.9648 37.8837 19.8051 37.7912C19.6422 37.6986 20.361 36.1029 21.0414 34.4752C21.7314 32.8539 22.3894 31.1976 22.4278 31.1114C22.4278 31.1114 22.5396 30.8625 22.7312 30.4252C22.8207 30.2242 22.9006 29.9944 22.8942 29.8603C22.891 29.7933 22.8878 29.7678 22.8399 29.6784C22.7919 29.5922 22.6929 29.4742 22.5556 29.3242C21.9997 28.705 21.3512 27.9869 20.6548 27.2146C20.3162 26.822 19.9361 26.471 19.5591 25.8997C19.3771 25.6188 19.2269 25.2614 19.1566 24.9199C19.0832 24.5752 19.0736 24.2433 19.0832 23.9337C19.294 21.6103 19.5336 19.5422 19.7285 17.7837C19.7732 17.5316 19.8403 17.2507 20.0319 16.9635C20.2236 16.6635 20.5718 16.4433 20.8848 16.3859C21.4886 16.2965 21.709 16.4018 21.9837 16.4146C22.4949 16.4848 22.7856 16.5486 22.7856 16.5486C22.8814 16.5518 24.8428 17.0561 26.3857 18.221C27.162 18.7827 27.836 19.4561 28.2577 20.0178C28.6825 20.5795 28.8774 21.0039 28.8071 21.055C28.7273 21.1156 28.395 20.8061 27.8775 20.3816C27.3632 19.9571 26.6445 19.4433 25.8714 19.0284C24.3253 18.1667 22.5843 17.8795 22.5012 17.8731Z" fill="currentColor"/>
<path d="M12.2097 0.731587C12.2097 0.731587 12.3471 0.894353 12.4525 1.19116C12.5611 1.48797 12.609 1.89329 12.5579 2.32414C12.5036 2.76776 12.379 3.2018 12.1586 3.67733C11.9382 4.1401 11.5708 4.66669 10.9862 4.98584C10.3985 5.30818 9.75637 5.32414 9.25164 5.25712C8.73733 5.1901 8.2933 5.04648 7.90997 4.86776C7.52983 4.69222 7.23274 4.47201 7.04107 4.29329C6.84941 4.11457 6.75357 3.9901 6.75357 3.9901C6.7376 3.96457 6.57468 3.7635 6.44371 3.38371C6.30954 2.99754 6.29038 2.48052 6.45968 2.02733C6.61941 1.56776 6.96441 1.19754 7.32219 1.07308C7.41802 1.03159 7.46594 1.04116 7.52983 1.0284C7.67358 0.986906 7.74705 1.03478 7.80775 1.06988C7.86205 1.10499 7.92594 1.19116 7.89719 1.26137C7.85886 1.3284 7.83649 1.2901 7.81733 1.28691C7.80774 1.28371 7.76622 1.22946 7.79177 1.25499C7.80136 1.25499 7.78219 1.25499 7.76302 1.27414C7.73747 1.30606 7.73427 1.31882 7.72469 1.3252C7.71511 1.33478 7.70552 1.34435 7.70233 1.35393C7.69913 1.35393 7.70233 1.37946 7.69913 1.35074L7.69274 1.32201L7.67997 1.30606C7.64163 1.24542 7.73108 1.38584 7.72149 1.37308L7.7183 1.37627L7.71511 1.37946C7.68316 1.42414 7.60969 1.4752 7.59691 1.51669C7.48191 1.68265 7.38288 1.96031 7.39246 2.2284C7.38608 2.80925 7.78538 3.10925 7.80455 3.13797C7.80455 3.13797 7.97705 3.40286 8.48497 3.64542C8.96733 3.88159 9.88095 4.07627 10.3378 3.79542C10.8233 3.56563 11.1587 2.6784 11.213 2.17414C11.2418 1.91244 11.2098 1.72733 11.1779 1.64435C11.146 1.55818 11.1236 1.54542 11.1268 1.54223C11.1108 1.53584 11.13 1.49116 11.031 1.41137C10.9735 1.36989 10.8137 1.30925 10.6444 1.24223C10.4847 1.18159 10.3122 1.11457 10.1397 1.04754C9.80109 0.923076 9.47206 0.827332 9.21011 0.779459C8.94817 0.722013 8.75011 0.709246 8.71817 0.616693C8.68622 0.533715 8.84594 0.370949 9.15261 0.256055C9.45928 0.134779 9.89692 0.0900979 10.3122 0.109247C10.5198 0.11563 10.7243 0.134779 10.9096 0.153927C11.0917 0.176268 11.2642 0.185842 11.4846 0.249672C11.9414 0.386906 12.1969 0.71563 12.2097 0.731587Z" fill="currentColor"/>
</svg>
