<svg width="55" height="57" viewBox="0 0 55 57" fill="none" xmlns="http://www.w3.org/2000/svg">
    <path d="M30.8858 12.9602C30.8858 12.9602 30.7918 12.8516 30.594 12.6935C30.4012 12.5354 30.1095 12.323 29.7189 12.1847C28.9673 11.8636 27.8202 12.0019 26.9697 12.8318C26.1044 13.6222 25.7979 14.8473 26.0056 15.5883C26.0946 15.9835 26.2627 16.2947 26.3912 16.4923C26.5247 16.6899 26.6187 16.7887 26.6187 16.7887C26.6434 16.8183 27.1329 17.6087 28.0625 17.8655C28.5173 18.0088 29.0266 18.0236 29.4222 17.9742C29.8227 17.9347 30.1095 17.8458 30.1985 17.9545C30.2776 18.0483 30.1342 18.3694 29.7189 18.6707C29.3134 18.977 28.636 19.229 27.9141 19.2339C27.1922 19.2537 26.4407 18.9968 25.9512 18.6954C25.4567 18.3941 25.1798 18.0928 25.1502 18.0681C25.1502 18.0681 24.9919 17.8952 24.7645 17.5593C24.542 17.2184 24.2601 16.7047 24.1069 16.018C23.741 14.6052 24.2898 12.6392 25.6298 11.419C26.2775 10.7916 27.123 10.3421 27.9932 10.1692C28.8684 9.9815 29.7337 10.1149 30.3814 10.3619C31.039 10.599 31.5088 10.9398 31.8153 11.1868C32.1268 11.4338 32.2702 11.6067 32.2702 11.6067C32.3246 11.6314 33.353 12.8713 33.3827 14.378C33.4025 15.1091 33.2344 15.8155 32.8932 16.2798C32.5422 16.7689 32.0774 16.7936 32.0477 16.6652C32.0032 16.5367 32.1763 16.3243 32.2059 15.9637C32.2504 15.6031 32.1862 15.0597 32.0279 14.5904C31.8648 14.1162 31.5879 13.6963 31.3406 13.4147C31.1083 13.1331 30.9006 12.9751 30.8858 12.9602Z"
          fill="currentColor"/>
    <path d="M31.5538 6.59273C31.5538 6.59273 30.1496 7.45721 28.0482 8.75146C25.9517 10.0605 23.1779 11.829 20.4287 13.6469C17.6796 15.4598 14.9651 17.3271 12.9378 18.7399C10.9254 20.1675 9.58054 21.1209 9.58054 21.1209C9.46187 21.2 7.22697 22.6572 5.01184 24.0997C2.78682 25.5224 0.581585 26.9203 0.413472 26.703C0.255249 26.4955 2.16876 24.7122 4.19106 22.9981C6.2084 21.279 8.32464 19.6241 8.44331 19.5451C8.44331 19.5451 9.79315 18.5868 11.8204 17.1493C13.8575 15.7266 16.5869 13.8494 19.3508 12.0266C22.1148 10.1988 24.9084 8.42049 27.0148 7.10154C29.131 5.80235 30.5402 4.93293 30.5402 4.93293C30.6638 4.85389 33.0866 3.51025 35.5341 2.28516C37.9816 1.05513 40.4489 -0.0514078 40.5775 0.175827C40.711 0.412941 38.486 1.93936 36.2313 3.47073C33.9618 4.98727 31.6725 6.5137 31.5538 6.59273Z"
          fill="currentColor"/>
    <path d="M42.8177 18.8634C42.8177 18.8634 42.8572 18.4831 42.8325 17.8409C42.8177 17.5198 42.7732 17.1345 42.6792 16.7096C42.5952 16.4034 42.6347 16.5367 42.6248 16.5071C40.6174 16.5664 37.5815 18.4188 34.6444 19.886C31.7074 21.4173 28.8891 23.1117 26.9409 24.5838C25.9817 25.305 25.0868 26.0114 24.3253 26.3869C23.5737 26.7771 23.0546 26.8858 23.0546 26.8858C22.9853 26.8957 22.0657 27.1575 20.8493 26.8809C19.6379 26.624 18.2831 25.8089 17.3437 24.6727C16.3993 23.5563 15.8455 22.2769 15.4994 21.3284C15.1632 20.375 15.0247 19.723 15.1434 19.6686C15.267 19.6093 15.6477 20.1676 16.1817 20.9975C16.7157 21.8175 17.4277 22.9092 18.3425 23.7243C19.2325 24.5443 20.3549 25.0333 21.1757 25.1173C22.0063 25.2161 22.5107 25.0086 22.57 25.0037C22.57 25.0037 22.8815 24.9444 23.4304 24.6628C23.9891 24.3912 24.7456 23.8033 25.7839 23.0228C27.8359 21.4766 30.763 19.723 33.7445 18.1669C35.2427 17.3815 36.7112 16.6355 38.1402 15.9242C39.5988 15.2178 41.0624 14.6398 42.6199 14.5657C42.9314 14.5657 43.233 14.5558 43.5297 14.5707C43.678 14.5756 43.8263 14.5805 43.9697 14.5855C44.0834 14.6349 44.0834 14.8325 44.1477 14.9461C44.2417 15.2129 44.3356 15.4697 44.4296 15.7167C44.479 15.9094 44.5334 16.0921 44.5828 16.2749C44.7065 16.843 44.7658 17.3419 44.7806 17.752C44.8152 18.567 44.7608 19.0215 44.7608 19.0215C44.751 19.0956 44.6768 19.9057 44.3702 20.9876C44.0785 22.0743 43.5494 23.4081 42.9709 24.6678C41.8189 27.2217 40.3553 29.5533 40.113 29.4249C39.8757 29.3014 40.8943 26.7821 41.6854 24.1787C42.0958 22.8697 42.4567 21.5705 42.6248 20.5874C42.8028 19.5896 42.8078 18.9276 42.8177 18.8634Z"
          fill="currentColor"/>
    <path d="M29.2302 47.5641C29.2302 47.5641 29.4972 47.1837 29.8878 46.4723C30.2735 45.761 30.7729 44.7039 31.1289 43.3553C31.48 42.0116 31.7025 40.3815 31.5343 38.6525C31.3959 36.9285 30.8322 35.0711 30.2933 33.1544C30.0263 32.201 29.7543 31.2476 29.4923 30.3041C29.3588 29.8348 29.2302 29.3705 29.1017 28.9061C28.9731 28.4615 28.8396 27.9132 28.7407 27.7354C28.6863 27.6316 28.6715 27.6316 28.6715 27.6316C28.6715 27.6316 28.6616 27.6218 28.5775 27.6267C28.4094 27.6366 28.0781 27.77 27.7716 27.9527C27.0546 28.4023 26.3772 28.8222 25.7542 29.2124C24.4934 30.0028 23.4402 30.6598 22.7035 31.1192C21.9519 31.6033 21.3685 31.8404 21.3685 31.8404C21.319 31.8552 21.0619 31.9738 20.5823 32.0775C20.1126 32.1813 19.3264 32.206 18.5749 31.8799C17.8233 31.5687 17.1855 31.0006 16.6564 30.3832C16.1224 29.7558 15.6774 29.1136 15.2077 28.4517C13.3535 25.8039 12.0086 22.9338 12.2459 22.8054C12.4783 22.6769 14.2237 25.2654 16.2955 27.6119C17.3239 28.7975 18.387 30.0077 19.2127 30.2103C19.9692 30.4523 20.5329 30.0571 20.612 30.0522C20.612 30.0522 20.9581 29.9237 21.6701 29.4693C22.4068 29.0099 23.4551 28.3529 24.7159 27.5625C25.3537 27.1624 26.046 26.7326 26.7728 26.2781C27.203 26.0361 27.6776 25.7644 28.4045 25.6853C28.7654 25.6557 29.2253 25.71 29.6208 25.9373C30.0213 26.1546 30.3131 26.535 30.4614 26.8462C30.7679 27.5081 30.8075 27.9033 30.9608 28.3677C31.0893 28.8271 31.2228 29.2964 31.3563 29.7657C31.6233 30.7042 31.8903 31.6576 32.1573 32.616C32.6864 34.508 33.2946 36.474 33.4627 38.4697C33.6506 40.4556 33.3984 42.313 32.9979 43.8443C32.5925 45.3757 32.0238 46.581 31.5838 47.3912C31.1388 48.2013 30.8322 48.636 30.8322 48.636C30.7729 48.7052 30.2537 49.4906 29.3044 50.444C28.36 51.3974 26.9805 52.4595 25.512 53.2844C22.57 54.9393 19.4896 55.952 19.3858 55.7445C19.2473 55.4728 22.1695 53.9908 24.7653 52.1285C26.0657 51.1998 27.2277 50.1279 27.9892 49.2239C28.7704 48.3396 29.1808 47.6283 29.2302 47.5641Z"
          fill="currentColor"/>
    <path d="M48.0335 46.6503C48.0335 46.6503 47.895 46.3095 47.5835 45.7858C47.2671 45.2721 46.738 44.5805 45.8876 43.9136C45.0421 43.2418 43.8851 42.6095 42.555 42.0217C42.2188 41.8784 41.8776 41.7302 41.5265 41.582C41.1705 41.4388 40.7997 41.2708 40.5871 41.2214C40.3498 41.1769 40.325 41.1868 40.1718 41.2659C40.0284 41.3498 39.8306 41.5524 39.6674 41.8142C38.9505 42.9602 38.5895 44.4373 38.3027 45.8797C38.016 47.3271 37.7292 48.7745 37.215 49.9996C36.7106 51.2296 35.964 52.1731 35.3756 52.7066C34.7872 53.25 34.4065 53.4772 34.4065 53.4772C34.3472 53.5217 33.6994 53.9416 32.7254 54.3368C31.7562 54.7418 30.4806 55.0975 29.2494 55.4087C26.7772 56.046 24.3148 56.6091 24.2307 56.3572C24.1467 56.1053 26.4508 55.0778 28.8143 54.1095C30.001 53.6254 31.158 53.1561 31.9689 52.7214C32.7798 52.2917 33.2544 51.9212 33.3039 51.8866C33.3039 51.8866 33.6104 51.6989 34.0455 51.2938C34.4757 50.8887 35.0048 50.2416 35.4152 49.2586C35.8305 48.2755 36.1024 46.9764 36.3942 45.4993C36.6958 44.0322 37.0567 42.3378 38.0357 40.762C38.3027 40.3619 38.634 39.937 39.173 39.6061C39.6971 39.2553 40.5228 39.1812 41.042 39.3393C41.5908 39.4826 41.9221 39.6555 42.283 39.7987C42.644 39.9518 43 40.105 43.3461 40.2532C44.7454 40.8707 46.0606 41.5771 47.0891 42.3971C48.1225 43.2072 48.8345 44.1112 49.2449 44.788C49.6454 45.4648 49.8036 45.8649 49.8036 45.8649C49.8333 45.9291 50.125 46.6454 50.3969 47.6482C50.6689 48.6411 51.0002 49.9106 51.3216 51.195C51.9594 53.7539 52.5181 56.293 52.266 56.3769C52.0088 56.4609 50.9853 54.0651 50.0162 51.6149C49.5415 50.3849 49.0669 49.1548 48.701 48.2113C48.345 47.2727 48.0582 46.7096 48.0335 46.6503Z"
          fill="currentColor"/>
    <path d="M37.6761 25.1765C37.6761 25.1765 37.7899 25.5272 38.047 26.2089C38.2942 26.8857 38.6502 27.849 39.0804 29.0098C39.293 29.5878 39.5254 30.2152 39.7726 30.882C39.8962 31.213 40.0198 31.5539 40.1484 31.9046C40.2819 32.2603 40.3956 32.6011 40.5242 32.8234C40.7121 33.2186 41.2362 33.5496 41.968 33.9843C42.6602 34.4042 43.3623 34.8339 44.0694 35.2637C45.4785 36.1233 46.8828 36.9779 48.2029 37.7831C48.8606 38.1832 49.4984 38.5734 50.1066 38.9439C50.69 39.3095 51.3328 39.6553 51.9064 40.1937C52.4997 40.7272 52.8705 41.4633 53.0436 42.0067C53.2315 42.5698 53.3106 43.0243 53.3897 43.3799C53.538 44.0863 53.6221 44.4865 53.6221 44.4865C53.6814 44.768 55.3774 55.0183 54.8483 55.127C54.3242 55.2357 51.7778 45.1632 51.7185 44.8817C51.7185 44.8817 51.6344 44.4766 51.4861 43.7751C51.3229 43.0638 51.1944 42.1549 50.5763 41.6115C50.25 41.2953 49.711 40.9841 49.0929 40.6037C48.4897 40.2332 47.8519 39.8479 47.1893 39.4429C45.8691 38.6377 44.4649 37.7831 43.0557 36.9235C42.3536 36.4937 41.6466 36.064 40.9543 35.6441C40.6181 35.4366 40.2473 35.2291 39.8616 34.9327C39.4809 34.6512 39.0705 34.2313 38.8183 33.7571C38.5711 33.3026 38.4524 32.9123 38.3239 32.5764C38.1953 32.2257 38.0717 31.8848 37.9481 31.5539C37.7009 30.8919 37.4734 30.2646 37.2559 29.6817C36.8306 28.5208 36.4746 27.5575 36.2225 26.8807C35.9703 26.2139 35.8269 25.7791 35.8269 25.7791C35.8318 25.7001 35.4956 24.9838 35.5253 23.655C35.5401 23.0276 35.8022 22.1088 36.4301 21.516C36.7515 21.2147 37.0482 20.9578 37.6712 20.7602C38.2349 20.6022 38.8084 20.6565 39.2633 20.8936L39.4413 20.9726C39.4858 21.0122 39.4759 21.0863 39.5007 21.1455L39.5847 21.5061C39.6391 21.7482 39.6094 22.0644 39.6243 22.3262C39.6193 22.667 39.6144 23.0029 39.6094 23.324C39.5946 23.9613 39.5748 24.5541 39.5501 25.0579C39.4957 26.0755 39.4067 26.7523 39.2732 26.7572C39.1397 26.7671 38.9716 26.1052 38.7936 25.1024C38.7046 24.6035 38.6156 24.0156 38.5266 23.3882C38.4821 23.077 38.4376 22.7609 38.3931 22.4348C38.3436 22.3262 38.3684 22.1928 38.2695 22.173C38.0173 22.1879 37.9926 22.2076 37.6218 22.5979C37.3449 22.9486 37.3053 23.2845 37.3152 23.6945C37.3646 24.475 37.6712 25.1221 37.6761 25.1765Z"
          fill="currentColor"/>
</svg>
