<svg width="50" height="64" viewBox="0 0 50 64" fill="none" xmlns="http://www.w3.org/2000/svg">
    <path d="M35.4852 25.5943C35.4852 25.5943 35.1242 25.6487 34.4864 25.708C33.8485 25.7376 32.914 25.7771 31.8114 25.5746C30.694 25.3918 29.4727 24.8781 28.3503 24.4137C27.2328 23.9494 26.0461 23.6629 24.7902 23.6085C23.5442 23.5492 22.3131 23.732 21.1857 24.0976C20.0435 24.4631 18.936 24.9423 17.8976 25.2486C16.8494 25.5598 15.9446 25.6882 15.3166 25.7574C14.6837 25.8117 14.3228 25.8166 14.3228 25.8166C14.2091 25.8364 11.8011 25.7821 9.68485 24.8879C8.62674 24.4681 7.65267 23.8851 7 23.3665C6.34239 22.8527 5.99627 22.4081 6.07044 22.3192C6.22866 22.1167 8.04823 23.2133 10.0854 23.6382C12.1077 24.142 14.1744 23.979 14.2783 23.9642C14.2783 23.9642 15.5589 23.9988 17.3735 23.4751C18.2883 23.2084 19.3563 22.744 20.6369 22.334C21.9274 21.9141 23.4206 21.6869 24.8842 21.761C26.3428 21.8153 27.8262 22.1858 29.0524 22.6996C30.2737 23.2084 31.2576 23.6135 32.1575 23.7567C33.0574 23.9247 33.8337 23.8901 34.3776 23.8654C34.9215 23.816 35.233 23.7715 35.233 23.7715C35.2874 23.7617 35.8362 23.7123 36.6372 23.5591C37.4382 23.401 38.4865 23.1145 39.5248 22.7589C41.6015 22.0475 43.6386 21.1534 43.7622 21.3905C43.8759 21.6029 42.0762 22.9021 40.039 23.9642C39.0205 24.4928 37.9376 24.9423 37.0674 25.214C36.1774 25.4708 35.5445 25.5845 35.4852 25.5943Z"
          fill="currentColor"/>
    <path d="M21.1792 51.6425C21.1792 51.6425 21.1149 49.8889 21.021 47.2608C20.9122 44.6328 20.8331 41.1156 20.6155 37.6478C20.5018 35.9139 20.3337 34.1899 20.1112 32.5894C19.9975 31.7891 19.8739 31.0185 19.7305 30.2923C19.6563 29.9317 19.5871 29.581 19.5179 29.2402C19.4487 28.8845 19.3745 28.6474 19.3201 28.5683C19.2558 28.4942 19.2261 28.4498 19.1223 28.4251C19.0185 28.3954 18.8355 28.3954 18.6476 28.4201C18.262 28.4745 17.8516 28.6227 17.5203 28.7462C17.1989 28.8746 16.8577 28.9932 16.6501 29.0673C16.4375 29.1463 16.3237 29.1759 16.3237 29.1759C16.2446 29.1908 15.4486 29.4377 14.2817 29.5118C13.1148 29.6057 11.582 29.4773 10.1629 29.0179C8.73396 28.5881 7.45828 27.8125 6.64244 27.1061C5.82166 26.3948 5.43104 25.7872 5.5151 25.7081C5.61399 25.6093 6.16777 26.0292 7.05778 26.5133C7.94284 26.9925 9.18391 27.5211 10.4892 27.7483C11.7896 28.0002 13.1197 27.9805 14.0987 27.8125C15.0827 27.6643 15.7205 27.4124 15.7897 27.4025C15.8145 27.4025 16.121 27.2988 16.8627 27.0172C17.2484 26.8789 17.7181 26.6862 18.3905 26.5825C18.7268 26.538 19.1273 26.5084 19.6069 26.6319C20.0914 26.7406 20.6007 27.1012 20.8974 27.5754C21.1941 28.0595 21.2633 28.5091 21.3374 28.845C21.4116 29.2006 21.4858 29.5662 21.5599 29.9466C21.7083 30.7024 21.8319 31.5026 21.9555 32.3325C22.1879 33.9874 22.356 35.7608 22.4697 37.5243C22.6972 41.0613 22.7713 44.5637 22.8801 47.1917C22.9741 49.8197 23.0383 51.5734 23.0383 51.5734C23.0482 51.8796 23.0433 63.3155 22.534 63.3352C22.0198 63.3599 21.1941 51.9488 21.1792 51.6425Z"
          fill="currentColor"/>
    <path d="M27.3575 51.5785C27.3575 51.5785 27.4218 49.8248 27.5158 47.1968C27.6245 44.5688 27.6987 41.0664 27.9262 37.5295C28.0399 35.761 28.2129 33.9925 28.4404 32.3376C28.5591 31.5077 28.6876 30.7075 28.8359 29.9517C28.9101 29.5763 28.9892 29.2058 29.0584 28.8501C29.1326 28.5142 29.2018 28.0646 29.4985 27.5805C29.7952 27.1063 30.3094 26.7457 30.789 26.637C31.2686 26.5135 31.6691 26.5432 32.0054 26.5876C32.6778 26.6914 33.1525 26.8791 33.5332 27.0223C34.2749 27.3088 34.5814 27.4076 34.6062 27.4076C34.6754 27.4175 35.3132 27.6695 36.2972 27.8177C37.2762 27.9856 38.6062 28.0054 39.9066 27.7534C41.212 27.5262 42.453 26.9976 43.3381 26.5185C44.2232 26.0344 44.7819 25.6145 44.8808 25.7133C44.9648 25.7923 44.5742 26.3999 43.7534 27.1112C42.9327 27.8177 41.657 28.5932 40.233 29.023C38.8139 29.4824 37.2811 29.6108 36.1142 29.517C34.9424 29.4429 34.1513 29.1959 34.0721 29.1811C34.0721 29.1811 33.9535 29.1514 33.7458 29.0724C33.5381 28.9983 33.197 28.8797 32.8756 28.7513C32.5443 28.6229 32.1339 28.4796 31.7482 28.4253C31.5554 28.3956 31.3774 28.4006 31.2736 28.4302C31.1648 28.4549 31.1401 28.4994 31.0758 28.5735C31.0214 28.6525 30.9472 28.8896 30.878 29.2453C30.8088 29.5861 30.7396 29.9369 30.6654 30.2975C30.522 31.0236 30.4033 31.7943 30.2847 32.5945C30.0622 34.195 29.8941 35.9191 29.7803 37.653C29.5578 41.1208 29.4787 44.638 29.3749 47.266C29.2809 49.894 29.2167 51.6476 29.2167 51.6476C29.2068 51.9539 28.381 63.3601 27.8668 63.3453C27.3526 63.3206 27.3477 51.8848 27.3575 51.5785Z"
          fill="currentColor"/>
    <path d="M24.4632 58.1334L24.127 47.9968C24.1221 47.8831 24.4039 43.8868 24.9181 43.8818C25.4324 43.8769 25.9812 47.8486 25.9812 47.9572L26.3174 58.0445C26.3174 58.0988 26.2482 59.1609 26.1196 60.2081C26.0801 60.47 26.0455 60.7318 26.0059 60.9788C25.9713 61.2307 25.907 61.4678 25.8873 61.5716C25.8675 61.7148 25.8774 61.8136 25.8675 61.8729C25.8576 61.947 25.9466 61.9865 25.9664 62.0458C25.9911 62.0902 25.9515 62.2335 25.7191 62.2187C25.4966 62.189 25.3087 61.9964 25.1851 61.7692C25.0566 61.4975 25.0269 61.2752 24.9626 61.038C24.9082 60.7911 24.8539 60.5342 24.7995 60.2822C24.6066 59.2449 24.4682 58.1877 24.4632 58.1334Z"
          fill="currentColor"/>
    <path d="M27.2286 17.3004C27.2286 17.3004 27.2236 17.1621 27.1643 16.9299C27.1099 16.6977 27.011 16.3668 26.8034 16.0358C26.4226 15.3541 25.4733 14.786 24.3509 14.9194C23.2334 15.0083 22.2841 15.7542 22.0072 16.4359C21.8391 16.7867 21.7847 17.1176 21.7699 17.3449C21.755 17.5721 21.7649 17.7005 21.7649 17.7005C21.7699 17.7351 21.6759 18.6194 22.2248 19.3603C22.4819 19.7358 22.8626 20.042 23.184 20.2347C23.5054 20.4372 23.7773 20.541 23.7823 20.6743C23.7872 20.7929 23.4906 20.946 23.0011 20.9312C22.5165 20.9263 21.8589 20.7188 21.31 20.2989C20.7513 19.8938 20.336 19.2566 20.1481 18.7428C19.9503 18.2242 19.9206 17.8388 19.9108 17.8043C19.9108 17.8043 19.891 17.582 19.9206 17.1917C19.9503 16.8064 20.0443 16.2531 20.331 15.6455C20.8799 14.3661 22.4473 13.2052 24.1729 13.0669C25.0283 12.9731 25.9282 13.1262 26.6896 13.5066C27.461 13.8771 28.0345 14.4847 28.3807 15.0478C28.7367 15.611 28.8899 16.1395 28.9789 16.51C29.0679 16.8805 29.0778 17.0929 29.0778 17.0929C29.1025 17.1423 29.152 18.6836 28.2917 19.8346C27.8763 20.3977 27.3374 20.8324 26.8083 20.9856C26.2545 21.1486 25.8886 20.8966 25.948 20.783C25.9875 20.6595 26.2446 20.6052 26.477 20.3434C26.7193 20.0964 26.9913 19.6518 27.1445 19.2023C27.3028 18.7478 27.3374 18.2686 27.3176 17.9129C27.2929 17.5622 27.2286 17.3251 27.2286 17.3004Z"
          fill="currentColor"/>
    <path d="M2.75592 16.8707L3.10698 5.01989C3.11193 4.89145 3.66571 0.23808 4.17499 0.267719C4.68922 0.297358 4.96611 4.97049 4.96116 5.09892L4.61505 16.9052C4.6101 17.0337 4.05632 21.8352 3.5421 21.8352C3.02787 21.8303 2.75098 16.9991 2.75592 16.8707Z"
          fill="currentColor"/>
    <path d="M45.0919 16.8707L45.4429 5.01989C45.4479 4.89145 46.0016 0.23808 46.5109 0.267719C47.0252 0.297358 47.302 4.97049 47.2971 5.09892L46.951 16.9052C46.946 17.0337 46.3923 21.8352 45.878 21.8352C45.3589 21.8303 45.0869 16.9991 45.0919 16.8707Z"
          fill="currentColor"/>
    <path d="M2.62361 27.926C2.62361 27.926 2.24288 27.8668 1.74349 27.5753C1.25399 27.2987 0.621093 26.7207 0.388702 25.8908C0.151367 25.0757 0.354091 24.2557 0.606259 23.7568C0.863372 23.248 1.13532 22.9812 1.13532 22.9812C1.15015 22.9615 1.65449 22.5564 2.25772 22.4724C2.86094 22.3539 3.40484 22.6107 3.38011 22.8627C3.36528 23.1195 3.00928 23.3567 2.82633 23.658C2.61866 23.9396 2.51977 24.2211 2.50989 24.231C2.50989 24.231 2.38627 24.3545 2.26761 24.5867C2.14894 24.8139 2.0896 25.135 2.16872 25.3869C2.23299 25.6339 2.45055 25.8562 2.67305 25.9797C2.89061 26.1082 3.06367 26.1329 3.06367 26.1329C3.0785 26.1378 3.32078 26.3156 3.65206 26.4194C3.97345 26.5528 4.40857 26.5132 4.58657 26.701C4.76457 26.8788 4.48768 27.4419 3.89434 27.7087C3.32078 27.9952 2.64339 27.9409 2.62361 27.926Z"
          fill="currentColor"/>
    <path d="M46.9804 26.5181C46.9705 26.5428 47.5144 26.1624 47.5984 25.6437C47.7171 25.13 47.3611 24.5718 47.3611 24.5965C47.3512 24.5866 47.3215 24.3347 47.2177 24.0432C47.1336 23.7419 46.926 23.4257 47.0001 23.1787C47.0694 22.9367 47.5589 22.8428 48.0385 23.0207C48.5181 23.1738 48.8988 23.5542 48.9087 23.5739C48.9087 23.5739 49.0966 23.8259 49.2647 24.2655C49.4328 24.7002 49.5515 25.3474 49.418 26.0044C49.2894 26.6614 48.9285 27.2196 48.6071 27.5555C48.2857 27.9013 48.0088 28.0593 48.0088 28.0593C47.994 28.0791 47.4798 28.2866 46.9655 28.2471C46.4414 28.2273 46.0162 27.9408 46.0508 27.6938C46.0854 27.4369 46.4117 27.2294 46.6145 26.9825C46.837 26.7503 46.9705 26.528 46.9804 26.5181Z"
          fill="currentColor"/>
</svg>
