<svg width="51" height="54" viewBox="0 0 51 54" fill="none" xmlns="http://www.w3.org/2000/svg">
    <path d="M30.3459 11.2963C30.3459 11.2963 30.2866 11.1481 30.1383 10.9208C29.9899 10.6936 29.7575 10.3725 29.4015 10.1008C28.7291 9.50804 27.4732 9.26599 26.3211 9.84395C25.1592 10.3676 24.4274 11.5334 24.3928 12.3831C24.3483 12.8276 24.4175 13.2031 24.4867 13.455C24.556 13.7069 24.6202 13.8403 24.6202 13.8403C24.6351 13.8798 24.8971 14.8629 25.7871 15.4211C26.2124 15.7125 26.7315 15.8805 27.1518 15.9496C27.5721 16.0287 27.8885 16.0188 27.938 16.1472C27.9825 16.2559 27.7303 16.5128 27.2161 16.6709C26.7117 16.8339 25.9651 16.8536 25.2482 16.6215C24.5312 16.4041 23.8786 15.9052 23.4978 15.4458C23.1122 14.9864 22.9391 14.606 22.9193 14.5665C22.9193 14.5665 22.8155 14.3442 22.7018 13.9391C22.593 13.534 22.4793 12.9363 22.5485 12.2102C22.6375 10.7035 23.8143 8.93996 25.53 8.16439C26.3755 7.75438 27.3496 7.57655 28.2643 7.69017C29.1889 7.78402 29.9949 8.19403 30.5536 8.64356C31.1272 9.08815 31.4782 9.57226 31.7007 9.91805C31.9282 10.2638 32.0172 10.4812 32.0172 10.4812C32.0617 10.5257 32.6896 12.0768 32.2496 13.5785C32.0419 14.3096 31.6562 14.9617 31.1717 15.3173C30.6723 15.6928 30.2124 15.5792 30.2273 15.4557C30.2223 15.3272 30.4794 15.184 30.6426 14.8283C30.8206 14.4825 30.9492 13.9095 30.9541 13.376C30.9591 12.8326 30.8256 12.309 30.6673 11.9335C30.5141 11.5532 30.3608 11.321 30.3459 11.2963Z"
          fill="currentColor"/>
    <path d="M21.4554 8.12975C21.4554 8.12975 20.9709 8.30759 20.1896 8.46566C19.799 8.5447 19.3293 8.61386 18.82 8.63362C18.2959 8.6435 17.6383 8.65832 16.9114 8.21373C16.5554 7.9865 16.2439 7.60118 16.1055 7.19611C15.9572 6.7861 15.9621 6.40573 15.9967 6.09452C16.0709 5.47704 16.2637 5.02751 16.3725 4.70147C16.6148 4.01977 16.7779 3.57024 16.7779 3.57024C16.8076 3.4912 18.2118 0.769329 18.6964 0.942225C19.181 1.11512 18.553 4.10869 18.5233 4.18773C18.5233 4.18773 18.3602 4.6422 18.1179 5.31896C17.9943 5.66969 17.8657 6.01548 17.8361 6.29706C17.8212 6.59839 17.8509 6.59839 17.9201 6.65767C18.1525 6.85526 19.2403 6.78117 19.8188 6.64779C20.4517 6.51935 20.8769 6.36621 20.8769 6.36621C20.9165 6.35633 21.6582 6.20814 22.4344 6.055C23.2107 5.89693 24.0216 5.75861 24.1304 5.99572C24.2392 6.22296 23.6409 6.77623 22.9585 7.25539C22.291 7.74444 21.4999 8.11493 21.4554 8.12975Z"
          fill="currentColor"/>
    <path d="M19.573 6.27246C19.5928 6.2527 19.1379 5.88221 19.123 5.90197C19.123 5.90197 19.123 5.78341 19.1329 5.60063C19.1478 5.4228 19.1577 5.1758 19.2467 4.93869C19.4098 4.4447 20.0131 4.26686 20.0328 4.28662C20.0328 4.28662 20.2998 4.43482 20.5372 4.62748C20.7745 4.82013 20.9723 5.05231 20.9723 5.05231C21.002 5.06713 20.9525 5.70437 20.4976 5.96124C20.2801 6.09956 20.0427 6.1539 19.8647 6.2033C19.6917 6.2527 19.573 6.27246 19.573 6.27246Z"
          fill="currentColor"/>
    <path d="M40.2092 15.8361C40.2092 15.8361 39.957 16.088 39.4527 16.4832C38.9583 16.8734 38.1226 17.3921 37.0744 17.7083C34.9928 18.4048 32.2288 18.1627 30.2708 19.2298C28.2782 20.3264 26.7998 22.663 24.8813 23.8436C23.9616 24.4315 23.0716 24.7525 22.4041 24.8909C21.7416 25.0292 21.3312 25.0144 21.3312 25.0144C21.2719 24.9995 20.545 25.0489 19.6056 24.6044C19.1457 24.387 18.6562 24.0264 18.2854 23.5917C17.9096 23.1619 17.608 22.6926 17.336 22.253C16.2186 20.4845 15.1704 18.6963 15.378 18.5431C15.5808 18.39 16.9998 19.8966 18.3892 21.4675C19.0765 22.2875 19.7193 22.8952 20.283 23.0335C20.8417 23.2212 21.2817 23.1471 21.3213 23.1619C21.3213 23.1619 21.5685 23.1718 22.0284 23.0779C22.4833 22.9841 23.1557 22.7519 23.8875 22.2826C24.6143 21.838 25.3659 21.0822 26.2312 20.2079C27.0915 19.3434 28.0755 18.3258 29.3857 17.6045C30.7208 16.8784 32.1695 16.661 33.3908 16.5029C34.6219 16.3498 35.6998 16.2115 36.5256 15.9447C37.3562 15.6928 37.9298 15.3273 38.3303 15.016C38.7259 14.7098 38.9385 14.4974 38.9385 14.4974C39.1758 14.6752 44.4714 7.93225 44.9065 8.25828C45.1141 8.41142 44.0412 10.2589 42.904 12.0966C42.3353 13.0104 41.7568 13.9391 41.2278 14.6406C40.6987 15.3371 40.2537 15.7916 40.2092 15.8361Z"
          fill="currentColor"/>
    <path d="M28.0166 45.2975C29.1737 42.3632 30.4345 39.2115 30.1082 36.2278C29.9499 34.7261 29.4308 33.1997 28.9413 31.614L27.6458 27.4645H27.6409C27.4975 27.4941 27.1909 27.6028 26.9338 27.6868L25.3516 28.2104L22.192 29.2577C22.1129 29.2527 21.4949 29.5491 20.239 29.6677C19.616 29.722 18.7705 29.5639 18.1079 29.0947C17.4305 28.6303 16.9905 27.9634 16.6691 27.341C16.0362 26.0764 15.6653 24.8661 15.161 24.0955C14.6962 23.2952 14.1227 22.9988 14.182 22.8556C14.1968 22.7518 14.978 22.8506 15.7247 23.641C16.4911 24.3869 17.1042 25.6466 17.7964 26.6642C18.1425 27.173 18.5331 27.588 18.9287 27.7856C19.3242 27.9931 19.705 28.0276 20.0906 27.9634C20.862 27.8251 21.5493 27.4991 21.6135 27.4941L24.7731 26.4469L26.3553 25.9233C26.6272 25.8393 26.8448 25.7454 27.2404 25.6516C27.7694 25.5231 28.3628 25.5873 28.788 25.9233C29.1044 26.1554 29.317 26.5654 29.4159 26.9112L29.6038 27.509L29.9697 28.6896L30.7064 31.0508C31.1811 32.6118 31.7547 34.2272 31.9475 36.0204C32.1354 37.8234 31.8585 39.6018 31.3987 41.2566C31.1712 42.0865 30.8993 42.8917 30.6125 43.6821C30.3109 44.4873 30.0686 45.2036 29.6928 46.0631C29.673 46.1027 29.5791 46.3052 29.3665 46.6362C29.1687 46.9622 28.7583 47.4463 28.254 47.7921C27.7447 48.1478 27.2404 48.4195 26.6816 48.7554C26.1229 49.0814 25.5296 49.4223 24.9362 49.7681C22.5629 51.1265 20.1846 52.4158 20.0412 52.2034C19.9028 51.991 22.0239 50.3164 24.2143 48.6763C24.7632 48.2663 25.317 47.8613 25.8361 47.476C26.3504 47.0906 26.8794 46.73 27.2058 46.4485C27.542 46.157 27.6854 45.9298 27.8139 45.6976C27.9375 45.4901 28.0018 45.3271 28.0166 45.2975Z"
          fill="currentColor"/>
    <path d="M43.7104 44.7145C43.389 43.8846 43.0924 42.783 42.7908 42.5113C42.6276 42.3335 42.2815 42.1409 41.8563 41.9136L40.63 41.2467L36.7189 39.1127L35.6114 44.3786C35.4037 45.3814 35.1812 46.4385 34.7906 47.4907C34.4049 48.5331 33.8165 49.6248 32.8375 50.43C32.798 50.4744 32.1354 50.9931 31.1514 51.2846C30.1625 51.576 29.0698 51.7292 27.9474 52.0404C25.7076 52.5936 23.5617 53.4532 23.443 53.2259C23.3194 52.9987 25.2972 51.7045 27.5271 50.7955C28.6199 50.3213 29.8461 49.9804 30.568 49.6742C31.2998 49.363 31.6113 49.032 31.6607 48.9925C32.2788 48.4886 32.7287 47.713 33.0551 46.8387C33.3814 45.9594 33.5891 45.001 33.7967 43.9933L34.4296 40.975L34.7461 39.4684L34.9093 38.6978C34.9983 38.189 35.201 37.7147 35.5866 37.4381C35.9377 37.1812 36.3827 37.0972 36.8178 37.1862C37.0354 37.2306 37.2529 37.3097 37.4656 37.4134L37.8413 37.6159L39.0676 38.2828L41.5151 39.6215L42.7413 40.2884C43.127 40.5058 43.6363 40.7379 44.1208 41.2319C44.6153 41.7555 44.813 42.3434 44.9762 42.7781L45.4459 44.0921C45.53 44.3342 48.3681 53.4779 47.8836 53.6508C47.4138 53.8187 43.7945 44.9516 43.7104 44.7145Z"
          fill="currentColor"/>
    <path d="M38.3962 21.2845C37.8473 21.4772 37.2738 21.6056 37.165 21.7093C37.1056 21.7587 37.1353 21.7241 37.1155 21.7735C37.1007 21.8279 37.1007 21.981 37.1403 22.1786L37.872 25.1574L39.3752 31.2087C39.5037 31.7225 39.6174 32.2412 39.7411 32.4091C39.8301 32.582 40.1762 32.8092 40.6459 33.0908L43.3011 34.7259L49.2394 38.3864C49.0812 38.7964 48.9427 39.1916 48.8241 39.5818C48.7895 39.7547 48.7746 39.893 48.7647 40.061C48.7548 40.387 48.7993 40.7328 48.8785 41.0934C48.8933 41.1576 48.9971 41.7801 49.3334 42.7631C49.6696 43.7363 50.1294 45.1392 50.3766 46.5223C50.9304 49.3134 50.6832 52.0896 50.4261 52.0748C50.1739 52.0748 49.9465 49.3825 49.1059 46.8385C48.7054 45.5492 48.1862 44.3636 47.7412 43.3707C47.3012 42.3827 47.0836 41.5676 47.0737 41.4886C46.9699 41.0243 46.9056 40.5253 46.9204 40.0066C46.9303 39.7498 46.9649 39.4731 47.0094 39.2261L47.0193 39.1916L42.3369 36.3067L39.6817 34.6716C39.2812 34.4048 38.6632 34.1232 38.1885 33.407C37.9709 33.0612 37.8622 32.7253 37.783 32.4387L37.5853 31.6582L36.0821 25.6069L35.3256 22.5293C35.2712 22.2181 35.2169 21.8427 35.3108 21.3833C35.3949 20.9239 35.741 20.4299 36.1168 20.1928C36.4876 19.9408 36.8238 19.8421 37.0958 19.7581C37.3776 19.684 37.5704 19.6099 37.7979 19.5407C37.8622 19.521 38.5247 19.3332 39.4147 18.8788C40.2998 18.4194 41.4073 17.6487 42.2924 16.6509C43.2071 15.6728 43.8796 14.4922 44.29 13.5585C44.7004 12.6249 44.8784 11.9432 45.0168 11.958C45.1305 11.9679 45.1998 12.694 44.9773 13.7759C44.7597 14.8478 44.2109 16.2557 43.3159 17.4709C42.4556 18.7108 41.2689 19.7284 40.2701 20.3607C39.2664 20.9782 38.4753 21.2647 38.3962 21.2845Z"
          fill="currentColor"/>
    <path d="M10.2961 21.9911C10.2961 21.9911 10.9092 21.3934 11.552 20.8303C12.1948 20.2622 12.8623 19.7237 12.8623 19.7237C12.887 19.6891 14.2072 19.1952 14.5138 19.615C14.8104 20.0251 14.044 21.1415 14.0292 21.1662C14.0292 21.1662 13.3914 21.675 12.7832 22.2184C12.1701 22.7568 11.5866 23.3249 11.5866 23.3249C11.5718 23.3348 11.2553 23.4978 10.8993 23.6213C10.5433 23.7448 10.1428 23.8238 9.95495 23.6509C9.57423 23.2953 10.2566 22.0158 10.2961 21.9911Z"
          fill="currentColor"/>
    <path d="M8.90701 30.0085C8.90701 30.0085 8.73395 30.1962 8.43234 30.5173C8.11589 30.8285 7.63627 31.2534 6.97866 31.6535C6.33093 32.0635 5.48048 32.4241 4.51136 32.597C4.03175 32.6958 3.50269 32.7304 2.93902 32.6662C2.38029 32.597 1.74245 32.4044 1.21834 31.9548C0.684333 31.5053 0.387665 30.873 0.264053 30.3148C0.130552 29.7467 0.130552 29.2132 0.175052 28.7241C0.264053 27.746 0.560722 26.8667 0.921669 26.1801C1.27767 25.4885 1.68806 24.9748 1.99462 24.6389C2.30118 24.3029 2.50885 24.135 2.50885 24.135C2.54346 24.1103 2.88957 23.8139 3.46313 23.5224C4.0268 23.2261 4.81792 22.9494 5.61398 22.8654C7.24072 22.6481 8.68945 23.3051 8.5955 23.5471C8.52628 23.7843 7.12699 23.6558 5.90076 24.1449C4.64486 24.5697 3.77463 25.4836 3.73508 25.528C3.73508 25.528 3.58674 25.6466 3.36424 25.8936C3.14174 26.1406 2.83518 26.516 2.57313 27.0298C2.30612 27.5386 2.09351 28.1857 2.02429 28.8921C1.94518 29.5985 2.09846 30.3049 2.42479 30.547C2.73629 30.8384 3.49774 30.9273 4.18503 30.7742C4.88714 30.6507 5.52004 30.3889 6.00954 30.0727C6.50893 29.7714 6.87977 29.4404 7.12699 29.2033C7.36433 28.9514 7.49783 28.8081 7.49783 28.8081C7.52255 28.7538 8.52134 27.8201 9.03062 26.5457C9.6289 25.3057 9.5844 23.8633 9.83657 23.809C9.95029 23.7843 10.158 24.1301 10.2865 24.713C10.4398 25.2959 10.4349 26.1109 10.2865 26.9161C10.0294 28.5611 8.94656 29.9492 8.90701 30.0085Z"
          fill="currentColor"/>
</svg>
