<svg width="53" height="52" viewBox="0 0 53 52" fill="none" xmlns="http://www.w3.org/2000/svg">
    <path d="M32.6485 6.84144C32.6386 6.84144 32.688 6.6636 32.6732 6.35733C32.6781 6.05105 32.6386 5.60647 32.4754 5.1273C32.3073 4.65307 32.0304 4.14426 31.5557 3.78859C31.0909 3.42304 30.4482 3.16616 29.7609 3.13158C28.3517 3.01303 27.0068 3.77871 26.4777 4.60367C26.1811 5.01862 26.0278 5.43357 25.9437 5.72008C25.8597 6.0066 25.8399 6.17949 25.8399 6.17949C25.835 6.22395 25.4888 7.3453 25.9685 8.3975C26.191 8.92607 26.5816 9.39535 26.9376 9.70163C27.2936 10.0178 27.61 10.1907 27.5853 10.3438C27.5705 10.4821 27.17 10.5957 26.5766 10.4574C25.9833 10.329 25.2367 9.89428 24.6977 9.23234C24.139 8.58028 23.8324 7.70097 23.7484 7.03903C23.6544 6.37215 23.7187 5.90286 23.7187 5.8584C23.7187 5.8584 23.7533 5.58671 23.8819 5.13224C24.0154 4.68271 24.2527 4.04546 24.7225 3.37858C25.6421 1.98059 27.7435 0.82466 29.9043 1.0025C30.9772 1.06177 32.0601 1.45697 32.8907 2.11891C33.7461 2.77097 34.2455 3.67991 34.5026 4.44559C34.7647 5.22115 34.8191 5.89298 34.8141 6.35733C34.8191 6.5895 34.8092 6.77228 34.7944 6.89083C34.7845 7.01433 34.7795 7.07855 34.7795 7.07855C34.7894 7.15265 34.468 8.98534 33.1973 10.1956C32.5842 10.7933 31.8524 11.2182 31.1799 11.312C30.4778 11.4207 30.0724 11.0453 30.1663 10.9267C30.2405 10.7933 30.5619 10.7933 30.9129 10.5216C31.2739 10.2697 31.7139 9.77079 32.0205 9.24222C32.332 8.70871 32.5051 8.11098 32.5792 7.65652C32.6534 7.18723 32.6435 6.87107 32.6485 6.84144Z"
          fill="currentColor"/>
    <path d="M16.0148 20.3766C16.0148 20.3766 15.2435 19.527 13.9481 18.3957C13.6267 18.1092 13.2707 17.8128 12.8899 17.5016C12.6971 17.3485 12.4993 17.1904 12.2966 17.0323L11.8813 16.7211C11.7725 16.6421 11.6637 16.5581 11.5599 16.4692C11.456 16.3803 11.3225 16.316 11.3374 16.158C11.3028 15.8813 11.2434 15.6195 11.2335 15.3281C11.2187 15.0416 11.2286 14.9131 11.2533 14.7007C11.2929 14.3104 11.4016 13.94 11.5351 13.5843C11.8269 12.8828 12.2719 12.2752 12.796 11.7713C13.8294 10.7636 15.3127 10.2252 16.5587 10.1362C17.8295 10.0127 18.9469 10.1659 19.8617 10.3141C20.7764 10.4722 21.4983 10.6302 22.0026 10.734C22.5119 10.8377 22.7987 10.897 22.7987 10.897C23.0014 10.9365 30.2154 12.9075 30.0918 13.4904C29.9731 14.0684 22.5663 13.0409 22.3636 13.0014C22.3636 13.0014 22.0718 12.9421 21.5675 12.8384C21.0582 12.7346 20.3363 12.5765 19.5007 12.4333C17.8591 12.1418 15.5946 11.9986 14.2694 13.3324C13.9382 13.6485 13.6761 14.019 13.5228 14.3944C13.4536 14.5821 13.3943 14.7699 13.3794 14.9477C13.3646 15.0169 13.3646 15.17 13.3646 15.17V15.165C13.6662 15.3972 13.953 15.6245 14.2299 15.8418C14.6353 16.1728 15.0161 16.4889 15.3572 16.7952C16.7318 18.0055 17.5575 18.9095 17.5575 18.9095C17.6317 18.9836 18.9618 20.5495 19.9902 22.2735C21.0483 23.9827 21.7851 25.8154 21.5279 25.9587C21.2659 26.1069 20.0842 24.5854 18.7739 23.1874C17.4982 21.745 16.0791 20.4507 16.0148 20.3766Z"
          fill="currentColor"/>
    <path d="M21.4831 17.6105L21.5227 17.7191C21.676 18.1094 21.8342 18.5046 22.0221 18.88C22.388 19.6407 22.828 20.3669 23.3225 21.0486C23.3423 21.0733 23.5796 21.6118 23.8169 22.1749C24.0444 22.743 24.2817 23.3457 24.074 23.5581C23.8713 23.7705 23.2384 23.5284 22.6698 23.1678C22.0963 22.8122 21.6117 22.3429 21.587 22.3132C21.0184 21.5228 20.5091 20.6929 20.0937 19.8136C19.8762 19.3789 19.6932 18.9294 19.5152 18.4749L19.3273 17.9464L19.1345 17.3091L18.7637 16.0248L19.896 15.6394C19.9256 15.6345 20.2322 15.5604 20.692 15.5555C21.1321 15.5406 21.8441 15.6888 22.116 15.8716C22.8577 16.2372 23.2631 16.9189 23.0654 17.1362C22.8775 17.3635 22.2693 17.2449 21.7551 17.3437C21.4139 17.3684 21.4732 17.4721 21.4584 17.5265C21.4535 17.5808 21.4831 17.6105 21.4831 17.6105Z"
          fill="currentColor"/>
    <path d="M32.8405 28.5522C32.8405 28.5522 32.6427 27.9149 32.4796 26.927C32.3115 25.9439 32.2422 24.5805 32.3955 23.2714C32.5488 21.9772 32.7169 20.8657 32.6576 20.0704C32.618 19.2553 32.4796 18.7267 32.4796 18.7267C32.4697 18.6823 32.4054 17.7931 32.1879 16.8941C31.995 15.995 31.6341 15.091 31.8665 14.9033C32.0939 14.7156 32.9394 15.3528 33.5624 16.2519C34.2003 17.1312 34.5662 18.2081 34.5711 18.2624C34.5711 18.2624 34.7442 18.9293 34.7985 19.9617C34.8727 21.0139 34.6601 22.3477 34.5266 23.4937C34.398 24.6299 34.4574 25.7463 34.5958 26.5812C34.7343 27.416 34.9024 27.9544 34.9024 27.9544C34.9172 27.9989 35.0557 28.9375 35.3029 29.881C35.5303 30.8245 35.8764 31.773 35.6342 31.9508C35.3968 32.1237 34.5711 31.4371 33.9333 30.538C33.2806 29.6538 32.8554 28.6065 32.8405 28.5522Z"
          fill="currentColor"/>
    <path d="M29.3486 28.7449L28.1965 24.0767C28.1817 24.0273 28.1965 22.0711 28.7701 21.9279C29.3436 21.7846 30.2682 23.5087 30.2781 23.563L31.4302 28.2312C31.445 28.2806 31.445 30.2961 30.8715 30.4393C30.293 30.5826 29.3585 28.7943 29.3486 28.7449Z"
          fill="currentColor"/>
    <path d="M44.8413 43.8413C44.6386 43.8413 40.6731 41.4455 36.7373 38.8125C32.8114 36.1993 29.0536 33.344 29.0536 33.344C28.9744 33.2798 27.5208 32.035 26.1709 30.7111C24.8161 29.3921 23.5652 27.9991 23.758 27.7719C23.9509 27.5446 25.538 28.5178 27.1153 29.5206C28.6926 30.5481 30.265 31.5756 30.349 31.6299C30.349 31.6299 34.0574 34.4506 37.9338 37.0292C41.7807 39.6078 45.8549 42.0531 45.7362 41.89C45.7758 41.8999 46.1516 42.142 46.6609 42.2605C47.1751 42.389 47.981 42.3297 48.8908 42.0728C49.7907 41.8357 50.7796 41.5393 51.5608 41.5047C52.352 41.4603 52.8513 41.6579 52.8415 41.7962C52.8316 41.9543 52.3668 42.0481 51.7438 42.3198C51.1158 42.5866 50.3297 43.046 49.4199 43.4955C48.5348 43.95 47.3926 44.3056 46.4136 44.2217C45.4445 44.1426 44.8957 43.8512 44.8413 43.8413Z"
          fill="currentColor"/>
    <path d="M3.87094 41.964C3.87094 41.964 4.4 41.0402 5.05761 39.583C5.72017 38.1306 6.46185 36.125 6.97607 34.0602C7.50019 31.9953 7.79191 29.881 7.88586 28.2904C7.94025 27.5 7.96002 26.7887 8.01441 26.27C8.06386 25.7562 8.11825 25.445 8.11825 25.445C8.13308 25.3956 8.22208 24.872 8.53853 24.131C8.85498 23.395 9.43348 22.5453 10.1208 21.8883C11.5003 20.5694 13.0578 19.7691 13.2308 19.9716C13.4435 20.2087 12.1876 21.4882 11.2877 22.8565C10.3284 24.2249 10.2444 25.6871 10.2345 25.7908C10.2345 25.7908 10.19 26.023 10.1504 26.4676C10.101 26.9072 10.0862 27.5692 10.0268 28.4238C9.92793 30.1231 9.61643 32.3806 9.0577 34.5789C8.51381 36.782 7.72269 38.9161 7.01563 40.4623C6.31351 42.0134 5.74984 42.9964 5.74984 42.9964C5.71523 43.0903 4.67689 44.6908 3.44571 46.0937C2.22443 47.5115 0.810304 48.6872 0.597691 48.4896C0.370245 48.287 1.3542 46.7853 2.20465 45.2194C3.06993 43.6633 3.83633 42.0529 3.87094 41.964Z"
          fill="currentColor"/>
    <path d="M15.649 41.7715C15.649 41.7715 15.7627 41.4801 15.9555 40.9713C16.1434 40.4674 16.4055 39.761 16.5835 38.941C16.7664 38.116 16.8208 37.1923 16.5686 36.229C16.534 36.1154 16.4994 35.9968 16.4648 35.8782L16.4154 35.9968C16.2868 36.313 16.1385 36.6143 15.9901 36.9107C15.6885 37.5035 15.3572 38.0617 15.021 38.5853C14.3486 39.6326 13.6514 40.5316 13.0531 41.2825C11.8516 42.7595 11.0506 43.7425 11.0506 43.7425C10.9814 43.8265 9.59198 45.3332 8.16303 46.7707C7.44113 47.4919 6.73902 48.1835 6.13579 48.6972C5.82429 48.959 5.48312 49.1468 5.22106 49.1863C4.959 49.2307 4.81067 49.1616 4.80078 49.0924C4.80573 48.9442 5.17656 48.7565 5.50784 48.144C5.86879 47.5117 6.42752 46.6422 6.98624 45.8074C8.11358 44.1229 9.32004 42.4631 9.38926 42.3791C9.38926 42.3791 10.1853 41.406 11.372 39.9438C11.9505 39.2127 12.6081 38.363 13.2163 37.4195C13.5179 36.9453 13.8146 36.4513 14.0766 35.9375C14.2052 35.6807 14.3288 35.4188 14.4425 35.1521L14.487 35.0533C14.5117 35.0039 14.5513 34.9002 14.5711 34.8359L14.7293 34.3815C14.8331 34.0702 14.937 33.7541 15.0853 33.5861L15.293 33.27C15.3622 33.1564 15.4314 33.0576 15.5006 33.023C15.644 32.9193 15.7924 32.8402 16.0198 32.7859C16.5093 32.6821 16.9296 32.8155 17.2559 33.0675C17.607 33.3095 17.9185 33.8233 18.1657 34.3568C18.2943 34.6235 18.403 34.91 18.5019 35.1867C18.5662 35.3744 18.6107 35.5226 18.6552 35.6955C19.0112 37.0292 18.9222 38.3778 18.6948 39.3905C18.4673 40.418 18.1707 41.1936 17.9778 41.7271C17.78 42.2507 17.6663 42.5471 17.6663 42.5471C17.6465 42.5965 17.424 43.0905 17.1076 43.8068C16.801 44.5082 16.4796 45.3925 16.3461 46.336C16.2028 47.2696 16.267 48.2032 16.4945 48.8701C16.7021 49.5469 17.0186 49.9569 16.9098 50.0804C16.8307 50.1841 16.2769 49.9717 15.7578 49.2604C15.2237 48.5688 14.8677 47.4129 14.8331 46.2668C14.7787 45.1208 15.0161 43.9648 15.2435 43.1547C15.4512 42.3495 15.6292 41.8259 15.649 41.7715Z"
          fill="currentColor"/>
    <path d="M19.9609 45.7135C19.9609 45.7135 19.9906 44.8243 20.2082 43.5153C20.401 42.2161 20.9696 40.4476 21.5333 38.936C22.097 37.4195 22.2799 35.9869 22.1909 34.8359C22.1266 33.7047 21.8992 32.9785 21.8992 32.9785C21.8942 32.9143 21.7014 31.6991 21.2613 30.5135C20.846 29.3279 20.1439 28.2263 20.3565 28.0139C20.5543 27.8015 21.7261 28.6018 22.5914 29.7824C23.4715 30.9383 23.9808 32.3709 23.9808 32.4499C23.9808 32.4499 24.2527 33.3342 24.3319 34.7173C24.3714 35.404 24.3615 36.2191 24.228 37.0737C24.0995 37.9381 23.8473 38.8273 23.5605 39.6375C22.9573 41.2627 22.5024 42.6903 22.3244 43.8808C22.1266 45.0466 22.1019 45.837 22.1019 45.837C22.1019 45.9062 21.8942 47.2152 21.8497 48.5539C21.7756 49.8877 21.8596 51.2511 21.5728 51.3302C21.291 51.4092 20.668 50.1298 20.3417 48.7071C19.9857 47.2893 19.9609 45.7926 19.9609 45.7135Z"
          fill="currentColor"/>
</svg>
