<svg width="60" height="30" viewBox="0 0 60 30" fill="none" xmlns="http://www.w3.org/2000/svg">
    <path d="M45.6785 16.3715C45.6785 16.3715 45.1841 16.3715 44.3138 16.3666C43.4486 16.3913 42.2124 16.4555 40.7637 16.7173C39.315 16.9692 37.6685 17.478 35.928 18.1993C34.1925 18.9205 32.368 19.8442 30.5088 20.768C28.6497 21.6918 26.7313 22.5908 24.8227 23.2478C22.9141 23.9048 21.0748 24.3 19.4975 24.5371C17.9152 24.7891 16.5901 24.8681 15.6655 24.9274C14.7409 24.962 14.2118 24.9768 14.2118 24.9768C14.0289 24.9817 10.5974 24.9027 7.30439 24.3791C4.00642 23.89 0.81723 23.1836 0.851842 22.902C0.886453 22.5958 4.15476 22.7736 7.43789 22.8724C10.726 23.0058 13.9992 22.8378 14.1723 22.8378C14.1723 22.8378 14.6766 22.8181 15.5567 22.7884C16.4368 22.7341 17.6927 22.66 19.1711 22.4229C20.6545 22.1956 22.3603 21.8301 24.1206 21.2225C25.8808 20.6149 27.7152 19.7603 29.5546 18.8464C31.3939 17.9325 33.2629 16.9841 35.1023 16.2184C36.9416 15.4527 38.7661 14.8895 40.3731 14.608C41.9751 14.3215 43.3249 14.2474 44.2693 14.2227C45.2088 14.2276 45.7477 14.2276 45.7477 14.2276C45.8367 14.2424 46.7861 14.2819 48.1211 14.4746C49.4561 14.6672 51.1817 15.013 52.848 15.4626C56.1855 16.3666 59.3401 17.562 59.2709 17.8337C59.1918 18.135 55.874 17.4533 52.5365 16.9445C50.8653 16.6926 49.194 16.5098 47.9184 16.4357C46.6377 16.3616 45.7626 16.3814 45.6785 16.3715Z"
          fill="currentColor"/>
    <path d="M45.3327 22.3341C45.3327 22.3341 44.1115 22.4527 42.3018 22.922C40.4872 23.3765 38.1089 24.2113 35.7602 25.2042C33.3918 26.207 30.9839 27.2148 29.105 27.852C27.231 28.4991 25.9207 28.7955 25.9207 28.7955C25.8169 28.8202 23.6611 29.2648 21.4905 29.1462C20.4126 29.1166 19.3544 28.9141 18.588 28.6967C17.8266 28.4497 17.3519 28.2077 17.3865 28.0694C17.4211 27.9212 17.9453 27.8816 18.6968 27.8668C19.4533 27.8224 20.4422 27.7878 21.4212 27.6248C23.3891 27.3629 25.3027 26.7356 25.4065 26.7109C25.4065 26.7109 26.6129 26.4392 28.4028 25.8217C30.1927 25.2141 32.5414 24.2311 34.9246 23.2233C37.3227 22.2057 39.8246 21.3215 41.7628 20.8374C43.7011 20.3335 45.0559 20.2001 45.0559 20.2001C45.1597 20.1853 47.4589 19.9679 49.6691 20.4669C50.7766 20.6743 51.815 21.1091 52.5467 21.4845C53.2686 21.8994 53.684 22.2502 53.6246 22.3786C53.5554 22.5169 53.0214 22.4231 52.2649 22.2699C51.4936 22.1514 50.4997 21.9735 49.4812 21.9686C47.4589 21.8945 45.4366 22.3193 45.3327 22.3341Z"
          fill="currentColor"/>
    <path d="M20.0974 6.94133C20.0974 6.94133 20.2012 6.84747 20.3891 6.67458C20.5869 6.51156 20.8935 6.28926 21.3483 6.23987C21.5758 6.21517 21.8329 6.23987 22.09 6.33866C22.3372 6.4177 22.6487 6.64 22.8515 6.78819C23.1234 6.98579 23.4349 7.20314 23.7711 7.4452C24.4436 7.92436 25.2347 8.48751 26.0753 9.09018C26.4906 9.38657 26.9109 9.6879 27.3361 9.99417L27.9789 10.4635C28.058 10.5425 28.2558 10.6166 28.2459 10.7006L27.9443 10.9723C27.5388 11.3329 27.1334 11.6984 26.7279 12.059C26.545 12.2319 26.278 12.4542 26.1593 12.5481L25.8231 12.8198C24.0233 14.2622 22.0801 15.428 20.6413 16.2777C19.2024 17.1076 18.2432 17.6658 18.2432 17.6658C18.1592 17.7053 16.5769 18.4809 14.9848 19.2565C13.4075 20.0073 11.9093 20.8767 11.7165 20.6446C11.5286 20.4223 12.7449 19.0934 14.169 17.977C15.5781 16.8458 17.0911 15.8529 17.1703 15.8035C17.1703 15.8035 18.1245 15.2502 19.5584 14.4252C20.9726 13.5953 22.8317 12.474 24.4831 11.1452L24.849 10.8488L24.8293 10.834C23.9887 10.2313 23.1976 9.66814 22.5251 9.18897C21.9516 8.77896 21.5708 8.50727 21.5708 8.50727C21.4324 8.64065 15.86 13.2249 15.4545 12.7951C15.0491 12.3604 19.9589 7.0747 20.0974 6.94133Z"
          fill="currentColor"/>
    <path d="M30.3766 6.3436C30.3766 6.3436 30.2183 6.20035 29.8129 5.92371C29.3976 5.64214 28.7894 5.23707 28.0428 4.7826C27.3011 4.32813 26.416 3.82426 25.4519 3.32039C24.4877 2.83629 23.3702 2.20892 22.7571 2.28796C22.1539 2.28302 21.2936 3.0487 20.453 3.78968C19.6322 4.51585 18.8856 5.21731 18.2576 5.82985C17.0017 7.05494 16.2156 7.91942 16.2156 7.91942C16.1463 7.99352 14.7668 9.29765 13.4318 10.6364C12.7643 11.3032 12.1018 11.9701 11.5776 12.4592C11.365 12.6271 11.2464 12.8099 11.2167 12.9828C11.192 13.1656 11.3008 13.1755 11.2315 13.1952C11.1673 13.215 10.92 13.2693 10.7865 13.0124C10.658 12.7852 10.6827 12.3406 10.9101 11.9553C11.2315 11.3082 11.726 10.4832 12.26 9.67308C13.323 8.0528 14.574 6.53132 14.6432 6.45722C14.6432 6.45722 15.4591 5.55816 16.7595 4.29355C17.4072 3.66124 18.1835 2.93508 19.0339 2.18422C19.469 1.81373 19.8745 1.42842 20.4382 1.01841C20.9821 0.623218 21.7188 0.208267 22.6137 0.148989C23.4988 0.09465 24.2405 0.371284 24.8338 0.628158C25.4271 0.894911 25.9216 1.15178 26.4408 1.41854C27.4544 1.94711 28.3839 2.47567 29.1602 2.95484C29.9415 3.43401 30.5743 3.84896 31.0193 4.15029C31.4742 4.45657 31.766 4.7085 31.766 4.7085C31.7907 4.72826 31.9242 4.84682 32.1269 5.07405C32.3247 5.29635 32.6065 5.69154 32.7796 6.15095C32.9576 6.60541 33.0565 7.09446 33.1405 7.53905C33.2246 7.97376 33.3235 8.42823 33.4471 8.8827C33.9119 10.7006 34.8315 12.3999 34.6041 12.5728C34.3717 12.7605 32.9477 11.3082 32.033 9.42609C31.5534 8.51221 31.2567 7.41062 30.9847 6.98085C30.7375 6.56096 30.4112 6.38806 30.3766 6.3436Z"
          fill="currentColor"/>
    <path d="M42.8264 8.52718C42.8264 8.52718 42.8659 8.40863 42.9154 8.21103C42.9599 8.02826 43.0044 7.74668 42.9895 7.41077C42.9797 6.73895 42.6434 5.84977 42.0303 5.56326C41.4419 5.22241 40.1465 5.30144 39.301 5.30638C38.4555 5.32614 38.0055 5.4447 38.0055 5.4447C37.9511 5.46446 37.1946 5.46446 36.537 5.83495C36.2008 6.01279 35.914 6.26472 35.7063 6.50183C35.4987 6.73895 35.3701 6.96124 35.2168 6.96618C35.0784 6.97112 34.9053 6.70931 34.9103 6.25978C34.9103 5.81519 35.1179 5.21746 35.4937 4.7383C35.8547 4.25419 36.3738 3.87382 36.7941 3.6614C37.2045 3.44899 37.5061 3.36501 37.5358 3.35513C37.5358 3.35513 38.2626 3.18223 39.2317 3.16741C39.7262 3.15753 40.2206 3.14765 40.8535 3.16741C41.4716 3.19211 42.2528 3.27115 43.0192 3.66634C43.7906 4.06647 44.374 4.75312 44.6806 5.42988C45.0069 6.10664 45.1107 6.77847 45.1354 7.34161C45.1552 7.9097 45.0811 8.37899 45.0019 8.70502C44.9278 9.02117 44.8684 9.18913 44.8684 9.18913C44.8684 9.25829 44.3295 10.3648 43.5483 11.1107C42.7868 11.8764 41.9314 12.4297 41.7089 12.2469C41.4765 12.0543 41.9265 11.1354 42.2924 10.2611C42.6731 9.37684 42.8214 8.5667 42.8264 8.52718Z"
          fill="currentColor"/>
</svg>
