<svg width="61" height="70" viewBox="0 0 61 70" fill="none" xmlns="http://www.w3.org/2000/svg">
<path d="M40.62 33.1503C40.62 33.1503 40.4766 33.1405 40.1997 33.0762C39.9229 33.012 39.5273 32.8786 39.0675 32.6069C38.6175 32.3254 38.1478 31.8808 37.7918 31.3127C37.4358 30.7446 37.1737 30.0728 37.0056 29.3516C36.8424 28.6353 36.7633 27.8251 36.7782 27.0397C36.7831 26.274 36.8128 25.5182 36.7683 24.7822C36.7287 24.056 36.6002 23.3644 36.3134 22.821C36.0414 22.2777 35.5618 21.8676 34.8894 21.4527C34.2318 21.0575 33.4011 20.608 32.6742 20.1436C31.9622 19.6842 31.2601 19.2298 30.5778 18.7901C29.2477 17.9256 28.0017 17.2489 26.909 16.8833C25.8162 16.5128 24.8966 16.4733 24.2637 16.5276C23.6258 16.5672 23.2748 16.7005 23.2698 16.6758C23.2105 16.7055 22.5875 16.7993 21.7272 17.1846C20.8668 17.565 19.779 18.2665 18.7951 19.1507C16.8123 20.9044 15.1312 23.0878 14.8741 22.9001C14.6516 22.7519 15.8531 20.2869 17.7122 18.0886C18.6319 16.987 19.7889 16.0139 20.8174 15.431C21.8409 14.8382 22.6765 14.6258 22.7556 14.5961C22.7556 14.5961 22.8792 14.5714 23.1067 14.527C23.3341 14.4776 23.6654 14.4134 24.1005 14.3887C24.9559 14.3096 26.2316 14.3887 27.5913 14.8481C28.951 15.3025 30.3652 16.0929 31.7348 16.9821C32.4122 17.4168 33.1094 17.8663 33.8164 18.3258C34.5136 18.7802 35.2058 19.1359 36.0217 19.6299C36.8078 20.1041 37.7127 20.8303 38.2071 21.8182C38.7115 22.7815 38.8548 23.7794 38.9092 24.6537C38.9587 25.533 38.9241 26.3333 38.9191 27.0446C38.9092 27.7362 38.9735 28.3241 39.0922 28.8675C39.3394 29.9542 39.8338 30.5767 40.2047 30.7891C40.5904 31.0064 40.8722 31.0163 40.8722 31.0163C40.9167 31.0212 41.3963 31.1299 42.4297 30.9323C43.4433 30.7594 44.7635 30.4087 46.0639 29.9246C48.6647 28.9613 51.2012 27.6918 51.3594 27.9733C51.4929 28.2105 49.2679 29.9246 46.6869 31.3078C45.3964 31.9993 43.9971 32.5526 42.8747 32.8589C41.782 33.2195 40.7189 33.1849 40.62 33.1503Z" fill="#2C4CA3"/>
<path d="M19.5768 47.1697C19.5768 47.1697 19.8438 46.8189 20.1948 46.1669C20.5459 45.5148 20.9415 44.5416 20.9958 43.3067C21.0601 42.0569 20.719 40.5107 20.3728 38.6928C20.2097 37.7839 20.0613 36.791 20.1009 35.7141C20.1306 34.652 20.4075 33.4911 20.9118 32.5229C21.4062 31.5547 22.0342 30.7347 22.6226 29.9838C23.2159 29.2379 23.7549 28.5364 24.2691 27.8201C25.2877 26.3975 26.1431 25.0044 26.8254 23.7793C27.1666 23.1668 27.4632 22.5987 27.7154 22.0899C27.7203 22.0849 27.7253 22.0751 27.7253 22.0751C27.7006 22.0602 27.6758 22.0504 27.6561 22.0405C27.5473 21.9763 27.4484 21.9417 27.3693 21.9071C27.2111 21.8379 27.1171 21.8132 27.1171 21.8132C27.0578 21.7984 26.4595 21.5317 25.4459 21.5119C24.4323 21.4971 23.0973 21.7935 21.8809 22.5493C20.6547 23.2705 19.5669 24.298 18.7461 25.0686C17.9253 25.8491 17.3518 26.3629 17.2331 26.2641C17.1194 26.1752 17.4655 25.4935 18.1083 24.5302C18.756 23.5768 19.7152 22.3171 21.0206 21.2995C22.2962 20.2522 24.0169 19.6249 25.3569 19.536C26.7166 19.4223 27.7006 19.7434 27.7896 19.7731C27.7896 19.7731 27.928 19.8076 28.1851 19.9213C28.3137 19.9756 28.4719 20.0349 28.645 20.1337C28.7142 20.1732 28.8823 20.2473 29.0306 20.356C29.174 20.4647 29.3322 20.5783 29.4954 20.7018C29.6635 20.8203 29.8267 20.9537 29.9997 21.1019C30.0887 21.1711 30.1777 21.2452 30.2668 21.3193C30.2915 21.3637 30.4052 21.3835 30.3558 21.4427L30.2865 21.6107C30.0986 22.0504 29.891 22.5542 29.6339 23.0482C29.3669 23.5817 29.0554 24.1794 28.6994 24.8216C27.9824 26.106 27.0825 27.5682 26.0145 29.065C24.9712 30.5865 23.5769 32.0289 22.8303 33.4911C22.0639 34.9237 22.1578 36.5884 22.4891 38.3075C22.8055 40.0118 23.2209 41.7555 23.1467 43.3906C23.0725 45.0406 22.5336 46.3447 22.0985 47.1548C21.6584 47.9798 21.342 48.3898 21.342 48.3898C21.2876 48.459 20.7437 49.2148 19.8141 50.1039C18.8944 51.003 17.599 52.0157 16.2838 52.9197C13.678 54.7277 11.0624 56.4418 10.8794 56.2096C10.6965 55.9775 12.9808 53.8385 15.3394 51.7292C16.5112 50.6868 17.6287 49.6149 18.3802 48.7405C19.1318 47.8859 19.5273 47.2289 19.5768 47.1697Z" fill="#2C4CA3"/>
<path d="M29.1298 49.3582C29.3572 48.8247 29.5797 48.2912 29.7775 47.7577L30.0692 46.9525C30.1187 46.8141 30.1582 46.6907 30.1731 46.6314C30.178 46.6116 30.1731 46.6215 30.1731 46.6215C30.1582 46.6067 30.2225 46.6709 30.0692 46.5079C29.9357 46.3794 29.6984 46.172 29.5105 46.0089C29.11 45.6632 28.7045 45.3322 28.2843 45.016C27.864 44.6999 27.4388 44.3887 26.9987 44.0972L26.8306 43.9836L26.7564 44.3245L26.6526 44.8925C26.5339 45.6533 26.4795 46.419 26.4944 47.1896C26.5043 47.98 26.5735 48.8543 26.4449 49.8374C26.3757 50.3264 26.257 50.8451 26.0148 51.349C25.7774 51.8479 25.4115 52.3271 25.0209 52.6679C24.9764 52.7173 24.4276 53.1471 23.7156 53.5077C23.0233 53.8732 22.1284 54.3326 21.2235 54.7822C19.4139 55.6714 17.5894 56.4864 17.4311 56.2345C17.2729 55.9826 18.8156 54.713 20.4225 53.4929C21.2235 52.8803 22.0443 52.2826 22.6673 51.8331C23.2854 51.3934 23.5475 51.1118 23.5771 51.0822C24.4622 50.3906 24.4029 48.9679 24.3435 47.2242C24.3287 46.3399 24.393 45.4409 24.5314 44.5616L24.6501 43.9046L24.7193 43.5785L24.8528 43.0351C25.0654 42.2349 25.3324 41.5087 25.5846 40.7332L26.974 41.5581C27.2064 41.6964 27.4388 41.8348 27.6662 41.9829L28.1854 42.3189C28.66 42.635 29.1248 42.966 29.5748 43.3118C30.0297 43.6576 30.4697 44.0132 30.9048 44.3887C31.1323 44.5863 31.3103 44.7394 31.5723 44.9864C31.8097 45.1988 32.225 45.7274 32.2942 46.2609C32.3437 46.5474 32.319 46.8635 32.2547 47.1303C32.2003 47.3575 32.141 47.5156 32.0915 47.6539L31.7751 48.5184C31.5625 49.0914 31.3251 49.6496 31.0927 50.2078C31.0581 50.3165 30.0643 52.2085 29.0803 53.9967C28.0766 55.785 27.2954 57.6424 27.0135 57.5831C26.7119 57.5189 27.0086 55.4194 27.681 53.4089C28.3535 51.3885 29.1051 49.457 29.1298 49.3582Z" fill="#2C4CA3"/>
<path d="M31.2502 35.4623C31.2502 35.4623 31.1562 35.7241 31.0722 36.1144C30.9931 36.5293 30.9436 36.9245 31.2007 37.4629C31.443 38.0212 32.0759 38.6683 32.8176 39.4834C33.5345 40.2935 34.3059 41.158 35.0723 42.0225C35.8387 42.9018 36.605 43.7267 37.3269 44.5912C37.6928 45.0555 38.1082 45.6434 38.2516 46.4338C38.3949 47.2587 38.1181 47.9701 37.9005 48.4196C37.6632 48.8938 37.4654 49.2001 37.2923 49.5113C37.1193 49.8126 36.966 50.0745 36.8424 50.2918C36.5902 50.7265 36.4468 50.9735 36.4468 50.9735C36.3479 51.1464 32.3231 57.1583 31.8089 56.8619C31.2947 56.5655 34.4888 50.0745 34.5877 49.9016C34.5877 49.9016 35.1415 48.9333 35.9672 47.481C36.1205 47.1698 36.1699 46.9525 36.1353 46.7944C36.1106 46.6067 35.9425 46.2905 35.6458 45.92C34.9882 45.1445 34.202 44.28 33.4604 43.4402C32.7088 42.5905 31.9572 41.7458 31.2502 40.9505C30.5678 40.1749 29.7322 39.3994 29.2575 38.3768C29.0153 37.8779 28.8867 37.3246 28.8669 36.8405C28.8472 36.3614 28.9114 35.976 28.9708 35.6796C29.0993 35.0918 29.2032 34.8152 29.2032 34.8152C29.2328 34.7114 29.9646 32.8293 31.0623 31.1942C32.1303 29.5394 33.5147 28.1957 33.7422 28.3785C33.9746 28.5613 33.0648 30.1816 32.4072 31.8957C31.715 33.595 31.2749 35.3734 31.2502 35.4623Z" fill="#2C4CA3"/>
<path d="M44.3005 11.1185C44.3005 11.1185 44.3994 11.3606 44.523 11.7904C44.6318 12.2251 44.7504 12.8673 44.6911 13.6626C44.6268 14.4579 44.3202 15.3767 43.7566 16.172C43.1929 16.9674 42.3919 17.6441 41.4524 18.0788C40.5179 18.5086 39.44 18.6914 38.4462 18.5234C37.4474 18.3851 36.6069 17.9306 36.0036 17.4465C35.3806 16.9723 34.995 16.4437 34.7428 16.0683C34.5203 15.6731 34.3967 15.4459 34.3967 15.4459C34.4016 15.3965 34.189 14.9914 34.1148 14.3393C34.0209 13.707 34.0506 12.803 34.4511 12.0423C34.8367 11.2717 35.4943 10.753 36.0135 10.5307C36.5475 10.3232 36.9134 10.3133 36.9727 10.4418C37.037 10.5801 36.7997 10.8518 36.5129 11.2025C36.2311 11.5681 35.9641 12.0621 35.885 12.556C35.791 13.05 35.9146 13.5588 36.0481 13.9145C36.1668 14.2801 36.3497 14.5024 36.3399 14.532C36.3596 14.5024 36.5574 15.1742 37.3337 15.762C38.0605 16.3993 39.3659 16.7006 40.5575 16.1276C41.1459 15.8559 41.6601 15.4162 42.0062 14.9321C42.3474 14.4381 42.5205 13.9293 42.5551 13.4699C42.5897 13.0056 42.5155 12.6054 42.4512 12.3338C42.3721 12.0621 42.3128 11.9139 42.3128 11.9139C42.293 11.8941 42.2386 11.6076 42.0507 11.242C41.8678 10.8765 41.5563 10.4319 41.136 10.1454C40.7207 9.84406 40.1817 9.73538 39.7169 9.76502C39.2571 9.76996 38.9011 9.85887 38.8121 9.71562C38.7429 9.61188 38.9456 9.26609 39.4648 8.9697C39.9642 8.65354 40.8789 8.47077 41.7343 8.75728C42.5946 9.01909 43.272 9.6267 43.6824 10.1355C44.1027 10.6542 44.2708 11.079 44.3005 11.1185Z" fill="#2C4CA3"/>
<path d="M45.7384 36.218C45.7384 36.218 45.1945 36.6082 44.2748 37.0578C43.365 37.4925 41.9904 37.9469 40.5466 37.8975C39.1226 37.8728 37.7283 37.4036 36.8086 36.7811C36.3389 36.4847 35.9977 36.1587 35.7653 35.9265C35.5478 35.6746 35.4242 35.5313 35.4242 35.5313C35.4044 35.5066 35.2165 35.23 35.0385 34.8002C34.8358 34.3655 34.727 33.7974 34.6627 33.3133C34.5984 32.8243 34.5539 32.3945 34.4946 32.0635C34.4452 31.7326 34.3759 31.4806 34.4798 31.372C34.5737 31.2682 34.8803 31.3374 35.2066 31.6239C35.5379 31.9055 35.8494 32.3846 36.0966 32.8193C36.5713 33.7332 37.0707 34.1482 37.1102 34.2025C37.1102 34.2025 37.1844 34.2914 37.3179 34.4446C37.4662 34.5829 37.6739 34.7904 37.9854 34.988C38.5787 35.398 39.5775 35.7388 40.606 35.7586C41.6245 35.7981 42.6332 35.4671 43.3699 35.1213C44.0968 34.7657 44.5517 34.4446 44.5517 34.4446C44.5912 34.4199 45.4268 34 46.2625 33.4813C47.103 32.9774 47.9535 32.4093 48.176 32.6069C48.3985 32.7996 47.9386 33.7382 47.2909 34.5977C46.6481 35.4572 45.7878 36.1883 45.7384 36.218Z" fill="#2C4CA3"/>
</svg>
