<svg width="47" height="60" viewBox="0 0 47 60" fill="none" xmlns="http://www.w3.org/2000/svg">
    <path d="M34.3921 12.2866C34.3822 12.2866 34.4316 12.1137 34.4267 11.8124C34.4366 11.5111 34.4069 11.0764 34.2586 10.6071C34.1053 10.1427 33.8432 9.63885 33.3883 9.28318C32.9433 8.91763 32.3203 8.65582 31.6479 8.61136C30.2783 8.4681 28.9482 9.19426 28.4191 9.98464C28.1225 10.3848 27.9642 10.7849 27.8752 11.0615C27.7912 11.3431 27.7665 11.5061 27.7665 11.5061C27.7615 11.5506 27.4006 12.6374 27.8505 13.6698C28.0582 14.1885 28.429 14.6528 28.7702 14.9591C29.1114 15.2753 29.4179 15.4482 29.3883 15.5963C29.3685 15.7297 28.9779 15.8384 28.4043 15.6853C27.8307 15.547 27.1089 15.1122 26.5946 14.4552C26.0606 13.8081 25.7788 12.9436 25.7096 12.2965C25.6305 11.6444 25.6997 11.19 25.7046 11.1455C25.7046 11.1455 25.7392 10.8837 25.8777 10.4391C26.0161 9.99946 26.2584 9.38198 26.7331 8.74473C27.6577 7.40109 29.7245 6.30937 31.8308 6.52673C32.8791 6.60577 33.9223 7.01084 34.7234 7.67278C35.5441 8.32484 36.0139 9.2239 36.2561 9.97476C36.4984 10.7355 36.538 11.3925 36.5231 11.842C36.5231 12.0693 36.5133 12.2422 36.4935 12.3657C36.4786 12.4842 36.4737 12.5484 36.4737 12.5484C36.4836 12.6176 36.1325 14.4009 34.8717 15.5568C34.2635 16.1249 33.5367 16.53 32.8791 16.609C32.1918 16.7029 31.8012 16.3275 31.8951 16.2138C31.9693 16.0854 32.2808 16.0903 32.6318 15.8335C32.9878 15.5914 33.4279 15.1172 33.7345 14.6084C34.046 14.0946 34.2289 13.5167 34.308 13.0721C34.3921 12.6275 34.3871 12.3163 34.3921 12.2866Z"
          fill="currentColor"/>
    <path d="M40.8007 25.3625C40.8007 25.3625 39.8414 24.4289 38.1356 23.4162C36.4248 22.4035 33.8735 21.4748 31.1738 20.9364C28.479 20.3782 25.7002 20.0472 23.6285 19.8842C22.5951 19.7854 21.7545 19.8002 20.9634 19.6471C20.5876 19.573 20.2613 19.4594 20.0437 19.3556C19.8262 19.2568 19.7125 19.1778 19.7125 19.1778C19.6779 19.1531 19.4504 19.0197 19.1686 18.7233C18.8917 18.4319 18.6395 17.9972 18.4516 17.5921C18.0857 16.8067 17.6111 15.7742 17.1314 14.7467C16.2068 12.6868 15.3613 10.617 15.6135 10.4737C15.8657 10.3354 17.171 12.1533 18.4269 14.0304C19.045 14.9789 19.663 15.9323 20.1377 16.6585C20.5876 17.3846 20.7656 17.35 20.8052 17.3994C20.8151 17.3945 20.914 17.5032 21.3689 17.597C21.7891 17.6909 22.7237 17.7057 23.7917 17.7996C25.9376 17.9725 28.7708 18.3084 31.599 18.8913C34.4322 19.4544 37.2456 20.4572 39.1789 21.6082C41.1171 22.7543 42.195 23.8065 42.195 23.8065C42.2989 23.8756 44.0986 25.6688 45.2161 27.8473C46.3978 29.9961 46.7983 32.3623 46.5214 32.4266C46.2446 32.5056 45.3545 30.4012 43.9651 28.6377C42.6351 26.8297 40.8897 25.4268 40.8007 25.3625Z"
          fill="currentColor"/>
    <path d="M10.792 42.331C10.792 42.331 11.2024 42.1927 11.9243 41.9507C12.2853 41.8321 12.7204 41.6839 13.2247 41.5159C13.734 41.348 14.2532 41.18 14.6191 40.9429C14.9602 40.7354 15.2421 40.3551 15.5585 39.7228C15.8799 39.0608 16.2161 38.3643 16.5672 37.6381C17.2545 36.1759 17.9615 34.6051 18.634 33.0194C19.3064 31.4337 19.9393 29.8331 20.5129 28.3215C20.7898 27.5608 21.0568 26.8297 21.309 26.1332C21.5908 25.3872 21.7095 24.9081 21.6205 24.7451C21.5809 24.5524 21.3287 24.3202 20.948 24.1325C20.5821 23.9448 20.1668 23.8114 19.8256 23.6978C19.1235 23.4854 18.6043 23.2581 18.6241 23.273C18.5499 23.2384 17.7786 22.9074 16.8293 22.206C15.8799 21.5094 14.7971 20.4029 14.0554 19.1086C13.2791 17.8342 12.8836 16.3868 12.7797 15.3148C12.6808 14.233 12.844 13.5266 12.9726 13.5315C13.1308 13.5266 13.2495 14.2083 13.5758 15.1469C13.9021 16.0805 14.4609 17.2809 15.2816 18.2837C16.0728 19.3112 17.0814 20.1263 17.9121 20.6153C18.7428 21.1093 19.3658 21.3168 19.4251 21.3464C19.4498 21.3464 19.7218 21.4847 20.4783 21.7169C20.8541 21.8453 21.3238 21.9837 21.9072 22.2801C22.194 22.4282 22.5154 22.616 22.8368 22.9074C23.1582 23.1939 23.4796 23.6336 23.6329 24.1523C23.801 24.671 23.7614 25.2539 23.6576 25.6886C23.5488 26.143 23.4104 26.4938 23.2917 26.8396C23.0346 27.546 22.7626 28.2919 22.4808 29.0625C21.9023 30.5988 21.2546 32.229 20.5722 33.8394C19.8899 35.4547 19.1729 37.0503 18.4708 38.5323C18.1099 39.2732 17.7638 39.9945 17.4325 40.6712C17.0864 41.3678 16.5524 42.2075 15.7711 42.6916C15.0344 43.156 14.3867 43.3239 13.8972 43.4968C13.3928 43.6648 12.9577 43.8081 12.5968 43.9315C11.8749 44.1736 11.4645 44.3119 11.4645 44.3119C11.1777 44.4058 0.285026 47.5475 0.10208 46.9992C-0.0858104 46.4558 10.5053 42.4298 10.792 42.331Z"
          fill="currentColor"/>
    <path d="M29.6464 48.9307C29.6464 48.9307 29.7403 48.5306 29.9084 47.834C29.9777 47.5129 30.1211 46.9449 30.1013 46.8461C30.0815 46.8115 30.1458 46.8905 30.0518 46.7769C29.9678 46.683 29.6909 46.4558 29.4684 46.2533C28.524 45.4333 27.4263 44.4799 26.2495 43.4622C25.6661 42.9584 25.0678 42.4347 24.4547 41.9062C24.3311 41.8024 24.2371 41.7481 24.2075 41.7382C24.1827 41.7333 24.2272 41.7333 24.1778 41.7382C24.0888 41.7382 23.7328 41.9259 23.3867 42.1285C22.022 42.909 20.8007 43.8772 19.7475 44.9442C19.2036 45.4827 18.64 46.0507 18.012 46.5497C17.3841 47.0535 16.6671 47.4487 16.0293 47.7056C14.7289 48.2243 13.6658 48.412 12.9588 48.58C12.2468 48.738 11.8413 48.827 11.8413 48.827C11.5595 48.8912 1.21067 50.6893 1.08706 50.1261C0.963446 49.563 11.1046 46.8461 11.3914 46.7868C11.3914 46.7868 11.7968 46.6979 12.5088 46.5398C13.2109 46.3768 14.2147 46.1891 15.2332 45.7741C16.2617 45.3937 17.1566 44.6083 18.279 43.4622C19.4163 42.3112 20.8205 41.1899 22.3483 40.3205C22.7291 40.1229 23.0801 39.8462 23.8168 39.6882C24.1778 39.6141 24.6475 39.6536 25.0035 39.8117C25.3595 39.9599 25.5969 40.1476 25.7897 40.3007C26.4176 40.8441 27.0308 41.3776 27.629 41.8914C28.8058 42.9139 29.9035 43.8673 30.8479 44.6824C31.0852 44.8997 31.283 45.043 31.5945 45.3592C31.8961 45.6506 32.2027 46.2483 32.2027 46.7226C32.1977 47.6414 32.0197 47.923 31.9604 48.3132C31.7923 49.0295 31.6934 49.4395 31.6934 49.4395C31.6637 49.5828 30.8776 52.2947 29.8491 54.8734C28.8404 57.4619 27.5944 59.8972 27.3274 59.7885C27.0604 59.6799 27.807 57.0765 28.4399 54.4238C29.0778 51.7612 29.6118 49.069 29.6464 48.9307Z"
          fill="currentColor"/>
    <path d="M34.6294 28.0747C34.6294 28.0747 34.2388 27.9907 33.5465 27.8919C33.2301 27.8524 32.6615 27.7783 32.5527 27.8227C32.523 27.8326 32.5576 27.8129 32.5329 27.8376C32.4983 27.882 32.4291 28.05 32.3895 28.292C32.1275 30.6829 31.7121 34.294 31.4204 37.5247C31.4006 38.3002 31.4896 38.8584 31.8308 39.3771C32.172 39.9106 32.79 40.5331 33.3191 41.1357C34.397 42.3312 35.4007 43.4476 36.261 44.401C36.4786 44.643 36.7357 44.9246 36.9582 45.3C37.1857 45.6656 37.3291 46.1793 37.3291 46.5992C37.3192 47.4489 37.0522 47.9528 36.9088 48.3282C36.6022 49.0247 36.4242 49.4199 36.4242 49.4199C36.3649 49.5582 35.1139 52.0726 33.6899 54.4438C32.2758 56.8248 30.7034 59.0477 30.4562 58.9045C30.2041 58.7612 31.3166 56.2913 32.3697 53.7719C33.4377 51.2625 34.4563 48.6987 34.5156 48.5653C34.5156 48.5653 34.6887 48.18 34.9854 47.5032C35.1238 47.192 35.2474 46.8363 35.2375 46.6289C35.2326 46.5251 35.2276 46.4856 35.1535 46.3473C35.0793 46.2139 34.926 46.0311 34.7134 45.799C33.8531 44.8406 32.8494 43.7292 31.7715 42.5337C31.2473 41.9261 30.659 41.3827 30.0755 40.4985C29.7937 40.0638 29.5613 39.5105 29.4525 38.9819C29.3388 38.4484 29.3239 37.9347 29.3388 37.4555C29.6651 33.8593 30.0359 30.6582 30.3376 27.9364C30.4068 27.5461 30.5106 27.1114 30.8073 26.6668C31.104 26.2025 31.6429 25.8616 32.1275 25.7727C33.062 25.6344 33.4031 25.7974 33.8284 25.8171C34.6195 25.9258 35.0694 26.0246 35.0694 26.0246C35.2178 26.0296 38.2537 26.8101 40.6419 28.6131C41.8434 29.4825 42.8867 30.5249 43.5393 31.3943C44.1969 32.2637 44.4986 32.9207 44.3898 32.9997C44.2662 33.0936 43.7519 32.6144 42.9509 31.9574C42.1549 31.3004 41.0424 30.5051 39.8458 29.8629C37.4527 28.5291 34.7579 28.0846 34.6294 28.0747Z"
          fill="currentColor"/>
    <path d="M18.698 1.54239C18.698 1.54239 18.9106 1.79432 19.0737 2.25373C19.2418 2.71314 19.316 3.34051 19.2369 4.00739C19.1528 4.69403 18.96 5.36586 18.6188 6.1019C18.2777 6.81818 17.7091 7.63326 16.8042 8.12725C15.8944 8.62618 14.9006 8.65088 14.1194 8.54714C13.3233 8.4434 12.636 8.22111 12.0427 7.94448C11.4543 7.67278 10.9945 7.33193 10.6978 7.0553C10.4011 6.77866 10.2528 6.58601 10.2528 6.58601C10.2281 6.54649 9.97589 6.23528 9.77317 5.64743C9.5655 5.04971 9.53583 4.24944 9.79789 3.54798C10.0451 2.83664 10.5791 2.26361 11.1329 2.07096C11.2812 2.00674 11.3554 2.02156 11.4543 2.0018C11.6768 1.93758 11.7905 2.01168 11.8845 2.06602C11.9685 2.12036 12.0674 2.25373 12.0229 2.36241C11.9636 2.46615 11.929 2.40687 11.8993 2.40193C11.8845 2.39699 11.8202 2.31301 11.8597 2.35253C11.8746 2.35253 11.8449 2.35253 11.8152 2.38217C11.7757 2.43157 11.7707 2.45133 11.7559 2.46121C11.7411 2.47603 11.7262 2.49085 11.7213 2.50567C11.7163 2.50567 11.7213 2.54519 11.7163 2.50073L11.7065 2.45627L11.6867 2.43157C11.6273 2.33771 11.7658 2.55507 11.751 2.53531L11.746 2.54025L11.7411 2.54519C11.6916 2.61434 11.5779 2.69338 11.5581 2.7576C11.3801 3.01447 11.2268 3.44424 11.2417 3.85919C11.2318 4.75825 11.8498 5.2226 11.8795 5.26706C11.8795 5.26706 12.1465 5.67707 12.9327 6.0525C13.6793 6.41805 15.0934 6.71939 15.8005 6.28468C16.5521 5.929 17.0712 4.55572 17.1553 3.77522C17.1998 3.37015 17.1503 3.08363 17.1009 2.9552C17.0514 2.82182 17.0168 2.80206 17.0218 2.79712C16.9971 2.78724 17.0267 2.71808 16.8734 2.59458C16.7844 2.53037 16.5372 2.43651 16.2752 2.33277C16.0279 2.23891 15.7609 2.13518 15.4939 2.03144C14.9698 1.83878 14.4605 1.69059 14.0551 1.61649C13.6496 1.52757 13.3431 1.50781 13.2936 1.36455C13.2442 1.23612 13.4914 0.984184 13.9661 0.806348C14.4408 0.618632 15.1182 0.549474 15.7609 0.579113C16.0823 0.588993 16.3988 0.618632 16.6856 0.648271C16.9674 0.682851 17.2344 0.69767 17.5756 0.796468C18.2826 1.00888 18.6782 1.51769 18.698 1.54239Z"
          fill="currentColor"/>
</svg>
