<svg width="66" height="71" viewBox="0 0 66 71" fill="none" xmlns="http://www.w3.org/2000/svg">
    <g clip-path="url(#clip0_3_2953)">
        <path d="M36.3994 26.4989C36.3895 26.4989 36.4241 26.3358 36.3895 26.0589C36.3747 25.782 36.3104 25.3815 36.1324 24.9612C35.9544 24.5459 35.6725 24.1058 35.2226 23.8141C34.7825 23.5125 34.1892 23.3246 33.5662 23.3345C32.2905 23.3147 31.1286 24.091 30.7033 24.8623C30.4611 25.2579 30.3473 25.6386 30.2929 25.9007C30.2386 26.1677 30.2287 26.3209 30.2287 26.3209C30.2237 26.3605 29.9864 27.3939 30.4858 28.3086C30.7182 28.7685 31.0989 29.169 31.4401 29.4211C31.7763 29.6832 32.073 29.8216 32.0631 29.9601C32.0581 30.0837 31.7071 30.2122 31.1632 30.1232C30.6242 30.0441 29.9221 29.703 29.3931 29.1344C28.8492 28.5806 28.5179 27.8092 28.3992 27.2208C28.2707 26.6226 28.3003 26.2023 28.3003 26.1578C28.3003 26.1578 28.3102 25.9106 28.3992 25.4952C28.4882 25.0799 28.6662 24.4915 29.0469 23.8635C29.7886 22.5483 31.6032 21.3715 33.5613 21.4012C34.5304 21.3864 35.5292 21.6781 36.3203 22.222C37.1312 22.756 37.6355 23.5471 37.9173 24.2195C38.2041 24.9019 38.2931 25.5051 38.3178 25.9204C38.3376 26.1281 38.3426 26.2913 38.3327 26.405C38.3327 26.5187 38.3277 26.5781 38.3277 26.5781C38.3426 26.6423 38.1646 28.3136 37.0966 29.4854C36.5823 30.059 35.9494 30.4891 35.3512 30.6177C34.7281 30.7611 34.3375 30.4446 34.4117 30.3309C34.471 30.2073 34.7578 30.1875 35.0594 29.9205C35.366 29.6684 35.7319 29.1937 35.9742 28.6992C36.2214 28.1998 36.3401 27.651 36.3796 27.2357C36.4291 26.8104 36.3994 26.5237 36.3994 26.4989Z"
              fill="currentColor"/>
        <path d="M42.9505 28.1405C42.9505 28.1405 42.0654 29.0898 40.7354 30.5138C40.3991 30.8698 40.0382 31.2605 39.6525 31.6709C39.2471 32.0911 38.7329 32.6054 37.9912 32.9564C37.2643 33.2926 36.5177 33.3965 35.8552 33.4608C35.1976 33.5201 34.5548 33.5794 33.8823 33.619C32.5473 33.6981 31.153 33.6931 29.8278 33.4163C28.5077 33.1591 27.2765 32.5559 26.431 31.8785C25.5756 31.211 25.002 30.588 24.6015 30.1727C24.2109 29.7573 23.9884 29.52 23.9884 29.52C23.8351 29.3469 18.5445 23.0773 18.9352 22.7115C19.3258 22.3456 25.2443 28.0218 25.3976 28.185C25.3976 28.185 25.6201 28.4223 26.0058 28.8327C26.3914 29.2332 26.9254 29.8068 27.6127 30.3358C28.2901 30.8698 29.1505 31.2951 30.2234 31.5126C31.2865 31.7351 32.5127 31.75 33.7686 31.6758C34.3916 31.6412 35.0443 31.5819 35.6623 31.5275C36.2656 31.4681 36.7847 31.3791 37.1655 31.1962C37.8725 30.8748 38.6389 29.8661 39.3163 29.1838C40.6464 27.7598 41.5314 26.8104 41.5314 26.8104C41.6847 26.6473 47.7813 20.7584 48.1719 21.1243C48.5674 21.4951 43.1038 27.9724 42.9505 28.1405Z"
              fill="currentColor"/>
        <path d="M18.7778 52.2842C18.6839 51.8244 18.5949 51.3596 18.5257 50.8948C18.4911 50.6525 18.4515 50.4547 18.4218 50.1531C18.407 50.0048 18.4021 49.8466 18.4119 49.6636C18.4268 49.4263 18.4713 49.2087 18.5553 48.9961C18.7185 48.5758 19.0547 48.2297 19.4651 48.0468C19.6629 47.9528 19.9052 47.8935 20.1079 47.8688C20.281 47.844 20.4441 47.844 20.5875 47.844C21.1462 47.8688 21.5665 47.9133 22.056 47.9726C23.0054 48.0962 23.9448 48.2841 24.8694 48.5363C25.3194 48.6549 25.8138 48.8132 26.2143 48.9516L26.066 42.9441C26.0314 41.6585 26.0561 40.5361 25.6012 39.6758C25.1513 38.766 24.2959 37.7573 23.5789 36.7486C23.4108 36.5212 17.695 28.0463 18.1252 27.7299C18.5553 27.4134 24.9733 35.3741 25.1364 35.6015L26.2489 37.1096C26.6247 37.6189 27.0252 38.1776 27.3417 38.8401C27.673 39.5027 27.851 40.2839 27.9152 40.9613C27.9845 41.6585 27.9795 42.2864 27.9993 42.9045L28.2218 51.859C27.3664 51.503 26.4863 51.1173 25.6309 50.8058C25.1661 50.6426 24.7903 50.5289 24.3602 50.4102C23.5245 50.1828 22.6691 50.0097 21.8088 49.9009C21.3984 49.8466 20.9089 49.8021 20.5529 49.7872C20.4738 49.7872 20.3996 49.7872 20.3502 49.7971H20.3403V49.7922C20.3353 49.8367 20.3403 49.9059 20.3452 49.9899C20.3601 50.1482 20.4046 50.3954 20.4342 50.6031C20.4985 51.0382 20.5826 51.4733 20.6666 51.9035C20.6815 52.037 21.1067 54.6328 21.9571 57.1149C22.7581 59.6119 23.9844 61.9408 23.7619 62.0891C23.5443 62.2424 21.8681 60.1261 20.6913 57.6341C19.475 55.1668 18.7976 52.4226 18.7778 52.2842Z"
              fill="currentColor"/>
        <path d="M28.3339 55.1325C28.3438 55.2165 26.2078 53.5552 25.1942 54.5836C25.0112 54.7962 24.9815 54.8407 25.0557 55.1967C25.1497 55.5429 25.3919 56.0966 25.5353 56.4823C25.8518 57.2932 26.0644 57.8371 26.0644 57.8371C26.099 57.931 27.0286 61.501 26.5292 61.6987C26.0298 61.8916 24.2992 58.6332 24.2597 58.5392C24.2597 58.5392 24.047 57.9953 23.7306 57.1844C23.5773 56.7543 23.3845 56.3785 23.1818 55.6764C23.0928 55.3302 23.0285 54.8605 23.1521 54.376C23.2708 53.8963 23.5476 53.4711 23.874 53.1695C24.5365 52.5663 25.3227 52.3339 26.0743 52.3092C26.8852 52.3042 27.439 52.5267 27.9186 52.7245C28.3833 52.9272 28.7196 53.125 28.947 53.2486C29.1695 53.3772 29.2981 53.4513 29.2981 53.4513C29.3179 53.4662 29.5156 53.6096 29.8024 53.8222C30.0694 54.02 30.4205 54.2573 30.7864 54.4402C31.1523 54.6331 31.533 54.7468 31.8445 54.8061C32.156 54.8655 32.4131 54.8655 32.4774 54.9891C32.5367 55.0978 32.3785 55.35 31.9879 55.5478C31.6022 55.7406 31.0039 55.8296 30.4452 55.7654C29.8815 55.711 29.3475 55.5429 28.9668 55.3945C28.591 55.2511 28.3586 55.1424 28.3339 55.1325Z"
              fill="currentColor"/>
        <path d="M45.358 51.8936C45.447 51.4635 45.531 51.0284 45.5904 50.5932C45.62 50.3806 45.6645 50.1334 45.6794 49.9801C45.6843 49.901 45.6892 49.8318 45.6843 49.7823V49.7873H45.6744C45.625 49.7823 45.5557 49.7774 45.4717 49.7774C45.1157 49.7922 44.6311 49.8367 44.2158 49.8911C43.3555 49.9999 42.505 50.173 41.6644 50.4004C41.2343 50.5191 40.8585 50.6328 40.3937 50.796C39.5383 51.1075 38.6532 51.4931 37.7979 51.8491L38.0302 42.8947C38.05 42.2766 38.0451 41.6487 38.1143 40.9515C38.1736 40.2741 38.3566 39.4929 38.6879 38.8303C39.0093 38.1678 39.4098 37.614 39.7806 37.0997L40.8931 35.5966C41.0612 35.3692 47.4742 27.4086 47.9044 27.725C48.3345 28.0415 42.6187 36.5163 42.4506 36.7437C41.7337 37.7524 40.8783 38.7611 40.4283 39.6709C39.9734 40.5312 39.9981 41.6536 39.9635 42.9392L39.8152 48.9467C40.2108 48.8083 40.7102 48.6501 41.1601 48.5314C42.0847 48.2792 43.0242 48.0913 43.9735 47.9677C44.468 47.9084 44.8882 47.8589 45.442 47.8392C45.5904 47.8392 45.7486 47.8392 45.9216 47.8639C46.1244 47.8886 46.3666 47.9479 46.5644 48.0419C46.9748 48.2298 47.3061 48.5709 47.4742 48.9912C47.5583 49.2038 47.6028 49.4214 47.6176 49.6587C47.6275 49.8417 47.6225 49.9999 47.6077 50.1482C47.578 50.4449 47.5385 50.6476 47.5039 50.8899C47.4346 51.3547 47.3456 51.8195 47.2517 52.2793C47.2369 52.4227 46.5545 55.1619 45.3332 57.6243C44.1565 60.1114 42.4803 62.2276 42.2627 62.0793C42.0402 61.9309 43.2664 59.6021 44.0675 57.1051C44.9179 54.6279 45.3431 52.0271 45.358 51.8936Z"
              fill="currentColor"/>
        <path d="M36.7325 53.4513C36.7325 53.4513 36.861 53.3772 37.0835 53.2486C37.3159 53.1201 37.6472 52.9272 38.112 52.7245C38.5916 52.5317 39.1454 52.3042 39.9563 52.3092C40.7078 52.3339 41.4891 52.5613 42.1566 53.1695C42.4829 53.4711 42.7647 53.8963 42.8785 54.376C43.0021 54.8605 42.9378 55.3302 42.8488 55.6764C42.6461 56.3785 42.4532 56.7543 42.3 57.1844C41.9835 57.9953 41.7709 58.5392 41.7709 58.5392C41.7363 58.6332 40.0008 61.8916 39.5014 61.6987C39.002 61.5059 39.9266 57.931 39.9662 57.8371C39.9662 57.8371 40.1788 57.2932 40.4952 56.4823C40.6386 56.0966 40.8809 55.5429 40.9748 55.1967C41.049 54.8358 41.0193 54.7962 40.8364 54.5836C39.8228 53.5552 37.6818 55.2116 37.6966 55.1325C37.6769 55.1423 37.4395 55.2511 37.0638 55.3945C36.6781 55.5429 36.149 55.711 35.5854 55.7654C35.0266 55.8296 34.4333 55.7406 34.0427 55.5478C33.6521 55.35 33.4889 55.1028 33.5532 54.9891C33.6175 54.8655 33.8746 54.8655 34.1861 54.8061C34.5025 54.7468 34.8783 54.6281 35.2442 54.4402C35.6101 54.2573 35.9661 54.015 36.2281 53.8222C36.5149 53.6096 36.7127 53.4662 36.7325 53.4513Z"
              fill="currentColor"/>
        <path d="M14.1158 15.3837C14.1158 15.3837 14.0615 16.8769 13.9082 19.1167C13.834 20.2342 13.7302 21.5395 13.6016 22.9388C13.5324 23.636 13.4582 24.3579 13.3841 25.0897L13.3247 25.6484C13.2901 26.0143 13.2011 26.3802 12.9935 26.667C12.7907 26.9587 12.4842 27.1664 12.1381 27.2652C11.965 27.3147 11.7821 27.3394 11.5942 27.3493L11.2629 27.3641C9.5422 27.4383 7.82647 27.5125 6.21457 27.5817C6.1404 27.5718 6.01679 27.6212 5.98218 27.557L5.92284 27.3048L5.80417 26.8054L5.68551 26.311L5.59651 25.9006C5.52234 25.5594 5.463 25.2232 5.40862 24.8968C5.29489 24.2442 5.22567 23.6212 5.16139 23.0525C5.04767 21.9104 5.00317 20.966 4.9735 20.3034C4.95372 19.6458 4.93889 19.27 4.93889 19.27C4.91911 18.9882 5.22567 9.62828 5.75967 9.61344C6.29862 9.60355 6.85735 18.9832 6.87713 19.2206C6.87713 19.2206 6.88702 19.5865 6.91174 20.2292C6.93646 20.8671 6.98096 21.7818 7.08974 22.8548C7.14907 23.3937 7.21335 23.9722 7.31719 24.5804C7.37158 24.882 7.42102 25.1935 7.49024 25.505L7.51002 25.5891C8.68186 25.5396 9.93282 25.4803 11.1838 25.4259L11.4063 25.416L11.4656 24.882C11.5398 24.1601 11.609 23.4481 11.6782 22.7608C11.8068 21.3813 11.9057 20.0957 11.9798 18.9882C12.1282 16.778 12.1826 15.2996 12.1826 15.2996C12.1924 15.1859 12.3704 13.035 12.5484 10.8644C12.5336 10.8199 12.4941 10.7902 12.4545 10.7655C12.3952 10.7408 12.4149 10.7358 12.2221 10.6864C11.9254 10.6122 11.6337 10.5381 11.3469 10.4639C10.7783 10.3156 10.2542 10.1722 9.79932 10.0387C8.89942 9.77167 8.30608 9.53928 8.32586 9.40578C8.35058 9.27227 8.98348 9.24755 9.92293 9.28216C10.3927 9.30194 10.9415 9.33655 11.5249 9.38105C11.8167 9.40577 12.1183 9.4305 12.4248 9.45522C12.5287 9.46511 12.8649 9.48983 13.0923 9.564C13.3346 9.63817 13.5571 9.77167 13.7203 9.97439C13.8736 10.1722 13.9576 10.4095 13.9873 10.6617C14.0021 10.7902 14.0071 10.9237 14.0071 11.0523L14.017 11.2896C14.0318 11.5912 14.0417 11.883 14.0565 12.1697C14.0713 12.7433 14.0862 13.2822 14.101 13.7421C14.1109 14.6766 14.1158 15.3194 14.1158 15.3837Z"
              fill="currentColor"/>
        <path d="M54.4182 15.2995C54.4182 15.2995 54.4725 16.7779 54.6209 18.988C54.695 20.0907 54.7939 21.3812 54.9225 22.7607C54.9917 23.448 55.0609 24.16 55.1351 24.8819L55.1944 25.4159L55.4169 25.4258C56.6679 25.4802 57.9188 25.5345 59.0907 25.5889L59.1105 25.5049C59.1797 25.1934 59.2341 24.8819 59.2835 24.5803C59.3874 23.977 59.4566 23.3936 59.511 22.8546C59.6198 21.7767 59.6643 20.8669 59.689 20.2291C59.7088 19.5863 59.7236 19.2204 59.7236 19.2204C59.7434 18.9831 60.3021 9.60342 60.841 9.61331C61.3701 9.6232 61.6816 18.988 61.6618 19.2699C61.6618 19.2699 61.6519 19.6457 61.6272 20.3033C61.6025 20.9609 61.553 21.9102 61.4393 23.0524C61.38 23.621 61.3058 24.244 61.1921 24.8967C61.1377 25.223 61.0784 25.5593 61.0042 25.9004L60.9152 26.3108L60.7965 26.8053L60.6779 27.3047L60.6185 27.5568C60.5839 27.6211 60.4603 27.5667 60.3861 27.5816C58.7742 27.5123 57.0585 27.4382 55.3378 27.364L55.0066 27.3492C54.8236 27.3393 54.6357 27.3146 54.4627 27.2651C54.1165 27.1712 53.81 26.9586 53.6073 26.6668C53.3996 26.38 53.3106 26.0142 53.276 25.6483L53.2166 25.0895C53.1425 24.3578 53.0683 23.6359 52.9991 22.9387C52.8705 21.5443 52.7667 20.239 52.6925 19.1166C52.5442 16.8768 52.4849 15.3835 52.4849 15.3835C52.4849 15.3192 52.4898 14.6814 52.4997 13.7469C52.5145 13.2821 52.5294 12.7481 52.5442 12.1746C52.5541 11.8878 52.5689 11.5911 52.5838 11.2944L52.5936 11.0571C52.5936 10.9285 52.5986 10.795 52.6134 10.6665C52.6431 10.4094 52.7271 10.172 52.8804 9.9792C53.0386 9.77648 53.2661 9.64298 53.5084 9.56881C53.7358 9.49464 54.072 9.46992 54.1759 9.46003C54.4824 9.43531 54.784 9.41058 55.0758 9.38586C55.6592 9.34136 56.2081 9.30675 56.6778 9.28697C57.6172 9.24742 58.2551 9.27708 58.2749 9.41059C58.2946 9.54409 57.7062 9.77153 56.8014 10.0435C56.3514 10.177 55.8224 10.3204 55.2538 10.4687C54.9719 10.5429 54.6753 10.617 54.3786 10.6912C54.1808 10.7357 54.2055 10.7407 54.1462 10.7703C54.1067 10.795 54.0671 10.8247 54.0523 10.8692C54.2303 13.0349 54.4083 15.1857 54.4182 15.2995Z"
              fill="currentColor"/>
        <path d="M42.526 18.1376C42.526 18.1376 38.071 18.0585 33.616 17.9794C29.1611 17.841 24.711 17.7075 24.711 17.7075C24.5133 17.7124 17.5168 16.9806 17.5465 16.4367C17.5761 15.9126 24.5874 15.7791 24.7803 15.7742C24.7803 15.7742 29.2204 15.9077 33.6605 16.0461C38.1007 16.1252 42.5408 16.1994 42.5408 16.1994C42.7337 16.2142 49.9674 16.684 49.9724 17.2081C49.9823 17.752 42.7238 18.1525 42.526 18.1376Z"
              fill="currentColor"/>
        <path d="M65.0453 17.7471C65.0453 17.7471 64.8574 17.7224 64.6645 17.752C64.4717 17.7817 64.2986 17.8608 64.2986 17.8608C64.3085 17.841 63.8141 17.6334 63.4482 17.2477C63.2801 17.04 63.2455 16.7582 63.3048 16.5159C63.3592 16.2786 63.4877 16.0956 63.4976 16.0956C63.4976 16.0956 63.9229 15.8979 64.3728 15.8336C64.8277 15.7594 65.2875 15.8237 65.2875 15.8237C65.2875 15.8237 65.4804 15.9572 65.6089 16.1698C65.7424 16.3824 65.7968 16.6692 65.693 16.9164C65.4507 17.3911 65.0304 17.7323 65.0453 17.7471Z"
              fill="currentColor"/>
        <path d="M2.60776 17.747C2.60776 17.747 2.41987 17.7223 2.22703 17.752C2.0342 17.7817 1.86114 17.8608 1.86114 17.8608C1.87103 17.841 1.37658 17.6333 1.01069 17.2476C0.842579 17.0449 0.807968 16.7581 0.867302 16.5208C0.921691 16.2835 1.05025 16.1005 1.06014 16.1005C1.06014 16.1005 1.48536 15.9028 1.93531 15.8385C2.3902 15.7643 2.85004 15.8286 2.85004 15.8286C2.85004 15.8286 3.04287 15.9621 3.17143 16.1747C3.30493 16.3873 3.35932 16.6741 3.25549 16.9213C3.01815 17.391 2.59787 17.7322 2.60776 17.747Z"
              fill="currentColor"/>
    </g>
    <defs>
        <clipPath id="clip0_3_2953">
            <rect width="64.9013" height="69.9941" fill="white" transform="translate(0.844238 0.372314)"/>
        </clipPath>
    </defs>
</svg>
