<svg width="57" height="51" viewBox="0 0 57 51" fill="none" xmlns="http://www.w3.org/2000/svg">
    <path d="M39.3025 7.21609C39.3025 7.21609 39.4063 7.12718 39.5497 6.93946C39.6931 6.75668 39.8909 6.47511 40.0145 6.10956C40.3062 5.39822 40.1529 4.32132 39.3618 3.53588C38.6053 2.73068 37.4433 2.46393 36.7511 2.6714C36.3803 2.76032 36.0885 2.92334 35.9056 3.04683C35.7227 3.17527 35.6287 3.26419 35.6287 3.26419C35.604 3.28889 34.8673 3.76312 34.6349 4.63748C34.5063 5.06725 34.5014 5.54641 34.5558 5.9169C34.5953 6.29234 34.6893 6.56403 34.5854 6.64801C34.4964 6.72705 34.1948 6.59367 33.9031 6.20836C33.6064 5.83293 33.3592 5.20062 33.3444 4.51892C33.3147 3.84216 33.5471 3.13081 33.824 2.66646C34.1009 2.19718 34.3778 1.93536 34.4025 1.90572C34.4025 1.90572 34.5607 1.75259 34.8771 1.53523C35.1936 1.32282 35.6732 1.05112 36.3209 0.893047C37.6461 0.522556 39.5052 1.0116 40.6721 2.25645C41.2704 2.85912 41.7104 3.63962 41.8884 4.45964C42.0763 5.27966 41.9675 6.09474 41.745 6.70729C41.5324 7.32971 41.2209 7.7743 40.9885 8.06575C40.7611 8.36215 40.5979 8.50046 40.5979 8.50046C40.5732 8.5548 39.4211 9.53784 38.007 9.59218C37.3197 9.62182 36.6522 9.47362 36.2072 9.16241C35.7424 8.83637 35.7078 8.40167 35.8314 8.37697C35.9501 8.33251 36.1528 8.49552 36.494 8.51528C36.8302 8.54986 37.3444 8.48564 37.7845 8.32263C38.2295 8.16455 38.6201 7.8978 38.8822 7.66068C39.1442 7.42357 39.2876 7.23091 39.3025 7.21609Z"
          fill="currentColor"/>
    <path d="M24.6757 40.1601C24.6757 40.1601 24.6658 40.3132 24.6461 40.6047C24.5917 40.8912 24.5571 41.321 24.4235 41.8446C24.1862 42.9017 23.6473 44.3738 22.5941 45.8904C21.5459 47.397 19.934 48.9185 17.8276 49.9065C16.7843 50.4104 15.5828 50.7166 14.3863 50.8549C13.1847 50.9834 11.9832 50.934 10.8114 50.8204C9.63955 50.7068 8.4331 50.5092 7.27609 50.0893C6.10919 49.6842 5.03624 48.9976 4.18084 48.1924C2.44533 46.5671 1.53554 44.5072 1.10537 42.7338C0.680149 40.9307 0.739482 39.3697 0.877928 38.3175C1.01637 37.2555 1.19437 36.6676 1.19437 36.6676C1.23393 36.5688 1.47621 35.5413 2.19316 34.2125C2.89528 32.8935 4.15118 31.298 5.79274 30.2556C7.40464 29.1788 9.28849 28.6551 10.6927 28.5958C12.1068 28.5267 13.0018 28.8132 12.982 28.9219C12.9672 29.0602 12.0673 29.0256 10.7867 29.2973C9.51099 29.5641 7.87931 30.2211 6.54925 31.3029C5.19446 32.3502 4.23029 33.7926 3.70123 34.9683C3.15733 36.1489 2.99911 37.043 2.9645 37.127C2.9645 37.127 2.81616 37.6309 2.69255 38.5448C2.57389 39.4537 2.52444 40.7825 2.88539 42.309C3.24633 43.8206 4.03251 45.5545 5.4318 46.8586C6.79153 48.2121 8.80393 48.8098 10.9894 49.0025C13.1847 49.2396 15.301 49.1013 17.0563 48.2467C18.8215 47.4217 20.201 46.1225 21.0959 44.8382C21.9958 43.5489 22.4458 42.304 22.6435 41.4247C22.7573 40.9851 22.782 40.6343 22.8314 40.3972C22.8463 40.1552 22.8561 40.0267 22.8561 40.0267C22.8512 39.9378 22.9995 39.0338 22.7869 37.7247C22.5891 36.4157 21.9661 34.7312 20.9179 33.2937C19.8796 31.8512 18.4704 30.7002 17.2788 30.0679C16.097 29.4109 15.1971 29.1689 15.2268 29.0256C15.2416 28.9219 16.2108 28.9219 17.5754 29.4208C18.9451 29.895 20.6262 30.9818 21.9266 32.4885C22.5793 33.2344 23.1232 34.0841 23.5533 34.9288C23.9736 35.7784 24.2604 36.638 24.4384 37.3987C24.7894 38.935 24.6708 40.0564 24.6757 40.1601Z"
          fill="currentColor"/>
    <path d="M20.5034 39.9081C20.5034 39.9081 20.4935 40.3181 20.3352 41.0097C20.182 41.7013 19.8309 42.6596 19.1436 43.6427C18.4662 44.6257 17.4229 45.6137 16.0484 46.2559C15.371 46.5819 14.5799 46.7844 13.7986 46.8734C13.0174 46.9573 12.2461 46.9228 11.5093 46.8536C10.7677 46.7795 9.98645 46.656 9.22994 46.3794C8.46355 46.1126 7.7466 45.6581 7.18787 45.1296C6.04569 44.0576 5.4573 42.7189 5.17547 41.563C4.89857 40.3922 4.93813 39.3746 5.02713 38.6979C5.11613 38.0112 5.22986 37.6308 5.22986 37.6308C5.25458 37.5666 5.42269 36.8997 5.9023 36.0501C6.37203 35.2054 7.20765 34.1828 8.2806 33.5357C9.33872 32.8639 10.5551 32.5675 11.45 32.5675C12.3549 32.5625 12.9086 32.7898 12.8889 32.9034C12.874 33.0368 12.3104 33.0615 11.544 33.2739C10.7776 33.4764 9.80844 33.9161 9.03711 34.5829C8.25093 35.235 7.70704 36.0995 7.41037 36.8059C7.10876 37.5123 7.0247 38.0408 7.00492 38.0902C7.00492 38.0902 6.91592 38.3866 6.8467 38.9251C6.77748 39.4635 6.74781 40.244 6.96042 41.1431C7.17304 42.0323 7.63782 43.0499 8.44377 43.8008C9.225 44.5763 10.3573 44.9221 11.6972 45.0407C13.0421 45.1839 14.2684 45.0999 15.2919 44.601C16.3253 44.1169 17.1411 43.3562 17.6652 42.6004C18.1943 41.8396 18.4613 41.1135 18.575 40.5997C18.6937 40.086 18.6986 39.7846 18.6986 39.7846C18.6937 39.7352 18.7926 39.2116 18.6887 38.441C18.5898 37.6704 18.2536 36.6626 17.6454 35.7784C17.0521 34.8941 16.2264 34.168 15.5193 33.7432C14.8222 33.3035 14.2733 33.1059 14.298 32.9725C14.3129 32.8639 14.9309 32.8194 15.816 33.096C16.7011 33.3628 17.7987 34.0247 18.6591 34.9732C19.5244 35.9118 20.1078 37.122 20.3402 38.1149C20.5676 39.1079 20.5034 39.8439 20.5034 39.9081Z"
          fill="currentColor"/>
    <path d="M56.3808 40.1601C56.3808 40.1601 56.3709 40.3132 56.3511 40.6047C56.2967 40.8912 56.2621 41.321 56.1286 41.8446C55.8913 42.9017 55.3523 44.3738 54.2992 45.8904C53.2509 47.397 51.639 48.9185 49.5327 49.9065C48.4894 50.4104 47.2879 50.7166 46.0913 50.8549C44.8898 50.9834 43.6883 50.934 42.5165 50.8204C41.3446 50.7068 40.1382 50.5092 38.9812 50.0893C37.8143 49.6842 36.7413 48.9976 35.8859 48.1924C34.1504 46.5671 33.2406 44.5072 32.8105 42.7338C32.3852 40.9307 32.4446 39.3697 32.583 38.3175C32.7215 37.2555 32.8995 36.6676 32.8995 36.6676C32.939 36.5688 33.1813 35.5413 33.8982 34.2125C34.6004 32.8935 35.8563 31.298 37.4978 30.2556C39.1097 29.1788 40.9936 28.6551 42.3978 28.5958C43.8119 28.5267 44.7069 28.8132 44.6871 28.9219C44.6723 29.0602 43.7724 29.0256 42.4917 29.2973C41.2161 29.5641 39.5844 30.2211 38.2543 31.3029C36.8995 32.3502 35.9354 33.7926 35.4063 34.9683C34.8624 36.1489 34.7042 37.043 34.6696 37.127C34.6696 37.127 34.5212 37.6309 34.3976 38.5448C34.279 39.4537 34.2295 40.7825 34.5905 42.309C34.9514 43.8206 35.7376 45.5545 37.1369 46.8586C38.4966 48.2121 40.509 48.8098 42.6945 49.0025C44.8898 49.2396 47.0061 49.1013 48.7614 48.2467C50.5265 47.4217 51.906 46.1225 52.801 44.8382C53.7009 43.5489 54.1508 42.304 54.3486 41.4247C54.4623 40.9851 54.4871 40.6343 54.5365 40.3972C54.5513 40.1552 54.5612 40.0267 54.5612 40.0267C54.5563 39.9378 54.7046 39.0338 54.492 37.7247C54.2942 36.4157 53.6712 34.7312 52.623 33.2937C51.5847 31.8512 50.1755 30.7002 48.9839 30.0679C47.8021 29.4109 46.9022 29.1689 46.9319 29.0256C46.9467 28.9219 47.9158 28.9219 49.2805 29.4208C50.6501 29.895 52.3313 30.9818 53.6317 32.4885C54.2843 33.2344 54.8282 34.0841 55.2584 34.9288C55.6787 35.7784 55.9655 36.638 56.1435 37.3987C56.4945 38.935 56.3808 40.0564 56.3808 40.1601Z"
          fill="currentColor"/>
    <path d="M52.2114 39.9081C52.2114 39.9081 52.2015 40.3181 52.0433 41.0097C51.89 41.7013 51.539 42.6596 50.8517 43.6427C50.1694 44.6208 49.1261 45.6087 47.7515 46.2559C47.0741 46.5819 46.283 46.7844 45.5018 46.8734C44.7205 46.9573 43.9492 46.9228 43.2125 46.8536C42.4708 46.7795 41.6896 46.656 40.9331 46.3794C40.1667 46.1126 39.4497 45.6581 38.891 45.1296C37.7488 44.0576 37.1604 42.7189 36.8786 41.563C36.6017 40.3922 36.6413 39.3746 36.7303 38.6979C36.8193 38.0112 36.933 37.6308 36.933 37.6308C36.9577 37.5666 37.1258 36.8997 37.6054 36.0501C38.0752 35.2054 38.9108 34.1828 39.9837 33.5357C41.0418 32.8639 42.2582 32.5675 43.1531 32.5675C44.058 32.5625 44.6118 32.7898 44.592 32.9034C44.5771 33.0368 44.0135 33.0615 43.2471 33.2739C42.4807 33.4764 41.5116 33.9161 40.7402 34.5829C39.9541 35.235 39.4102 36.0995 39.1135 36.8059C38.8119 37.5123 38.7278 38.0408 38.708 38.0902C38.708 38.0902 38.619 38.3866 38.5498 38.9251C38.4806 39.4635 38.4509 40.244 38.6635 41.1431C38.8762 42.0323 39.3409 43.0499 40.1469 43.8008C40.9281 44.5763 42.0604 44.9221 43.4004 45.0407C44.7453 45.1839 45.9715 45.0999 46.995 44.601C48.0284 44.1169 48.8442 43.3562 49.3684 42.6004C49.8974 41.8396 50.1644 41.1135 50.2781 40.5997C50.3968 40.086 50.4017 39.7846 50.4017 39.7846C50.3968 39.7352 50.4957 39.2116 50.3919 38.441C50.293 37.6704 49.9567 36.6626 49.3486 35.7784C48.7552 34.8941 47.9295 34.168 47.2224 33.7432C46.5253 33.3035 45.9764 33.1059 46.0012 32.9725C46.016 32.8639 46.6341 32.8194 47.5191 33.096C48.4042 33.3628 49.5019 34.0247 50.3622 34.9732C51.2275 35.9118 51.8109 37.122 52.0433 38.1149C52.2757 39.1079 52.2065 39.8439 52.2114 39.9081Z"
          fill="currentColor"/>
    <path d="M26.1003 34.7658C26.1003 34.7658 26.1349 34.4249 26.1992 33.8321C26.2486 33.2542 26.3475 32.4341 26.1745 31.6388C26.0261 30.8583 25.4624 30.1568 24.4439 29.5196C23.9494 29.1985 23.3709 28.8972 22.7628 28.5514C22.1299 28.1908 21.492 27.761 20.9234 27.1979C20.3597 26.6446 19.8257 25.9234 19.6181 25.0243C19.3906 24.1253 19.623 23.157 19.9592 22.5C20.2955 21.8134 20.6515 21.3095 20.958 20.8057C21.2745 20.3067 21.5711 19.8325 21.8431 19.3928C22.9408 17.6441 23.6725 16.4783 23.6725 16.4783C23.8011 16.2758 28.7654 9.14753 29.1955 9.41429C29.6208 9.68104 25.3487 17.2489 25.2251 17.4515C25.2251 17.4515 24.4933 18.6173 23.3957 20.366C23.1188 20.8007 22.8221 21.2749 22.5106 21.7788C22.1991 22.2827 21.8431 22.8112 21.6156 23.2855C21.3783 23.7745 21.3041 24.1895 21.403 24.6192C21.497 25.049 21.7936 25.4985 22.209 25.9036C22.6194 26.3087 23.1287 26.6644 23.6725 26.9706C24.2412 27.2967 24.8493 27.6128 25.4377 27.9932C26.0261 28.3686 26.5997 28.8231 27.0645 29.3862C27.5243 29.9494 27.8358 30.636 27.9644 31.2486C28.2215 32.4885 28.0682 33.4073 28.0237 34.0198C27.9594 34.6225 27.9248 34.9683 27.9248 34.9683C27.9001 35.2054 26.5552 44.0824 26.0558 44.028C25.5465 43.9638 26.0756 35.0078 26.1003 34.7658Z"
          fill="currentColor"/>
    <path d="M29.0508 21.6503C29.0508 21.6503 28.9124 21.8726 28.6751 22.2579C28.4526 22.6333 28.1509 23.1816 28.0422 23.7695C27.9334 24.3524 28.0768 24.9304 28.6405 25.6071C29.1843 26.2938 30.0595 26.9458 30.8556 27.9091C31.2462 28.3932 31.617 28.9909 31.7851 29.6875C31.973 30.3889 31.8939 31.0608 31.8148 31.6041C31.6319 32.6563 31.4094 33.5554 31.2462 34.3655C30.905 35.9661 30.6776 37.0331 30.6776 37.0331C30.638 37.2208 28.8036 43.8649 28.3141 43.7365C27.8246 43.6081 28.8481 36.8454 28.8877 36.6626C28.8877 36.6626 29.1151 35.6054 29.4513 34.0148C29.6096 33.2294 29.842 32.276 30.0051 31.3226C30.1683 30.3791 30.0298 29.806 29.4316 29.0552C28.8481 28.329 27.9631 27.6621 27.2214 26.7581C26.8505 26.3037 26.5193 25.7701 26.3363 25.1724C26.1583 24.5747 26.1484 23.9572 26.2424 23.4484C26.4451 22.4258 26.8505 21.7738 27.0978 21.3292C27.3598 20.9044 27.5082 20.6623 27.5082 20.6623C27.612 20.5042 31.7703 14.7542 32.1955 15.021C32.6208 15.3025 29.1497 21.4922 29.0508 21.6503Z"
          fill="currentColor"/>
    <path d="M39.0495 24.0957C39.0495 24.0957 37.0519 23.9969 35.0544 23.8981C34.5154 23.8536 33.7441 23.7548 33.1408 23.1719C32.5524 22.594 32.4338 21.9123 32.3794 21.4726C32.3299 21.0132 32.3448 20.6724 32.3497 20.4501C32.3547 20.2327 32.3547 20.1092 32.3547 20.1092C32.3547 20.0203 32.8343 16.9032 33.3386 16.9131C33.843 16.923 34.1841 20.0598 34.1841 20.1487C34.1841 20.1487 34.1792 20.2722 34.1792 20.4896C34.1742 20.702 34.1693 20.9836 34.199 21.2651C34.2286 21.5467 34.3127 21.7789 34.4116 21.8579C34.4857 21.9518 34.7577 22.0506 35.1977 22.0753C37.1706 22.1691 39.1434 22.2679 39.1434 22.2679C39.2324 22.2729 42.4463 22.836 42.4216 23.3399C42.387 23.8487 39.1335 24.1006 39.0495 24.0957Z"
          fill="currentColor"/>
    <path d="M37.6159 20.0945C37.6159 20.0945 37.4478 20.055 37.1511 19.9907C36.8396 19.9117 36.3847 19.8129 35.8013 19.5412C35.5145 19.398 35.1832 19.2102 34.8717 18.8941C34.5652 18.5779 34.2932 18.1185 34.2141 17.6245C34.1251 17.1404 34.1795 16.7107 34.2339 16.3501C34.2833 16.029 34.3328 15.7029 34.3822 15.3769C34.5503 14.1123 34.5009 12.8823 34.2537 12.0474C34.0213 11.1978 33.6949 10.7729 33.6949 10.7729C33.6752 10.7384 33.2697 9.89857 32.5379 9.31073C32.1819 9.01433 31.7715 8.78216 31.4254 8.63396C31.0843 8.49071 30.8123 8.40673 30.7975 8.27335C30.7826 8.15479 31.0447 7.99178 31.5045 7.92756C31.9594 7.86334 32.5923 7.94732 33.1758 8.18443C34.3773 8.6389 35.1981 9.7158 35.2228 9.7652C35.2228 9.7652 35.3365 9.92821 35.5046 10.2394C35.6678 10.5556 35.8705 11.0051 36.0188 11.5633C36.3452 12.6797 36.3847 14.1913 36.1968 15.5992C36.1128 16.3155 35.9397 17.0268 36.0139 17.2837C36.0535 17.5257 36.2463 17.7085 36.5973 17.8814C36.9336 18.0395 37.3044 18.1334 37.5665 18.1976C37.8483 18.2618 38.0065 18.2964 38.0065 18.2964C38.1203 18.3211 42.328 19.6697 42.2192 20.1636C42.1154 20.6725 37.7296 20.1241 37.6159 20.0945Z"
          fill="currentColor"/>
</svg>
