<svg width="42" height="50" viewBox="0 0 42 50" fill="none" xmlns="http://www.w3.org/2000/svg">
    <path d="M30.62 25.1503C30.62 25.1503 30.4766 25.1405 30.1997 25.0762C29.9229 25.012 29.5273 24.8786 29.0675 24.6069C28.6175 24.3254 28.1478 23.8808 27.7918 23.3127C27.4358 22.7446 27.1737 22.0728 27.0056 21.3516C26.8424 20.6353 26.7633 19.8251 26.7782 19.0397C26.7831 18.274 26.8128 17.5182 26.7683 16.7822C26.7287 16.056 26.6002 15.3644 26.3134 14.821C26.0414 14.2777 25.5618 13.8676 24.8894 13.4527C24.2318 13.0575 23.4011 12.608 22.6742 12.1436C21.9622 11.6842 21.2601 11.2298 20.5778 10.7901C19.2477 9.92562 18.0017 9.24886 16.909 8.88331C15.8162 8.51282 14.8966 8.4733 14.2637 8.52764C13.6258 8.56716 13.2748 8.70053 13.2698 8.67583C13.2105 8.70547 12.5875 8.79933 11.7272 9.18464C10.8668 9.56501 9.77903 10.2665 8.79508 11.1507C6.81234 12.9044 5.13122 15.0878 4.87411 14.9001C4.65161 14.7519 5.85312 12.2869 7.71224 10.0886C8.63191 8.98705 9.78892 8.01389 10.8174 7.43098C11.8409 6.8382 12.6765 6.62578 12.7556 6.59614C12.7556 6.59614 12.8792 6.57144 13.1067 6.52698C13.3341 6.47759 13.6654 6.41337 14.1005 6.38867C14.9559 6.30963 16.2316 6.38867 17.5913 6.84808C18.951 7.30255 20.3652 8.09293 21.7348 8.9821C22.4122 9.41681 23.1094 9.86634 23.8164 10.3258C24.5136 10.7802 25.2058 11.1359 26.0217 11.6299C26.8078 12.1041 27.7127 12.8303 28.2071 13.8182C28.7115 14.7815 28.8548 15.7794 28.9092 16.6537C28.9587 17.533 28.9241 18.3333 28.9191 19.0446C28.9092 19.7362 28.9735 20.3241 29.0922 20.8675C29.3394 21.9542 29.8338 22.5767 30.2047 22.7891C30.5904 23.0064 30.8722 23.0163 30.8722 23.0163C30.9167 23.0212 31.3963 23.1299 32.4297 22.9323C33.4433 22.7594 34.7635 22.4087 36.0639 21.9246C38.6647 20.9613 41.2012 19.6918 41.3594 19.9733C41.4929 20.2105 39.2679 21.9246 36.6869 23.3078C35.3964 23.9993 33.9971 24.5526 32.8747 24.8589C31.782 25.2195 30.7189 25.1849 30.62 25.1503Z"
          fill="currentColor"/>
    <path d="M9.57678 39.1697C9.57678 39.1697 9.84379 38.8189 10.1948 38.1669C10.5459 37.5148 10.9415 36.5416 10.9958 35.3067C11.0601 34.0569 10.719 32.5107 10.3728 30.6928C10.2097 29.7839 10.0613 28.791 10.1009 27.7141C10.1306 26.652 10.4075 25.4911 10.9118 24.5229C11.4062 23.5547 12.0342 22.7347 12.6226 21.9838C13.2159 21.2379 13.7549 20.5364 14.2691 19.8201C15.2877 18.3975 16.1431 17.0044 16.8254 15.7793C17.1666 15.1668 17.4632 14.5987 17.7154 14.0899C17.7203 14.0849 17.7253 14.0751 17.7253 14.0751C17.7006 14.0602 17.6758 14.0504 17.6561 14.0405C17.5473 13.9763 17.4484 13.9417 17.3693 13.9071C17.2111 13.8379 17.1171 13.8132 17.1171 13.8132C17.0578 13.7984 16.4595 13.5317 15.4459 13.5119C14.4323 13.4971 13.0973 13.7935 11.8809 14.5493C10.6547 15.2705 9.56689 16.298 8.74611 17.0686C7.92533 17.8491 7.35177 18.3629 7.2331 18.2641C7.11938 18.1752 7.46549 17.4935 8.10827 16.5302C8.756 15.5768 9.71523 14.3171 11.0206 13.2995C12.2962 12.2522 14.0169 11.6249 15.3569 11.536C16.7166 11.4223 17.7006 11.7434 17.7896 11.7731C17.7896 11.7731 17.928 11.8076 18.1851 11.9213C18.3137 11.9756 18.4719 12.0349 18.645 12.1337C18.7142 12.1732 18.8823 12.2473 19.0306 12.356C19.174 12.4647 19.3322 12.5783 19.4954 12.7018C19.6635 12.8203 19.8267 12.9537 19.9997 13.1019C20.0887 13.1711 20.1777 13.2452 20.2668 13.3193C20.2915 13.3637 20.4052 13.3835 20.3558 13.4427L20.2865 13.6107C20.0986 14.0504 19.891 14.5542 19.6339 15.0482C19.3669 15.5817 19.0554 16.1794 18.6994 16.8216C17.9824 18.106 17.0825 19.5682 16.0145 21.065C14.9712 22.5865 13.5769 24.0289 12.8303 25.4911C12.0639 26.9237 12.1578 28.5884 12.4891 30.3075C12.8055 32.0118 13.2209 33.7555 13.1467 35.3906C13.0725 37.0406 12.5336 38.3447 12.0985 39.1548C11.6584 39.9798 11.342 40.3898 11.342 40.3898C11.2876 40.459 10.7437 41.2148 9.81412 42.1039C8.89444 43.003 7.59899 44.0157 6.28376 44.9197C3.67802 46.7277 1.06239 48.4418 0.87944 48.2096C0.696494 47.9775 2.98084 45.8385 5.33936 43.7292C6.5112 42.6868 7.62866 41.6149 8.38022 40.7405C9.13178 39.8859 9.52734 39.2289 9.57678 39.1697Z"
          fill="currentColor"/>
    <path d="M19.1298 41.3582C19.3572 40.8247 19.5797 40.2912 19.7775 39.7577L20.0692 38.9525C20.1187 38.8141 20.1582 38.6907 20.1731 38.6314C20.178 38.6116 20.1731 38.6215 20.1731 38.6215C20.1582 38.6067 20.2225 38.6709 20.0692 38.5079C19.9357 38.3794 19.6984 38.172 19.5105 38.0089C19.11 37.6632 18.7045 37.3322 18.2843 37.016C17.864 36.6999 17.4388 36.3887 16.9987 36.0972L16.8306 35.9836L16.7564 36.3245L16.6526 36.8925C16.5339 37.6533 16.4795 38.419 16.4944 39.1896C16.5043 39.98 16.5735 40.8543 16.4449 41.8374C16.3757 42.3264 16.257 42.8451 16.0148 43.349C15.7774 43.8479 15.4115 44.3271 15.0209 44.6679C14.9764 44.7173 14.4276 45.1471 13.7156 45.5077C13.0233 45.8732 12.1284 46.3326 11.2235 46.7822C9.41387 47.6714 7.58935 48.4864 7.43113 48.2345C7.27291 47.9826 8.81559 46.713 10.4225 45.4929C11.2235 44.8803 12.0443 44.2826 12.6673 43.8331C13.2854 43.3934 13.5475 43.1118 13.5771 43.0822C14.4622 42.3906 14.4029 40.9679 14.3435 39.2242C14.3287 38.3399 14.393 37.4409 14.5314 36.5616L14.6501 35.9046L14.7193 35.5785L14.8528 35.0351C15.0654 34.2349 15.3324 33.5087 15.5846 32.7332L16.974 33.5581C17.2064 33.6964 17.4388 33.8348 17.6662 33.9829L18.1854 34.3189C18.66 34.635 19.1248 34.966 19.5748 35.3118C20.0297 35.6576 20.4697 36.0132 20.9048 36.3887C21.1323 36.5863 21.3103 36.7394 21.5723 36.9864C21.8097 37.1988 22.225 37.7274 22.2942 38.2609C22.3437 38.5474 22.319 38.8635 22.2547 39.1303C22.2003 39.3575 22.141 39.5156 22.0915 39.6539L21.7751 40.5184C21.5625 41.0914 21.3251 41.6496 21.0927 42.2078C21.0581 42.3165 20.0643 44.2085 19.0803 45.9967C18.0766 47.785 17.2954 49.6424 17.0135 49.5831C16.7119 49.5189 17.0086 47.4194 17.681 45.4089C18.3535 43.3885 19.1051 41.457 19.1298 41.3582Z"
          fill="currentColor"/>
    <path d="M21.2502 27.4623C21.2502 27.4623 21.1562 27.7241 21.0722 28.1144C20.9931 28.5293 20.9436 28.9245 21.2007 29.4629C21.443 30.0212 22.0759 30.6683 22.8176 31.4834C23.5345 32.2935 24.3059 33.158 25.0723 34.0225C25.8387 34.9018 26.605 35.7267 27.3269 36.5912C27.6928 37.0555 28.1082 37.6434 28.2516 38.4338C28.3949 39.2587 28.1181 39.9701 27.9005 40.4196C27.6632 40.8938 27.4654 41.2001 27.2923 41.5113C27.1193 41.8126 26.966 42.0745 26.8424 42.2918C26.5902 42.7265 26.4468 42.9735 26.4468 42.9735C26.3479 43.1464 22.3231 49.1583 21.8089 48.8619C21.2947 48.5655 24.4888 42.0745 24.5877 41.9016C24.5877 41.9016 25.1415 40.9333 25.9672 39.481C26.1205 39.1698 26.1699 38.9525 26.1353 38.7944C26.1106 38.6067 25.9425 38.2905 25.6458 37.92C24.9882 37.1445 24.202 36.28 23.4604 35.4402C22.7088 34.5905 21.9572 33.7458 21.2502 32.9505C20.5678 32.1749 19.7322 31.3994 19.2575 30.3768C19.0153 29.8779 18.8867 29.3246 18.8669 28.8405C18.8472 28.3614 18.9114 27.976 18.9708 27.6796C19.0993 27.0918 19.2032 26.8152 19.2032 26.8152C19.2328 26.7114 19.9646 24.8293 21.0623 23.1942C22.1303 21.5394 23.5147 20.1957 23.7422 20.3785C23.9746 20.5613 23.0648 22.1816 22.4072 23.8957C21.715 25.595 21.2749 27.3734 21.2502 27.4623Z"
          fill="currentColor"/>
    <path d="M34.3005 3.11854C34.3005 3.11854 34.3994 3.3606 34.523 3.79037C34.6318 4.22508 34.7504 4.86726 34.6911 5.66258C34.6268 6.4579 34.3202 7.37672 33.7566 8.17204C33.1929 8.96736 32.3919 9.64413 31.4524 10.0788C30.5179 10.5086 29.44 10.6914 28.4462 10.5234C27.4474 10.3851 26.6069 9.93064 26.0036 9.44653C25.3806 8.9723 24.995 8.44374 24.7428 8.06831C24.5203 7.67311 24.3967 7.44588 24.3967 7.44588C24.4016 7.39648 24.189 6.99141 24.1148 6.33935C24.0209 5.70704 24.0506 4.80304 24.4511 4.0423C24.8367 3.27168 25.4943 2.75299 26.0135 2.5307C26.5475 2.32322 26.9134 2.31334 26.9727 2.44178C27.037 2.5801 26.7997 2.85179 26.5129 3.20252C26.2311 3.56807 25.9641 4.06206 25.885 4.55605C25.791 5.05004 25.9146 5.55885 26.0481 5.91452C26.1668 6.28007 26.3497 6.50236 26.3399 6.532C26.3596 6.50236 26.5574 7.17419 27.3337 7.76203C28.0605 8.39928 29.3659 8.70061 30.5575 8.12758C31.1459 7.85589 31.6601 7.41624 32.0062 6.93213C32.3474 6.43814 32.5205 5.92934 32.5551 5.46993C32.5897 5.00558 32.5155 4.60545 32.4512 4.33375C32.3721 4.06206 32.3128 3.91387 32.3128 3.91387C32.293 3.89411 32.2386 3.60759 32.0507 3.24204C31.8678 2.87649 31.5563 2.4319 31.136 2.14539C30.7207 1.84406 30.1817 1.73538 29.7169 1.76502C29.2571 1.76996 28.9011 1.85887 28.8121 1.71562C28.7429 1.61188 28.9456 1.26609 29.4648 0.969696C29.9642 0.653543 30.8789 0.470768 31.7343 0.757281C32.5946 1.01909 33.272 1.6267 33.6824 2.13551C34.1027 2.6542 34.2708 3.07903 34.3005 3.11854Z"
          fill="currentColor"/>
    <path d="M35.7384 28.218C35.7384 28.218 35.1945 28.6082 34.2748 29.0578C33.365 29.4925 31.9904 29.9469 30.5466 29.8975C29.1226 29.8728 27.7283 29.4036 26.8086 28.7811C26.3389 28.4847 25.9977 28.1587 25.7653 27.9265C25.5478 27.6746 25.4242 27.5313 25.4242 27.5313C25.4044 27.5066 25.2165 27.23 25.0385 26.8002C24.8358 26.3655 24.727 25.7974 24.6627 25.3133C24.5984 24.8243 24.5539 24.3945 24.4946 24.0635C24.4452 23.7326 24.3759 23.4806 24.4798 23.372C24.5737 23.2682 24.8803 23.3374 25.2066 23.6239C25.5379 23.9055 25.8494 24.3846 26.0966 24.8193C26.5713 25.7332 27.0707 26.1482 27.1102 26.2025C27.1102 26.2025 27.1844 26.2914 27.3179 26.4446C27.4662 26.5829 27.6739 26.7904 27.9854 26.988C28.5787 27.398 29.5775 27.7388 30.606 27.7586C31.6245 27.7981 32.6332 27.4671 33.3699 27.1213C34.0968 26.7657 34.5517 26.4446 34.5517 26.4446C34.5912 26.4199 35.4268 26 36.2625 25.4813C37.103 24.9774 37.9535 24.4093 38.176 24.6069C38.3985 24.7996 37.9386 25.7382 37.2909 26.5977C36.6481 27.4572 35.7878 28.1883 35.7384 28.218Z"
          fill="currentColor"/>
</svg>
