<svg width="56" height="33" viewBox="0 0 56 33" fill="none" xmlns="http://www.w3.org/2000/svg">
    <path d="M15.0048 5.62709C15.0048 5.62709 14.9455 5.47889 14.7972 5.24672C14.6538 5.01454 14.4214 4.68357 14.0654 4.402C13.3929 3.79439 12.1469 3.53258 10.9652 4.09572C9.77356 4.60947 9.01706 5.78022 8.96761 6.62988C8.91817 7.07447 8.98244 7.45978 9.04672 7.71666C9.11595 7.97353 9.17528 8.11185 9.17528 8.11185C9.19506 8.15137 9.41756 9.14922 10.2977 9.75683C10.718 10.068 11.247 10.2656 11.6772 10.3595C12.1074 10.4632 12.4436 10.4731 12.493 10.6164C12.5425 10.7448 12.2755 11.0264 11.7365 11.1894C11.2025 11.3623 10.4065 11.3821 9.64995 11.1301C8.8885 10.893 8.19627 10.3546 7.79577 9.86057C7.38538 9.36658 7.20738 8.95657 7.1876 8.91705C7.1876 8.91705 7.08376 8.67993 6.97004 8.24522C6.86126 7.81052 6.75248 7.17327 6.83654 6.39771C6.96015 4.79225 8.24077 2.93485 10.0801 2.14447C10.985 1.72458 12.0233 1.55169 13.0023 1.68506C13.9863 1.80362 14.8417 2.25315 15.4251 2.7422C16.0283 3.22631 16.3942 3.74993 16.6217 4.11548C16.8541 4.48598 16.948 4.71815 16.948 4.71815C16.9974 4.76261 17.6254 6.43229 17.1112 8.01305C16.8689 8.78367 16.4387 9.46044 15.9146 9.82599C15.3707 10.2113 14.8763 10.068 14.896 9.92479C14.896 9.77659 15.1532 9.61851 15.3114 9.24802C15.4844 8.88741 15.6179 8.29462 15.6179 7.75124C15.6179 7.19797 15.4844 6.65952 15.3262 6.27915C15.1729 5.8889 15.0197 5.65179 15.0048 5.62709Z"
          fill="currentColor"/>
    <path d="M42.95 32.5198C42.95 32.5198 35.3998 32.752 27.8446 32.8113C20.2894 32.8755 12.7343 32.7668 12.7343 32.7668C12.403 32.7965 0.506566 32.0357 0.531288 31.4182C0.551066 30.8502 12.4376 30.6526 12.7639 30.6229C12.7639 30.6229 20.2944 30.7316 27.8248 30.6674C35.3553 30.613 42.8857 30.3809 42.8857 30.3809C43.2121 30.4056 55.4941 30.3957 55.5238 30.9588C55.5584 31.5714 43.2813 32.5445 42.95 32.5198Z"
          fill="currentColor"/>
    <path d="M25.7436 6.31372C25.7436 6.31372 22.327 9.38139 19.2021 12.7405C18.3961 13.6 17.6297 14.3707 17.4814 15.0227C17.2836 15.7094 17.4023 16.7863 17.4122 17.6508C17.4665 19.3847 17.5061 20.5406 17.5061 20.5406C17.511 20.7431 17.2638 28.0492 16.6705 28.069C16.0771 28.0887 15.3651 20.8123 15.3602 20.6097C15.3602 20.6097 15.3256 19.4538 15.2662 17.7199C15.2514 17.2803 15.2366 16.806 15.2217 16.3022C15.2168 15.7736 15.2217 15.1413 15.4146 14.4448C15.6124 13.7285 16.0178 13.1011 16.4233 12.6071C16.8386 12.1033 17.2342 11.7081 17.6347 11.2734C20.8189 7.85003 24.2949 4.72308 24.2949 4.72308C24.369 4.65392 25.8969 3.42883 27.4939 2.33712C29.0861 1.23553 30.7425 0.277189 30.9205 0.509364C31.1034 0.741538 29.7931 2.11483 28.473 3.49305C27.1478 4.87128 25.8128 6.24457 25.7436 6.31372Z"
          fill="currentColor"/>
    <path d="M45.0703 23.3515C45.0703 23.3515 43.6117 24.1221 41.3817 25.2089C40.2692 25.7523 38.9639 26.3747 37.5497 27.007C36.8328 27.3232 36.1356 27.6542 35.3198 27.9753C34.5138 28.2865 33.5941 28.573 32.5509 28.573C31.4977 28.5878 30.4297 28.158 29.6781 27.6443C28.8969 27.1256 28.3036 26.5773 27.7152 26.0932C26.5384 25.1002 25.4456 24.1765 24.5062 23.3812C23.5717 22.6007 22.7657 21.8943 22.2713 21.5139C21.762 21.1335 21.4653 21.0051 21.5593 21.0495C21.5642 21.0644 21.5741 20.9903 21.4802 20.9705C21.4653 20.9754 21.4505 20.9952 21.4307 21.0248C21.4258 20.9804 21.4011 21.2126 21.3862 21.341C21.3664 21.4892 21.3467 21.6423 21.3269 21.7955C21.2428 22.408 21.1588 23.065 21.0698 23.7171C20.7039 26.3204 20.2688 28.8793 19.9721 28.8595C19.6754 28.8397 19.5765 26.2463 19.5518 23.6183C19.5518 22.9613 19.5469 22.3043 19.5469 21.6818C19.5469 21.5287 19.5469 21.3756 19.5469 21.2224C19.5518 21.0298 19.5518 20.847 19.5568 20.6642C19.5716 20.1208 19.5815 19.5775 19.6952 19.2119C19.715 19.1082 19.7397 19.0094 19.7595 18.9155L19.7892 18.7723C19.804 18.7278 19.7941 18.6586 19.8633 18.6784C20.0611 18.6784 20.249 18.6784 20.427 18.6784C20.7731 18.6735 21.0896 18.6833 21.3714 18.7426C21.9351 18.8464 22.296 19.0341 22.3553 19.0588C22.4493 19.0933 22.9091 19.3156 23.547 19.7998C24.1897 20.2937 24.9265 20.9458 25.8758 21.7411C26.8153 22.5364 27.9129 23.4602 29.0848 24.4531C30.2912 25.4757 31.3889 26.4785 32.541 26.4241C33.7623 26.434 35.2407 25.6535 36.6449 25.0459C38.0343 24.4185 39.3248 23.806 40.4225 23.2725C42.6178 22.2005 44.0616 21.4398 44.0616 21.4398C44.1902 21.3805 46.6575 20.2246 49.1099 19.0736C51.5624 17.9275 53.9901 16.7963 54.1434 17.0532C54.2917 17.3051 52.131 18.9056 49.8516 20.3975C47.592 21.9041 45.1988 23.2873 45.0703 23.3515Z"
          fill="currentColor"/>
    <path d="M40.6123 8.26999C40.6123 8.26999 38.2687 11.7279 35.925 15.1858C35.3316 16.0552 34.7383 16.9247 34.1845 17.7447C33.878 18.1843 33.3242 18.787 32.6072 19.0142C31.8952 19.2612 31.1733 19.1674 30.6739 18.9895C29.6603 18.619 29.1164 18.1152 28.7159 17.7941C28.3302 17.4631 28.1374 17.2606 28.1374 17.2606C28.0484 17.1766 27.0002 15.9367 25.863 14.7363C24.7455 13.526 23.5687 12.3701 23.7368 12.128C23.9049 11.886 25.4229 12.622 26.842 13.5804C27.554 14.0546 28.2412 14.5733 28.7555 14.9932C29.2697 15.4081 29.6158 15.7193 29.6356 15.7342C29.6356 15.7342 29.8086 15.907 30.1103 16.1738C30.4069 16.4257 30.8816 16.8012 31.3464 16.9592C31.5837 17.0432 31.7518 17.0383 31.8952 16.9938C32.0485 16.9494 32.1869 16.8357 32.4441 16.485C32.988 15.6848 33.5714 14.8302 34.1499 13.9756C36.4886 10.5275 38.8274 7.07948 38.8274 7.07948C38.9312 6.93128 43.139 1.57645 43.6334 1.90249C44.1328 2.21864 40.7162 8.11686 40.6123 8.26999Z"
          fill="currentColor"/>
    <path d="M45.8911 16.4949C45.8911 16.4949 45.1544 16.6728 44.0518 16.9395C43.498 17.0581 42.8503 17.1914 42.1531 17.3396C41.7477 17.4137 41.3323 17.4878 40.9071 17.5669C40.556 17.6212 40.1803 17.7052 39.844 17.7299L38.9244 17.7101C38.7118 17.7842 38.7859 17.4928 38.7315 17.3594L38.6574 16.8802C38.6079 16.569 38.5733 16.2479 38.598 15.8972C38.6079 15.5563 38.692 15.1957 38.7859 14.8549C38.87 14.5486 38.9343 14.4152 39.0134 14.2078C39.3348 13.4569 39.7105 12.869 40.0023 12.3948C40.5857 11.4414 40.9714 10.8091 40.9714 10.8091C41.0406 10.7004 43.8985 6.94613 44.4029 7.25734C44.9072 7.56855 42.8701 11.8168 42.8008 11.9305C42.8008 11.9305 42.4102 12.5628 41.8317 13.5162C41.54 13.9904 41.2186 14.5091 40.9912 15.0426C40.9516 15.1562 40.9071 15.2748 40.8577 15.3933C41.1543 15.339 41.4559 15.2797 41.7378 15.2303C42.4102 15.087 43.0382 14.9586 43.5722 14.845C44.6402 14.5881 45.3522 14.4152 45.3522 14.4152C45.4165 14.4053 46.618 14.2275 47.8492 14.0447C49.0655 13.8867 50.2917 13.7434 50.3906 14.025C50.4895 14.3016 49.4215 14.9586 48.2843 15.4971C47.1569 16.0503 45.9554 16.4801 45.8911 16.4949Z"
          fill="currentColor"/>
    <path d="M31.3789 5.38013L28.2144 10.1323C28.1798 10.1817 26.5333 11.7921 26.0389 11.4611C25.5444 11.1351 26.3949 8.99612 26.4295 8.94178L29.594 4.18962C29.6286 4.14022 31.3196 2.47054 31.8091 2.79657C32.3035 3.12754 31.4135 5.33073 31.3789 5.38013Z"
          fill="currentColor"/>
</svg>
