<svg width="47" height="52" viewBox="0 0 47 52" fill="none" xmlns="http://www.w3.org/2000/svg">
    <path d="M42.5807 11.6126C42.5758 11.6076 42.7291 11.5088 42.9318 11.2717C43.1444 11.0494 43.4163 10.6938 43.624 10.2344C43.8267 9.77495 43.9701 9.2118 43.8663 8.62889C43.7773 8.04599 43.4806 7.42356 43.001 6.92463C42.0517 5.87738 40.5436 5.52171 39.5943 5.76376C39.0949 5.8675 38.6993 6.06509 38.4422 6.21823C38.1851 6.37137 38.0565 6.48498 38.0565 6.48498C38.0219 6.51462 37.0034 7.09753 36.6424 8.19418C36.4446 8.73263 36.41 9.34024 36.4644 9.80952C36.5089 10.2838 36.6226 10.6246 36.499 10.7185C36.3952 10.8074 36.0243 10.6246 35.6881 10.1109C35.347 9.61193 35.0898 8.78697 35.1492 7.93237C35.1838 7.07283 35.5596 6.22317 35.9502 5.67978C36.3358 5.12652 36.7017 4.83012 36.7363 4.79554C36.7363 4.79554 36.944 4.61771 37.3495 4.37565C37.7549 4.1336 38.3631 3.83227 39.1641 3.66431C40.7908 3.26912 43.1147 3.85203 44.5734 5.45749C45.32 6.23305 45.8391 7.25561 45.9974 8.3078C46.1754 9.36493 45.9232 10.3727 45.5919 11.1087C45.2557 11.8546 44.8354 12.3832 44.519 12.7191C44.3657 12.892 44.2371 13.0204 44.1382 13.0995C44.0443 13.1835 43.9948 13.2279 43.9948 13.2279C43.9553 13.2872 42.467 14.4086 40.7117 14.4283C39.8563 14.4431 39.0256 14.2604 38.4719 13.8701C37.8835 13.4749 37.8439 12.9167 37.9922 12.8969C38.1356 12.8525 38.373 13.0698 38.813 13.1094C39.2481 13.1686 39.9107 13.1044 40.4942 12.9266C41.0826 12.7488 41.6215 12.4326 41.9824 12.1461C42.3483 11.8695 42.5609 11.6323 42.5807 11.6126Z"
          fill="currentColor"/>
    <path d="M18.427 39.0336C18.427 39.0336 18.3776 37.1417 18.3034 34.3062C18.2292 31.4904 18.1402 27.751 17.4431 24.1646C17.2601 23.2754 17.092 22.3467 16.8052 21.6206C16.5234 20.8746 16.1427 20.3658 15.5493 19.8768C14.9708 19.3976 14.2638 18.9925 13.5616 18.5776C12.8496 18.1528 12.1821 17.7329 11.5789 17.3327C9.166 15.7125 7.71232 14.4281 7.71232 14.4281C7.58376 14.3244 5.24997 12.2051 3.38095 9.75003C1.47733 7.31961 0.0879287 4.63231 0.335153 4.48411C0.592266 4.3211 2.40689 6.66754 4.52313 8.75217C6.6097 10.8664 8.97316 12.6942 9.09678 12.793C9.09678 12.793 10.4763 14.0181 12.7656 15.5544C13.3391 15.9397 13.972 16.3299 14.6494 16.74C15.3367 17.15 16.1328 17.5896 16.9189 18.2367C17.7101 18.8542 18.4567 19.857 18.8077 20.8648C19.1934 21.8774 19.3467 22.8111 19.5494 23.7694C20.296 27.5978 20.3751 31.441 20.4493 34.2667C20.5235 37.0873 20.5729 38.9645 20.5729 38.9645C20.5976 39.1275 20.5284 42.2544 20.8004 45.2925C20.9141 46.8189 21.1663 48.3157 21.3492 49.4469C21.5766 50.5633 21.7003 51.3389 21.5569 51.3932C21.4234 51.4476 21.0328 50.7708 20.5482 49.684C20.1081 48.5923 19.6137 47.0807 19.2972 45.5197C18.6248 42.3928 18.4517 39.1917 18.427 39.0336Z"
          fill="currentColor"/>
    <path d="M25.038 30.2751C25.038 30.2751 25.3149 33.8763 25.6956 37.4676C26.0714 41.0589 26.5461 44.6403 26.5461 44.6403C26.5461 44.7984 26.8873 50.5039 26.3137 50.5978C25.7154 50.6966 24.42 45.0849 24.42 44.9219C24.42 44.9219 23.9403 41.3108 23.5596 37.6899C23.174 34.069 22.8971 30.4381 22.8971 30.4381C22.8625 30.2801 22.9515 24.3325 23.5596 24.3028C24.1381 24.2781 25.0084 30.122 25.038 30.2751Z"
          fill="currentColor"/>
    <path d="M34.7641 29.9443C34.7394 29.9294 35.2882 30.1369 35.8717 30.1764C36.1634 30.1814 36.3364 30.1517 36.6331 29.9245C36.9298 29.6923 37.2709 29.2082 37.6566 28.566C38.4131 27.3113 39.3081 25.8145 39.3279 24.3276C39.3427 23.5965 39.1054 22.8852 38.6455 22.0948C38.1956 21.3192 37.5923 20.4547 37.0484 19.61C35.9359 17.9156 34.8234 16.2213 33.7801 14.6356C32.7418 13.04 31.7776 11.6321 30.8135 10.5947C29.8641 9.55243 28.9148 8.89048 28.2028 8.43107C27.4957 7.98154 27.0556 7.74443 27.0556 7.74443C26.8084 7.57647 15.7081 1.14475 15.9998 0.62112C16.2866 0.112312 27.7677 5.65486 28.1138 5.87716C28.1138 5.87716 28.5687 6.12415 29.3598 6.62308C30.1361 7.11706 31.2881 7.92227 32.3858 9.13748C33.4934 10.3329 34.5317 11.8643 35.5651 13.4549C36.6084 15.0406 37.7209 16.735 38.8334 18.4294C39.3872 19.2889 39.9509 20.0793 40.5046 21.0327C41.0535 21.9565 41.4935 23.1618 41.4639 24.3424C41.454 25.5132 41.098 26.5407 40.7173 27.4052C40.3266 28.2795 39.8816 29.0205 39.4762 29.6775C39.0757 30.3296 38.6455 31.036 37.9731 31.5843C37.3154 32.1573 36.3562 32.3697 35.7728 32.3154C34.5812 32.2117 34.1856 31.9795 34.1559 31.9993C34.0669 31.9696 33.1473 31.7029 31.921 31.1051C30.6948 30.5074 29.1818 29.559 27.8863 28.3833C26.581 27.2224 25.513 25.8491 24.8652 24.7426C24.2175 23.636 23.9604 22.8259 24.0791 22.7617C24.2175 22.6826 24.7219 23.3495 25.5377 24.2486C26.3535 25.1526 27.5155 26.2789 28.8357 27.2026C30.141 28.1412 31.5799 28.8624 32.7121 29.2971C33.8691 29.7417 34.685 29.9146 34.7641 29.9443Z"
          fill="currentColor"/>
    <path d="M35.1892 22.9494C35.1744 22.8852 35.2733 23.3841 35.2535 24.0115C35.2436 24.3276 35.2139 24.6981 35.1249 25.0291C35.0211 25.365 34.8678 25.5972 34.6256 25.7948C34.3586 26.0121 34.0075 26.0911 33.7949 26.0862C33.5526 26.0911 33.2362 26.0072 32.9642 25.8244C32.4203 25.449 32.0544 25.197 32.0544 25.197C32.0544 25.197 31.8468 25.0192 31.8072 24.9204C31.7281 24.7969 31.6243 24.6339 31.5353 24.4511C31.3572 24.0905 31.2188 23.6706 31.3919 23.4285C31.56 23.1865 32 23.1618 32.4005 23.2063C32.6033 23.226 32.7911 23.2655 32.9345 23.2952C33.1125 23.3545 33.068 23.2853 33.0779 23.2952L33.073 23.2655C33.068 23.2507 33.1472 22.9494 33.2411 22.5937C33.34 22.243 33.4438 21.828 33.7059 21.6947C33.9679 21.5613 34.3833 21.7984 34.6898 22.1491C34.9964 22.4949 35.1843 22.9296 35.1892 22.9494Z"
          fill="currentColor"/>
    <path d="M9.56788 6.98362C9.56788 6.98362 10.5568 7.7493 12.0451 8.89535C13.5432 10.0365 15.4716 11.6074 17.5285 12.8374C18.0427 13.1387 18.5866 13.4647 18.9525 13.5685C19.1453 13.6278 19.2689 13.6376 19.4222 13.6179C19.5805 13.5981 19.7881 13.5388 20.0304 13.4499C20.5693 13.2375 21.0935 13.03 21.5879 12.8374C21.845 12.7336 22.0873 12.6348 22.3098 12.5459C21.6522 11.9482 21.2171 11.5481 21.2171 11.5481C21.0589 11.3999 15.5556 5.72395 15.9561 5.28924C16.3567 4.85453 22.5076 9.82405 22.6708 9.96731C22.6708 9.96731 22.9031 10.1797 23.3086 10.5453C23.5311 10.7626 23.6547 10.8318 24.2876 11.469C24.7326 12.0124 24.7919 12.9658 24.2579 13.687C24.0157 14.0378 23.5459 14.3539 23.1603 14.5169C22.8586 14.6503 22.6411 14.7244 22.3889 14.8282C21.8846 15.0257 21.3506 15.2382 20.7968 15.4555C20.4902 15.5691 20.1243 15.6926 19.6843 15.747C19.2343 15.8062 18.7349 15.742 18.3443 15.6185C17.5285 15.3518 17.0044 14.9961 16.4407 14.675C14.1959 13.3264 12.233 11.721 10.7496 10.5897C9.26132 9.44368 8.27242 8.678 8.27242 8.678C8.09937 8.54462 1.9336 3.17991 2.29454 2.71062C2.6456 2.24627 9.39482 6.85024 9.56788 6.98362Z"
          fill="currentColor"/>
</svg>
