<svg width="51" height="58" viewBox="0 0 51 58" fill="none" xmlns="http://www.w3.org/2000/svg">
    <path d="M35.4554 5.52125C35.4554 5.52125 35.4405 5.33848 35.3466 5.03714C35.2576 4.73581 35.1093 4.30604 34.8027 3.88121C34.2539 3.00191 32.9436 2.31527 31.4751 2.5672C30.0115 2.75986 28.81 3.80711 28.4836 4.73581C28.2859 5.21498 28.2364 5.65463 28.2315 5.95596C28.2265 6.2573 28.2513 6.43019 28.2513 6.43019C28.2562 6.47465 28.2166 7.66022 29.0127 8.5741C29.3885 9.03845 29.9077 9.39906 30.3477 9.61147C30.7828 9.83871 31.1388 9.93751 31.1487 10.0906C31.1636 10.229 30.7927 10.4266 30.1747 10.4315C29.5615 10.4463 28.7259 10.2191 28.0139 9.72015C27.292 9.23604 26.7382 8.46542 26.4663 7.83312C26.1894 7.19587 26.1251 6.71176 26.1152 6.66731C26.1152 6.66731 26.0757 6.39067 26.0856 5.90162C26.1004 5.41751 26.1795 4.71605 26.496 3.93061C27.0992 2.29551 28.9929 0.729567 31.1537 0.443054C32.2266 0.270158 33.3638 0.398595 34.3429 0.828365C35.3318 1.24331 36.0932 1.96454 36.5629 2.64624C37.0475 3.33289 37.2749 3.98495 37.4084 4.43942C37.5419 4.89883 37.5716 5.16558 37.5716 5.16558C37.6062 5.2298 37.7842 7.15635 36.7904 8.6729C36.3157 9.41388 35.668 10.0067 35.0153 10.2388C34.3379 10.4908 33.8632 10.2092 33.9226 10.0758C33.9621 9.93257 34.2934 9.85847 34.595 9.51762C34.9065 9.19158 35.2428 8.5988 35.4257 8.01095C35.6136 7.41323 35.6383 6.78092 35.5938 6.31657C35.5543 5.8621 35.4603 5.55089 35.4554 5.52125Z"
          fill="currentColor"/>
    <path d="M38.7892 15.8356C38.7892 15.8356 38.3936 15.7714 37.7311 15.6232C37.1031 15.4701 36.1983 15.2478 35.1204 14.986C33.0783 14.492 30.2402 14.3932 27.3872 14.8328C24.5392 15.2379 21.706 16.0332 19.565 16.6211C18.4624 16.9076 17.7603 17.1644 17.3993 17.4361C17.0335 17.7029 16.8456 17.9449 16.8456 17.9449C16.811 17.9845 16.4599 18.3352 15.9753 19.0712C15.4858 19.8023 14.8727 20.7903 14.3239 21.8129C13.1965 23.8382 12.3856 26.0266 12.0989 25.9574C11.8071 25.8932 12.1087 23.5122 12.9345 21.2053C13.33 20.0493 13.8393 18.923 14.2695 18.0783C14.6898 17.2237 15.1694 16.6013 15.2238 16.547C15.2238 16.547 15.2979 16.463 15.4413 16.3049C15.5897 16.1518 15.8221 15.9245 16.1682 15.6825C16.8604 15.1687 17.9432 14.8279 18.9915 14.5562C21.1423 13.9683 24.0447 13.1483 27.0806 12.7136C30.1067 12.2443 33.2909 12.3431 35.5851 12.8964C36.668 13.1582 37.5728 13.3805 38.2008 13.5336C38.8089 13.6719 39.1452 13.7263 39.1452 13.7263C39.2045 13.7362 39.7978 13.8745 40.6977 14.0079C41.5927 14.1462 42.7991 14.2549 44.0254 14.3734C46.4729 14.6155 48.8858 14.9316 48.8809 15.228C48.8759 15.5244 46.4531 15.7418 43.9957 15.89C42.7695 15.9641 41.5086 16.0135 40.5247 15.9739C39.5506 15.9443 38.8584 15.8504 38.7892 15.8356Z"
          fill="currentColor"/>
    <path d="M12.1775 39.4633C12.7757 39.3843 13.3691 39.2904 13.9624 39.1867L14.8475 39.0237L15.1936 38.9496L16.133 36.7464L17.2604 34.0196C18.0021 32.1968 18.724 30.3641 19.431 28.5264C20.1331 26.6888 20.8204 24.8413 21.483 22.9888L22.368 20.4843C22.2939 20.5288 22.7092 20.2818 21.5374 20.7511C20.6523 21.1216 19.5546 21.7786 18.5905 22.6282C17.6312 23.4779 16.8401 24.5153 16.3308 25.355C15.8215 26.1948 15.5447 26.8172 15.3864 26.7777C15.2579 26.7481 15.2579 26.0367 15.5694 25.0142C15.8759 23.9966 16.5484 22.6974 17.4977 21.576C18.4471 20.4596 19.6436 19.5359 20.6573 18.9826C20.9144 18.8542 21.1517 18.7307 21.3643 18.622C21.4879 18.5627 21.5374 18.5429 21.7154 18.4738C21.8983 18.4046 22.0664 18.3404 22.2197 18.2811C22.8229 18.0835 23.1789 18.0292 23.2482 18.0045L24.598 17.7229C24.9837 17.6982 25.7847 17.2981 25.3941 17.9699C25.1221 18.8591 24.9243 19.6791 24.5832 20.6276L23.4954 23.7101C22.8279 25.5773 22.1357 27.4347 21.4286 29.2872C20.7215 31.1396 19.9897 32.9822 19.2431 34.8199L18.1059 37.5664L16.7214 40.8119L15.2579 41.1133L14.3283 41.2862C13.7053 41.3948 13.0823 41.4887 12.4593 41.5727C12.311 41.5974 9.37394 41.8691 6.49131 41.6616C3.60373 41.4936 0.83977 40.8613 0.879326 40.5699C0.918882 40.2735 3.70262 40.3673 6.48637 40.145C9.27505 39.982 12.0341 39.4831 12.1775 39.4633Z"
          fill="currentColor"/>
    <path d="M27.9253 46.3938C27.9253 46.3938 27.9945 46.0875 27.9204 45.5985C27.8561 45.0946 27.4951 44.3042 26.9018 43.1928C26.3431 42.106 25.6904 40.8364 24.9883 39.478C24.8894 39.2853 24.7856 39.0877 24.6817 38.8852L24.4592 39.0778C24.1873 39.3199 23.9252 39.5817 23.6829 39.8534C23.1934 40.4017 22.7732 41.0044 22.432 41.6367C22.0958 42.2443 21.8288 43.0248 21.3096 43.8201C20.7756 44.6253 19.9845 45.2576 19.1785 45.5985C18.3726 45.9541 17.5913 46.0727 16.909 46.127C15.5344 46.216 14.4763 46.0678 13.7495 45.9838C13.0325 45.8899 12.6221 45.8356 12.6221 45.8356C12.4738 45.8158 9.97685 45.3218 7.4156 45.2626C4.8692 45.1489 2.32279 45.4602 2.25356 45.1736C2.1794 44.8871 4.67636 44.0325 7.35133 43.751C10.0164 43.415 12.7804 43.6966 12.9089 43.7164C12.9089 43.7164 13.3094 43.7707 14.0066 43.8596C14.6939 43.9387 15.6729 44.0622 16.7458 43.993C17.8287 43.9239 18.9016 43.5781 19.5147 42.6395C19.846 42.1554 20.1081 41.4292 20.5383 40.629C20.9585 39.8485 21.4777 39.1075 22.076 38.4356C22.3776 38.0997 22.6941 37.7836 23.0303 37.4822L23.2824 37.2649C23.4011 37.1661 23.5939 37.008 23.7423 36.8993C24.0637 36.6672 24.3851 36.4399 24.7065 36.2325L25.191 35.9114C25.2701 35.8718 25.3641 35.7681 25.4234 35.7829L25.5668 36.0299C25.7547 36.3658 25.9475 36.6672 26.1255 37.0228C26.3826 37.5218 26.6348 38.0158 26.887 38.4999C27.5891 39.8583 28.2418 41.1279 28.8005 42.2147C29.3493 43.257 29.8932 44.3289 30.0267 45.2527C30.1009 45.7072 30.091 46.0875 30.0762 46.3246C30.0564 46.5667 30.0366 46.6902 30.0366 46.6902C30.0366 46.7742 29.8438 47.6732 29.3988 48.6414C28.9735 49.585 28.4148 50.8249 27.861 52.0598C26.7238 54.51 25.5322 56.896 25.2553 56.7922C24.9784 56.6885 25.6706 54.1099 26.442 51.5214C26.8425 50.2321 27.243 48.9378 27.5495 47.9499C27.8808 46.9816 27.9204 46.4481 27.9253 46.3938Z"
          fill="currentColor"/>
    <path d="M35.5303 19.7875C35.56 19.8024 34.9617 19.664 34.3338 19.6295C34.0025 19.6245 33.8195 19.6739 33.7009 19.8024C33.5377 19.9456 33.3449 20.4396 33.152 21.1756C32.7466 22.5983 32.2769 24.2581 31.7725 26.0414C31.2929 27.8247 30.6452 29.7315 30.3732 31.5148C29.7502 35.0765 31.7923 38.4998 33.2262 41.0192C33.597 41.6712 33.9382 42.264 34.2398 42.7926C34.5513 43.3607 34.8084 43.9485 34.9321 44.5018C35.0606 45.055 35.0507 45.5243 35.0309 45.8108C35.0112 46.1023 34.9864 46.2455 34.9864 46.2455C35.0013 46.6062 33.9926 49.6788 32.5488 52.5587C31.1347 55.4485 29.2855 58.0123 29.0333 57.8543C28.7811 57.7011 30.1409 54.9101 31.1495 51.9659C31.6687 50.4988 32.1186 49.0069 32.4301 47.8559C32.7664 46.6704 32.8653 45.9887 32.8653 45.9343C32.8653 45.9343 32.8752 45.8405 32.8949 45.6676C32.9048 45.4897 32.9098 45.2724 32.8455 44.9859C32.7812 44.6944 32.6279 44.3091 32.3609 43.8201C32.0643 43.3063 31.733 42.7234 31.372 42.0911C30.6353 40.8018 29.7354 39.2655 29.0283 37.4279C28.6773 36.509 28.3856 35.5062 28.2323 34.4491C28.079 33.392 28.0938 32.2657 28.2521 31.2135C28.5833 29.0893 29.236 27.2468 29.7107 25.4635C30.215 23.6851 30.6847 22.0204 31.0902 20.5977C31.2929 19.9209 31.4709 19.0515 32.1631 18.3155C32.5043 17.9548 32.9691 17.7079 33.3647 17.6041C33.7652 17.4954 34.1063 17.4856 34.3832 17.4905C35.4809 17.5597 35.8468 17.6881 35.8765 17.6733C36.0594 17.6634 39.2733 18.4785 42.4032 18.76C43.9755 18.9033 45.5281 18.8193 46.6851 18.602C47.8421 18.3994 48.6035 18.1277 48.6777 18.271C48.742 18.3846 48.0943 18.9231 46.9175 19.4022C45.7506 19.8913 44.0645 20.2272 42.3735 20.2717C38.9717 20.3655 35.6935 19.7727 35.5303 19.7875Z"
          fill="currentColor"/>
    <path d="M50.5808 46.9174C50.5808 46.9174 50.6302 47.2188 50.65 47.7128C50.6698 48.2117 50.6747 48.8588 50.6055 49.6937C50.5214 50.5186 50.3879 51.5214 49.8539 52.5884C49.3545 53.6554 48.158 54.7175 46.7834 54.8904C45.4237 55.093 44.2419 54.6879 43.2778 54.2581C42.3136 53.7938 41.5225 53.3047 40.8253 52.7021C40.138 52.1093 39.6831 51.393 39.4606 50.899C39.2282 50.3951 39.159 50.0889 39.159 50.0889C39.1442 50.0395 39.0057 49.5059 39.0354 48.7403C39.0552 47.9795 39.3172 46.9668 39.8859 46.1814C40.4297 45.3861 41.211 44.8427 41.8389 44.6056C42.4718 44.3635 42.9267 44.3981 42.9663 44.5315C43.0157 44.6797 42.6795 44.9168 42.2839 45.312C41.8884 45.7072 41.4483 46.2802 41.2159 46.9174C40.9687 47.5498 40.944 48.1969 41.0181 48.681C41.0923 49.1651 41.2209 49.4714 41.2308 49.501C41.2308 49.501 41.2703 49.6937 41.4137 49.995C41.562 50.3013 41.7895 50.6866 42.2543 51.0966C43.169 51.8771 45.0825 52.9984 46.4521 52.7761C47.1196 52.6724 47.624 52.2575 47.9503 51.6202C48.2766 50.978 48.4151 50.1876 48.4744 49.5109C48.5338 48.8292 48.5288 48.2068 48.514 47.8214C48.4991 47.4263 48.4596 47.2287 48.4596 47.2287C48.4497 47.1941 48.4497 46.8187 48.3211 46.3642C48.2025 45.9097 47.9157 45.4305 47.3322 45.0699C46.7735 44.7143 46.0566 44.571 45.5077 44.5957C44.9539 44.6056 44.5633 44.7637 44.4644 44.6352C44.3804 44.5364 44.6276 44.1067 45.2852 43.7905C45.928 43.4694 46.9614 43.3509 47.9404 43.6818C48.4299 43.8399 48.8996 44.1116 49.2903 44.4623C49.6858 44.8131 49.9627 45.2478 50.1407 45.6084C50.5017 46.3395 50.5659 46.868 50.5808 46.9174Z"
          fill="currentColor"/>
</svg>
