<svg width="20" height="20" viewBox="0 0 20 20" fill="none" xmlns="http://www.w3.org/2000/svg">
<path d="M4.4 12.4H3.6C3.17565 12.4 2.76869 12.2314 2.46863 11.9314C2.16857 11.6313 2 11.2243 2 10.8V3.6C2 3.17565 2.16857 2.76869 2.46863 2.46863C2.76869 2.16857 3.17565 2 3.6 2H10.8C11.2243 2 11.6313 2.16857 11.9314 2.46863C12.2314 2.76869 12.4 3.17565 12.4 3.6V4.4M9.2 7.6H16.4C17.2837 7.6 18 8.31634 18 9.2V16.4C18 17.2837 17.2837 18 16.4 18H9.2C8.31634 18 7.6 17.2837 7.6 16.4V9.2C7.6 8.31634 8.31634 7.6 9.2 7.6Z" stroke="currentColor" stroke-width="1.5" stroke-linecap="round" stroke-linejoin="round"/>
</svg>
