<svg width="21" height="17" viewBox="0 0 21 17" fill="none" xmlns="http://www.w3.org/2000/svg">
<path d="M20.0139 4.69789V13.5263C20.0139 15.0526 18.7762 16.2895 17.2488 16.2895H2.76508C2.03173 16.2895 1.32842 15.9984 0.809872 15.4802C0.29132 14.962 0 14.2592 0 13.5263V4.69789L9.68988 10.0242C9.88739 10.1326 10.127 10.1326 10.324 10.0242L20.0139 4.69737V4.69789ZM17.2488 0.5C17.9706 0.500067 18.6638 0.782186 19.1802 1.28609C19.6967 1.79 19.9955 2.47574 20.0128 3.19684L10.0069 8.69684L0.00105329 3.19632L0.00210682 3.14895C0.0316023 2.43645 0.335605 1.76294 0.850542 1.26925C1.36548 0.775564 2.05148 0.499934 2.76508 0.5H17.2488Z" fill="#E1EBF5"/>
</svg>
