<svg width="16" height="16" viewBox="0 0 16 16" fill="none" xmlns="http://www.w3.org/2000/svg">
<path d="M6.22916 12.5209L4.94182 12.1756L5.46649 10.2163C4.68114 9.9266 3.95124 9.50449 3.30849 8.96825L1.87316 10.4043L0.929823 9.46092L2.36582 8.02558C1.55521 7.05476 1.01055 5.89009 0.785156 4.64558L2.09716 4.40625C2.60316 7.20758 5.05382 9.33292 8.00116 9.33292C10.9478 9.33292 13.3992 7.20758 13.9052 4.40625L15.2172 4.64492C14.9921 5.88959 14.4476 7.0545 13.6372 8.02558L15.0725 9.46092L14.1292 10.4043L12.6938 8.96825C12.0511 9.50449 11.3212 9.9266 10.5358 10.2163L11.0605 12.1762L9.77316 12.5209L9.24782 10.5609C8.42273 10.7023 7.57959 10.7023 6.75449 10.5609L6.22916 12.5209Z" fill="currentColor"/>
</svg>
