<svg width="22" height="28" viewBox="0 0 22 28" fill="none" xmlns="http://www.w3.org/2000/svg">
<path fill-rule="evenodd" clip-rule="evenodd" d="M19.4118 28H2.58824C1.15888 28 0 26.9098 0 25.5652V2.43478C0 1.09017 1.15888 0 2.58824 0H14.8649C14.8662 0 14.8681 0 14.8694 0H14.8824C15.0894 0 15.2661 0.098 15.3845 0.240435L21.7444 6.2233C21.8965 6.3347 22 6.50087 22 6.69565V6.70843C22 6.70965 22 6.71026 22 6.71148V25.5652C22 26.9098 20.8411 28 19.4118 28ZM15.5294 2.058V6.08696H19.8123L15.5294 2.058ZM20.7059 7.30435H14.8824C14.5245 7.30435 14.2353 7.03165 14.2353 6.69565V1.21739H2.58824C1.87388 1.21739 1.29412 1.76278 1.29412 2.43478V25.5652C1.29412 26.2372 1.87388 26.7826 2.58824 26.7826H19.4118C20.1261 26.7826 20.7059 26.2372 20.7059 25.5652V7.30435Z" fill="#CCCCCC"/>
</svg>
