<svg width="23" height="23" viewBox="0 0 23 23" fill="none" xmlns="http://www.w3.org/2000/svg">
<g clip-path="url(#clip0_4_21445)">
<path d="M19.487 4.77376L15.1555 0.675894C14.6948 0.240018 14.0918 0 13.4576 0H5.21094C3.84859 0 2.74023 1.10836 2.74023 2.4707V20.5293C2.74023 21.8916 3.84859 23 5.21094 23H17.7891C19.1514 23 20.2598 21.8916 20.2598 20.5293V6.56857C20.2598 5.89254 19.9781 5.23834 19.487 4.77376ZM18.1781 5.39062H14.8242C14.7004 5.39062 14.5996 5.28987 14.5996 5.16602V2.00513L18.1781 5.39062ZM17.7891 21.6523H5.21094C4.59169 21.6523 4.08789 21.1485 4.08789 20.5293V2.4707C4.08789 1.85146 4.59169 1.34766 5.21094 1.34766H13.252V5.16602C13.252 6.03296 13.9573 6.73828 14.8242 6.73828H18.9121V20.5293C18.9121 21.1485 18.4083 21.6523 17.7891 21.6523Z" fill="#2C4CA3"/>
<path d="M16.3066 8.98438H6.42383C6.0517 8.98438 5.75 9.28607 5.75 9.6582C5.75 10.0303 6.0517 10.332 6.42383 10.332H16.3066C16.6788 10.332 16.9805 10.0303 16.9805 9.6582C16.9805 9.28607 16.6788 8.98438 16.3066 8.98438Z" fill="#2C4CA3"/>
<path d="M16.3066 12.5781H6.42383C6.0517 12.5781 5.75 12.8798 5.75 13.252C5.75 13.6241 6.0517 13.9258 6.42383 13.9258H16.3066C16.6788 13.9258 16.9805 13.6241 16.9805 13.252C16.9805 12.8798 16.6788 12.5781 16.3066 12.5781Z" fill="#2C4CA3"/>
<path d="M9.69055 16.1719H6.42383C6.0517 16.1719 5.75 16.4736 5.75 16.8457C5.75 17.2178 6.0517 17.5195 6.42383 17.5195H9.69055C10.0627 17.5195 10.3644 17.2178 10.3644 16.8457C10.3644 16.4736 10.0627 16.1719 9.69055 16.1719Z" fill="#2C4CA3"/>
</g>
<defs>
<clipPath id="clip0_4_21445">
<rect width="23" height="23" fill="white"/>
</clipPath>
</defs>
</svg>
