<svg width="13" height="16" viewBox="0 0 13 16" fill="none" xmlns="http://www.w3.org/2000/svg">
<path fill-rule="evenodd" clip-rule="evenodd" d="M12.3794 10.5041C12.3794 14.2066 9.14657 15.0734 8.32563 15.2337C8.26126 15.2466 8.22563 15.2544 8.16407 15.2616C8.13938 15.2644 8.08063 15.2656 8.04376 15.2656L5.06251 15.2634C5.02469 15.2634 4.89938 15.2584 4.89313 15.2581C4.77094 15.2491 4.52719 15.2269 4.21501 15.1722C3.03751 14.9687 0.887506 14.3266 0.653131 12.3325C0.457194 10.6637 1.17032 9.83062 2.06594 8.71687C2.78782 7.81906 2.22219 6.49062 2.21782 6.47812C2.23657 6.48812 3.43438 7.14687 3.72032 7.71062C3.86678 7.9777 3.98412 8.25973 4.07032 8.55187C4.06469 8.50594 3.81407 6.43875 4.88282 5.04875C5.96376 3.6425 6.19063 3.21156 6.21094 2.4925C6.16743 1.8818 6.00758 1.28505 5.74001 0.734375C6.7851 1.39734 7.67079 2.28303 8.33376 3.32812C8.85033 4.1478 9.1372 5.0912 9.16438 6.05969C9.44438 5.78145 9.66313 5.44775 9.80657 5.08C9.916 4.65762 9.93959 4.21759 9.87594 3.78594L10.5366 4.91094C11.2781 6.26937 12.3794 8.60375 12.3794 10.5041Z" fill="#D75C1E"/>
<path fill-rule="evenodd" clip-rule="evenodd" d="M12.3794 10.5039C12.3794 8.60355 11.2781 6.26918 10.5356 4.9123L9.87501 3.7873C9.93866 4.21896 9.91507 4.65899 9.80563 5.08137C9.66241 5.44923 9.44364 5.78298 9.16345 6.06105C9.13629 5.09266 8.84941 4.14935 8.33282 3.3298C8.06374 2.92292 7.76446 2.53683 7.43751 2.1748C7.36938 2.76668 7.08126 3.24855 6.12501 4.49074C5.05563 5.88074 5.30657 7.94793 5.31251 7.99387C5.22622 7.7017 5.10899 7.41958 4.96282 7.1523C4.77306 6.85882 4.52436 6.60799 4.23251 6.41574C4.05468 7.11287 3.99949 7.83563 4.06938 8.55168C3.98309 8.25951 3.86587 7.9774 3.71969 7.71011C3.68906 7.65133 3.65297 7.59557 3.61188 7.54355C3.55614 7.76814 3.45252 7.97804 3.30813 8.15886C2.41251 9.27261 1.69938 10.1057 1.89532 11.7745C2.12969 13.7685 4.27938 14.411 5.45782 14.6142C5.7104 14.6595 5.96542 14.69 6.22157 14.7054L9.38032 14.7076H9.3822L9.4222 14.7017C9.6837 14.6585 9.94161 14.5958 10.1938 14.5142C11.2759 13.8623 12.3794 12.667 12.3794 10.5039Z" fill="#FF6600"/>
<path d="M9.38995 12.9225C9.39182 11.5128 8.15808 9.61777 8.15808 9.61777C8.18939 9.83021 8.17781 10.0468 8.12401 10.2546C8.05342 10.4355 7.94581 10.5997 7.80808 10.7365C7.79445 10.2601 7.6533 9.79608 7.39933 9.39277C7.07331 8.8783 6.63747 8.44235 6.12308 8.11621C6.172 8.55506 6.15854 8.99863 6.08308 9.43371C5.86683 10.4425 5.18745 10.9262 4.35371 11.8218C4.00371 12.2228 3.50527 13.004 3.62058 13.8218C3.63859 13.9532 3.67108 14.0823 3.71746 14.2065C3.76669 14.3345 3.82292 14.4597 3.88589 14.5815C3.98254 14.7706 4.12576 14.9319 4.30203 15.0503C4.4783 15.1686 4.68182 15.2402 4.89339 15.2581C4.89964 15.2581 5.02495 15.2634 5.06277 15.2634L8.0437 15.2656C8.08058 15.2656 8.13933 15.2656 8.16401 15.2615L8.18026 15.2593C8.2987 15.2159 9.38745 14.7681 9.38995 12.9225Z" fill="#FF8300"/>
<path fill-rule="evenodd" clip-rule="evenodd" d="M8.15815 9.61856C8.18945 9.83089 8.17787 10.0473 8.12409 10.2551C8.05354 10.4361 7.94593 10.6004 7.80815 10.7373C7.79449 10.2609 7.65334 9.79687 7.3994 9.39356C7.34815 9.31637 7.29627 9.24293 7.24315 9.1748C6.96659 9.99074 6.34315 10.4629 5.59565 11.2661C5.24565 11.6673 4.74721 12.4482 4.86252 13.2661C4.86534 13.2864 4.8719 13.3182 4.88221 13.3598C4.98026 13.7377 5.19973 14.0729 5.50688 14.3139C5.81403 14.5549 6.19185 14.6883 6.58221 14.6936L7.28971 14.7079H7.57596C8.0485 14.7122 8.50371 14.5302 8.84296 14.2012C9.18222 13.8723 9.37821 13.4229 9.38846 12.9504V12.9245C9.3919 11.5136 8.15815 9.61856 8.15815 9.61856Z" fill="#FFA511"/>
</svg>
