<svg width="24" height="24" viewBox="0 0 24 24" fill="none" xmlns="http://www.w3.org/2000/svg">
    <path d="M12 19C15.866 19 19 15.866 19 12C19 8.13401 15.866 5 12 5C8.13401 5 5 8.13401 5 12C5 15.866 8.13401 19 12 19Z"
          stroke="currentColor" stroke-width="2" stroke-linecap="round" stroke-linejoin="round"/>
    <path d="M12 9V12L13.5 13.5" stroke="currentColor" stroke-width="2" stroke-linecap="round" stroke-linejoin="round"/>
    <path d="M7.48975 6.65002L7.83975 2.82002C7.88465 2.32309 8.11368 1.8609 8.48186 1.52417C8.85005 1.18744 9.3308 1.00049 9.82975 1.00002H14.1797C14.6804 0.997985 15.1636 1.18381 15.5339 1.52079C15.9042 1.85776 16.1347 2.32137 16.1797 2.82002L16.5297 6.65002M16.5297 18L16.1597 21.18C16.1147 21.6787 15.8842 22.1423 15.5139 22.4792C15.1436 22.8162 14.6604 23.002 14.1597 23H9.82975C9.32908 23.002 8.84585 22.8162 8.47555 22.4792C8.10525 22.1423 7.8748 21.6787 7.82975 21.18L7.48974 18L11.9998 19L16.5297 18Z"
          stroke="currentColor" stroke-width="1.8" stroke-linecap="round" stroke-linejoin="round"/>
</svg>
