<svg width="20" height="21" viewBox="0 0 20 21" fill="none" xmlns="http://www.w3.org/2000/svg">
<path d="M6.66797 2.58337L4.16797 3.41671L1.66797 5.08337V10.5L6.2513 15.0834L10.0013 18L15.8346 13L17.918 9.66671V5.91671L16.2513 3.41671L12.918 3.00004L10.418 5.08337L9.58464 4.25004L6.66797 2.58337Z" fill="currentColor"/>
<path d="M10.0007 18.8334C9.73965 18.8334 9.48802 18.7367 9.29192 18.5612C8.55129 17.8995 7.83725 17.2776 7.20726 16.7291L7.20405 16.7262C5.35703 15.1179 3.76207 13.729 2.65232 12.3608C1.4118 10.8312 0.833984 9.38092 0.833984 7.79661C0.833984 6.25732 1.35053 4.83722 2.28838 3.79774C3.23741 2.74596 4.53962 2.16669 5.95555 2.16669C7.01382 2.16669 7.98299 2.50856 8.83607 3.18273C9.2666 3.52304 9.65685 3.93952 10.0007 4.42532C10.3446 3.93952 10.7347 3.52304 11.1654 3.18273C12.0184 2.50856 12.9876 2.16669 14.0459 2.16669C15.4617 2.16669 16.764 2.74596 17.7131 3.79774C18.6509 4.83722 19.1673 6.25732 19.1673 7.79661C19.1673 9.38092 18.5896 10.8312 17.3491 12.3606C16.2394 13.729 14.6445 15.1178 12.7978 16.7259C12.1667 17.2753 11.4515 17.8982 10.7092 18.5615C10.5133 18.7367 10.2615 18.8334 10.0007 18.8334ZM5.95555 3.26406C4.84314 3.26406 3.82124 3.7177 3.07781 4.54151C2.32334 5.37776 1.90778 6.53373 1.90778 7.79661C1.90778 9.12909 2.39244 10.3208 3.47911 11.6606C4.52941 12.9556 6.09164 14.316 7.90047 15.8911L7.90383 15.894C8.53619 16.4447 9.25303 17.069 9.99911 17.7356C10.7497 17.0677 11.4676 16.4424 12.1013 15.8908C13.9099 14.3157 15.472 12.9556 16.5223 11.6606C17.6089 10.3208 18.0935 9.12909 18.0935 7.79661C18.0935 6.53373 17.678 5.37776 16.9235 4.54151C16.1802 3.7177 15.1582 3.26406 14.0459 3.26406C13.231 3.26406 12.4828 3.52875 11.8222 4.05071C11.2335 4.51607 10.8234 5.10435 10.5829 5.51597C10.4593 5.72764 10.2417 5.85399 10.0007 5.85399C9.75965 5.85399 9.54201 5.72764 9.41836 5.51597C9.17806 5.10435 8.76796 4.51607 8.17909 4.05071C7.51848 3.52875 6.7703 3.26406 5.95555 3.26406Z" fill="currentColor"/>
</svg>
