<svg width="20" height="18" viewBox="0 0 20 18" fill="none" xmlns="http://www.w3.org/2000/svg">
<path d="M6.66797 1.08337L4.16797 1.91671L1.66797 3.58337V9.00004L6.2513 13.5834L10.0013 16.5L15.8346 11.5L17.918 8.16671V4.41671L16.2513 1.91671L12.918 1.50004L10.418 3.58337L9.58464 2.75004L6.66797 1.08337Z" fill="currentColor"/>
<path d="M10.0007 17.3334C9.73965 17.3334 9.48802 17.2367 9.29192 17.0612C8.55129 16.3995 7.83725 15.7776 7.20726 15.2291L7.20405 15.2262C5.35703 13.6179 3.76207 12.229 2.65232 10.8608C1.4118 9.33118 0.833984 7.88092 0.833984 6.29661C0.833984 4.75732 1.35053 3.33722 2.28838 2.29774C3.23741 1.24596 4.53962 0.666687 5.95555 0.666687C7.01382 0.666687 7.98299 1.00856 8.83607 1.68273C9.2666 2.02304 9.65685 2.43952 10.0007 2.92532C10.3446 2.43952 10.7347 2.02304 11.1654 1.68273C12.0184 1.00856 12.9876 0.666687 14.0459 0.666687C15.4617 0.666687 16.764 1.24596 17.7131 2.29774C18.6509 3.33722 19.1673 4.75732 19.1673 6.29661C19.1673 7.88092 18.5896 9.33118 17.3491 10.8606C16.2394 12.229 14.6445 13.6178 12.7978 15.2259C12.1667 15.7753 11.4515 16.3982 10.7092 17.0615C10.5133 17.2367 10.2615 17.3334 10.0007 17.3334ZM5.95555 1.76406C4.84314 1.76406 3.82124 2.2177 3.07781 3.04151C2.32334 3.87776 1.90778 5.03373 1.90778 6.29661C1.90778 7.62909 2.39244 8.82079 3.47911 10.1606C4.52941 11.4556 6.09164 12.816 7.90047 14.3911L7.90383 14.394C8.53619 14.9447 9.25303 15.569 9.99911 16.2356C10.7497 15.5677 11.4676 14.9424 12.1013 14.3908C13.9099 12.8157 15.472 11.4556 16.5223 10.1606C17.6089 8.82079 18.0935 7.62909 18.0935 6.29661C18.0935 5.03373 17.678 3.87776 16.9235 3.04151C16.1802 2.2177 15.1582 1.76406 14.0459 1.76406C13.231 1.76406 12.4828 2.02875 11.8222 2.55071C11.2335 3.01607 10.8234 3.60435 10.5829 4.01597C10.4593 4.22764 10.2417 4.35399 10.0007 4.35399C9.75965 4.35399 9.54201 4.22764 9.41836 4.01597C9.17806 3.60435 8.76796 3.01607 8.17909 2.55071C7.51848 2.02875 6.7703 1.76406 5.95555 1.76406Z" fill="currentColor"/>
</svg>
