<svg width="20" height="20" viewBox="0 0 20 20" fill="none" xmlns="http://www.w3.org/2000/svg">
<path d="M9.99984 18.3337C14.6022 18.3337 18.3332 14.6027 18.3332 10.0003C18.3332 5.39795 14.6022 1.66699 9.99984 1.66699C5.39746 1.66699 1.6665 5.39795 1.6665 10.0003C1.6665 14.6027 5.39746 18.3337 9.99984 18.3337Z" stroke="currentColor" stroke-width="1.66667" stroke-linecap="round" stroke-linejoin="round"/>
<path d="M7.5752 7.4995C7.77112 6.94255 8.15782 6.47292 8.66682 6.17378C9.17583 5.87463 9.77427 5.76528 10.3562 5.86509C10.9381 5.9649 11.4659 6.26744 11.8461 6.7191C12.2263 7.17077 12.4344 7.74243 12.4335 8.33283C12.4335 9.9995 9.93353 10.8328 9.93353 10.8328" stroke="currentColor" stroke-width="1.5" stroke-linecap="round" stroke-linejoin="round"/>
<path d="M10 14.167H10.0083" stroke="currentColor" stroke-width="1.5" stroke-linecap="round" stroke-linejoin="round"/>
</svg>
