<svg width="20" height="20" viewBox="0 0 20 20" fill="none" xmlns="http://www.w3.org/2000/svg">
<path d="M10.0003 18.3327C14.6027 18.3327 18.3337 14.6017 18.3337 9.99935C18.3337 5.39698 14.6027 1.66602 10.0003 1.66602C5.39795 1.66602 1.66699 5.39698 1.66699 9.99935C1.66699 14.6017 5.39795 18.3327 10.0003 18.3327Z" fill="#FFEE4B" stroke="#FFEE4B" stroke-width="1.66667" stroke-linecap="round" stroke-linejoin="round"/>
<path d="M7.5752 7.50047C7.77112 6.94353 8.15782 6.4739 8.66682 6.17475C9.17583 5.87561 9.77427 5.76626 10.3562 5.86607C10.9381 5.96588 11.4659 6.26841 11.8461 6.72008C12.2263 7.17175 12.4344 7.74341 12.4335 8.33381C12.4335 10.0005 9.93353 10.8338 9.93353 10.8338" stroke="#051138" stroke-width="1.66667" stroke-linecap="round" stroke-linejoin="round"/>
<path d="M10 14.166H10.0083" stroke="#051138" stroke-width="1.66667" stroke-linecap="round" stroke-linejoin="round"/>
</svg>
