<svg width="23" height="23" viewBox="0 0 23 23" fill="none" xmlns="http://www.w3.org/2000/svg">
<path d="M0 0.75C0 0.551088 0.0790176 0.360322 0.21967 0.21967C0.360322 0.0790176 0.551088 0 0.75 0H3C3.1673 4.62172e-05 3.32978 0.056026 3.4616 0.159037C3.59342 0.262048 3.68701 0.406176 3.7275 0.5685L4.335 3H21.75C21.8601 3.0001 21.9689 3.02445 22.0685 3.07133C22.1682 3.1182 22.2563 3.18644 22.3266 3.27121C22.3969 3.35597 22.4477 3.45518 22.4753 3.56178C22.5029 3.66838 22.5068 3.77976 22.4865 3.888L20.2365 15.888C20.2043 16.0599 20.1131 16.2151 19.9786 16.3268C19.8442 16.4386 19.6749 16.4998 19.5 16.5H6C5.82515 16.4998 5.65585 16.4386 5.52137 16.3268C5.38688 16.2151 5.29567 16.0599 5.2635 15.888L3.015 3.9105L2.415 1.5H0.75C0.551088 1.5 0.360322 1.42098 0.21967 1.28033C0.0790176 1.13968 0 0.948912 0 0.75ZM7.5 16.5C6.70435 16.5 5.94129 16.8161 5.37868 17.3787C4.81607 17.9413 4.5 18.7044 4.5 19.5C4.5 20.2956 4.81607 21.0587 5.37868 21.6213C5.94129 22.1839 6.70435 22.5 7.5 22.5C8.29565 22.5 9.05871 22.1839 9.62132 21.6213C10.1839 21.0587 10.5 20.2956 10.5 19.5C10.5 18.7044 10.1839 17.9413 9.62132 17.3787C9.05871 16.8161 8.29565 16.5 7.5 16.5ZM18 16.5C17.2044 16.5 16.4413 16.8161 15.8787 17.3787C15.3161 17.9413 15 18.7044 15 19.5C15 20.2956 15.3161 21.0587 15.8787 21.6213C16.4413 22.1839 17.2044 22.5 18 22.5C18.7957 22.5 19.5587 22.1839 20.1213 21.6213C20.6839 21.0587 21 20.2956 21 19.5C21 18.7044 20.6839 17.9413 20.1213 17.3787C19.5587 16.8161 18.7957 16.5 18 16.5ZM7.5 18C7.89783 18 8.27936 18.158 8.56066 18.4393C8.84196 18.7206 9 19.1022 9 19.5C9 19.8978 8.84196 20.2794 8.56066 20.5607C8.27936 20.842 7.89783 21 7.5 21C7.10218 21 6.72065 20.842 6.43934 20.5607C6.15804 20.2794 6 19.8978 6 19.5C6 19.1022 6.15804 18.7206 6.43934 18.4393C6.72065 18.158 7.10218 18 7.5 18ZM18 18C18.3978 18 18.7794 18.158 19.0607 18.4393C19.342 18.7206 19.5 19.1022 19.5 19.5C19.5 19.8978 19.342 20.2794 19.0607 20.5607C18.7794 20.842 18.3978 21 18 21C17.6022 21 17.2206 20.842 16.9393 20.5607C16.658 20.2794 16.5 19.8978 16.5 19.5C16.5 19.1022 16.658 18.7206 16.9393 18.4393C17.2206 18.158 17.6022 18 18 18Z" fill="#C3C3C3" fill-opacity="0.5"/>
</svg>
