<svg width="24" height="25" viewBox="0 0 24 25" fill="none" xmlns="http://www.w3.org/2000/svg">
<path d="M12.744 12.5C13.3407 12.5 13.913 12.7371 14.335 13.159C14.7569 13.581 14.994 14.1533 14.994 14.75L14.9925 15.872C15.147 18.6275 13.0245 20.0015 9.09 20.0015C5.169 20 3 18.6455 3 15.9125V14.75C3 14.1533 3.23705 13.581 3.65901 13.159C4.08097 12.7371 4.65326 12.5 5.25 12.5H12.744ZM18.744 12.5C19.3407 12.5 19.913 12.7371 20.335 13.159C20.7569 13.581 20.994 14.1533 20.994 14.75V15.5405C21.129 18.011 19.254 19.25 15.828 19.25C15.363 19.25 14.925 19.2275 14.517 19.1825C14.952 18.7805 15.2775 18.302 15.4845 17.7455L15.828 17.75C18.504 17.75 19.5735 17.0435 19.494 15.581V14.75C19.494 14.5511 19.415 14.3603 19.2743 14.2197C19.1337 14.079 18.9429 14 18.744 14H15.6495C15.499 13.419 15.1776 12.8965 14.727 12.5H18.744ZM12.744 14H5.25C5.05109 14 4.86032 14.079 4.71967 14.2197C4.57902 14.3603 4.5 14.5511 4.5 14.75V15.9125C4.5 17.63 5.892 18.5 9.09 18.5C12.276 18.5 13.59 17.6495 13.494 15.9125V14.75C13.494 14.5511 13.415 14.3603 13.2743 14.2197C13.1337 14.079 12.9429 14 12.744 14ZM9 3.5C9.99456 3.5 10.9484 3.89509 11.6517 4.59835C12.3549 5.30161 12.75 6.25544 12.75 7.25C12.75 8.24456 12.3549 9.19839 11.6517 9.90165C10.9484 10.6049 9.99456 11 9 11C8.00544 11 7.05161 10.6049 6.34835 9.90165C5.64509 9.19839 5.25 8.24456 5.25 7.25C5.25 6.25544 5.64509 5.30161 6.34835 4.59835C7.05161 3.89509 8.00544 3.5 9 3.5ZM16.5 5C17.2956 5 18.0587 5.31607 18.6213 5.87868C19.1839 6.44129 19.5 7.20435 19.5 8C19.5 8.79565 19.1839 9.55871 18.6213 10.1213C18.0587 10.6839 17.2956 11 16.5 11C15.7044 11 14.9413 10.6839 14.3787 10.1213C13.8161 9.55871 13.5 8.79565 13.5 8C13.5 7.20435 13.8161 6.44129 14.3787 5.87868C14.9413 5.31607 15.7044 5 16.5 5ZM9 5C8.40326 5 7.83097 5.23705 7.40901 5.65901C6.98705 6.08097 6.75 6.65326 6.75 7.25C6.75 7.84674 6.98705 8.41903 7.40901 8.84099C7.83097 9.26295 8.40326 9.5 9 9.5C9.59674 9.5 10.169 9.26295 10.591 8.84099C11.0129 8.41903 11.25 7.84674 11.25 7.25C11.25 6.65326 11.0129 6.08097 10.591 5.65901C10.169 5.23705 9.59674 5 9 5ZM16.5 6.5C16.1022 6.5 15.7206 6.65804 15.4393 6.93934C15.158 7.22064 15 7.60218 15 8C15 8.39782 15.158 8.77936 15.4393 9.06066C15.7206 9.34196 16.1022 9.5 16.5 9.5C16.8978 9.5 17.2794 9.34196 17.5607 9.06066C17.842 8.77936 18 8.39782 18 8C18 7.60218 17.842 7.22064 17.5607 6.93934C17.2794 6.65804 16.8978 6.5 16.5 6.5Z" fill="#1E3577" fill-opacity="0.5"/>
</svg>
