<svg width="24" height="25" viewBox="0 0 24 25" fill="none" xmlns="http://www.w3.org/2000/svg">
<path d="M21.6328 7.14677C21.3187 6.41936 20.8657 5.76018 20.2992 5.20614C19.7323 4.65046 19.064 4.20886 18.3305 3.90536C17.5699 3.58941 16.7541 3.42769 15.9305 3.42958C14.775 3.42958 13.6477 3.74599 12.668 4.34364C12.4336 4.48661 12.2109 4.64364 12 4.81474C11.7891 4.64364 11.5664 4.48661 11.332 4.34364C10.3523 3.74599 9.225 3.42958 8.06953 3.42958C7.2375 3.42958 6.43125 3.58896 5.66953 3.90536C4.93359 4.21005 4.27031 4.64833 3.70078 5.20614C3.13359 5.75956 2.6805 6.41889 2.36719 7.14677C2.04141 7.9038 1.875 8.70771 1.875 9.53505C1.875 10.3155 2.03438 11.1288 2.35078 11.9561C2.61563 12.6475 2.99531 13.3647 3.48047 14.089C4.24922 15.235 5.30625 16.4304 6.61875 17.6421C8.79375 19.6507 10.9477 21.0382 11.0391 21.0944L11.5945 21.4507C11.8406 21.6077 12.157 21.6077 12.4031 21.4507L12.9586 21.0944C13.05 21.0358 15.2016 19.6507 17.3789 17.6421C18.6914 16.4304 19.7484 15.235 20.5172 14.089C21.0023 13.3647 21.3844 12.6475 21.6469 11.9561C21.9633 11.1288 22.1227 10.3155 22.1227 9.53505C22.125 8.70771 21.9586 7.9038 21.6328 7.14677Z" fill="#1E3577" fill-opacity="0.5"/>
</svg>
