<svg width="22" height="22" viewBox="0 0 22 22" fill="none" xmlns="http://www.w3.org/2000/svg">
<path d="M0 2.59995V19.4C0 20.0365 0.252856 20.6469 0.702944 21.097C1.15303 21.5471 1.76348 21.7999 2.4 21.7999H19.2C20.52 21.7999 21.6 20.7199 21.6 19.4V2.59995C21.6 1.27995 20.52 0.199951 19.2 0.199951H2.4C1.76348 0.199951 1.15303 0.452807 0.702944 0.902895C0.252856 1.35298 0 1.96343 0 2.59995ZM14.4 7.39995C14.4 9.39195 12.792 11 10.8 11C8.808 11 7.2 9.39195 7.2 7.39995C7.2 5.40795 8.808 3.79995 10.8 3.79995C12.792 3.79995 14.4 5.40795 14.4 7.39995ZM3.6 17C3.6 14.6 8.4 13.28 10.8 13.28C13.2 13.28 18 14.6 18 17V18.1999H3.6V17Z" fill="#C3C3C3" fill-opacity="0.5"/>
</svg>
