<svg width="20" height="20" viewBox="0 0 20 20" fill="none" xmlns="http://www.w3.org/2000/svg">
    <path fill-rule="evenodd" clip-rule="evenodd"
          d="M9.9987 0.833252C4.9362 0.833252 0.832031 4.93742 0.832031 9.99992C0.832031 15.0624 4.9362 19.1666 9.9987 19.1666C15.0612 19.1666 19.1654 15.0624 19.1654 9.99992C19.1654 4.93742 15.0612 0.833252 9.9987 0.833252ZM10.832 13.3333C10.832 13.5543 10.7442 13.7662 10.588 13.9225C10.4317 14.0788 10.2197 14.1666 9.9987 14.1666C9.77768 14.1666 9.56572 14.0788 9.40944 13.9225C9.25316 13.7662 9.16536 13.5543 9.16536 13.3333V10.8333H6.66536C6.44435 10.8333 6.23239 10.7455 6.07611 10.5892C5.91983 10.4329 5.83203 10.2209 5.83203 9.99992C5.83203 9.7789 5.91983 9.56694 6.07611 9.41066C6.23239 9.25438 6.44435 9.16658 6.66536 9.16658H9.16536V6.66658C9.16536 6.44557 9.25316 6.23361 9.40944 6.07733C9.56572 5.92105 9.77768 5.83325 9.9987 5.83325C10.2197 5.83325 10.4317 5.92105 10.588 6.07733C10.7442 6.23361 10.832 6.44557 10.832 6.66658V9.16658H13.332C13.553 9.16658 13.765 9.25438 13.9213 9.41066C14.0776 9.56694 14.1654 9.7789 14.1654 9.99992C14.1654 10.2209 14.0776 10.4329 13.9213 10.5892C13.765 10.7455 13.553 10.8333 13.332 10.8333H10.832V13.3333Z"
          fill="currentColor"/>
</svg>
