<svg width="21" height="20" viewBox="0 0 21 20" fill="none" xmlns="http://www.w3.org/2000/svg">
<g clip-path="url(#clip0_508_5989)">
<path d="M10.0043 6.66512C8.16677 6.66512 6.66725 8.16361 6.66725 9.99981C6.66725 11.836 8.16677 13.3345 10.0043 13.3345C11.8417 13.3345 13.3413 11.836 13.3413 9.99981C13.3413 8.16361 11.8417 6.66512 10.0043 6.66512ZM20.0128 9.99981C20.0128 8.61891 20.0253 7.25051 19.9477 5.8721C19.8701 4.27105 19.5046 2.85012 18.333 1.67935C17.1589 0.506076 15.7395 0.143338 14.1373 0.0657868C12.7555 -0.0117642 11.3861 0.000744099 10.0068 0.000744099C8.62489 0.000744099 7.25554 -0.0117642 5.87618 0.0657868C4.27402 0.143338 2.8521 0.508578 1.68051 1.67935C0.506427 2.85262 0.143437 4.27105 0.0658325 5.8721C-0.0117723 7.25301 0.000744616 8.62141 0.000744616 9.99981C0.000744616 11.3782 -0.0117723 12.7491 0.0658325 14.1275C0.143437 15.7286 0.508931 17.1495 1.68051 18.3203C2.8546 19.4935 4.27402 19.8563 5.87618 19.9338C7.25805 20.0114 8.62739 19.9989 10.0068 19.9989C11.3886 19.9989 12.758 20.0114 14.1373 19.9338C15.7395 19.8563 17.1614 19.491 18.333 18.3203C19.5071 17.147 19.8701 15.7286 19.9477 14.1275C20.0278 12.7491 20.0128 11.3807 20.0128 9.99981ZM10.0043 15.1307C7.16292 15.1307 4.86982 12.8392 4.86982 9.99981C4.86982 7.16045 7.16292 4.86894 10.0043 4.86894C12.8456 4.86894 15.1387 7.16045 15.1387 9.99981C15.1387 12.8392 12.8456 15.1307 10.0043 15.1307ZM15.349 5.85709C14.6856 5.85709 14.1499 5.32174 14.1499 4.6588C14.1499 3.99587 14.6856 3.46052 15.349 3.46052C16.0124 3.46052 16.5481 3.99587 16.5481 4.6588C16.5483 4.81622 16.5174 4.97213 16.4572 5.1176C16.397 5.26307 16.3087 5.39525 16.1973 5.50656C16.0859 5.61787 15.9537 5.70613 15.8081 5.76628C15.6625 5.82643 15.5065 5.85729 15.349 5.85709Z" fill="#E1EBF5"/>
</g>
<defs>
<clipPath id="clip0_508_5989">
<rect width="20.0139" height="20" fill="white"/>
</clipPath>
</defs>
</svg>
