<svg width="22" height="22" viewBox="0 0 22 22" fill="none" xmlns="http://www.w3.org/2000/svg">
<path d="M0.00390625 2.44444V19.5556C0.00390625 20.2039 0.261445 20.8256 0.719867 21.284C1.17829 21.7425 1.80004 22 2.44835 22H19.5595C20.9039 22 22.0039 20.9 22.0039 19.5556V2.44444C22.0039 1.1 20.9039 0 19.5595 0H2.44835C1.80004 0 1.17829 0.257539 0.719867 0.715961C0.261445 1.17438 0.00390625 1.79614 0.00390625 2.44444ZM14.6706 7.33333C14.6706 9.36222 13.0328 11 11.0039 11C8.97502 11 7.33724 9.36222 7.33724 7.33333C7.33724 5.30444 8.97502 3.66667 11.0039 3.66667C13.0328 3.66667 14.6706 5.30444 14.6706 7.33333ZM3.67057 17.1111C3.67057 14.6667 8.55946 13.3222 11.0039 13.3222C13.4484 13.3222 18.3372 14.6667 18.3372 17.1111V18.3333H3.67057V17.1111Z" fill="#C3C3C3" fill-opacity="0.5"/>
</svg>
