<svg width="61" height="40" viewBox="0 0 61 40" fill="none" xmlns="http://www.w3.org/2000/svg">
<g clip-path="url(#clip0_461_6464)">
<path d="M60.9573 0H0V2.19385H60.9573V0Z" fill="#767F9C"/>
<path d="M60.9573 37.7507H0V40H60.9573V37.7507Z" fill="#767F9C"/>
<path d="M57.883 13.637C57.883 12.3447 57.5627 11.3293 56.9314 10.6186C56.297 9.90165 55.4155 9.53857 54.3175 9.53857C53.5855 9.53857 52.9267 9.71704 52.3533 10.0709C51.7799 10.4247 51.3316 10.9355 51.0174 11.5909C50.7094 12.237 50.5508 12.9817 50.5508 13.8001V14.0063C50.5508 15.234 50.9259 16.2309 51.664 16.9724C52.4021 17.714 53.372 18.0893 54.5432 18.0893C55.2051 18.0893 55.8212 17.957 56.3671 17.6955C56.9192 17.434 57.3614 17.0617 57.6878 16.5909L57.7549 16.4924L56.5379 15.0924L56.4251 15.2432C56.0042 15.8001 55.4338 16.0709 54.6805 16.0709C54.2016 16.0709 53.8173 15.9293 53.5062 15.6401C53.2378 15.3878 53.0579 15.0586 52.9786 14.6586H57.8799V13.637H57.883ZM54.3114 11.557C54.711 11.557 55.0038 11.6678 55.2142 11.8955C55.4247 12.1232 55.5375 12.4586 55.5467 12.8863V12.9017H53.003C53.0792 12.4893 53.2226 12.1632 53.4269 11.9324C53.6526 11.6801 53.9424 11.557 54.3114 11.557Z" fill="#767F9C"/>
<path d="M50.3527 25.5386C49.6207 25.5386 48.9619 25.717 48.3885 26.0709C47.8151 26.4247 47.3667 26.9355 47.0526 27.5909C46.7445 28.237 46.5859 28.9817 46.5859 29.8001V30.0063C46.5859 31.234 46.9611 32.2309 47.6992 32.9724C48.4373 33.714 49.4072 34.0893 50.5784 34.0893C51.2402 34.0893 51.8563 33.957 52.4023 33.6955C52.9543 33.434 53.3966 33.0617 53.7229 32.5909L53.79 32.4924L52.5731 31.0924L52.4602 31.2432C52.0393 31.8001 51.469 32.0709 50.7156 32.0709C50.2368 32.0709 49.8525 31.9293 49.5414 31.6401C49.273 31.3878 49.093 31.0586 49.0137 30.6586H53.9151V29.637C53.9151 28.3447 53.5948 27.3293 52.9635 26.6186C52.3321 25.9017 51.4507 25.5386 50.3527 25.5386ZM50.3466 27.557C50.7461 27.557 51.0389 27.6678 51.2494 27.8955C51.4598 28.1232 51.5727 28.4586 51.5818 28.8863V28.9017H49.0381C49.1144 28.4893 49.2577 28.1632 49.4621 27.9324C49.6878 27.6801 49.9775 27.557 50.3466 27.557Z" fill="#767F9C"/>
<path d="M19.9376 16.4893L18.7207 15.0893L18.6078 15.2401C18.1869 15.797 17.6166 16.0678 16.8632 16.0678C16.3844 16.0678 16.0001 15.9263 15.689 15.637C15.4206 15.3847 15.2406 15.0555 15.1613 14.6555H20.0627V13.634C20.0627 12.3417 19.7424 11.3263 19.1111 10.6155C18.4767 9.90165 17.5952 9.53857 16.4972 9.53857C15.7652 9.53857 15.1064 9.71704 14.533 10.0709C13.9596 10.4247 13.5113 10.9355 13.1971 11.5909C12.8891 12.237 12.7305 12.9817 12.7305 13.8001V14.0063C12.7305 15.234 13.1056 16.2309 13.8437 16.9724C14.5818 17.714 15.5517 18.0893 16.7229 18.0893C17.3848 18.0893 18.0009 17.957 18.5468 17.6955C19.0989 17.434 19.5411 17.0617 19.8675 16.5909L19.9376 16.4893ZM17.7264 12.9017H15.1827C15.2589 12.4893 15.4023 12.1632 15.6066 11.9324C15.8323 11.677 16.1221 11.554 16.4911 11.554C16.8907 11.554 17.1835 11.6647 17.3939 11.8924C17.6044 12.1201 17.7172 12.4555 17.7264 12.8832V12.9017Z" fill="#767F9C"/>
<path d="M33.379 17.6153C34.0592 17.9476 34.782 18.1168 35.5323 18.1168C36.7462 18.1168 37.771 17.7107 38.5732 16.9076C39.3753 16.1045 39.784 15.0799 39.784 13.8645C39.784 12.6584 39.3814 11.643 38.5854 10.8491C37.7893 10.0553 36.7584 9.65527 35.5201 9.65527C34.721 9.65527 33.9829 9.83066 33.3333 10.1814C32.6775 10.5322 32.1651 11.046 31.8052 11.7137C31.4514 12.3753 31.2715 13.0707 31.2715 13.7784C31.2715 14.6953 31.4514 15.4891 31.8083 16.1353C32.1621 16.7814 32.6928 17.2799 33.379 17.6153ZM33.7298 13.886C33.7298 13.1568 33.9067 12.5937 34.2513 12.2122C34.599 11.8307 35.0169 11.646 35.5262 11.646C36.0356 11.646 36.4504 11.8307 36.795 12.2122C37.1397 12.5937 37.3135 13.1507 37.3135 13.8707C37.3135 14.6122 37.1397 15.1784 36.795 15.5599C36.4504 15.9414 36.0356 16.126 35.5262 16.126C35.0169 16.126 34.599 15.9414 34.2513 15.5599C33.9036 15.1784 33.7298 14.6153 33.7298 13.886Z" fill="#767F9C"/>
<path d="M44.2836 18.1168C44.7533 18.1168 45.2261 18.003 45.6866 17.7753C46.0282 17.606 46.3424 17.3691 46.6169 17.0707V17.9414H48.8769V6.8645H46.4674V10.523C45.8483 9.94758 45.1224 9.65527 44.3141 9.65527C43.3046 9.65527 42.4597 10.0183 41.7979 10.7353C41.1391 11.4491 40.8066 12.4983 40.8066 13.8553C40.8066 15.1814 41.1482 16.2337 41.8223 16.9814C42.5024 17.7353 43.329 18.1168 44.2836 18.1168ZM43.2588 13.7168C43.2588 12.9845 43.4174 12.4307 43.7255 12.0737C44.0366 11.7168 44.4087 11.5414 44.8662 11.5414C45.3359 11.5414 45.7141 11.7168 46.016 12.0768C46.321 12.4399 46.4735 13.0584 46.4735 13.9137C46.4735 14.6768 46.3149 15.2522 46.0008 15.6245C45.6897 15.9968 45.3237 16.1753 44.8814 16.1753C44.3233 16.1753 43.8993 15.9353 43.5882 15.4399C43.3717 15.0953 43.2588 14.5137 43.2588 13.7168Z" fill="#767F9C"/>
<path d="M6.09146 30.037L4.21571 23.2493H0.628906V34.1262H2.99266V26.84L4.89586 34.1262H7.26571L9.17501 26.837V34.1262H11.5388V23.2493H7.94586L6.09146 30.037Z" fill="#767F9C"/>
<path d="M29.235 26.9046C29.0215 26.6369 28.7073 26.4123 28.3017 26.243C27.8991 26.0738 27.4507 25.9907 26.9688 25.9907C26.005 25.9907 25.1754 26.3415 24.4983 27.0369V26.163H22.2383V34.1261H24.6478V30.5046C24.6478 29.6707 24.6996 29.0953 24.8003 28.7969C24.8979 28.5107 25.0717 28.2861 25.334 28.1107C25.5963 27.9353 25.8983 27.8492 26.2307 27.8492C26.4839 27.8492 26.7004 27.9076 26.8773 28.0246C27.0542 28.1415 27.1762 28.3015 27.2555 28.5169C27.3135 28.6707 27.3806 29.0646 27.3806 30.0676V34.1292H29.7901V29.2123C29.7901 28.6123 29.7504 28.1415 29.6681 27.8123C29.5949 27.4769 29.4454 27.1723 29.235 26.9046Z" fill="#767F9C"/>
<path d="M38.0547 29.9509C37.588 29.5755 36.7981 29.2709 35.6452 29.0186C34.2788 28.7201 33.8518 28.557 33.7359 28.4739C33.6047 28.3786 33.5895 28.2893 33.5895 28.2309C33.5895 28.157 33.6078 28.0493 33.7572 27.9509C33.9707 27.8186 34.3459 27.7509 34.8674 27.7509C35.2731 27.7509 35.5872 27.8216 35.7977 27.9632C36.0051 28.1016 36.1423 28.2986 36.2186 28.5632L36.2552 28.6955L38.5427 28.2893L38.4939 28.1232C38.2834 27.4216 37.8961 26.8832 37.3379 26.5232C36.7859 26.1663 35.941 25.9878 34.8278 25.9878C33.6535 25.9878 32.769 26.2278 32.1987 26.7016C31.6192 27.1816 31.3264 27.7847 31.3264 28.4924C31.3264 29.2801 31.668 29.9016 32.339 30.3447C32.8148 30.6555 33.8853 30.9847 35.6177 31.3539C36.06 31.4524 36.2033 31.5416 36.246 31.5786C36.3162 31.6493 36.3528 31.7386 36.3528 31.8524C36.3528 32.0309 36.2857 32.1632 36.1423 32.2678C35.8953 32.4401 35.511 32.5293 35.0016 32.5293C34.5441 32.5293 34.1842 32.437 33.9402 32.2524C33.6932 32.0678 33.5346 31.8032 33.4522 31.4432L33.4217 31.3047L31 31.6586L31.0458 31.8247C31.2501 32.5847 31.6862 33.1939 32.3481 33.637C33.0008 34.0739 33.8975 34.2986 35.0047 34.2986C36.2277 34.2986 37.1702 34.0309 37.8046 33.5078C38.4481 32.9755 38.7745 32.3263 38.7745 31.5786C38.7714 30.8893 38.5305 30.3416 38.0547 29.9509Z" fill="#767F9C"/>
<path d="M42.9844 24.4153L40.6694 24.5814V25.9876H39.3457V27.363H40.6694V31.8091C40.6694 32.5999 40.9714 33.2214 41.5692 33.6553C42.1639 34.0861 42.9691 34.3076 43.9634 34.3076C44.4118 34.3076 44.9486 34.2461 45.5525 34.123L45.7019 34.0922V32.7999L45.461 32.8399C45.1133 32.8984 44.8174 32.9291 44.5795 32.9291C44.0153 32.9291 43.6066 32.8245 43.3626 32.6214C43.1125 32.4153 42.9874 32.0522 42.9874 31.5476V27.363H45.7507V25.9876H42.9844V24.4153Z" fill="#767F9C"/>
<path d="M59.1693 25.9878C58.8033 25.9878 58.4708 26.077 58.1811 26.2555C57.9706 26.3847 57.751 26.6032 57.5101 26.917V26.1601H55.25V34.1232H57.6595V31.6063C57.6595 30.3232 57.7175 29.4739 57.8303 29.0832C57.9371 28.7078 58.0804 28.4524 58.2604 28.317C58.6264 28.037 59.1815 28.0216 59.825 28.4216L59.9836 28.5201L60.7461 26.4555L60.6333 26.3909C60.1636 26.1232 59.6725 25.9878 59.1693 25.9878Z" fill="#767F9C"/>
<path d="M5.35604 14.5815H7.17689L9.36679 17.8922H12.0752L9.57114 14.0953C10.111 13.8492 10.5532 13.4738 10.8826 12.9784C11.2456 12.4307 11.4286 11.8153 11.4286 11.1476C11.4286 10.7292 11.3371 10.3076 11.1602 9.89531C10.9833 9.48608 10.7332 9.11377 10.419 8.79377C10.1049 8.47069 9.72669 8.20608 9.29359 8.00916C8.85744 7.81223 8.37554 7.71069 7.86314 7.71069H2.96484V17.8922H5.35604V14.5815ZM5.35604 9.69839H7.72589C7.88449 9.69839 8.04309 9.73223 8.20169 9.803C8.36029 9.87377 8.50059 9.97531 8.62259 10.1015C8.74459 10.2307 8.84524 10.3845 8.91844 10.563C8.99164 10.7384 9.02824 10.9322 9.02824 11.1445C9.02824 11.3476 8.99469 11.5415 8.93064 11.7168C8.86659 11.8953 8.77814 12.0492 8.67139 12.1784C8.56464 12.3045 8.43654 12.4061 8.29014 12.4799C8.14679 12.5538 7.98819 12.5876 7.82044 12.5876H5.35909V9.69839H5.35604Z" fill="#767F9C"/>
<path d="M30.3563 16.6214C30.6888 16.326 30.948 15.9784 31.128 15.5907L31.189 15.4584L29.2095 14.4091L29.1424 14.5568C29.0296 14.806 28.8801 15.0214 28.6941 15.1968C28.505 15.3753 28.2945 15.523 28.0719 15.6368C27.8492 15.7507 27.6083 15.8337 27.3612 15.8891C26.6323 16.043 25.9826 15.9722 25.4245 15.7045C25.0554 15.5291 24.7382 15.2922 24.4729 15.003C24.2106 14.7137 24.0032 14.3722 23.8598 13.9876C23.7165 13.603 23.6433 13.1968 23.6433 12.7845C23.6433 12.4122 23.7073 12.0337 23.8324 11.6584C23.9574 11.286 24.1435 10.9445 24.3875 10.6522C24.6284 10.3599 24.9395 10.1168 25.3055 9.9322C25.8393 9.6645 26.5499 9.57527 27.3155 9.72912C27.5534 9.77835 27.7852 9.85527 28.0048 9.95989C28.2213 10.0645 28.4257 10.206 28.6148 10.3845C28.8008 10.563 28.9655 10.7845 29.0967 11.046L29.1729 11.1968L31.0395 10.0153L30.9694 9.88912C30.6034 9.22758 30.0422 8.68297 29.301 8.27066C28.5599 7.86143 27.6754 7.65527 26.6658 7.65527C25.8118 7.65527 25.0402 7.80604 24.3692 8.09835C23.6982 8.39374 23.1248 8.78143 22.6581 9.25835C22.1915 9.73527 21.8316 10.283 21.5906 10.886C21.3466 11.4891 21.2246 12.1107 21.2246 12.7322C21.2246 13.3814 21.3588 14.0245 21.6211 14.6491C21.8834 15.2707 22.2555 15.8337 22.7252 16.323C23.1949 16.8122 23.7622 17.2153 24.4088 17.5168C25.0615 17.8214 25.7874 17.9753 26.5743 17.9753C27.0166 17.9753 27.4741 17.923 27.9377 17.8184C28.3982 17.7137 28.8405 17.5599 29.2492 17.363C29.6579 17.163 30.03 16.9137 30.3563 16.6214Z" fill="#767F9C"/>
<path d="M16.942 25.7046C16.1429 25.7046 15.4048 25.88 14.7552 26.2307C14.0994 26.5815 13.587 27.0954 13.2271 27.7631C12.8733 28.4246 12.6934 29.12 12.6934 29.8277C12.6934 30.7446 12.8733 31.5384 13.2302 32.1846C13.5901 32.8338 14.1177 33.3354 14.807 33.6707C15.4872 34.0031 16.21 34.1723 16.9603 34.1723C18.1742 34.1723 19.199 33.7661 20.0012 32.9631C20.8033 32.16 21.212 31.1354 21.212 29.92C21.212 28.7138 20.8094 27.6984 20.0134 26.9046C19.2143 26.1077 18.1803 25.7046 16.942 25.7046ZM18.7385 29.9231C18.7385 30.6646 18.5646 31.2307 18.22 31.6123C17.8753 31.9938 17.4605 32.1784 16.9512 32.1784C16.4418 32.1784 16.024 31.9938 15.6763 31.6123C15.3316 31.2307 15.1547 30.6677 15.1547 29.9384C15.1547 29.2092 15.3316 28.6461 15.6763 28.2646C16.024 27.8831 16.4418 27.6984 16.9512 27.6984C17.4605 27.6984 17.8753 27.8831 18.22 28.2646C18.5616 28.6431 18.7385 29.2 18.7385 29.9231Z" fill="#767F9C"/>
</g>
<defs>
<clipPath id="clip0_461_6464">
<rect width="61" height="40" fill="white"/>
</clipPath>
</defs>
</svg>
