<svg width="112" height="109" viewBox="0 0 112 109" fill="none" xmlns="http://www.w3.org/2000/svg">
<g opacity="0.5">
<path d="M104.511 82.9146L98.4194 65.2105C101.356 59.2162 102.908 52.5497 102.918 45.8421C102.936 34.179 98.4173 23.1512 90.1938 14.7905C81.9686 6.42807 71.0081 1.72072 59.331 1.536C47.2226 1.34493 35.8414 5.94406 27.2849 14.4881C19.0343 22.7267 14.4581 33.588 14.3133 45.1944C6.18152 51.3082 1.38182 60.8401 1.39759 71.0213C1.40517 75.7858 2.47906 80.5217 4.51394 84.8044L0.317766 96.9984C-0.403551 99.0946 0.123353 101.371 1.693 102.938C2.79761 104.041 4.25398 104.629 5.75172 104.629C6.38187 104.629 7.0194 104.525 7.64115 104.311L19.8527 100.121C24.1415 102.153 28.8843 103.225 33.6555 103.233C33.6727 103.233 33.6891 103.233 33.7063 103.233C44.0539 103.233 53.6721 98.3162 59.7723 89.997C66.1203 89.8301 72.4012 88.2956 78.0793 85.5218L95.8088 91.6053C96.5476 91.8588 97.3051 91.9823 98.0539 91.9823C99.8337 91.9823 101.564 91.2843 102.877 89.9731C104.742 88.1105 105.368 85.4058 104.511 82.9146ZM33.7059 96.9986C33.6926 96.9986 33.6784 96.9986 33.6651 96.9986C29.4421 96.9923 25.2484 95.9526 21.5381 93.9924C20.7752 93.5896 19.8796 93.5199 19.0638 93.7997L6.54207 98.0963L10.8448 85.5926C11.125 84.7778 11.0554 83.8834 10.6518 83.1218C8.68882 79.4167 7.64771 75.2291 7.64115 71.0119C7.63071 64.2286 10.2732 57.7992 14.8943 52.9848C16.4037 62.1733 20.7892 70.6404 27.5869 77.3077C34.3344 83.9258 42.8161 88.1395 51.9677 89.5171C47.1354 94.2731 40.6216 96.9986 33.7059 96.9986ZM98.4622 85.5646C98.2846 85.7419 98.074 85.7902 97.8372 85.7088L78.8572 79.1961C78.5275 79.083 78.1846 79.0269 77.8429 79.0269C77.3391 79.0269 76.8372 79.1487 76.383 79.3888C70.9638 82.2516 64.8401 83.7699 58.6734 83.7793C58.6531 83.7793 58.6347 83.7793 58.6144 83.7793C37.9514 83.7793 20.8838 67.0181 20.5564 46.3895C20.3915 36.0004 24.349 26.2365 31.6997 18.8964C39.0503 11.5562 48.8298 7.60578 59.2322 7.76944C79.9101 8.09695 96.7067 25.1718 96.6748 45.8323C96.6652 51.9902 95.1449 58.1054 92.2782 63.5165C91.8747 64.2781 91.805 65.1725 92.0853 65.9873L98.607 84.9402C98.6884 85.1775 98.6396 85.3876 98.4622 85.5646Z" fill="#EFF5FB"/>
<path d="M77.2109 29.25H40.0162C38.2921 29.25 36.8945 30.6458 36.8945 32.3672C36.8945 34.0889 38.2923 35.4845 40.0162 35.4845H77.2109C78.935 35.4845 80.3325 34.0887 80.3325 32.3672C80.3325 30.6458 78.935 29.25 77.2109 29.25Z" fill="#EFF5FB"/>
<path d="M77.2109 42.0703H40.0162C38.2921 42.0703 36.8945 43.4661 36.8945 45.1875C36.8945 46.909 38.2923 48.3048 40.0162 48.3048H77.2109C78.935 48.3048 80.3325 46.909 80.3325 45.1875C80.3325 43.4661 78.935 42.0703 77.2109 42.0703Z" fill="#EFF5FB"/>
<path d="M62.8932 54.8906H40.0157C38.2916 54.8906 36.894 56.2864 36.894 58.0079C36.894 59.7295 38.2918 61.1251 40.0157 61.1251H62.893C64.6171 61.1251 66.0147 59.7293 66.0147 58.0079C66.0147 56.2864 64.6173 54.8906 62.8932 54.8906Z" fill="#EFF5FB"/>
</g>
</svg>
