<svg width="20" height="21" viewBox="0 0 20 21" fill="none" xmlns="http://www.w3.org/2000/svg">
<g clip-path="url(#clip0_4_72074)">
<path d="M14.7567 15.5825C14.5883 15.7092 14.39 15.7725 14.1617 15.7725C13.96 15.7725 13.7692 15.7092 13.5883 15.5825C13.4067 15.4558 13.3158 15.2717 13.3158 15.0325V8.52167H13.2967L10.81 13.5692C10.7354 13.7314 10.6258 13.8751 10.4892 13.99C10.3683 14.0833 10.2083 14.13 10.0075 14.13C9.8075 14.13 9.64667 14.0833 9.52667 13.99C9.38978 13.8753 9.28018 13.7315 9.20583 13.5692L6.71917 8.5225H6.7V15.0317C6.70482 15.14 6.68129 15.2477 6.63175 15.3442C6.58221 15.4406 6.50836 15.5225 6.4175 15.5817C6.24711 15.7034 6.04354 15.77 5.83417 15.7725C5.605 15.7725 5.41083 15.7092 5.24917 15.5825C5.08833 15.4558 5.0075 15.2717 5.0075 15.0325V6.29833C5.0075 6.045 5.0875 5.8075 5.24917 5.5875C5.40917 5.3675 5.69667 5.2575 6.1125 5.2575C6.42083 5.2575 6.65833 5.3275 6.82583 5.4675C6.9925 5.60833 7.1425 5.81833 7.2775 6.09833L10.0083 11.7267H10.0283L12.7392 6.09833C12.8725 5.81833 13.0242 5.60833 13.1917 5.4675C13.3583 5.3275 13.5958 5.2575 13.9042 5.2575C14.3192 5.2575 14.6075 5.3675 14.7675 5.5875C14.9283 5.80833 15.0092 6.04583 15.0092 6.29917V15.0308C15.0092 15.2708 14.925 15.455 14.7575 15.5808L14.7567 15.5825ZM9.98 19.0458C14.695 19.0458 18.5458 15.1792 18.5458 10.44C18.5458 5.75667 14.71 1.95417 9.98 1.95417C5.25167 1.95417 1.455 5.73417 1.455 10.44C1.455 15.0983 5.38417 19.0458 9.98 19.0458ZM9.98 20.5C4.57917 20.5 0 15.9 0 10.44C0 4.92917 4.45 0.5 9.98 0.5C15.5108 0.5 20 4.95 20 10.44C20 15.9808 15.5 20.5 9.98 20.5Z" fill="#1E3577" fill-opacity="0.5"/>
</g>
<defs>
<clipPath id="clip0_4_72074">
<rect width="20" height="20" fill="white" transform="translate(0 0.5)"/>
</clipPath>
</defs>
</svg>
