<svg width="70" height="103" viewBox="0 0 70 103" fill="none" xmlns="http://www.w3.org/2000/svg">
<path d="M66.424 29.416C66.424 33.064 65.704 36.568 64.264 39.928C62.824 43.288 60.952 46.552 58.648 49.72C56.344 52.792 53.752 55.768 50.872 58.648C47.992 61.528 45.16 64.264 42.376 66.856C40.936 68.2 39.352 69.736 37.624 71.464C35.992 73.096 34.408 74.776 32.872 76.504C31.336 78.232 29.944 79.864 28.696 81.4C27.544 82.84 26.824 84.04 26.536 85H69.448V103H2.92C2.728 101.944 2.632 100.6 2.632 98.968C2.632 97.336 2.632 96.184 2.632 95.512C2.632 90.904 3.352 86.68 4.792 82.84C6.328 79 8.296 75.448 10.696 72.184C13.096 68.824 15.784 65.704 18.76 62.824C21.832 59.944 24.856 57.064 27.832 54.184C30.136 51.976 32.296 49.912 34.312 47.992C36.328 45.976 38.104 44.056 39.64 42.232C41.176 40.312 42.376 38.44 43.24 36.616C44.104 34.696 44.536 32.776 44.536 30.856C44.536 26.632 43.336 23.656 40.936 21.928C38.536 20.2 35.56 19.336 32.008 19.336C29.416 19.336 26.968 19.768 24.664 20.632C22.456 21.4 20.392 22.36 18.472 23.512C16.648 24.568 15.064 25.672 13.72 26.824C12.376 27.88 11.368 28.744 10.696 29.416L0.04 14.44C4.264 10.504 9.16 7.288 14.728 4.79199C20.392 2.19999 26.44 0.903993 32.872 0.903993C38.728 0.903993 43.768 1.57599 47.992 2.91999C52.216 4.26399 55.672 6.18399 58.36 8.68C61.144 11.08 63.16 14.056 64.408 17.608C65.752 21.064 66.424 25 66.424 29.416Z" fill="#2C4CA3"/>
</svg>
