<svg width="70" height="106" viewBox="0 0 70 106" fill="none" xmlns="http://www.w3.org/2000/svg">
<path d="M29.832 105.16C27.24 105.16 24.504 104.968 21.624 104.584C18.744 104.296 15.96 103.864 13.272 103.288C10.584 102.712 8.136 102.088 5.928 101.416C3.72 100.744 1.992 100.12 0.744 99.544L4.92 81.688C7.416 82.744 10.584 83.896 14.424 85.144C18.36 86.296 23.208 86.872 28.968 86.872C35.592 86.872 40.44 85.624 43.512 83.128C46.584 80.632 48.12 77.272 48.12 73.048C48.12 70.456 47.544 68.296 46.392 66.568C45.336 64.744 43.848 63.304 41.928 62.248C40.008 61.096 37.704 60.328 35.016 59.944C32.424 59.464 29.64 59.224 26.664 59.224H18.312V41.944H27.816C29.928 41.944 31.944 41.752 33.864 41.368C35.88 40.984 37.656 40.36 39.192 39.496C40.728 38.536 41.928 37.288 42.792 35.752C43.752 34.12 44.232 32.104 44.232 29.704C44.232 27.88 43.848 26.296 43.08 24.952C42.312 23.608 41.304 22.504 40.056 21.64C38.904 20.776 37.512 20.152 35.88 19.768C34.344 19.288 32.76 19.048 31.128 19.048C27 19.048 23.16 19.672 19.608 20.92C16.152 22.168 12.984 23.704 10.104 25.528L2.472 9.832C4.008 8.872 5.784 7.864 7.8 6.80799C9.912 5.752 12.216 4.792 14.712 3.928C17.208 3.064 19.848 2.344 22.632 1.768C25.512 1.19199 28.536 0.903993 31.704 0.903993C37.56 0.903993 42.6 1.62399 46.824 3.064C51.144 4.408 54.696 6.376 57.48 8.96799C60.264 11.464 62.328 14.44 63.672 17.896C65.016 21.256 65.688 24.952 65.688 28.984C65.688 32.92 64.584 36.76 62.376 40.504C60.168 44.152 57.192 46.936 53.448 48.856C58.632 50.968 62.616 54.136 65.4 58.36C68.28 62.488 69.72 67.48 69.72 73.336C69.72 77.944 68.952 82.216 67.416 86.152C65.88 89.992 63.48 93.352 60.216 96.232C56.952 99.016 52.776 101.224 47.688 102.856C42.696 104.392 36.744 105.16 29.832 105.16Z" fill="#2C4CA3"/>
</svg>
