<svg width="20" height="20" viewBox="0 0 20 20" fill="none" xmlns="http://www.w3.org/2000/svg">
<g clip-path="url(#clip0_698_11308)">
<path d="M7.98079 5.25724e-07C6.7317 0.000668161 5.50018 0.294365 4.38522 0.857485C3.27026 1.4206 2.30296 2.23744 1.56106 3.24234C0.819158 4.24724 0.323356 5.41218 0.113501 6.64352C-0.096355 7.87486 -0.014411 9.13826 0.352747 10.3322C0.719904 11.5261 1.36203 12.6172 2.22753 13.5179C3.09302 14.4185 4.15773 15.1036 5.33609 15.5179C6.51446 15.9323 7.7736 16.0645 9.01231 15.9038C10.251 15.7431 11.4348 15.294 12.4684 14.5927L17.4032 19.5235C17.5402 19.6706 17.7055 19.7886 17.8892 19.8704C18.0728 19.9522 18.2711 19.9962 18.4721 19.9998C18.6731 20.0033 18.8728 19.9663 19.0593 19.891C19.2457 19.8157 19.415 19.7036 19.5572 19.5615C19.6994 19.4193 19.8115 19.25 19.8868 19.0635C19.9621 18.8771 19.999 18.6774 19.9955 18.4764C19.992 18.2754 19.9479 18.0771 19.8661 17.8934C19.7843 17.7098 19.6663 17.5445 19.5192 17.4074L14.5884 12.4727C15.4042 11.2721 15.8772 9.87184 15.9568 8.42251C16.0363 6.97319 15.7192 5.52961 15.0397 4.24698C14.3602 2.96435 13.344 1.89119 12.1002 1.14289C10.8565 0.3946 9.4323 -0.000526098 7.98079 5.25724e-07ZM2.99013 7.98506C2.99013 6.66145 3.51593 5.39206 4.45186 4.45613C5.38779 3.5202 6.65719 2.9944 7.98079 2.9944C9.3044 2.9944 10.5738 3.5202 11.5097 4.45613C12.4457 5.39206 12.9715 6.66145 12.9715 7.98506C12.9715 9.30867 12.4457 10.5781 11.5097 11.514C10.5738 12.4499 9.3044 12.9757 7.98079 12.9757C6.65719 12.9757 5.38779 12.4499 4.45186 11.514C3.51593 10.5781 2.99013 9.30867 2.99013 7.98506Z" fill="currentColor"/>
</g>
<defs>
<clipPath id="clip0_698_11308">
<rect width="20" height="20" fill="currentColor"/>
</clipPath>
</defs>
</svg>
