<svg width="24" height="24" viewBox="0 0 24 24" fill="none" xmlns="http://www.w3.org/2000/svg">
<path d="M9.57695 6.30869e-07C8.07804 0.000801793 6.60021 0.353238 5.26226 1.02898C3.92431 1.70473 2.76355 2.68493 1.87327 3.89081C0.98299 5.09669 0.388028 6.49462 0.136201 7.97223C-0.115626 9.44983 -0.0172932 10.9659 0.423296 12.3986C0.863885 13.8313 1.63444 15.1407 2.67303 16.2214C3.71162 17.3022 4.98928 18.1243 6.40331 18.6215C7.81735 19.1188 9.32831 19.2774 10.8148 19.0845C12.3012 18.8917 13.7217 18.3528 14.9621 17.5112L20.8838 23.4282C21.0483 23.6047 21.2466 23.7463 21.467 23.8445C21.6874 23.9427 21.9253 23.9955 22.1665 23.9997C22.4078 24.004 22.6474 23.9596 22.8711 23.8692C23.0948 23.7789 23.298 23.6444 23.4687 23.4738C23.6393 23.3032 23.7738 23.0999 23.8641 22.8762C23.9545 22.6525 23.9989 22.4129 23.9946 22.1717C23.9903 21.9304 23.9375 21.6925 23.8393 21.4721C23.7411 21.2517 23.5996 21.0534 23.423 20.8889L17.5061 14.9672C18.485 13.5265 19.0527 11.8462 19.1481 10.107C19.2435 8.36783 18.8631 6.63553 18.0477 5.09637C17.2323 3.55722 16.0128 2.26943 14.5203 1.37147C13.0278 0.473521 11.3188 -0.000631318 9.57695 6.30869e-07ZM3.58816 9.58207C3.58816 7.99375 4.21912 6.47047 5.34223 5.34736C6.46535 4.22424 7.98862 3.59328 9.57695 3.59328C11.1653 3.59328 12.6886 4.22424 13.8117 5.34736C14.9348 6.47047 15.5657 7.99375 15.5657 9.58207C15.5657 11.1704 14.9348 12.6937 13.8117 13.8168C12.6886 14.9399 11.1653 15.5709 9.57695 15.5709C7.98862 15.5709 6.46535 14.9399 5.34223 13.8168C4.21912 12.6937 3.58816 11.1704 3.58816 9.58207Z" fill="#374160"/>
</svg>
