<svg width="12" height="12" viewBox="0 0 12 12" fill="currentColor" xmlns="http://www.w3.org/2000/svg">
    <path id="star-i"
          d="M6.05698 1.21071C6.20411 0.822666 6.76089 0.822666 6.90847 1.21071L7.8602 3.84703C7.92686 4.02175 8.09652 4.13807 8.28594 4.13807H10.6248C11.057 4.13807 11.2455 4.676 10.9057 4.93945L9.24135 6.43692C9.16679 6.49423 9.11231 6.57369 9.08571 6.66389C9.05911 6.75409 9.06177 6.85039 9.0933 6.93899L9.70112 9.51508C9.84916 9.92887 9.37008 10.2843 9.00778 10.0296L6.74709 8.59508C6.66967 8.54067 6.57735 8.51147 6.48273 8.51147C6.3881 8.51147 6.29578 8.54067 6.21836 8.59508L3.95767 10.0296C3.59583 10.2843 3.11629 9.92841 3.26434 9.51508L3.87215 6.93899C3.90368 6.85039 3.90634 6.75409 3.87974 6.66389C3.85314 6.57369 3.79866 6.49423 3.72411 6.43692L2.05974 4.93945C1.71951 4.676 1.90893 4.13807 2.3402 4.13807H4.67905C4.77114 4.13838 4.86115 4.11071 4.93717 4.05875C5.01319 4.00678 5.07165 3.93295 5.1048 3.84703L6.05652 1.21071H6.05698Z"
          stroke="#EB9B24" stroke-width="1.3" stroke-linecap="round" stroke-linejoin="round"/>
</svg>