<svg width="24" height="24" viewBox="0 0 24 24" fill="none" xmlns="http://www.w3.org/2000/svg">
<path fill-rule="evenodd" clip-rule="evenodd" d="M15.9996 22.621L12.4786 15.826C12.4716 15.83 10.5046 16.796 10.4146 16.837C8.17462 17.923 3.61562 9.017 5.80562 7.843L7.88762 6.817L4.39562 0L2.28962 1.039C0.650617 1.894 -0.0233824 3.705 0.000617561 5.955C0.0756176 12.903 6.80962 24.026 12.3096 24C12.8506 23.997 13.3796 23.887 13.8896 23.654C14.0106 23.599 15.9916 22.625 15.9996 22.621ZM13.4996 9C14.3276 9 14.9996 9.672 14.9996 10.5C14.9996 11.328 14.3276 12 13.4996 12C12.6716 12 11.9996 11.328 11.9996 10.5C11.9996 9.672 12.6716 9 13.4996 9ZM22.4996 9C23.3276 9 23.9996 9.672 23.9996 10.5C23.9996 11.328 23.3276 12 22.4996 12C21.6716 12 20.9996 11.328 20.9996 10.5C20.9996 9.672 21.6716 9 22.4996 9ZM17.9996 9C18.8276 9 19.4996 9.672 19.4996 10.5C19.4996 11.328 18.8276 12 17.9996 12C17.1716 12 16.4996 11.328 16.4996 10.5C16.4996 9.672 17.1716 9 17.9996 9Z" fill="#2C4CA3"/>
</svg>
