<svg width="17" height="15" viewBox="0 0 17 15" fill="none" xmlns="http://www.w3.org/2000/svg">
<path d="M0.47978 7.29936L4.15826 8.67099L5.59223 13.2847C5.65458 13.5964 6.02866 13.6587 6.27805 13.4717L8.33549 11.7883C8.52253 11.6013 8.83427 11.6013 9.08366 11.7883L12.7621 14.4692C13.0115 14.6563 13.3856 14.5316 13.4479 14.2199L16.1912 1.12702C16.2535 0.815288 15.9418 0.503556 15.6301 0.62825L0.47978 6.48886C0.105698 6.61355 0.105698 7.17467 0.47978 7.29936ZM5.4052 7.98518L12.6374 3.55855C12.7621 3.4962 12.8868 3.68325 12.7621 3.74559L6.83917 9.29446C6.65213 9.4815 6.46508 9.73089 6.46508 10.0426L6.27805 11.5389C6.27805 11.726 5.96631 11.7883 5.90396 11.5389L5.15579 8.79569C4.96875 8.48395 5.09346 8.10987 5.4052 7.98518Z" fill="white"/>
</svg>
