<svg width="17" height="11" viewBox="0 0 17 11" fill="none" xmlns="http://www.w3.org/2000/svg">
<path d="M16.8448 9.09215C16.8448 9.02574 16.7784 9.02574 16.7784 8.95932C16.5127 8.42797 15.915 7.76379 15.1179 7.03319C14.7194 6.7011 14.5202 6.43542 14.3873 6.30259C14.1881 6.03691 14.1881 5.83766 14.2545 5.57199C14.3209 5.37274 14.5866 5.04064 15.0515 4.44287C15.3172 4.11078 15.45 3.91153 15.6493 3.71227C16.6455 2.38391 17.1105 1.52046 16.9776 1.12195L16.9112 1.05554C16.8448 0.989123 16.7784 0.922706 16.6455 0.922706C16.5127 0.856288 16.3135 0.856288 16.1142 0.922706H13.5903C13.5239 0.922706 13.5239 0.922706 13.3911 0.922706C13.3246 0.922706 13.2582 0.922706 13.2582 0.922706H13.1918H13.1254L13.059 0.989118C12.9925 1.05554 12.9925 1.05553 12.9925 1.12195C12.7269 1.85255 12.3948 2.45032 12.0627 3.1145C11.8634 3.4466 11.6642 3.77869 11.4649 4.04437C11.2657 4.31004 11.1328 4.50929 11 4.64213C10.8672 4.77496 10.7343 4.84138 10.6679 4.97422C10.6015 5.04064 10.4686 5.10706 10.4686 5.04064C10.4022 5.04064 10.3358 5.04064 10.3358 4.97422C10.2694 4.9078 10.203 4.84138 10.1366 4.77496C10.0701 4.70854 10.0701 4.57571 10.0037 4.44287C10.0037 4.31003 10.0037 4.1772 10.0037 4.11078C10.0037 4.04436 10.0037 3.84511 10.0037 3.71227C10.0037 3.51302 10.0037 3.38018 10.0037 3.31376C10.0037 3.11451 10.0037 2.84884 10.0037 2.58316C10.0037 2.31749 10.0037 2.11823 10.0037 1.98539C10.0037 1.85256 10.0037 1.6533 10.0037 1.52047C10.0037 1.32121 10.0037 1.18837 10.0037 1.12195C10.0037 1.05553 9.93731 0.922702 9.93731 0.856284C9.87089 0.789865 9.80446 0.723445 9.73804 0.657027C9.67163 0.590608 9.53879 0.59061 9.47237 0.524192C9.14028 0.457774 8.74178 0.391357 8.27685 0.391357C7.21416 0.391357 6.48355 0.457778 6.21788 0.590614C6.08504 0.657033 5.95221 0.723447 5.88579 0.856284C5.75295 0.98912 5.75295 1.05554 5.81937 1.05554C6.15146 1.12196 6.41713 1.25479 6.54997 1.45404L6.61639 1.58689C6.68281 1.65331 6.6828 1.78614 6.74922 1.98539C6.81564 2.18465 6.81564 2.3839 6.81564 2.64958C6.81564 3.04809 6.81564 3.4466 6.81564 3.71227C6.81564 4.04437 6.74922 4.24362 6.74922 4.44287C6.74922 4.64213 6.68281 4.77497 6.61639 4.84138C6.54997 4.97422 6.54997 5.04064 6.48355 5.04064C6.48355 5.04064 6.48354 5.10705 6.41713 5.10705C6.35071 5.10705 6.28429 5.17348 6.15146 5.17348C6.08504 5.17348 5.95221 5.10706 5.88579 5.04064C5.75295 4.97422 5.62011 4.84139 5.5537 4.70855C5.42086 4.57571 5.28802 4.37645 5.15518 4.11078C5.02235 3.84511 4.82308 3.57944 4.69025 3.18093L4.55742 2.91526C4.491 2.78242 4.35817 2.51674 4.22533 2.18465C4.09249 1.85256 3.95965 1.58689 3.82681 1.2548C3.7604 1.12196 3.69399 1.05554 3.62757 0.989118H3.56115C3.56115 0.989118 3.49472 0.922706 3.4283 0.922706C3.36188 0.922706 3.29547 0.856284 3.22905 0.856284H0.837989C0.572316 0.856284 0.439481 0.9227 0.373063 0.989118L0.306641 1.05554C0.306641 1.05554 0.306641 1.12196 0.306641 1.18838C0.306641 1.25479 0.306645 1.32121 0.373063 1.45404C0.705155 2.25107 1.10366 3.04809 1.50217 3.84511C1.90068 4.57571 2.2992 5.2399 2.56487 5.70482C2.89696 6.16975 3.16263 6.63468 3.49472 7.03319C3.82681 7.4317 4.02607 7.69737 4.09248 7.83021C4.22532 7.96305 4.29174 8.02946 4.35815 8.09588L4.55742 8.29514C4.69026 8.42797 4.88951 8.62723 5.15518 8.82648C5.42086 9.02574 5.75294 9.22499 6.08503 9.42425C6.41713 9.6235 6.81564 9.75635 7.21415 9.88918C7.67908 10.022 8.07759 10.0884 8.4761 10.022H9.47237C9.67163 10.022 9.80447 9.9556 9.93731 9.82276L10.0037 9.75634C10.0037 9.68992 10.0701 9.68992 10.0701 9.6235C10.0701 9.55709 10.0701 9.49067 10.0701 9.35783C10.0701 9.09216 10.0701 8.89291 10.1366 8.69365C10.203 8.4944 10.203 8.36156 10.2694 8.22872C10.3358 8.09589 10.4022 8.02946 10.4686 7.96304C10.5351 7.89663 10.6015 7.83021 10.6015 7.83021H10.6679C10.8007 7.76379 11 7.83021 11.1328 7.96304C11.3321 8.09588 11.5313 8.29514 11.6642 8.49439C11.797 8.69365 11.9963 8.8929 12.262 9.15858C12.5276 9.42425 12.7269 9.62351 12.8597 9.68993L13.059 9.82276C13.1918 9.88918 13.3246 9.9556 13.5239 10.022C13.7232 10.0884 13.856 10.0884 13.9888 10.0884L16.2471 10.022C16.4463 10.022 16.6456 9.9556 16.7784 9.88918C16.9112 9.82276 16.9776 9.75634 16.9776 9.6235C16.9776 9.55709 16.9776 9.42425 16.9776 9.35783C16.8448 9.225 16.8448 9.15857 16.8448 9.09215Z" fill="white"/>
</svg>
